<?xml version="1.0" encoding="UTF-8" standalone="no"?>
<!DOCTYPE svg PUBLIC "-//W3C//DTD SVG 1.1//EN" "http://www.w3.org/Graphics/SVG/1.1/DTD/svg11.dtd">
<svg width="100%" height="100%" viewBox="0 0 84 145" version="1.1" xmlns="http://www.w3.org/2000/svg" xmlns:xlink="http://www.w3.org/1999/xlink" xml:space="preserve" xmlns:serif="http://www.serif.com/" style="fill-rule:evenodd;clip-rule:evenodd;stroke-linejoin:round;stroke-miterlimit:2;">
    <g transform="matrix(1,0,0,1,-29373.2,-6812.01)">
        <g transform="matrix(0.0570146,0,0,0.0806349,29315,6784.4)">
            <g transform="matrix(17.5394,0,0,12.4016,-514534,-84159.5)">
                <path d="M29463.6,6816.11C29467,6812.94 29472.2,6813.05 29475.4,6816.38C29478.6,6819.7 29478.5,6824.98 29475.2,6828.16L29414.5,6886.2L29475,6944.24C29478.3,6947.42 29478.5,6952.7 29475.3,6956.02C29472.1,6959.34 29466.8,6959.45 29463.5,6956.27L29396.7,6892.21C29395.1,6890.64 29394.1,6888.46 29394.1,6886.19C29394.1,6883.92 29395.1,6881.75 29396.7,6880.18L29463.6,6816.11Z" style="fill:white;"/>
            </g>
        </g>
    </g>
</svg>
