<svg width="100" height="60" viewBox="0 0 1100 800" xmlns="http://www.w3.org/2000/svg">
    <path d="M1575.55,1121.56C1398.8,1252.26 1408.55,1364.15 1332.47,1480.59C1313.2,1510.08 1293.89,1544.4 1228.46,1551.81C1228.46,1551.81 1272.91,1563.01 1317.23,1527.72C1317.23,1527.72 1307.1,1552.7 1249.03,1583.8C1249.03,1583.8 1305.28,1574.18 1343.63,1535.87C1343.63,1535.87 1321.26,1571.04 1307.81,1591.01C1307.81,1591.01 1339.49,1586.04 1383.07,1517.03C1383.07,1517.03 1362.17,1575.71 1349.71,1593.7C1349.71,1593.7 1380.77,1583.79 1406.15,1552.26C1406.15,1552.26 1392.26,1584.05 1381.99,1595.05C1381.99,1595.05 1422.95,1588.35 1452.33,1535.87C1452.33,1535.87 1440.86,1563.11 1461.14,1555.17C1481.41,1547.24 1503.73,1515.95 1511.55,1487.17C1511.55,1487.17 1495.8,1530.38 1520.73,1517.19C1545.66,1504.01 1554.66,1484.44 1554.09,1470.86C1554.09,1470.86 1554.53,1487.57 1569.1,1480.25C1583.67,1472.93 1593.28,1457.62 1594.21,1432.92C1597.36,1443.1 1607.02,1452.15 1619.02,1434.31C1628.07,1420.84 1625.31,1403.49 1625.31,1403.49C1628.07,1413.5 1653.8,1412.52 1655.12,1375.71C1657.63,1383.96 1682.67,1385.6 1690.39,1356.28C1694.58,1361.04 1720.93,1361.04 1716.83,1336.74C1720.27,1341.9 1744.16,1336.42 1742,1315.19C1749.77,1320.2 1768.19,1314.13 1765.07,1292.03C1765.07,1292.03 1792.1,1292.9 1796.13,1266.11C1796.13,1266.11 1827.71,1271.92 1828.75,1240.16C1828.75,1240.16 1853.39,1249.04 1862.76,1217.23C1862.76,1217.23 1886.12,1220.76 1888.73,1195.26C1906.86,1198.9 1914.97,1189.33 1917.56,1175.09C1927.37,1172.28 1927.03,1157.56 1926.86,1157.46C1931.77,1229.41 1940.18,1367.51 1996.84,1348.04C1996.84,1348.04 1999.01,1355.63 1998.09,1370.24C1998.09,1370.24 2007.15,1371.16 2015.18,1370.29C2041.01,1367.48 2023.14,1334.77 2023.14,1334.77C2036.28,1362.6 2050.58,1371.78 2047.99,1389.27C2047.99,1389.27 2065.54,1395.37 2072.74,1379.21C2080.89,1360.9 2069.06,1336.6 2069.06,1336.6C2082.65,1359.09 2093.46,1361.69 2098.43,1378.96C2098.43,1378.96 2145.12,1383.81 2117.77,1336.56C2128.71,1355.62 2140.61,1359.72 2151.83,1351.77C2162.77,1344.01 2155.03,1319.85 2155.03,1319.85C2154.97,1320.88 2166.91,1336.14 2176.83,1323.04C2183.34,1314.45 2175.04,1298.75 2175.04,1298.75C2178.78,1303.74 2202.55,1310.38 2186.85,1277.53C2191.57,1281.81 2210.19,1286.59 2191.21,1253.29C2191.21,1253.29 2210.14,1254.17 2190.4,1226.95C2190.4,1226.95 2203.22,1223.05 2186.38,1207.65C2186.38,1207.65 2199.39,1202.66 2184.78,1190.88C2184.78,1190.88 2203.81,1191.36 2188.98,1175.03C2194.38,1178.12 2205.46,1172.84 2190.4,1156.74C2194.73,1159.9 2205.74,1152.31 2189.21,1142.77C2189.21,1142.77 2198.49,1145.11 2199.99,1140.9C2201.49,1136.68 2188.6,1131.36 2188.6,1131.36C2188.6,1131.36 2208.04,1127.8 2181.17,1116.33C2181.17,1116.33 2203.26,1116.38 2174.11,1102.58C2174.11,1102.58 2194.59,1103.47 2166.28,1087.56C2147.69,1077.12 2103.76,1045.28 2070.63,1027.34C2022.73,1001.4 1953.08,976.978 1897.94,962.476C1842.8,947.975 1775.1,930.136 1745.74,937.137C1716.38,944.138 1700.25,957.874 1695.42,982.69C1688.6,1017.68 1634.09,1072.04 1580.65,1073.15C1525.77,1074.3 1519.71,1037.5 1519.58,1029.91C1519.45,1022.32 1509.41,972.587 1434.73,964.966C1353.48,956.674 1328.94,954.391 1292.71,974.868C1247.56,1000.39 1214.95,1003.17 1200.66,1010.64C1186.37,1018.11 1149.98,1030.91 1168.6,1034.16C1187.22,1037.41 1232.01,1022.85 1244.57,1021.59C1257.13,1020.33 1320.12,1022.47 1355.34,1017.17C1390.56,1011.87 1446.14,1016.22 1455.56,1035.39C1467.63,1059.97 1467.4,1124.27 1575.55,1121.56Z" 
    transform="translate(-1150, -930)" fill="white"/>
</svg>
