<?xml version="1.0" encoding="UTF-8" standalone="no"?>
<!DOCTYPE svg PUBLIC "-//W3C//DTD SVG 1.1//EN" "http://www.w3.org/Graphics/SVG/1.1/DTD/svg11.dtd">
<svg width="100%" height="100%" viewBox="0 0 219 112" version="1.1" xmlns="http://www.w3.org/2000/svg" xmlns:xlink="http://www.w3.org/1999/xlink" xml:space="preserve" xmlns:serif="http://www.serif.com/" style="fill-rule:evenodd;clip-rule:evenodd;stroke-linejoin:round;stroke-miterlimit:2;">
    <g transform="matrix(1,0,0,1,-1996.65,-65.9271)">
        <g transform="matrix(0.670978,0,0,0.298213,1371.97,56.4523)">
            <path d="M947.434,379.778C963.798,375.609 968.626,356.278 973.445,339.681C981.08,313.393 985.269,287.515 990.384,261.205C998.041,221.841 1007.77,181.507 1034.17,137.392C1023.51,137.853 1017.08,132.411 1013.03,124.836C1009.32,117.922 1007.59,109.219 1006.39,101.556C1005.61,96.487 1005.06,91.872 1004.33,88.549C1003.63,85.354 1001.9,82.921 999.599,81.131C994.147,76.897 985.479,76.326 979.309,78.415C970.469,81.409 954.657,80.205 951.503,80.915C949.613,81.343 944.815,84.472 940.27,86.507C937.219,87.876 934.281,88.75 932.401,88.011C931.872,87.803 931.514,87.521 931.298,87.195C931.126,86.935 931.035,86.639 931.005,86.324C930.96,85.834 931.07,85.259 931.332,84.652C931.863,83.429 933.026,81.973 934.393,80.479C936.422,78.269 938.905,75.967 940.412,74.199C943.997,69.98 952.18,68.413 963.512,54.001C972.622,42.414 978.795,43.684 999.228,48.372C1018.09,52.702 1020.61,81.017 1020.64,85.329C1020.66,87.868 1021.21,96.271 1024.58,102.449C1026.85,106.592 1030.37,109.725 1035.84,109.468C1042.52,109.157 1049.26,101.351 1054.55,91.17C1059.84,80.992 1063.67,68.446 1064.52,58.609C1065.75,44.486 1069.82,36.654 1077.25,32.665C1080.21,31.077 1084.71,31.735 1089.94,33.631C1097.76,36.467 1107.2,42.063 1115.51,46.974C1129.36,55.172 1146.85,68.977 1158.88,83.631C1159.34,84.192 1159.81,84.779 1160.29,85.386L1160.31,85.415C1168.42,95.75 1178.48,112.08 1182.89,117.644C1184.61,119.818 1185.62,121.443 1186.15,122.654C1186.54,123.525 1186.7,124.213 1186.71,124.733C1186.73,125.392 1186.55,125.853 1186.28,126.146C1186,126.442 1185.62,126.567 1185.31,126.618C1186.8,128.261 1187.69,129.538 1188.17,130.527C1188.57,131.324 1188.7,131.976 1188.7,132.474C1188.7,133.077 1188.49,133.531 1188.18,133.824C1187.86,134.135 1187.43,134.281 1187.1,134.351C1188.44,135.716 1189.27,136.876 1189.73,137.853C1190.1,138.64 1190.24,139.325 1190.26,139.903C1190.28,140.799 1189.99,141.491 1189.62,141.971C1189.35,142.315 1189.05,142.549 1188.82,142.699C1189.33,143.237 1190.32,144.353 1190.92,145.586C1191.11,145.978 1191.26,146.381 1191.35,146.779C1191.45,147.23 1191.47,147.676 1191.4,148.104C1191.24,149.155 1190.74,149.594 1190.18,149.689C1189.85,149.751 1189.5,149.693 1189.21,149.608C1190.48,151.528 1190.92,153.298 1190.92,154.685C1192.88,156.447 1217.2,178.125 1224.73,179.677C1232.58,181.295 1233.87,181.082 1236.53,179.004C1239.2,176.925 1241.41,179.746 1241.95,183.926C1241.95,183.926 1240.17,180.339 1238.11,181.789C1238.11,181.789 1239.69,186.184 1236.59,185.734C1236.59,185.734 1235.13,186.843 1240.6,189.276C1246.07,191.707 1252.43,198.02 1254.15,204.062C1254.15,204.062 1248.63,197.434 1244.8,197.588C1244.8,197.588 1244.68,201.244 1249.88,204.062C1255.08,206.88 1255.01,207.22 1254.83,209.925C1254.83,209.925 1255.18,212.948 1257.1,211.023C1257.1,211.023 1256.29,215.473 1252.87,210.942C1249.45,206.408 1246.34,207.901 1243.36,204.062C1240.38,200.219 1237.72,200.541 1234.4,199.121C1231.08,197.705 1231.6,193.913 1228.07,192.889C1224.54,191.86 1216.3,184.541 1213.39,181.554C1211.04,179.139 1196.24,167.215 1190.79,162.998C1190.9,163.779 1190.93,164.461 1190.9,165.045C1190.8,167.442 1189.79,168.354 1188.94,167.94C1189.5,169.437 1189.81,170.663 1189.96,171.669C1190.15,172.939 1190.07,173.88 1189.86,174.575C1189.62,175.395 1189.18,175.882 1188.74,176.156C1188.39,176.372 1188.05,176.46 1187.81,176.493C1189.11,179.026 1189.42,181.02 1189.32,182.484C1189.26,183.45 1189.02,184.211 1188.75,184.768C1188.52,185.262 1188.26,185.595 1188.09,185.785C1188.61,186.88 1189.02,187.872 1189.32,188.768C1191.53,191.329 1201.4,202.667 1204.41,204.062C1207.8,205.636 1210.77,204.234 1216.51,206.276C1222.25,208.322 1222.3,197.665 1226.02,209.207C1226.02,209.207 1223.42,203.743 1221.8,207.363C1221.8,207.363 1223.23,212.282 1220.82,211.37C1220.82,211.37 1221.2,214.554 1227.29,217.435C1233.38,220.311 1233.45,222.474 1233.36,224.593C1233.36,224.593 1234.87,226.932 1235.64,225.01C1235.64,225.01 1235.08,230.39 1231.84,225.398C1228.61,220.41 1223.72,219.367 1223.72,219.367C1223.72,219.367 1226.26,226.895 1231.79,230.295C1237.32,233.695 1238.45,234.925 1238.56,239.294C1238.56,239.294 1238.67,243.02 1240.54,241.483C1240.54,241.483 1239.32,246.423 1236.7,240.623C1234.08,234.818 1232.79,235.316 1230.34,234.727C1227.89,234.138 1225.08,227.246 1220.69,226.452C1216.3,225.662 1213.02,219.341 1209.89,218.247C1206.76,217.153 1205.25,216.501 1201.29,211.378C1198.63,207.948 1190.63,198.633 1189.13,196.887C1190.28,200.546 1190.88,203.286 1191.12,205.339C1191.39,207.568 1191.24,209.021 1190.94,209.969C1190.49,211.385 1189.68,211.685 1189.3,211.747C1190.66,217.215 1191.22,220.838 1191.3,223.162C1191.35,224.86 1191.16,225.903 1190.85,226.496C1190.53,227.096 1190.09,227.246 1189.63,227.111C1189.17,226.972 1188.68,226.54 1188.31,226.035C1189.11,230.024 1189.44,232.923 1189.44,234.987C1189.45,236.538 1189.28,237.636 1189.02,238.387C1188.61,239.521 1187.96,239.872 1187.29,239.752C1186.59,239.624 1185.88,238.994 1185.39,238.262C1185.64,239.532 1185.99,241.636 1186.14,243.898C1186.32,246.376 1186.25,249.037 1185.57,251.038C1184.85,253.194 1184.08,254.032 1183.35,254.124C1182.26,254.259 1181.26,252.718 1180.62,251.313C1180.51,251.068 1180.41,250.83 1180.32,250.603C1180.53,252.462 1180.82,255.668 1180.79,258.856C1180.77,262.201 1180.4,265.516 1179.27,267.321C1178.12,269.169 1176.93,269.886 1175.74,269.385C1174.43,268.836 1173.12,266.786 1171.85,263.083C1173.44,271.024 1173.08,275.793 1172,278.64C1171.23,280.675 1170.07,281.744 1168.96,282.285C1167.32,283.083 1165.78,282.724 1165.78,282.724C1165.73,282.71 1165.69,282.633 1165.67,282.52C1165.06,277.696 1164.08,274.922 1162.83,271.778C1161.76,269.077 1160.49,266.109 1159.08,261.377C1159.41,263.419 1159.81,266.34 1160.03,269.608C1160.31,273.784 1160.29,278.519 1159.46,282.703C1157.61,292.053 1153.1,288.533 1153.1,288.533C1153.04,288.489 1153,288.357 1153.01,288.225C1153.33,283.358 1152.6,279.647 1151.39,275.215C1150.49,271.895 1149.31,268.177 1148.09,263.299C1148.25,264.433 1148.38,265.652 1148.46,266.881C1148.65,269.857 1148.53,272.898 1147.69,275.039C1147.13,276.466 1146.25,277.498 1144.92,277.828C1142.89,278.325 1140.6,277.802 1140.6,277.802C1140.53,277.787 1140.48,277.656 1140.49,277.502C1140.68,270.545 1140.32,266.431 1140.21,265.352C1134.53,269.549 1130.75,259.697 1128.21,243.649C1124.59,220.798 1123.46,185.401 1122.72,161.001C1122.65,161.726 1122.55,162.498 1122.41,163.252C1122.07,165.107 1121.49,166.842 1120.51,167.538C1120.17,171.556 1119.49,174.912 1118.32,177.02C1117.16,179.121 1115.53,179.999 1113.28,179.044C1113.06,183.274 1112.39,186.082 1111.56,187.937C1109.79,191.882 1107.29,191.553 1106.74,191.425C1105.78,198.565 1104.21,202.06 1102.68,203.689C1100.71,205.782 1098.79,204.805 1098.23,204.442C1098.12,209.709 1097.35,213.131 1096.31,215.341C1094.11,220.059 1090.72,219.261 1090.03,219.038C1089.03,232.813 1083.27,233.6 1082.27,233.633C1082.76,242.372 1080.62,246.658 1078.62,247.492C1077.83,247.818 1077.07,247.613 1076.48,246.943C1076.73,255.167 1073.92,259.137 1071.89,259.803C1071.34,259.983 1070.86,259.924 1070.49,259.657C1070.38,259.573 1070.28,259.47 1070.2,259.35C1070.39,262.881 1070.07,265.465 1069.48,267.31C1068.52,270.289 1066.85,271.354 1065.47,271.317C1064.61,271.295 1063.85,270.827 1063.45,270.153C1062.04,281.586 1058.53,284.536 1056.34,283.705C1055.58,283.416 1054.97,282.673 1054.64,281.674C1054.26,295.651 1051.04,300.079 1048.9,299.614C1048.19,299.461 1047.61,298.791 1047.24,297.762C1047.34,300.829 1047.33,307.988 1045.58,313.858C1044.34,317.997 1043.19,319.611 1042.21,319.717C1041.61,319.779 1041.07,319.278 1040.6,318.414C1040.07,317.423 1039.64,315.948 1039.34,314.326C1038.97,327.589 1036.57,335.868 1033,339.901C1031.85,341.196 1031.04,341.189 1030.46,340.581C1029.92,340.007 1029.58,338.883 1029.37,337.738C1029.33,337.496 1029.29,337.255 1029.26,337.013C1028.89,344.497 1026.48,354.071 1020.86,360.758C1019.56,362.309 1018.68,362.492 1018.1,361.859C1017.52,361.211 1017.24,359.704 1017.16,357.782C1017.09,355.967 1017.2,353.775 1017.38,351.66C1014.82,365.395 1010.17,378.445 1005.89,382.218C1004.56,383.393 1003.74,383.214 1003.27,382.361C1002.8,381.497 1002.66,379.913 1002.71,378.171C1002.74,376.674 1002.91,375.067 1003.08,373.746C995.737,401.191 986.001,404.755 986.001,404.755C985.947,404.773 985.895,404.715 985.869,404.609C985.845,404.503 985.853,404.375 985.889,404.283C987.946,399.324 990.581,386.87 991.549,382.101C985.272,398.702 977.918,403.979 977.918,403.979C977.868,404.02 977.811,403.976 977.779,403.88C977.748,403.782 977.746,403.65 977.777,403.551C980.389,395.06 984.485,370.482 985.749,362.708C975.083,399.789 967.38,402.468 967.38,402.468C967.331,402.486 967.282,402.435 967.255,402.34C967.229,402.248 967.229,402.124 967.258,402.032C969.979,392.941 974.158,378.27 975.672,372.934C966.054,393.234 952.63,398.402 952.63,398.402C952.569,398.424 952.51,398.347 952.49,398.215C952.469,398.083 952.495,397.941 952.549,397.875C964.654,383.287 968.434,371.111 969.355,367.466C958.328,386.526 947.417,380.334 947.417,380.334C947.358,380.302 947.318,380.178 947.322,380.041C947.326,379.904 947.374,379.794 947.434,379.778Z" style="fill:white;"/>
        </g>
    </g>
</svg>
