<?xml version="1.0" encoding="UTF-8" standalone="no"?>
<!DOCTYPE svg PUBLIC "-//W3C//DTD SVG 1.1//EN" "http://www.w3.org/Graphics/SVG/1.1/DTD/svg11.dtd">
<svg width="100%" height="100%" viewBox="0 0 521 397" version="1.1" xmlns="http://www.w3.org/2000/svg" xmlns:xlink="http://www.w3.org/1999/xlink" xml:space="preserve" xmlns:serif="http://www.serif.com/" style="fill-rule:evenodd;clip-rule:evenodd;stroke-linejoin:round;stroke-miterlimit:2;">
    <g transform="matrix(0.48,0,0,0.48,-581.606,-397.098)">
        <g>
            <g id="Garza" transform="matrix(0.642937,0,0,0.642937,713.155,226.096)">
                <path id="Cuerpo" d="M1575.55,1121.56C1398.8,1252.26 1408.55,1364.15 1332.47,1480.59C1313.2,1510.08 1293.89,1544.4 1228.46,1551.81C1228.46,1551.81 1272.91,1563.01 1317.23,1527.72C1317.23,1527.72 1307.1,1552.7 1249.03,1583.8C1249.03,1583.8 1305.28,1574.18 1343.63,1535.87C1343.63,1535.87 1321.26,1571.04 1307.81,1591.01C1307.81,1591.01 1339.49,1586.04 1383.07,1517.03C1383.07,1517.03 1362.17,1575.71 1349.71,1593.7C1349.71,1593.7 1380.77,1583.79 1406.15,1552.26C1406.15,1552.26 1392.26,1584.05 1381.99,1595.05C1381.99,1595.05 1422.95,1588.35 1452.33,1535.87C1452.33,1535.87 1440.86,1563.11 1461.14,1555.17C1481.41,1547.24 1503.73,1515.95 1511.55,1487.17C1511.55,1487.17 1495.8,1530.38 1520.73,1517.19C1545.66,1504.01 1554.66,1484.44 1554.09,1470.86C1554.09,1470.86 1554.53,1487.57 1569.1,1480.25C1583.67,1472.93 1593.28,1457.62 1594.21,1432.92C1597.36,1443.1 1607.02,1452.15 1619.02,1434.31C1628.07,1420.84 1625.31,1403.49 1625.31,1403.49C1628.07,1413.5 1653.8,1412.52 1655.12,1375.71C1657.63,1383.96 1682.67,1385.6 1690.39,1356.28C1694.58,1361.04 1720.93,1361.04 1716.83,1336.74C1720.27,1341.9 1744.16,1336.42 1742,1315.19C1749.77,1320.2 1768.19,1314.13 1765.07,1292.03C1765.07,1292.03 1792.1,1292.9 1796.13,1266.11C1796.13,1266.11 1827.71,1271.92 1828.75,1240.16C1828.75,1240.16 1853.39,1249.04 1862.76,1217.23C1862.76,1217.23 1886.12,1220.76 1888.73,1195.26C1906.86,1198.9 1914.97,1189.33 1917.56,1175.09C1927.37,1172.28 1927.03,1157.56 1926.86,1157.46C1931.77,1229.41 1940.18,1367.51 1996.84,1348.04C1996.84,1348.04 1999.01,1355.63 1998.09,1370.24C1998.09,1370.24 2007.15,1371.16 2015.18,1370.29C2041.01,1367.48 2023.14,1334.77 2023.14,1334.77C2036.28,1362.6 2050.58,1371.78 2047.99,1389.27C2047.99,1389.27 2065.54,1395.37 2072.74,1379.21C2080.89,1360.9 2069.06,1336.6 2069.06,1336.6C2082.65,1359.09 2093.46,1361.69 2098.43,1378.96C2098.43,1378.96 2145.12,1383.81 2117.77,1336.56C2128.71,1355.62 2140.61,1359.72 2151.83,1351.77C2162.77,1344.01 2155.03,1319.85 2155.03,1319.85C2154.97,1320.88 2166.91,1336.14 2176.83,1323.04C2183.34,1314.45 2175.04,1298.75 2175.04,1298.75C2178.78,1303.74 2202.55,1310.38 2186.85,1277.53C2191.57,1281.81 2210.19,1286.59 2191.21,1253.29C2191.21,1253.29 2210.14,1254.17 2190.4,1226.95C2190.4,1226.95 2203.22,1223.05 2186.38,1207.65C2186.38,1207.65 2199.39,1202.66 2184.78,1190.88C2184.78,1190.88 2203.81,1191.36 2188.98,1175.03C2194.38,1178.12 2205.46,1172.84 2190.4,1156.74C2194.73,1159.9 2205.74,1152.31 2189.21,1142.77C2189.21,1142.77 2198.49,1145.11 2199.99,1140.9C2201.49,1136.68 2188.6,1131.36 2188.6,1131.36C2188.6,1131.36 2208.04,1127.8 2181.17,1116.33C2181.17,1116.33 2203.26,1116.38 2174.11,1102.58C2174.11,1102.58 2194.59,1103.47 2166.28,1087.56C2147.69,1077.12 2103.76,1045.28 2070.63,1027.34C2022.73,1001.4 1953.08,976.978 1897.94,962.476C1842.8,947.975 1775.1,930.136 1745.74,937.137C1716.38,944.138 1700.25,957.874 1695.42,982.69C1688.6,1017.68 1634.09,1072.04 1580.65,1073.15C1525.77,1074.3 1519.71,1037.5 1519.58,1029.91C1519.45,1022.32 1509.41,972.587 1434.73,964.966C1353.48,956.674 1328.94,954.391 1292.71,974.868C1247.56,1000.39 1214.95,1003.17 1200.66,1010.64C1186.37,1018.11 1149.98,1030.91 1168.6,1034.16C1187.22,1037.41 1232.01,1022.85 1244.57,1021.59C1257.13,1020.33 1320.12,1022.47 1355.34,1017.17C1390.56,1011.87 1446.14,1016.22 1455.56,1035.39C1467.63,1059.97 1467.4,1124.27 1575.55,1121.56Z" style="fill:white;"/>
            </g>
            <g transform="matrix(0.396294,0,0,0.396294,2307.87,1570.2)">
                <path d="M-2247.07,0L-2247.07,-294.67L-2107.73,-294.67C-2075.18,-294.67 -2046.55,-288.636 -2021.86,-276.569C-1997.16,-264.502 -1977.87,-247.523 -1963.98,-225.633C-1950.09,-203.743 -1943.14,-177.644 -1943.14,-147.335C-1943.14,-117.307 -1950.09,-91.278 -1963.98,-69.247C-1977.87,-47.217 -1997.16,-30.169 -2021.86,-18.101C-2046.55,-6.034 -2075.18,0 -2107.73,0L-2247.07,0ZM-2163.72,-66.511L-2111.1,-66.511C-2094.26,-66.511 -2079.6,-69.668 -2067.11,-75.983C-2054.62,-82.297 -2044.87,-91.558 -2037.85,-103.766C-2030.84,-115.974 -2027.33,-130.497 -2027.33,-147.335C-2027.33,-164.454 -2030.84,-179.047 -2037.85,-191.115C-2044.87,-203.182 -2054.62,-212.373 -2067.11,-218.687C-2079.6,-225.002 -2094.26,-228.159 -2111.1,-228.159L-2163.72,-228.159L-2163.72,-66.511ZM-1816.85,-118.289L-1816.85,-64.406L-1662.78,-64.406L-1662.78,0L-1899.36,0L-1899.36,-294.67L-1668.25,-294.67L-1668.25,-230.264L-1816.85,-230.264L-1816.85,-180.591L-1685.93,-180.591L-1685.93,-118.289L-1816.85,-118.289ZM-1616.48,0L-1616.48,-294.67L-1533.13,-294.67L-1533.13,-66.09L-1392.53,-66.09L-1392.53,0L-1616.48,0ZM-1237.19,0L-1237.19,-294.67L-1153.84,-294.67L-1153.84,-66.09L-1013.24,-66.09L-1013.24,0L-1237.19,0ZM-904.814,-57.25L-927.79,0L-1012.82,0L-882.747,-294.67L-800.661,-294.67L-670.164,0L-756.881,0L-779.857,-57.25L-904.814,-57.25ZM-804.523,-118.71L-842.336,-212.93L-880.148,-118.71L-804.523,-118.71ZM-389.797,-31.572C-406.635,-19.504 -426.14,-10.243 -448.31,-3.789C-470.481,2.666 -492.23,5.893 -513.558,5.893C-536.851,5.893 -558.461,2.175 -578.386,-5.262C-598.311,-12.699 -615.5,-23.293 -629.953,-37.044C-644.406,-50.796 -655.702,-67.002 -663.84,-85.665C-671.979,-104.327 -676.048,-124.884 -676.048,-147.335C-676.048,-169.786 -671.979,-190.343 -663.84,-209.005C-655.702,-227.668 -644.336,-243.875 -629.743,-257.626C-615.15,-271.377 -597.82,-281.971 -577.754,-289.408C-557.689,-296.845 -535.729,-300.564 -511.875,-300.564C-484.091,-300.564 -459.255,-295.933 -437.365,-286.672C-415.475,-277.411 -397.374,-264.081 -383.062,-246.681L-436.102,-198.692C-446.205,-209.637 -457.08,-217.845 -468.727,-223.318C-480.373,-228.79 -493.353,-231.527 -507.665,-231.527C-520.294,-231.527 -531.8,-229.562 -542.184,-225.633C-552.567,-221.704 -561.407,-216.021 -568.704,-208.584C-576,-201.147 -581.683,-192.307 -585.753,-182.064C-589.822,-171.821 -591.857,-160.244 -591.857,-147.335C-591.857,-134.987 -589.822,-123.621 -585.753,-113.238C-581.683,-102.854 -576,-93.944 -568.704,-86.507C-561.407,-79.07 -552.637,-73.317 -542.394,-69.247C-532.151,-65.178 -520.855,-63.144 -508.507,-63.144C-496.159,-63.144 -484.091,-65.178 -472.305,-69.247C-469.367,-70.262 -466.42,-71.455 -463.465,-72.827L-463.465,-153.649L-389.797,-153.649L-389.797,-31.572ZM-193.205,5.893C-216.779,5.893 -238.528,2.105 -258.454,-5.472C-278.379,-13.05 -295.708,-23.784 -310.442,-37.676C-325.175,-51.567 -336.611,-67.774 -344.75,-86.296C-352.888,-104.818 -356.958,-125.165 -356.958,-147.335C-356.958,-169.505 -352.888,-189.852 -344.75,-208.374C-336.611,-226.896 -325.175,-243.103 -310.442,-256.994C-295.708,-270.886 -278.379,-281.62 -258.454,-289.198C-238.528,-296.775 -216.779,-300.564 -193.205,-300.564C-169.351,-300.564 -147.531,-296.775 -127.746,-289.198C-107.961,-281.62 -90.772,-270.886 -76.179,-256.994C-61.586,-243.103 -50.15,-226.896 -41.871,-208.374C-33.592,-189.852 -29.453,-169.505 -29.453,-147.335C-29.453,-125.165 -33.592,-104.748 -41.871,-86.086C-50.15,-67.423 -61.586,-51.216 -76.179,-37.465C-90.772,-23.714 -107.961,-13.05 -127.746,-5.472C-147.531,2.105 -169.351,5.893 -193.205,5.893ZM-193.205,-63.144C-181.98,-63.144 -171.526,-65.108 -161.844,-69.037C-152.162,-72.966 -143.743,-78.649 -136.586,-86.086C-129.43,-93.523 -123.817,-102.433 -119.748,-112.817C-115.679,-123.2 -113.644,-134.706 -113.644,-147.335C-113.644,-160.244 -115.679,-171.821 -119.748,-182.064C-123.817,-192.307 -129.43,-201.147 -136.586,-208.584C-143.743,-216.021 -152.162,-221.704 -161.844,-225.633C-171.526,-229.562 -181.98,-231.527 -193.205,-231.527C-204.431,-231.527 -214.885,-229.562 -224.567,-225.633C-234.249,-221.704 -242.668,-216.021 -249.824,-208.584C-256.98,-201.147 -262.593,-192.307 -266.662,-182.064C-270.732,-171.821 -272.766,-160.244 -272.766,-147.335C-272.766,-134.706 -270.732,-123.2 -266.662,-112.817C-262.593,-102.433 -256.98,-93.523 -249.824,-86.086C-242.668,-78.649 -234.249,-72.966 -224.567,-69.037C-214.885,-65.108 -204.431,-63.144 -193.205,-63.144ZM-2682.75,-464.15L-2682.75,-385.852L-2766.1,-385.852L-2766.1,-680.522L-2634.34,-680.522C-2591.4,-680.522 -2558.35,-670.77 -2535.2,-651.265C-2512.05,-631.761 -2500.47,-605.17 -2500.47,-571.494C-2500.47,-549.323 -2505.8,-530.17 -2516.47,-514.033C-2526.49,-498.875 -2540.4,-487.06 -2558.22,-478.588L-2494.58,-385.852L-2583.82,-385.852L-2637.25,-464.15L-2682.75,-464.15ZM-2682.75,-528.556L-2636.44,-528.556C-2619.04,-528.556 -2606.06,-532.345 -2597.5,-539.922C-2588.94,-547.499 -2584.66,-558.023 -2584.66,-571.494C-2584.66,-585.245 -2588.94,-595.909 -2597.5,-603.487C-2606.06,-611.064 -2619.04,-614.852 -2636.44,-614.852L-2682.75,-614.852L-2682.75,-528.556ZM-2372.08,-504.141L-2372.08,-450.258L-2218.01,-450.258L-2218.01,-385.852L-2454.59,-385.852L-2454.59,-680.522L-2223.48,-680.522L-2223.48,-616.115L-2372.08,-616.115L-2372.08,-566.442L-2241.16,-566.442L-2241.16,-504.141L-2372.08,-504.141ZM-2068.15,-379.958C-2092.28,-379.958 -2115.51,-382.975 -2137.82,-389.009C-2160.13,-395.043 -2178.3,-402.83 -2192.33,-412.372L-2164.97,-473.832C-2151.78,-465.413 -2136.55,-458.467 -2119.3,-452.994C-2102.04,-447.522 -2084.85,-444.786 -2067.73,-444.786C-2056.22,-444.786 -2046.96,-445.838 -2039.94,-447.943C-2032.93,-450.048 -2027.81,-452.854 -2024.58,-456.362C-2021.35,-459.87 -2019.74,-464.009 -2019.74,-468.78C-2019.74,-475.516 -2022.83,-480.848 -2029,-484.777C-2035.17,-488.706 -2043.17,-491.933 -2052.99,-494.459C-2062.82,-496.984 -2073.69,-499.51 -2085.62,-502.036C-2097.55,-504.562 -2109.47,-507.789 -2121.4,-511.718C-2133.33,-515.647 -2144.2,-520.768 -2154.02,-527.083C-2163.85,-533.397 -2171.85,-541.676 -2178.02,-551.919C-2184.19,-562.163 -2187.28,-575.142 -2187.28,-590.858C-2187.28,-608.538 -2182.44,-624.534 -2172.76,-638.847C-2163.07,-653.16 -2148.55,-664.666 -2129.19,-673.365C-2109.82,-682.065 -2085.69,-686.415 -2056.78,-686.415C-2037.42,-686.415 -2018.41,-684.24 -1999.74,-679.89C-1981.08,-675.54 -1964.45,-669.156 -1949.86,-660.737L-1975.54,-598.856C-1989.57,-606.433 -2003.46,-612.116 -2017.21,-615.905C-2030.97,-619.693 -2044.3,-621.588 -2057.2,-621.588C-2068.71,-621.588 -2077.97,-620.395 -2084.99,-618.01C-2092,-615.624 -2097.05,-612.467 -2100.14,-608.538C-2103.23,-604.609 -2104.77,-600.119 -2104.77,-595.067C-2104.77,-588.613 -2101.76,-583.491 -2095.72,-579.702C-2089.69,-575.914 -2081.69,-572.827 -2071.73,-570.441C-2061.76,-568.056 -2050.82,-565.6 -2038.89,-563.075C-2026.97,-560.549 -2015.04,-557.392 -2003.11,-553.603C-1991.18,-549.814 -1980.31,-544.763 -1970.49,-538.449C-1960.66,-532.134 -1952.74,-523.855 -1946.7,-513.612C-1940.67,-503.369 -1937.65,-490.53 -1937.65,-475.095C-1937.65,-457.976 -1942.49,-442.19 -1952.17,-427.737C-1961.86,-413.284 -1976.31,-401.708 -1995.53,-393.008C-2014.76,-384.308 -2038.96,-379.958 -2068.15,-379.958ZM-1899.35,-385.852L-1899.35,-680.522L-1816,-680.522L-1816,-385.852L-1899.35,-385.852ZM-1756.64,-385.852L-1756.64,-680.522L-1617.3,-680.522C-1584.75,-680.522 -1556.12,-674.488 -1531.43,-662.421C-1506.73,-650.353 -1487.44,-633.375 -1473.55,-611.485C-1459.65,-589.595 -1452.71,-563.496 -1452.71,-533.187C-1452.71,-503.158 -1459.65,-477.129 -1473.55,-455.099C-1487.44,-433.069 -1506.73,-416.02 -1531.43,-403.953C-1556.12,-391.885 -1584.75,-385.852 -1617.3,-385.852L-1756.64,-385.852ZM-1673.29,-452.363L-1620.67,-452.363C-1603.83,-452.363 -1589.17,-455.52 -1576.68,-461.834C-1564.19,-468.149 -1554.44,-477.41 -1547.42,-489.618C-1540.41,-501.825 -1536.9,-516.348 -1536.9,-533.187C-1536.9,-550.306 -1540.41,-564.899 -1547.42,-576.966C-1554.44,-589.034 -1564.19,-598.225 -1576.68,-604.539C-1589.17,-610.853 -1603.83,-614.01 -1620.67,-614.01L-1673.29,-614.01L-1673.29,-452.363ZM-1326.42,-504.141L-1326.42,-450.258L-1172.35,-450.258L-1172.35,-385.852L-1408.93,-385.852L-1408.93,-680.522L-1177.82,-680.522L-1177.82,-616.115L-1326.42,-616.115L-1326.42,-566.442L-1195.51,-566.442L-1195.51,-504.141L-1326.42,-504.141ZM-1044.38,-542.886L-1044.38,-385.852L-1126.05,-385.852L-1126.05,-680.522L-1057.43,-680.522L-927.355,-523.487L-927.355,-680.522L-845.689,-680.522L-845.689,-385.852L-914.305,-385.852L-1044.38,-542.886ZM-639.841,-379.958C-663.134,-379.958 -684.673,-383.677 -704.458,-391.114C-724.243,-398.55 -741.362,-409.145 -755.815,-422.896C-770.268,-436.647 -781.563,-452.854 -789.702,-471.516C-797.84,-490.179 -801.91,-510.736 -801.91,-533.187C-801.91,-555.638 -797.84,-576.194 -789.702,-594.857C-781.563,-613.519 -770.268,-629.726 -755.815,-643.477C-741.362,-657.229 -724.243,-667.823 -704.458,-675.26C-684.673,-682.697 -663.134,-686.415 -639.841,-686.415C-612.619,-686.415 -588.274,-681.644 -566.805,-672.103C-545.336,-662.561 -527.445,-648.81 -513.133,-630.849L-566.173,-582.86C-575.715,-594.085 -586.169,-602.645 -597.535,-608.538C-608.901,-614.431 -621.599,-617.378 -635.631,-617.378C-647.699,-617.378 -658.784,-615.414 -668.887,-611.485C-678.99,-607.556 -687.62,-601.873 -694.776,-594.436C-701.932,-586.999 -707.545,-578.089 -711.614,-567.705C-715.683,-557.322 -717.718,-545.815 -717.718,-533.187C-717.718,-520.558 -715.683,-509.052 -711.614,-498.668C-707.545,-488.285 -701.932,-479.374 -694.776,-471.937C-687.62,-464.5 -678.99,-458.818 -668.887,-454.889C-658.784,-450.96 -647.699,-448.995 -635.631,-448.995C-621.599,-448.995 -608.901,-451.942 -597.535,-457.835C-586.169,-463.729 -575.715,-472.288 -566.173,-483.514L-513.133,-435.525C-527.445,-417.844 -545.336,-404.163 -566.805,-394.481C-588.274,-384.799 -612.619,-379.958 -639.841,-379.958ZM-479.456,-385.852L-479.456,-680.522L-396.107,-680.522L-396.107,-385.852L-479.456,-385.852ZM-264.103,-443.102L-287.079,-385.852L-372.112,-385.852L-242.036,-680.522L-159.95,-680.522L-29.453,-385.852L-116.17,-385.852L-139.146,-443.102L-264.103,-443.102ZM-163.812,-504.562L-201.624,-598.781L-239.437,-504.562L-163.812,-504.562Z" style="fill:rgb(242,110,33);"/>
            </g>
            <g transform="matrix(3.47155,0,0,3.47155,-39628.2,-12954.6)">
                <path d="M11848.1,4084.08C11860.1,4082.72 11863.7,4076.38 11867.3,4070.93C11872.9,4062.31 11876,4053.83 11879.8,4045.2C11885.4,4032.29 11892.6,4019.06 11912.1,4004.59C11904.2,4004.74 11899.5,4002.96 11896.5,4000.47C11893.7,3998.21 11892.5,3995.35 11891.6,3992.84C11891,3991.18 11890.6,3989.66 11890.1,3988.58C11889.5,3987.53 11888.3,3986.73 11886.6,3986.14C11882.5,3984.75 11876.1,3984.57 11871.6,3985.25C11865.1,3986.23 11853.4,3985.84 11851.1,3986.07C11849.7,3986.21 11846.1,3987.24 11842.8,3987.91C11840.5,3988.35 11838.4,3988.64 11837,3988.4C11836.6,3988.33 11836.3,3988.24 11836.2,3988.13C11836,3988.04 11836,3987.95 11835.9,3987.84C11835.9,3987.68 11836,3987.49 11836.2,3987.3C11836.6,3986.89 11837.4,3986.42 11838.4,3985.93C11839.9,3985.2 11841.8,3984.45 11842.9,3983.87C11845.5,3982.48 11851.6,3981.97 11859.9,3977.24C11866.7,3973.44 11871.2,3973.86 11886.3,3975.4C11900.2,3976.82 11902.1,3986.1 11902.1,3987.52C11902.1,3988.35 11902.5,3991.11 11905,3993.13C11906.7,3994.49 11909.3,3995.52 11913.3,3995.43C11918.2,3995.33 11923.2,3992.77 11927.1,3989.43C11931,3986.1 11933.8,3981.98 11934.5,3978.76C11935.4,3974.12 11938.4,3971.55 11943.9,3970.25C11946,3969.73 11949.4,3969.94 11953.2,3970.56C11959,3971.49 11966,3973.33 11972.1,3974.94C11982.3,3977.63 11995.2,3982.15 12004.1,3986.96C12004.4,3987.15 12004.8,3987.34 12005.1,3987.54C12005.1,3987.54 12005.1,3987.54 12005.1,3987.54C12011.1,3990.93 12018.6,3996.29 12021.8,3998.12C12023.1,3998.83 12023.8,3999.36 12024.2,3999.76C12024.5,4000.05 12024.6,4000.27 12024.6,4000.44C12024.6,4000.66 12024.5,4000.81 12024.3,4000.91C12024.1,4001 12023.8,4001.04 12023.6,4001.06C12024.7,4001.6 12025.4,4002.02 12025.7,4002.34C12026,4002.6 12026.1,4002.82 12026.1,4002.98C12026.1,4003.18 12025.9,4003.33 12025.7,4003.42C12025.5,4003.52 12025.2,4003.57 12024.9,4003.6C12025.9,4004.04 12026.5,4004.42 12026.9,4004.74C12027.1,4005 12027.2,4005.23 12027.2,4005.42C12027.3,4005.71 12027,4005.94 12026.8,4006.09C12026.6,4006.21 12026.4,4006.28 12026.2,4006.33C12026.6,4006.51 12027.3,4006.88 12027.7,4007.28C12027.9,4007.41 12028,4007.54 12028,4007.67C12028.1,4007.82 12028.1,4007.96 12028.1,4008.11C12028,4008.45 12027.6,4008.59 12027.2,4008.63C12026.9,4008.64 12026.7,4008.63 12026.5,4008.6C12027.4,4009.23 12027.7,4009.81 12027.7,4010.26C12029.2,4010.84 12047.1,4017.95 12052.7,4018.46C12058.5,4018.99 12059.4,4018.92 12061.4,4018.24C12063.4,4017.56 12065,4018.48 12065.4,4019.85C12065.4,4019.85 12064.1,4018.68 12062.6,4019.15C12062.6,4019.15 12063.7,4020.59 12061.4,4020.45C12061.4,4020.45 12060.4,4020.81 12064.4,4021.61C12068.4,4022.41 12073.1,4024.48 12074.4,4026.46C12074.4,4026.46 12070.3,4024.28 12067.5,4024.33C12067.5,4024.33 12067.4,4025.53 12071.2,4026.46C12075.1,4027.38 12075,4027.49 12074.9,4028.38C12074.9,4028.38 12075.1,4029.37 12076.6,4028.74C12076.6,4028.74 12076,4030.2 12073.4,4028.71C12070.9,4027.23 12068.6,4027.72 12066.4,4026.46C12064.2,4025.2 12062.3,4025.3 12059.8,4024.84C12057.4,4024.37 12057.8,4023.13 12055.1,4022.79C12052.5,4022.46 12046.5,4020.06 12044.3,4019.08C12042.6,4018.28 12031.7,4014.37 12027.6,4012.99C12027.7,4013.25 12027.7,4013.47 12027.7,4013.66C12027.6,4014.45 12026.9,4014.75 12026.3,4014.61C12026.7,4015.1 12026.9,4015.5 12027,4015.83C12027.2,4016.25 12027.1,4016.56 12027,4016.79C12026.8,4017.06 12026.5,4017.22 12026.1,4017.31C12025.9,4017.38 12025.6,4017.41 12025.4,4017.42C12026.4,4018.25 12026.6,4018.9 12026.6,4019.38C12026.5,4019.7 12026.3,4019.95 12026.1,4020.13C12026,4020.29 12025.8,4020.4 12025.6,4020.46C12026,4020.82 12026.3,4021.15 12026.6,4021.44C12028.2,4022.28 12035.5,4026 12037.7,4026.46C12040.2,4026.97 12042.4,4026.51 12046.6,4027.18C12050.9,4027.85 12050.9,4024.36 12053.6,4028.14C12053.6,4028.14 12051.7,4026.35 12050.5,4027.54C12050.5,4027.54 12051.6,4029.15 12049.8,4028.85C12049.8,4028.85 12050.1,4029.9 12054.6,4030.84C12059.1,4031.79 12059.1,4032.5 12059,4033.19C12059,4033.19 12060.2,4033.96 12060.7,4033.33C12060.7,4033.33 12060.3,4035.09 12057.9,4033.45C12055.5,4031.82 12051.9,4031.48 12051.9,4031.48C12051.9,4031.48 12053.8,4033.95 12057.9,4035.06C12062,4036.18 12062.8,4036.58 12062.9,4038.01C12062.9,4038.01 12063,4039.23 12064.3,4038.73C12064.3,4038.73 12063.4,4040.35 12061.5,4038.45C12059.6,4036.55 12058.6,4036.71 12056.8,4036.51C12055,4036.32 12052.9,4034.06 12049.7,4033.8C12046.5,4033.54 12044,4031.47 12041.7,4031.11C12039.4,4030.75 12038.3,4030.54 12035.4,4028.86C12033.4,4027.73 12027.5,4024.68 12026.4,4024.11C12027.3,4025.3 12027.7,4026.2 12027.9,4026.88C12028.1,4027.61 12028,4028.08 12027.8,4028.39C12027.4,4028.86 12026.8,4028.96 12026.5,4028.98C12027.5,4030.77 12028,4031.96 12028,4032.72C12028.1,4033.28 12027.9,4033.62 12027.7,4033.82C12027.4,4034.01 12027.1,4034.06 12026.8,4034.02C12026.4,4033.97 12026.1,4033.83 12025.8,4033.66C12026.4,4034.97 12026.6,4035.92 12026.6,4036.6C12026.7,4037.11 12026.5,4037.47 12026.3,4037.71C12026,4038.09 12025.5,4038.2 12025.1,4038.16C12024.5,4038.12 12024,4037.91 12023.7,4037.67C12023.8,4038.09 12024.1,4038.78 12024.2,4039.52C12024.3,4040.33 12024.3,4041.21 12023.8,4041.86C12023.3,4042.57 12022.7,4042.85 12022.1,4042.88C12021.3,4042.92 12020.6,4042.41 12020.1,4041.95C12020.1,4041.87 12020,4041.8 12019.9,4041.72C12020.1,4042.33 12020.3,4043.38 12020.3,4044.43C12020.2,4045.53 12020,4046.61 12019.1,4047.2C12018.3,4047.81 12017.4,4048.04 12016.5,4047.88C12015.6,4047.7 12014.6,4047.03 12013.7,4045.81C12014.8,4048.42 12014.6,4049.98 12013.8,4050.91C12013.2,4051.58 12012.4,4051.93 12011.5,4052.11C12010.3,4052.37 12009.2,4052.26 12009.2,4052.26C12009.1,4052.25 12009.1,4052.22 12009.1,4052.19C12008.7,4050.61 12007.9,4049.7 12007,4048.67C12006.2,4047.78 12005.3,4046.81 12004.2,4045.25C12004.5,4045.92 12004.8,4046.88 12004.9,4047.95C12005.1,4049.32 12005.1,4050.88 12004.5,4052.25C12003.2,4055.32 11999.8,4054.16 11999.8,4054.16C11999.8,4054.14 11999.8,4054.1 11999.8,4054.06C12000,4052.46 11999.5,4051.25 11998.6,4049.79C11997.9,4048.7 11997,4047.49 11996.1,4045.89C11996.2,4046.26 11996.3,4046.66 11996.4,4047.06C11996.5,4048.04 11996.5,4049.03 11995.8,4049.73C11995.4,4050.2 11994.8,4050.54 11993.8,4050.65C11992.3,4050.81 11990.6,4050.64 11990.6,4050.64C11990.6,4050.64 11990.5,4050.59 11990.5,4050.54C11990.7,4048.26 11990.4,4046.91 11990.3,4046.56C11986.1,4047.93 11983.3,4044.7 11981.5,4039.44C11978.8,4031.95 11978,4020.34 11977.4,4012.33C11977.4,4012.57 11977.3,4012.83 11977.2,4013.07C11976.9,4013.68 11976.5,4014.25 11975.8,4014.48C11975.5,4015.8 11975,4016.9 11974.2,4017.59C11973.3,4018.28 11972.1,4018.57 11970.4,4018.25C11970.3,4019.64 11969.8,4020.56 11969.2,4021.17C11967.9,4022.46 11966,4022.35 11965.6,4022.31C11964.9,4024.65 11963.8,4025.8 11962.6,4026.34C11961.2,4027.02 11959.8,4026.7 11959.3,4026.58C11959.3,4028.31 11958.7,4029.43 11957.9,4030.16C11956.3,4031.7 11953.8,4031.44 11953.3,4031.37C11952.6,4035.89 11948.3,4036.14 11947.6,4036.16C11947.9,4039.02 11946.3,4040.43 11944.9,4040.7C11944.3,4040.81 11943.7,4040.74 11943.3,4040.52C11943.5,4043.22 11941.4,4044.52 11939.9,4044.74C11939.5,4044.8 11939.1,4044.78 11938.9,4044.69C11938.8,4044.66 11938.7,4044.63 11938.7,4044.59C11938.8,4045.75 11938.6,4046.6 11938.1,4047.2C11937.4,4048.18 11936.2,4048.53 11935.2,4048.51C11934.5,4048.51 11934,4048.35 11933.7,4048.13C11932.6,4051.88 11930,4052.85 11928.4,4052.58C11927.9,4052.48 11927.4,4052.24 11927.2,4051.91C11926.9,4056.49 11924.5,4057.95 11922.9,4057.79C11922.4,4057.74 11922,4057.52 11921.7,4057.19C11921.8,4058.19 11921.8,4060.54 11920.5,4062.47C11919.6,4063.82 11918.7,4064.35 11918,4064.39C11917.6,4064.41 11917.2,4064.24 11916.8,4063.96C11916.4,4063.64 11916.1,4063.15 11915.9,4062.62C11915.6,4066.97 11913.8,4069.68 11911.2,4071.01C11910.4,4071.43 11909.8,4071.43 11909.3,4071.23C11908.9,4071.04 11908.7,4070.67 11908.5,4070.3C11908.5,4070.22 11908.5,4070.14 11908.4,4070.06C11908.2,4072.51 11906.4,4075.66 11902.2,4077.85C11901.3,4078.36 11900.6,4078.41 11900.2,4078.21C11899.8,4077.99 11899.6,4077.5 11899.5,4076.87C11899.5,4076.28 11899.5,4075.56 11899.7,4074.86C11897.8,4079.37 11894.4,4083.65 11891.2,4084.88C11890.2,4085.27 11889.6,4085.21 11889.3,4084.93C11888.9,4084.65 11888.8,4084.13 11888.9,4083.56C11888.9,4083.07 11889,4082.54 11889.1,4082.11C11883.7,4091.11 11876.5,4092.28 11876.5,4092.28C11876.5,4092.28 11876.4,4092.26 11876.4,4092.23C11876.4,4092.19 11876.4,4092.15 11876.4,4092.12C11878,4090.49 11879.9,4086.41 11880.6,4084.85C11876,4090.29 11870.6,4092.02 11870.6,4092.02C11870.5,4092.03 11870.5,4092.02 11870.5,4091.99C11870.4,4091.96 11870.4,4091.91 11870.5,4091.88C11872.4,4089.1 11875.4,4081.04 11876.3,4078.49C11868.5,4090.65 11862.8,4091.53 11862.8,4091.53C11862.7,4091.53 11862.7,4091.51 11862.7,4091.48C11862.7,4091.45 11862.7,4091.41 11862.7,4091.38C11864.7,4088.4 11867.8,4083.59 11868.9,4081.84C11861.8,4088.5 11851.9,4090.19 11851.9,4090.19C11851.9,4090.2 11851.8,4090.17 11851.8,4090.13C11851.8,4090.09 11851.8,4090.04 11851.8,4090.02C11860.8,4085.24 11863.6,4081.24 11864.2,4080.05C11856.1,4086.3 11848.1,4084.27 11848.1,4084.27C11848,4084.26 11848,4084.22 11848,4084.17L11848,4084.17C11848,4084.12 11848,4084.09 11848.1,4084.08ZM12004.2,3987.23C12004.1,3987.2 12004.1,3987.16 12004,3987.12C11995.1,3982.32 11982.2,3977.8 11972,3975.12C11965.9,3973.51 11959,3971.68 11953.2,3970.75C11949.4,3970.13 11946.1,3969.91 11943.9,3970.43C11938.5,3971.71 11935.5,3974.23 11934.6,3978.79C11934,3982.05 11931.2,3986.21 11927.2,3989.57C11923.3,3992.94 11918.3,3995.52 11913.3,3995.62C11909.2,3995.7 11906.6,3994.65 11904.9,3993.28C11902.3,3991.2 11901.9,3988.37 11901.9,3987.52C11901.9,3986.12 11900,3976.99 11886.3,3975.58C11871.3,3974.05 11866.7,3973.62 11860,3977.41C11851.7,3982.13 11845.6,3982.65 11843,3984.03C11841.9,3984.61 11840,3985.37 11838.5,3986.09C11837.5,3986.57 11836.7,3987.03 11836.3,3987.43C11836.2,3987.5 11836.2,3987.58 11836.2,3987.64C11836.1,3987.7 11836.1,3987.76 11836.1,3987.81C11836.1,3987.89 11836.2,3987.96 11836.3,3988.02C11836.5,3988.1 11836.7,3988.16 11837,3988.22C11837.8,3988.35 11838.8,3988.32 11840,3988.18C11845,3987.33 11853.1,3984.51 11857.4,3983.01C11862.3,3981.28 11862.1,3978.21 11865.6,3977.9C11868.7,3977.62 11868.3,3980.49 11866.2,3980.64C11866.2,3980.64 11867.9,3981.47 11869.5,3981.8C11869.5,3981.8 11863.2,3981.33 11861.3,3982.07C11859.5,3982.79 11857.8,3984.28 11857.1,3985.78C11861.6,3985.75 11867.6,3985.67 11871.6,3985.07C11876.1,3984.38 11882.6,3984.57 11886.6,3985.97C11888.4,3986.57 11889.7,3987.41 11890.2,3988.49C11890.8,3989.59 11891.2,3991.11 11891.7,3992.78C11892.6,3995.26 11893.9,3998.09 11896.6,4000.33C11899.6,4002.83 11904.4,4004.6 11912.4,4004.4C11912.4,4004.4 11912.4,4004.4 11912.4,4004.4C11912.4,4004.4 11919.4,4005.07 11926.1,4002.18C11929.5,4000.73 11932.9,3998.55 11936.5,3997.2C11940.2,3995.84 11944,3995.3 11948,3997.15C11956,4000.81 11964.6,4004.62 11973.6,4003.35C11972.4,3998.49 11972.4,3993.03 11972.9,3988.43C11973.4,3984.34 11970.8,3981.74 11967.4,3980.09C11962.3,3977.58 11955.6,3977.24 11955.6,3977.24C11955.5,3977.24 11955.5,3977.19 11955.5,3977.14C11955.5,3977.09 11955.5,3977.05 11955.6,3977.05C11955.6,3977.05 11962.3,3977.4 11967.5,3979.92C11970.9,3981.61 11973.6,3984.28 11973.1,3988.45C11972.6,3993.06 11972.5,3998.54 11973.8,4003.4C11973.8,4003.41 11973.8,4003.41 11973.8,4003.41C11973.8,4003.61 11973.9,4003.82 11974,4004.02C11974.2,4005.08 11974.6,4006.1 11975,4007.07C11975,4007.07 11975,4007.08 11975,4007.08C11975.7,4008.54 11976.5,4009.89 11977.5,4011.09C11979,4012.87 11980.9,4014.31 11983.3,4015.21C11983.8,4015.38 11984.2,4015.46 11984.5,4015.46C11984.6,4015.46 11984.7,4015.44 11984.8,4015.4C11984.8,4015.4 11984.8,4015.39 11984.8,4015.39C11984.9,4015.36 11985,4015.32 11985,4015.27C11985.3,4015.04 11985.3,4014.64 11985.2,4014.21C11985.1,4013.54 11984.7,4012.81 11984.6,4012.56C11984.6,4012.52 11984.6,4012.48 11984.6,4012.45C11984.7,4012.42 11984.7,4012.41 11984.7,4012.43C11984.7,4012.43 11985.2,4012.72 11985.7,4012.83C11986,4012.89 11986.4,4012.89 11986.6,4012.7C11986.6,4012.69 11986.6,4012.69 11986.6,4012.69C11986.6,4012.68 11986.6,4012.67 11986.6,4012.66C11986.8,4012.52 11986.9,4012.27 11987,4011.89C11987.1,4011.3 11987,4010.38 11986.6,4009C11986.6,4008.97 11986.6,4008.94 11986.6,4008.91C11986.7,4008.89 11986.7,4008.88 11986.7,4008.88C11986.7,4008.88 11987.1,4008.94 11987.4,4008.81C11987.4,4008.81 11987.4,4008.8 11987.4,4008.8C11987.5,4008.8 11987.5,4008.8 11987.5,4008.8C11987.6,4008.74 11987.7,4008.66 11987.8,4008.53C11988,4008.3 11988.2,4007.92 11988.1,4007.32C11988,4006.68 11987.7,4005.81 11987,4004.61C11987,4004.57 11987,4004.53 11987,4004.51C11987,4004.5 11987,4004.49 11987,4004.48C11987,4004.47 11987.1,4004.47 11987.1,4004.47C11987.1,4004.47 11987.5,4004.58 11988,4004.51C11988.3,4004.47 11988.6,4004.36 11988.8,4004.09C11989.1,4003.73 11989.2,4003.25 11989.1,4002.8C11989,4002.11 11988.7,4001.5 11988.7,4001.5C11988.7,4001.47 11988.7,4001.43 11988.7,4001.4C11988.7,4001.39 11988.7,4001.39 11988.7,4001.39C11988.8,4001.37 11988.8,4001.36 11988.8,4001.37C11988.8,4001.37 11989.2,4001.51 11989.5,4001.3C11989.7,4001.21 11989.8,4001.05 11989.9,4000.78C11990,4000.6 11990,4000.4 11990,4000.21C11990,4000.2 11990,4000.2 11990,4000.2C11990,4000.14 11989.9,4000.09 11989.9,4000.04C11989.8,3999.66 11989.6,3999.36 11989.6,3999.36C11989.6,3999.32 11989.6,3999.27 11989.6,3999.24C11989.7,3999.21 11989.7,3999.21 11989.8,3999.24C11989.8,3999.24 11990,3999.43 11990.3,3999.54C11990.6,3999.64 11991,3999.68 11991.4,3999.37C11991.7,3999.14 11991.7,3998.82 11991.6,3998.53C11991.4,3998.05 11991,3997.63 11991,3997.63C11991,3997.6 11991,3997.54 11991,3997.5C11991.1,3997.47 11991.1,3997.47 11991.2,3997.5C11991.2,3997.5 11991.6,3997.89 11992.2,3998.02C11992.6,3998.11 11993,3998.09 11993.3,3997.77C11993.3,3997.77 11993.3,3997.76 11993.3,3997.76C11993.3,3997.76 11993.3,3997.76 11993.3,3997.75C11993.7,3997.44 11993.6,3997.05 11993.5,3996.7C11993.3,3996.14 11992.8,3995.66 11992.8,3995.66C11992.8,3995.63 11992.8,3995.58 11992.8,3995.54C11992.8,3995.5 11992.9,3995.49 11992.9,3995.52C11992.9,3995.52 11993.5,3995.91 11994.2,3996.03C11994.6,3996.11 11995.1,3996.07 11995.5,3995.72C11996.1,3995.2 11996,3994.36 11995,3993.37C11994.9,3993.34 11994.9,3993.28 11995,3993.25C11995,3993.21 11995.1,3993.2 11995.1,3993.23C11995.1,3993.23 11995.2,3993.32 11995.5,3993.44C11995.5,3993.44 11995.5,3993.44 11995.5,3993.45C11995.8,3993.62 11996.3,3993.86 11996.8,3994.01C11997.4,3994.17 11998,3994.22 11998.4,3993.9C11998.7,3993.67 11998.7,3993.33 11998.7,3992.98C11998.6,3992.61 11998.4,3992.22 11998,3991.92C11998,3991.89 11998,3991.83 11998,3991.79C11998,3991.75 11998.1,3991.74 11998.1,3991.76C11998.1,3991.76 11998.5,3992.01 11999.1,3992.12C11999.1,3992.12 11999.1,3992.12 11999.1,3992.12C11999.2,3992.13 11999.2,3992.14 11999.3,3992.15C11999.7,3992.19 12000.1,3992.15 12000.4,3991.9C12000.4,3991.9 12000.4,3991.9 12000.4,3991.9C12000.5,3991.88 12000.5,3991.85 12000.6,3991.82C12000.9,3991.55 12000.8,3991.16 12000.6,3990.79C12000.3,3990.18 11999.6,3989.63 11999.6,3989.63C11999.6,3989.6 11999.6,3989.55 11999.6,3989.51L11999.6,3989.51C11999.7,3989.48 11999.7,3989.46 11999.7,3989.47C11999.7,3989.47 12000.5,3989.7 12001.1,3989.64C12001.4,3989.6 12001.7,3989.46 12001.8,3989.04C12001.8,3988.96 12001.8,3988.89 12001.8,3988.82C12001.8,3988.81 12001.8,3988.81 12001.8,3988.81C12001.7,3988.03 12000.9,3987.62 12000.9,3987.62C12000.9,3987.6 12000.9,3987.57 12000.9,3987.53C12000.9,3987.49 12000.9,3987.46 12000.9,3987.45C12000.9,3987.45 12001.3,3987.3 12001.9,3987.2C12001.9,3987.19 12001.9,3987.19 12001.9,3987.19C12002.5,3987.09 12003.4,3987.05 12004.2,3987.23ZM11912.4,4004.59C11892.8,4019.09 11885.6,4032.34 11879.9,4045.27C11876.1,4053.91 11873.1,4062.41 11867.4,4071.04C11864,4076.33 11860.5,4082.47 11849.3,4084.11C11856.1,4084.04 11861.8,4079.91 11866.4,4074.53C11873.8,4065.96 11878.4,4054.24 11880.4,4050.66C11881.8,4048.08 11884,4043.85 11886.8,4038.96C11886.8,4038.96 11886.8,4038.96 11886.8,4038.96C11887.4,4037.97 11888,4036.97 11888.7,4035.94C11888.7,4035.93 11888.7,4035.93 11888.7,4035.93C11888.9,4035.59 11889.1,4035.24 11889.3,4034.9C11889.3,4034.84 11889.4,4034.78 11889.4,4034.73C11890.2,4033.53 11891,4032.3 11891.8,4031.07C11891.8,4031.07 11891.8,4031.06 11891.8,4031.06C11892.3,4030.35 11892.7,4029.64 11893.2,4028.93C11893.3,4028.92 11893.3,4028.92 11893.3,4028.91C11893.8,4028.07 11894.5,4027.24 11895.1,4026.4C11895.1,4026.4 11895.1,4026.4 11895.1,4026.4C11895.4,4025.92 11895.8,4025.45 11896.2,4024.97C11896.2,4024.97 11896.2,4024.97 11896.2,4024.97C11896.6,4024.38 11897.1,4023.8 11897.5,4023.22C11897.5,4023.22 11897.5,4023.22 11897.5,4023.22C11897.9,4022.8 11898.2,4022.38 11898.6,4021.96C11898.6,4021.96 11898.6,4021.96 11898.6,4021.95C11899.6,4020.78 11900.6,4019.62 11901.6,4018.5C11902,4018.08 11902.4,4017.67 11902.9,4017.28C11902.9,4017.28 11902.9,4017.28 11902.9,4017.28C11903.7,4016.49 11904.5,4015.76 11905.4,4015.07C11905.4,4015.07 11905.4,4015.07 11905.4,4015.07C11906.3,4014.36 11907.2,4013.7 11908.2,4013.08C11908.2,4013.08 11908.2,4013.07 11908.2,4013.07C11909.2,4012.42 11910.2,4011.81 11911.3,4011.23C11911.3,4011.23 11911.3,4011.23 11911.3,4011.22C11912.7,4010.48 11914,4009.8 11915.5,4009.15C11915.5,4009.15 11915.5,4009.15 11915.5,4009.15C11917.2,4008.37 11919,4007.65 11920.7,4006.97C11920.8,4006.97 11920.8,4006.97 11920.8,4006.97C11921.6,4006.64 11922.5,4006.32 11923.3,4006C11924.4,4005.62 11925.4,4005.25 11926.4,4004.89C11926.4,4004.89 11926.4,4004.88 11926.4,4004.88C11928.3,4004.22 11930.2,4003.56 11932,4002.88C11932,4002.88 11932,4002.88 11932,4002.88C11934,4002.14 11935.9,4001.37 11937.8,4000.54C11937.8,4000.54 11937.8,4000.54 11937.8,4000.53C11939.4,3999.82 11940.9,3999.06 11942.4,3998.22C11942.4,3998.22 11942.4,3998.22 11942.4,3998.22C11943.3,3997.65 11944.3,3997.05 11945.2,3996.41C11942.2,3995.79 11939.4,3996.34 11936.6,3997.37C11933,3998.72 11929.6,4000.9 11926.2,4002.35C11919.7,4005.14 11912.9,4004.64 11912.4,4004.59ZM12026.3,4010.94C12026.5,4011.09 12026.8,4011.08 12027.1,4010.96C12027.7,4010.65 12028,4009.68 12026,4008.5C12010.9,4001.75 12010.7,3998.99 12000.5,3992.09C12000.1,3992.32 11999.7,3992.37 11999.4,3992.34C12009.8,4001.62 12009.8,3999.72 12021.5,4007.33C12021.5,4007.33 12021.5,4007.34 12021.5,4007.34C12023.6,4008.48 12025.3,4009.63 12026.3,4010.94ZM12026,4008.33C12026.1,4008.35 12026.7,4008.48 12027.2,4008.44C12027.5,4008.41 12027.8,4008.32 12027.9,4008.04C12028,4007.95 12027.9,4007.85 12027.9,4007.75C12027.8,4007.64 12027.7,4007.53 12027.6,4007.42C12027,4006.88 12025.9,4006.41 12025.9,4006.39L12025.9,4006.39C12014.5,4001.95 12010,3995.83 12000.2,3989.98C12000.4,3990.19 12000.6,3990.44 12000.7,3990.7C12001,3991.15 12001,3991.63 12000.7,3991.95C12000.7,3991.96 12000.7,3991.97 12000.7,3991.97C12010.8,3998.84 12011,4001.6 12026,4008.33ZM12025.9,4006.21C12026,4006.19 12026.4,4006.11 12026.7,4005.93C12026.9,4005.81 12027.1,4005.65 12027.1,4005.43C12027.1,4005.27 12027,4005.09 12026.7,4004.88C12026.4,4004.53 12025.7,4004.11 12024.5,4003.61L12024.5,4003.61C12015,3999.91 12012.2,3995.15 12002,3988.97C12002,3989 12002,3989.03 12002,3989.06C12001.9,3989.58 12001.5,3989.78 12001.1,3989.83C12000.8,3989.85 12000.5,3989.83 12000.3,3989.79C12010.1,3995.63 12014.6,4001.76 12025.9,4006.21ZM12024.5,4003.43C12024.6,4003.43 12025.3,4003.42 12025.6,4003.25C12025.8,4003.19 12025.9,4003.11 12025.9,4002.97C12025.9,4002.85 12025.8,4002.69 12025.6,4002.48C12025.2,4002.13 12024.5,4001.67 12023.2,4001.06L12023.2,4001.06C12015.5,3997.85 12012.7,3993.22 12001.9,3987.38C12001.6,3987.44 12001.3,3987.51 12001.2,3987.56C12001.4,3987.74 12001.9,3988.14 12002,3988.75C12012.2,3994.95 12015,3999.72 12024.5,4003.43ZM12023.2,4000.89C12023.3,4000.89 12023.7,4000.89 12024.1,4000.8C12024.2,4000.77 12024.3,4000.72 12024.4,4000.66C12024.4,4000.61 12024.5,4000.54 12024.4,4000.45C12024.4,4000.31 12024.3,4000.13 12024.1,3999.89C12023.7,3999.5 12023,3998.98 12021.7,3998.28C12018.5,3996.45 12011,3991.09 12005,3987.7C12004,3987.26 12003,3987.24 12002.2,3987.34C12012.8,3993.11 12015.7,3997.7 12023.2,4000.89ZM12026.3,4023.9C12026.4,4023.84 12026.8,4023.65 12026.9,4023.26C12027,4023.01 12027,4022.68 12026.8,4022.24C12026.6,4021.78 12026.2,4021.21 12025.4,4020.51C12025.4,4020.5 12025.4,4020.5 12025.4,4020.5C12023.2,4017.93 12019.5,4016.09 12015.1,4013.98C12008.3,4010.81 11999.8,4007.01 11991.8,3999.18C11991.7,3999.3 11991.6,3999.41 11991.5,3999.51C11991.1,3999.87 11990.6,3999.84 11990.2,3999.71C11990.1,3999.67 11990,3999.63 11990,3999.58C11990,3999.7 11990.1,3999.84 11990.1,3999.99C11990.1,4000.04 11990.1,4000.09 11990.1,4000.14C11997.4,4007.83 12007.3,4012.39 12015,4016.28C12020.2,4018.87 12024.4,4021.17 12026.3,4023.9ZM12025.5,4020.33C12025.6,4020.28 12025.8,4020.17 12026,4019.99C12026.2,4019.84 12026.3,4019.62 12026.4,4019.35C12026.4,4018.88 12026.2,4018.24 12025.1,4017.4C12025.1,4017.4 12025.1,4017.4 12025.1,4017.4C12022.7,4015.13 12019.2,4013.48 12015,4011.55C12008.7,4008.64 12001,4005.11 11993.4,3997.95C11993,3998.28 11992.6,3998.3 11992.2,3998.2C11991.9,3998.14 11991.7,3998.04 11991.5,3997.94C11991.6,3998.1 11991.7,3998.28 11991.8,3998.47C11991.8,3998.64 11991.8,3998.81 11991.8,3998.98C11999.9,4006.83 12008.4,4010.64 12015.1,4013.81C12019.6,4015.92 12023.3,4017.76 12025.5,4020.33ZM12025.2,4017.24C12025.3,4017.24 12025.7,4017.23 12026.1,4017.13C12026.4,4017.05 12026.6,4016.92 12026.8,4016.68C12026.9,4016.49 12027,4016.24 12026.9,4015.89C12026.7,4015.52 12026.4,4015.05 12025.9,4014.46C12023.5,4012.2 12019.8,4010.65 12015.6,4008.88C12009.3,4006.22 12001.6,4003.05 11994.9,3996.21C11994.7,3996.27 11994.4,3996.26 11994.1,3996.21C11993.8,3996.16 11993.5,3996.04 11993.3,3995.93C11993.4,3996.13 11993.6,3996.38 11993.7,3996.64C11993.8,3997.03 11993.8,3997.46 11993.5,3997.82C12001.1,4004.96 12008.8,4008.48 12015.1,4011.38C12019.3,4013.31 12022.8,4014.97 12025.2,4017.24ZM12026,4014.32C12026.2,4014.42 12026.4,4014.47 12026.6,4014.46C12027,4014.44 12027.3,4014.3 12027.4,4014.03C12027.5,4013.84 12027.6,4013.59 12027.5,4013.29C12027.4,4012.74 12027,4012.01 12026.2,4011.07C12024.5,4009.61 12020.7,4008.23 12016.2,4006.41C12009.5,4003.74 12001.2,4000.14 11995.8,3994.08C11996.2,3994.82 11996.1,3995.44 11995.6,3995.87C11995.5,3996 11995.3,3996.09 11995.1,3996.15C12001.8,4002.92 12009.4,4006.06 12015.7,4008.71C12019.9,4010.49 12023.6,4012.05 12026,4014.32ZM11849.4,4084.3C11852,4084.58 11858.3,4084.58 11864.5,4079.64C11868.2,4076.68 11872,4070.37 11875.5,4063.55C11879.8,4055.21 11883.5,4046.12 11885.6,4041.43C11883.4,4045.3 11881.7,4048.6 11880.6,4050.75C11878.6,4054.34 11874,4066.07 11866.6,4074.65C11861.9,4080.03 11856.2,4084.18 11849.4,4084.3ZM11864.6,4079.77C11864.4,4080.12 11862.4,4084.48 11852.5,4089.89C11854.8,4089.39 11863.3,4087.22 11869.3,4081.16C11869.3,4081.16 11869.3,4081.16 11869.3,4081.16C11874.7,4076.2 11877.5,4068.65 11880,4060.46C11882.3,4053.01 11884.3,4045.03 11887.6,4038.02C11887.4,4038.36 11887.2,4038.71 11887,4039.05C11885.3,4041.99 11880.9,4053.39 11875.7,4063.63C11872.2,4070.47 11868.3,4076.79 11864.6,4079.77ZM11869.5,4081.28C11869.3,4081.57 11865.4,4087.65 11863,4091.29C11864.1,4090.98 11869.5,4088.96 11876.6,4077.68C11876.6,4077.68 11876.6,4077.68 11876.6,4077.68C11879.4,4073.78 11881.9,4064.19 11884,4055.01C11885.5,4048.57 11886.8,4042.33 11888,4038.39C11888.2,4037.65 11888.4,4037 11888.6,4036.43C11884.8,4043.82 11882.7,4052.47 11880.2,4060.52C11877.7,4068.73 11874.8,4076.31 11869.5,4081.28ZM11876.8,4077.78C11876.6,4078.18 11873,4088.24 11870.8,4091.75C11871.9,4091.32 11876.8,4089.28 11880.9,4084.2C11880.9,4084.2 11880.9,4084.2 11880.9,4084.2C11882.2,4082.81 11883.2,4080.87 11883.9,4078.55C11885,4075.06 11885.5,4070.68 11885.9,4065.93C11886.9,4054.64 11887,4041.24 11891.1,4032.48C11890.5,4033.27 11890,4034.05 11889.6,4034.83C11889.6,4034.83 11889.6,4034.83 11889.6,4034.83C11889.5,4034.89 11889.5,4034.94 11889.5,4035C11889,4035.7 11888.6,4036.89 11888.1,4038.44C11887,4042.38 11885.6,4048.61 11884.2,4055.05C11882,4064.25 11879.6,4073.86 11876.8,4077.78ZM11881.1,4084.31C11880.9,4084.62 11878.6,4089.89 11876.8,4092.04C11878.2,4091.71 11884.6,4089.77 11889.5,4081.18C11889.5,4081.18 11889.5,4081.18 11889.5,4081.17C11891.2,4078.34 11892.1,4074.24 11892.5,4069.57C11893,4062.53 11892.5,4054.18 11892,4046.8C11891.8,4041.87 11891.6,4037.38 11891.9,4034.01C11892,4032.46 11892.3,4031.14 11892.6,4030.12C11892.4,4030.47 11892.2,4030.82 11891.9,4031.16C11887.2,4039.83 11887.1,4054.06 11886.1,4065.94C11885.4,4073.89 11884.3,4080.8 11881.1,4084.31ZM11889.6,4081.27C11889.6,4081.37 11889.1,4082.55 11889,4083.57C11889,4084.07 11889.1,4084.54 11889.4,4084.79C11889.7,4085.04 11890.2,4085.06 11891.1,4084.71C11894.6,4083.38 11898.3,4078.43 11900,4073.54C11900.2,4072.75 11900.4,4072.17 11900.4,4072.17C11901.3,4069.78 11901.1,4066.28 11900.5,4062.26C11899.6,4056.21 11897.5,4048.98 11895.9,4042.51C11894.9,4038.19 11894.1,4034.21 11894,4031.16C11894,4029.72 11894.1,4028.48 11894.5,4027.51C11894.1,4028.01 11893.8,4028.51 11893.4,4029.01C11893.4,4029.01 11893.4,4029.03 11893.4,4029.04C11892.7,4030.08 11892.3,4031.81 11892.1,4034.03C11891.8,4037.39 11892,4041.87 11892.2,4046.79C11892.6,4054.17 11893.2,4062.54 11892.7,4069.58C11892.3,4074.29 11891.4,4078.41 11889.6,4081.27ZM11900.6,4072.23C11900.5,4072.69 11900.3,4073.16 11900.2,4073.62C11899.9,4074.59 11899.6,4075.89 11899.7,4076.85C11899.8,4077.41 11899.9,4077.85 11900.3,4078.04C11900.7,4078.23 11901.3,4078.15 11902.2,4077.68C11906.7,4075.27 11908.4,4071.7 11908.3,4069.2L11908.3,4069.18C11908.3,4069.18 11908.3,4069.18 11908.3,4069.18C11908.5,4066.52 11907.4,4062.22 11905.8,4057.31C11903.4,4049.92 11899.7,4041.17 11897.6,4034.59C11896.6,4031.75 11896,4029.32 11895.8,4027.56C11895.7,4026.8 11895.7,4026.17 11895.8,4025.68C11895.6,4025.96 11895.4,4026.23 11895.2,4026.51C11895.2,4026.51 11895.2,4026.51 11895.2,4026.51C11894.5,4027.54 11894.2,4029.15 11894.2,4031.15C11894.2,4034.2 11895,4038.16 11896.1,4042.47C11897.6,4048.94 11899.7,4056.18 11900.7,4062.24C11901.3,4066.29 11901.5,4069.82 11900.6,4072.23ZM11908.5,4069.18L11908.5,4069.2C11908.5,4069.29 11908.5,4069.76 11908.7,4070.23C11908.8,4070.56 11909.1,4070.89 11909.4,4071.06C11909.8,4071.24 11910.3,4071.23 11911.1,4070.84C11913.8,4069.5 11915.5,4066.68 11915.7,4062.15L11915.7,4062.15C11915.8,4060.61 11914.9,4058.25 11913.4,4055.44C11910,4048.83 11903.7,4039.74 11900,4032.75C11898.6,4030.17 11897.6,4027.87 11897.3,4026.09C11897.1,4025.22 11897.1,4024.47 11897.3,4023.87C11896.9,4024.27 11896.6,4024.68 11896.3,4025.08C11895.9,4025.56 11895.9,4026.41 11896,4027.54C11896.2,4029.29 11896.8,4031.71 11897.7,4034.53C11899.9,4041.12 11903.5,4049.87 11906,4057.25C11907.6,4062.18 11908.7,4066.51 11908.5,4069.18ZM11915.9,4062.14C11916.1,4062.69 11916.4,4063.22 11916.7,4063.61C11917.1,4063.98 11917.5,4064.22 11918,4064.2C11918.7,4064.17 11919.5,4063.65 11920.3,4062.36C11922,4059.91 11921.5,4056.74 11921.5,4056.72C11921.5,4056.72 11921.5,4056.72 11921.5,4056.71C11921.3,4054.96 11920.1,4052.64 11918.4,4050.02C11914.2,4043.87 11906.9,4036.09 11902.4,4030.14C11900.7,4027.95 11899.4,4026.01 11898.8,4024.48C11898.5,4023.67 11898.4,4022.97 11898.4,4022.42C11898.2,4022.72 11897.9,4023.03 11897.7,4023.33C11897.3,4023.98 11897.2,4024.91 11897.5,4026.06C11897.8,4027.83 11898.8,4030.1 11900.1,4032.66C11903.8,4039.65 11910.2,4048.75 11913.6,4055.35C11915.1,4058.19 11916,4060.58 11915.9,4062.14ZM11921.7,4056.69C11921.9,4057.39 11922.7,4057.76 11923.6,4057.57C11925.1,4057.27 11926.9,4055.58 11927,4051.56L11927,4051.56C11927,4051.14 11926.9,4050.65 11926.6,4050.09C11926.3,4049.24 11925.6,4048.24 11924.8,4047.13C11921.4,4042.78 11915,4036.78 11909.6,4031.45C11906,4027.89 11902.8,4024.62 11901.3,4022.33C11900.7,4021.47 11900.4,4020.75 11900.3,4020.19C11899.8,4020.81 11899.3,4021.43 11898.7,4022.07C11898.5,4022.64 11898.6,4023.43 11899,4024.41C11899.6,4025.92 11900.9,4027.85 11902.5,4030.03C11907.1,4035.98 11914.4,4043.76 11918.5,4049.91C11920.3,4052.56 11921.5,4054.91 11921.7,4056.69ZM11927.2,4051.55C11927.3,4051.97 11927.8,4052.29 11928.5,4052.39C11930,4052.66 11932.6,4051.67 11933.5,4047.94L11933.5,4047.94C11933.6,4047.65 11933.5,4047.3 11933.4,4046.91C11933.1,4046.29 11932.7,4045.55 11932,4044.72C11929.4,4041.47 11923.9,4036.83 11918.4,4032.26C11912.9,4027.69 11907.4,4023.19 11904.6,4020.23C11903.9,4019.47 11903.4,4018.8 11903.1,4018.27C11903,4018 11902.9,4017.76 11902.8,4017.56C11902.5,4017.9 11902.1,4018.26 11901.8,4018.63C11901.4,4019.08 11900.9,4019.53 11900.5,4019.99C11900.5,4020.53 11900.8,4021.3 11901.5,4022.23C11903,4024.51 11906.1,4027.76 11909.7,4031.32C11915.2,4036.66 11921.6,4042.66 11924.9,4047.01C11925.8,4048.14 11926.4,4049.15 11926.8,4050.02C11927.1,4050.6 11927.2,4051.11 11927.2,4051.55ZM11933.7,4047.93C11933.8,4048.02 11933.9,4048.09 11934.1,4048.15C11934.4,4048.26 11934.8,4048.32 11935.2,4048.33C11936.1,4048.34 11937.3,4048.02 11938,4047.09C11938.4,4046.47 11938.6,4045.59 11938.4,4044.36L11938.4,4044.36C11938.2,4043.23 11937.2,4041.94 11935.3,4040.26C11932.6,4037.7 11927.9,4034.27 11921.2,4029.19C11919,4027.54 11910.5,4020.55 11906.9,4017.04C11906.4,4016.51 11906,4016.06 11905.7,4015.72C11905.6,4015.55 11905.5,4015.41 11905.4,4015.29C11904.6,4015.95 11903.8,4016.65 11903,4017.39C11903,4017.6 11903.1,4017.87 11903.3,4018.18C11903.5,4018.7 11904.1,4019.36 11904.8,4020.11C11907.5,4023.06 11913.1,4027.55 11918.6,4032.12C11924.1,4036.7 11929.5,4041.35 11932.2,4044.61C11932.8,4045.45 11933.3,4046.2 11933.6,4046.84C11933.7,4047.26 11933.8,4047.62 11933.7,4047.93ZM11938.6,4044.31C11938.7,4044.4 11938.8,4044.47 11938.9,4044.51C11939.2,4044.6 11939.5,4044.61 11939.9,4044.56C11941.3,4044.34 11943.4,4043.05 11943.1,4040.36C11943.1,4040.36 11943.1,4040.36 11943.1,4040.36C11943.1,4040.05 11942.9,4039.7 11942.7,4039.33C11942.2,4038.74 11941.6,4038.09 11940.7,4037.39C11937.4,4034.64 11931.3,4031.17 11927.4,4028.27C11920.7,4023.29 11909.9,4014.65 11908.2,4013.27C11907.3,4013.87 11906.4,4014.5 11905.6,4015.18C11905.6,4015.28 11905.7,4015.43 11905.9,4015.61C11906.1,4015.95 11906.5,4016.39 11907.1,4016.91C11910.6,4020.41 11919.1,4027.39 11921.3,4029.04C11928,4034.12 11932.7,4037.56 11935.5,4040.12C11937.3,4041.83 11938.4,4043.16 11938.6,4044.31ZM11943.3,4040.3C11943.7,4040.55 11944.3,4040.63 11944.8,4040.52C11946.3,4040.26 11947.8,4038.87 11947.4,4036.08C11947.4,4036.07 11947.4,4036.07 11947.4,4036.07C11947.3,4035.01 11946.3,4033.94 11944.9,4032.85C11941.5,4030.26 11935.5,4027.62 11932,4025.09C11926.9,4021.49 11913.3,4012.55 11911.3,4011.42C11910.3,4011.96 11909.4,4012.55 11908.4,4013.16C11910.2,4014.65 11920.8,4023.19 11927.5,4028.12C11931.4,4031.02 11937.5,4034.49 11940.8,4037.25C11941.7,4037.96 11942.4,4038.62 11942.8,4039.22C11943.1,4039.61 11943.2,4039.97 11943.3,4040.3ZM11947.5,4035.97C11948.2,4035.97 11952.4,4035.76 11953.1,4031.25L11953.1,4031.25C11953.1,4030.95 11953,4030.63 11952.8,4030.31C11952.4,4029.79 11951.8,4029.25 11951,4028.7C11947.8,4026.55 11941.9,4024.3 11939.1,4022.97C11927.3,4017.31 11922.9,4013.32 11915.5,4009.34C11914.2,4009.95 11912.8,4010.61 11911.5,4011.31C11913.8,4012.66 11927.1,4021.4 11932.1,4024.93C11935.6,4027.47 11941.6,4030.11 11945,4032.7C11946.4,4033.8 11947.4,4034.9 11947.5,4035.97ZM11953.3,4031.18C11953.8,4031.26 11956.2,4031.53 11957.8,4030.02C11958.5,4029.31 11959.1,4028.19 11959.2,4026.45C11959.2,4026.45 11959.2,4026.45 11959.2,4026.45C11959.2,4026.19 11959.1,4025.91 11958.9,4025.64C11958.6,4025.2 11958.1,4024.76 11957.4,4024.32C11954.8,4022.57 11949.9,4020.87 11947,4019.9C11933,4015.25 11927.9,4010.6 11920.8,4007.15C11919.1,4007.81 11917.4,4008.5 11915.7,4009.24C11923,4013.2 11927.5,4017.18 11939.2,4022.81C11942,4024.14 11947.9,4026.39 11951.1,4028.55C11951.9,4029.11 11952.6,4029.67 11953,4030.2C11953.2,4030.54 11953.3,4030.87 11953.3,4031.18ZM11959.3,4026.39C11959.7,4026.49 11961.1,4026.86 11962.5,4026.17C11963.7,4025.64 11964.8,4024.51 11965.5,4022.19L11965.5,4022.18C11965.5,4021.96 11965.4,4021.73 11965.2,4021.48C11964.9,4021.07 11964.3,4020.64 11963.6,4020.2C11960.5,4018.45 11954.4,4016.56 11950.3,4015.56C11938.8,4012.69 11930.8,4006.86 11926.5,4005.07C11925.4,4005.43 11924.4,4005.8 11923.4,4006.18C11922.6,4006.47 11921.8,4006.76 11921,4007.06C11928.1,4010.49 11933.1,4015.11 11947,4019.73C11950,4020.7 11954.9,4022.41 11957.5,4024.16C11958.2,4024.62 11958.7,4025.08 11959,4025.53C11959.2,4025.82 11959.3,4026.11 11959.3,4026.39ZM11965.7,4022.13C11966.1,4022.17 11967.8,4022.26 11969,4021.04C11969.6,4020.44 11970.1,4019.52 11970.3,4018.14L11970.3,4018.13C11970.3,4017.69 11970,4017.18 11969.3,4016.65C11968.2,4015.83 11966.2,4015.01 11963,4014.5C11957.7,4013.65 11952.5,4012.06 11948.1,4010.66C11940.2,4008.15 11935.2,4004.63 11932,4003.07C11930.3,4003.72 11928.5,4004.34 11926.7,4004.98C11931.1,4006.85 11939,4012.56 11950.4,4015.38C11954.5,4016.38 11960.6,4018.28 11963.7,4020.03C11964.5,4020.49 11965.1,4020.94 11965.4,4021.37C11965.6,4021.63 11965.7,4021.89 11965.7,4022.13ZM11970.5,4018.07C11972.1,4018.37 11973.2,4018.11 11974,4017.44C11974.9,4016.77 11975.4,4015.69 11975.6,4014.39L11975.6,4014.39C11975.7,4014 11975.4,4013.53 11974.8,4013.04C11973.9,4012.27 11972,4011.48 11968.8,4010.97C11963.5,4010.12 11958.1,4009.37 11953.8,4007.91C11946.8,4005.6 11940.4,4001.86 11937.8,4000.72C11936,4001.53 11934.2,4002.26 11932.3,4002.98C11935.4,4004.58 11940.4,4008.02 11948.2,4010.49C11952.6,4011.88 11957.7,4013.47 11963,4014.32C11966.3,4014.83 11968.3,4015.67 11969.4,4016.5C11970.1,4017.05 11970.4,4017.6 11970.5,4018.07ZM11975.8,4014.28C11976.4,4014.05 11976.8,4013.54 11977,4013C11977.3,4012.41 11977.3,4011.79 11977.3,4011.43C11977.3,4011.37 11977.3,4011.32 11977.3,4011.27L11977.3,4011.18C11976.3,4009.99 11975.5,4008.65 11974.9,4007.21C11974,4007.25 11964.5,4007.66 11955.6,4004.24C11948.9,4001.66 11943,3998.69 11942.4,3998.41C11941,3999.2 11939.6,3999.93 11938,4000.62C11940.7,4001.83 11947,4005.47 11953.8,4007.74C11958.2,4009.19 11963.5,4009.94 11968.8,4010.79C11972,4011.3 11974,4012.11 11974.9,4012.89C11975.5,4013.38 11975.8,4013.87 11975.8,4014.28ZM11977.5,4011.42C11978.1,4019.41 11978.9,4031.61 11981.6,4039.38C11983.5,4044.53 11986.2,4047.73 11990.3,4046.38C11989.7,4044.41 11988.8,4042.81 11987.7,4041.12C11986.1,4038.53 11984.1,4035.74 11983,4031.14C11981.2,4024.01 11980.1,4017.99 11979.7,4013.41C11978.9,4012.82 11978.2,4012.15 11977.5,4011.42ZM11990.5,4046.41C11990.5,4046.46 11990.9,4047.85 11990.7,4050.47C11991.1,4050.5 11992.5,4050.6 11993.8,4050.47C11994.7,4050.36 11995.3,4050.05 11995.7,4049.61C11996.3,4048.95 11996.4,4048.01 11996.2,4047.09C11996.1,4046.12 11995.7,4045.18 11995.5,4044.6C11995.4,4044.41 11995.3,4044.22 11995.2,4044.02L11995.2,4044.02C11992.2,4038.59 11989.2,4035.84 11986.8,4030.49C11984.4,4024.99 11982.4,4017.58 11982.2,4014.92C11981.3,4014.53 11980.6,4014.08 11979.9,4013.56C11980.3,4018.11 11981.4,4024.06 11983.1,4031.09C11984.3,4035.68 11986.2,4038.45 11987.9,4041.02C11989,4042.75 11989.9,4044.38 11990.5,4046.41L11990.5,4046.41ZM11995.3,4043.94C11995.4,4043.97 11995.5,4044.19 11995.6,4044.52C11996.7,4046.77 11997.9,4048.34 11998.7,4049.7C11999.6,4051.17 12000.2,4052.4 12000,4054.01C12000.4,4054.15 12003.2,4054.83 12004.4,4052.17C12004.9,4050.83 12005,4049.32 12004.8,4047.98C12004.5,4046.02 12003.7,4044.44 12003.7,4044.36C12003.7,4044.36 12003.7,4044.36 12003.7,4044.36C12001.1,4039.55 11994.5,4034.31 11991.3,4029.47C11987.7,4024.2 11986.3,4020.58 11984.8,4015.6C11984.7,4015.63 11984.6,4015.64 11984.5,4015.64C11984.2,4015.64 11983.8,4015.57 11983.3,4015.38C11983,4015.26 11982.7,4015.14 11982.4,4015.01C11982.7,4017.75 11984.6,4025.01 11987,4030.41C11989.3,4035.76 11992.3,4038.51 11995.3,4043.93C11995.3,4043.94 11995.3,4043.94 11995.3,4043.94ZM12003.8,4044.28C12005.1,4046.35 12006.2,4047.51 12007.1,4048.54C12008.1,4049.58 12008.8,4050.5 12009.3,4052.08C12009.5,4052.1 12010.5,4052.15 12011.5,4051.93C12012.3,4051.76 12013.1,4051.43 12013.6,4050.8C12014.5,4049.73 12014.7,4047.83 12012.7,4044.44C12009.7,4039.33 12002.9,4033.9 11998.6,4029.97C11993.7,4025.51 11988.6,4018.2 11986.6,4012.91C11986.3,4013.07 11986,4013.07 11985.7,4013.01C11985.4,4012.95 11985.1,4012.83 11984.9,4012.74C11985.1,4013.09 11985.3,4013.65 11985.4,4014.18C11985.5,4014.67 11985.4,4015.14 11985.2,4015.4C11985.1,4015.45 11985.1,4015.5 11985,4015.53C11986.5,4020.5 11987.9,4024.12 11991.4,4029.37C11994.7,4034.21 12001.3,4039.46 12003.8,4044.27L12003.8,4044.28ZM12012.9,4044.34C12014.1,4046.38 12015.3,4047.47 12016.6,4047.7C12017.4,4047.85 12018.2,4047.62 12019,4047.05C12019.8,4046.49 12020.1,4045.46 12020.1,4044.43C12020.1,4042.97 12019.7,4041.51 12019.6,4041.28C12019.6,4041.27 12019.6,4041.26 12019.6,4041.24C12018.9,4038.99 12016.8,4036.7 12014.2,4034.51C12010.4,4031.22 12005.5,4028.16 12002.6,4025.86C11997.5,4021.71 11990.1,4014.61 11987.4,4009C11987.2,4009.07 11987,4009.08 11986.8,4009.08C11987.2,4010.42 11987.3,4011.33 11987.2,4011.92C11987.1,4012.35 11987,4012.62 11986.8,4012.8C11988.8,4018.07 11993.8,4025.38 11998.7,4029.83C12003,4033.75 12009.8,4039.16 12012.8,4044.25C12012.9,4044.25 12012.9,4044.26 12012.9,4044.26C12012.9,4044.26 12012.9,4044.33 12012.9,4044.34C12012.9,4044.34 12012.9,4044.34 12012.9,4044.34ZM12019.8,4041.19C12019.8,4041.19 12019.8,4041.23 12019.8,4041.23C12019.8,4041.33 12020,4041.57 12020.3,4041.82C12020.7,4042.25 12021.4,4042.73 12022.1,4042.69C12022.6,4042.66 12023.1,4042.4 12023.6,4041.75C12024.1,4041.13 12024.1,4040.31 12024,4039.55C12023.8,4038.38 12023.3,4037.35 12023.3,4037.35C12023.3,4037.35 12023.3,4037.35 12023.3,4037.35C12022.2,4035.12 12019.8,4032.77 12016.9,4030.51C12012.6,4027.1 12007.4,4023.9 12004.4,4021.68C11999.2,4017.7 11993.2,4013.41 11987.7,4005.71C11988,4006.35 11988.2,4006.87 11988.2,4007.29C11988.3,4007.97 11988.2,4008.39 11988,4008.65C11987.9,4008.78 11987.7,4008.87 11987.6,4008.93C11990.2,4014.52 11997.6,4021.59 12002.8,4025.71C12005.6,4028.02 12010.5,4031.07 12014.4,4034.37C12016.9,4036.58 12019,4038.91 12019.8,4041.19ZM12023.5,4037.26C12023.7,4037.58 12024.4,4037.92 12025.1,4037.98C12025.5,4038.01 12025.9,4037.92 12026.2,4037.6C12026.4,4037.38 12026.5,4037.06 12026.5,4036.6C12026.5,4035.89 12026.2,4034.86 12025.5,4033.42L12025.5,4033.42C12024.1,4030.83 12019.8,4027.66 12014.5,4023.99C12006.4,4018.48 11996,4011.83 11988.9,4004.29C11988.7,4004.54 11988.3,4004.65 11988,4004.7C11987.7,4004.73 11987.5,4004.71 11987.3,4004.69C11992.9,4012.95 11999.1,4017.41 12004.5,4021.53C12007.5,4023.76 12012.7,4026.95 12017,4030.36C12019.9,4032.64 12022.4,4035.02 12023.5,4037.26ZM12025.6,4033.32C12025.9,4033.54 12026.4,4033.77 12026.8,4033.83C12027.1,4033.87 12027.4,4033.84 12027.6,4033.67C12027.8,4033.51 12027.9,4033.21 12027.8,4032.74C12027.8,4031.97 12027.3,4030.77 12026.3,4028.94L12026.3,4028.93C12024.6,4026.2 12020.1,4023.36 12014.7,4020.1C12006.6,4015.28 11996.2,4009.55 11989.1,4001.92C11989.2,4002.16 11989.3,4002.46 11989.3,4002.78C11989.4,4003.25 11989.3,4003.75 11989,4004.15C11996.1,4011.69 12006.5,4018.33 12014.6,4023.84C12019.9,4027.53 12024.2,4030.72 12025.6,4033.32ZM12026.4,4028.8C12026.6,4028.8 12027.3,4028.76 12027.6,4028.29C12027.8,4028.01 12027.9,4027.58 12027.7,4026.92C12027.5,4026.24 12027.1,4025.31 12026.2,4024.07C12026.2,4024.07 12026.2,4024.06 12026.2,4024.06C12024.3,4021.33 12020.1,4019.04 12015,4016.45C12007.3,4012.57 11997.5,4008.05 11990.2,4000.44C11990.2,4000.58 11990.2,4000.72 11990.1,4000.85C11990,4001.16 11989.8,4001.35 11989.6,4001.46C11989.4,4001.59 11989.2,4001.61 11989,4001.6C11996.2,4009.31 12006.6,4015.09 12014.8,4019.94C12020.2,4023.21 12024.7,4026.06 12026.4,4028.8ZM11973.6,4003.53C11964.6,4004.81 11956,4001 11947.9,3997.32C11947.1,3996.94 11946.2,3996.66 11945.4,3996.47C11945.4,3996.47 11945.4,3996.48 11945.4,3996.49C11944.5,3997.13 11943.6,3997.73 11942.6,3998.29C11943.6,3998.79 11949.2,4001.61 11955.6,4004.07C11964.3,4007.4 11973.6,4007.08 11974.8,4007.03C11974.4,4006.08 11974.1,4005.09 11973.8,4004.07C11973.7,4003.89 11973.7,4003.71 11973.6,4003.53ZM11999,3992.29C11998.8,3992.25 11998.6,3992.19 11998.5,3992.13C11998.9,3992.67 11999,3993.33 11998.7,3993.79C12004.4,3999.53 12011.8,4002.74 12017.7,4005.47C12018.4,4005.83 12019.2,4006.18 12019.9,4006.53C12009.6,3999.97 12009.3,4001.38 11999,3992.29ZM11998.6,3993.94C11998.6,3993.98 11998.5,3994.01 11998.5,3994.05C11998.1,3994.4 11997.4,3994.36 11996.8,3994.19C11996.4,3994.09 11996.1,3993.95 11995.8,3993.82C12001.2,3999.95 12009.5,4003.55 12016.2,4006.24C12020.3,4007.85 12023.7,4009.14 12025.6,4010.43C12024.6,4009.38 12023.2,4008.44 12021.4,4007.5C12021.4,4007.49 12021.4,4007.49 12021.4,4007.49C12021.4,4007.49 12021.4,4007.49 12021.4,4007.48C12020.2,4006.88 12018.9,4006.27 12017.6,4005.64C12011.7,4002.91 12004.3,3999.69 11998.6,3993.94ZM11856.6,3981.17C11856.6,3981.17 11857,3980.13 11858.3,3980.33C11858.3,3980.33 11858.1,3981.01 11856.6,3981.17ZM11865.6,3980.36C11865,3979.88 11865.7,3979.39 11866.2,3979.83C11866.4,3980.04 11866.8,3979.94 11867,3979.71C11867.3,3979.48 11867.4,3979.04 11867.1,3978.8C11865.7,3977.81 11864.1,3979.67 11865.6,3980.36ZM11908.4,4203.25L11904.5,4203.25L11904.5,4202.59L11908.4,4196.96L11909.1,4196.96L11909.1,4202.6L11910.3,4202.6L11910.3,4203.25L11909.1,4203.25L11909.1,4205.34L11908.4,4205.34L11908.4,4203.25ZM11905.3,4202.6L11908.4,4202.6L11908.4,4198.11L11905.3,4202.6ZM11912.4,4200.55C11912.4,4200.56 11912.3,4200.57 11912.2,4200.59C11912.1,4200.61 11912.1,4200.62 11912,4200.62C11911.8,4200.62 11911.7,4200.57 11911.6,4200.48C11911.5,4200.4 11911.4,4200.23 11911.4,4200L11911.4,4197.73L11911,4197.73L11911,4197.43L11911.4,4197.43L11911.4,4196.56L11911.8,4196.56L11911.8,4197.43L11912.4,4197.43L11912.4,4197.73L11911.8,4197.73L11911.8,4199.86C11911.8,4199.93 11911.8,4200 11911.8,4200.06C11911.8,4200.11 11911.8,4200.16 11911.8,4200.19C11911.9,4200.23 11911.9,4200.26 11911.9,4200.27C11912,4200.29 11912,4200.3 11912.1,4200.3C11912.1,4200.3 11912.2,4200.29 11912.2,4200.28C11912.3,4200.28 11912.3,4200.27 11912.4,4200.25L11912.4,4200.55ZM11914.3,4200.62C11914.1,4200.62 11913.9,4200.58 11913.7,4200.51C11913.5,4200.44 11913.4,4200.34 11913.2,4200.21C11913.1,4200.07 11913,4199.9 11912.9,4199.7C11912.9,4199.49 11912.8,4199.25 11912.8,4198.98C11912.8,4198.75 11912.9,4198.54 11912.9,4198.34C11913,4198.14 11913.1,4197.97 11913.2,4197.82C11913.3,4197.68 11913.5,4197.56 11913.6,4197.47C11913.8,4197.39 11914,4197.34 11914.3,4197.34C11914.5,4197.34 11914.7,4197.39 11914.9,4197.47C11915.1,4197.56 11915.2,4197.67 11915.4,4197.82C11915.5,4197.97 11915.6,4198.14 11915.6,4198.34C11915.7,4198.54 11915.7,4198.75 11915.7,4198.98C11915.7,4199.23 11915.7,4199.45 11915.6,4199.65C11915.5,4199.85 11915.4,4200.03 11915.3,4200.17C11915.2,4200.31 11915,4200.43 11914.9,4200.5C11914.7,4200.58 11914.5,4200.62 11914.3,4200.62ZM11915.3,4198.98C11915.3,4198.8 11915.3,4198.62 11915.3,4198.47C11915.2,4198.31 11915.2,4198.17 11915.1,4198.05C11915,4197.93 11914.9,4197.84 11914.8,4197.77C11914.6,4197.7 11914.5,4197.67 11914.3,4197.67C11914.1,4197.67 11913.9,4197.7 11913.8,4197.78C11913.6,4197.85 11913.5,4197.95 11913.5,4198.07C11913.4,4198.19 11913.3,4198.33 11913.3,4198.49C11913.2,4198.65 11913.2,4198.81 11913.2,4198.98C11913.2,4199.17 11913.2,4199.35 11913.3,4199.51C11913.3,4199.68 11913.4,4199.81 11913.5,4199.93C11913.6,4200.05 11913.7,4200.14 11913.8,4200.2C11913.9,4200.26 11914.1,4200.3 11914.3,4200.3C11914.5,4200.3 11914.6,4200.26 11914.7,4200.19C11914.9,4200.11 11915,4200.01 11915.1,4199.89C11915.2,4199.76 11915.2,4199.62 11915.3,4199.47C11915.3,4199.31 11915.3,4199.15 11915.3,4198.98ZM11920.4,4205.34L11920.4,4196.69L11921.2,4196.69L11921.2,4204.64L11925.9,4204.64L11925.9,4205.34L11920.4,4205.34ZM11930,4201.71C11930.1,4201.7 11930.3,4201.67 11930.5,4201.64C11930.6,4201.61 11930.8,4201.56 11930.9,4201.51C11931,4201.45 11931.1,4201.36 11931.1,4201.23C11931.2,4201.09 11931.2,4200.97 11931.2,4200.86C11931.2,4200.49 11931.1,4200.19 11930.8,4199.95C11930.6,4199.72 11930.2,4199.6 11929.6,4199.6C11929.4,4199.6 11929.2,4199.62 11928.9,4199.67C11928.7,4199.71 11928.6,4199.79 11928.4,4199.89C11928.2,4200 11928.1,4200.15 11928,4200.33C11927.9,4200.51 11927.8,4200.73 11927.8,4201L11927.1,4201C11927.1,4200.64 11927.2,4200.32 11927.3,4200.06C11927.5,4199.8 11927.7,4199.59 11927.9,4199.43C11928.1,4199.26 11928.4,4199.14 11928.7,4199.07C11929,4198.99 11929.3,4198.95 11929.6,4198.95C11930,4198.95 11930.2,4198.99 11930.5,4199.05C11930.8,4199.12 11931,4199.23 11931.2,4199.38C11931.4,4199.53 11931.6,4199.72 11931.7,4199.97C11931.8,4200.22 11931.9,4200.52 11931.9,4200.88L11931.9,4204.27C11931.9,4204.55 11931.9,4204.73 11932,4204.8C11932.1,4204.88 11932.4,4204.86 11932.7,4204.75L11932.7,4205.31C11932.6,4205.33 11932.5,4205.35 11932.4,4205.39C11932.3,4205.42 11932.2,4205.43 11932.1,4205.43C11932,4205.43 11931.9,4205.42 11931.8,4205.4C11931.6,4205.38 11931.6,4205.34 11931.5,4205.28C11931.4,4205.22 11931.3,4205.15 11931.3,4205.07C11931.3,4204.98 11931.2,4204.89 11931.2,4204.79C11931.2,4204.69 11931.2,4204.59 11931.2,4204.47C11930.9,4204.81 11930.5,4205.07 11930.1,4205.24C11929.8,4205.42 11929.3,4205.51 11928.9,4205.51C11928.6,4205.51 11928.3,4205.47 11928.1,4205.4C11927.8,4205.32 11927.6,4205.21 11927.4,4205.06C11927.2,4204.91 11927.1,4204.72 11927,4204.5C11926.9,4204.28 11926.8,4204.02 11926.8,4203.72C11926.8,4202.66 11927.5,4202.04 11929,4201.84L11930,4201.71ZM11931.2,4202.07C11930.9,4202.2 11930.6,4202.28 11930.3,4202.32C11929.9,4202.36 11929.6,4202.4 11929.3,4202.42C11928.8,4202.46 11928.3,4202.58 11928,4202.79C11927.7,4203 11927.6,4203.32 11927.6,4203.74C11927.6,4203.93 11927.6,4204.1 11927.7,4204.24C11927.8,4204.38 11927.9,4204.49 11928,4204.59C11928.1,4204.68 11928.2,4204.75 11928.4,4204.79C11928.6,4204.84 11928.7,4204.86 11928.9,4204.86C11929.2,4204.86 11929.5,4204.82 11929.7,4204.75C11930,4204.68 11930.3,4204.57 11930.5,4204.42C11930.7,4204.27 11930.9,4204.08 11931,4203.85C11931.1,4203.63 11931.2,4203.36 11931.2,4203.04L11931.2,4202.07ZM11934.7,4205.34L11934,4205.34L11934,4196.69L11934.7,4196.69L11934.7,4200.12C11934.9,4199.73 11935.3,4199.44 11935.7,4199.25C11936.1,4199.05 11936.5,4198.95 11936.9,4198.95C11937.4,4198.95 11937.8,4199.04 11938.2,4199.22C11938.5,4199.4 11938.8,4199.64 11939,4199.94C11939.2,4200.24 11939.4,4200.59 11939.5,4200.99C11939.6,4201.39 11939.7,4201.81 11939.7,4202.24C11939.7,4202.7 11939.6,4203.12 11939.5,4203.52C11939.4,4203.92 11939.3,4204.27 11939,4204.56C11938.8,4204.86 11938.5,4205.09 11938.2,4205.25C11937.8,4205.42 11937.4,4205.51 11936.9,4205.51C11936.7,4205.51 11936.5,4205.48 11936.3,4205.42C11936.1,4205.36 11935.9,4205.28 11935.7,4205.18C11935.5,4205.08 11935.3,4204.95 11935.1,4204.79C11935,4204.64 11934.8,4204.45 11934.7,4204.24L11934.7,4204.24L11934.7,4205.34ZM11934.7,4202.2C11934.7,4202.58 11934.8,4202.93 11934.8,4203.25C11934.9,4203.58 11935.1,4203.86 11935.2,4204.1C11935.4,4204.33 11935.6,4204.52 11935.9,4204.65C11936.2,4204.79 11936.5,4204.86 11936.8,4204.86C11937.1,4204.86 11937.4,4204.8 11937.6,4204.69C11937.9,4204.59 11938.1,4204.43 11938.3,4204.22C11938.5,4204.01 11938.7,4203.76 11938.8,4203.46C11938.9,4203.16 11938.9,4202.81 11938.9,4202.42C11938.9,4202.03 11938.9,4201.66 11938.8,4201.32C11938.8,4200.98 11938.6,4200.68 11938.5,4200.43C11938.3,4200.17 11938,4199.97 11937.8,4199.82C11937.5,4199.67 11937.2,4199.6 11936.8,4199.6C11936.5,4199.6 11936.2,4199.67 11935.9,4199.81C11935.7,4199.95 11935.4,4200.14 11935.3,4200.37C11935.1,4200.61 11934.9,4200.89 11934.9,4201.2C11934.8,4201.52 11934.7,4201.85 11934.7,4202.2ZM11943.8,4205.51C11943.4,4205.5 11943.1,4205.43 11942.7,4205.29C11942.4,4205.15 11942.1,4204.95 11941.8,4204.68C11941.5,4204.4 11941.3,4204.07 11941.2,4203.66C11941,4203.25 11940.9,4202.77 11940.9,4202.23C11940.9,4201.77 11941,4201.35 11941.1,4200.95C11941.2,4200.55 11941.4,4200.21 11941.7,4199.91C11941.9,4199.62 11942.2,4199.38 11942.6,4199.21C11942.9,4199.04 11943.3,4198.95 11943.8,4198.95C11944.3,4198.95 11944.7,4199.04 11945.1,4199.21C11945.5,4199.38 11945.8,4199.61 11946,4199.91C11946.2,4200.2 11946.4,4200.54 11946.5,4200.94C11946.7,4201.34 11946.7,4201.77 11946.7,4202.23C11946.7,4202.72 11946.6,4203.17 11946.5,4203.57C11946.4,4203.97 11946.2,4204.32 11945.9,4204.61C11945.7,4204.89 11945.4,4205.11 11945,4205.27C11944.7,4205.43 11944.3,4205.51 11943.8,4205.51ZM11945.9,4202.23C11945.9,4201.86 11945.9,4201.52 11945.8,4201.2C11945.7,4200.88 11945.6,4200.6 11945.4,4200.36C11945.3,4200.13 11945.1,4199.94 11944.8,4199.8C11944.5,4199.67 11944.2,4199.6 11943.8,4199.6C11943.5,4199.6 11943.1,4199.67 11942.9,4199.82C11942.6,4199.97 11942.4,4200.17 11942.2,4200.41C11942,4200.65 11941.9,4200.93 11941.8,4201.25C11941.8,4201.57 11941.7,4201.89 11941.7,4202.23C11941.7,4202.61 11941.8,4202.97 11941.9,4203.29C11941.9,4203.61 11942.1,4203.89 11942.3,4204.12C11942.4,4204.36 11942.7,4204.54 11942.9,4204.66C11943.2,4204.79 11943.5,4204.86 11943.8,4204.86C11944.2,4204.86 11944.5,4204.78 11944.8,4204.64C11945.1,4204.49 11945.3,4204.29 11945.4,4204.04C11945.6,4203.79 11945.7,4203.51 11945.8,4203.2C11945.9,4202.89 11945.9,4202.56 11945.9,4202.23ZM11948.9,4205.34L11948.2,4205.34L11948.2,4199.12L11948.9,4199.12L11948.9,4200.28L11948.9,4200.28C11949.1,4199.79 11949.4,4199.44 11949.7,4199.25C11950,4199.05 11950.4,4198.95 11951,4198.95L11951,4199.73C11950.5,4199.72 11950.2,4199.79 11949.9,4199.92C11949.7,4200.06 11949.5,4200.24 11949.3,4200.48C11949.2,4200.71 11949.1,4200.98 11949,4201.3C11948.9,4201.61 11948.9,4201.94 11948.9,4202.29L11948.9,4205.34ZM11955.1,4201.71C11955.3,4201.7 11955.4,4201.67 11955.6,4201.64C11955.8,4201.61 11956,4201.56 11956.1,4201.51C11956.2,4201.45 11956.3,4201.36 11956.3,4201.23C11956.3,4201.09 11956.3,4200.97 11956.3,4200.86C11956.3,4200.49 11956.2,4200.19 11956,4199.95C11955.7,4199.72 11955.3,4199.6 11954.8,4199.6C11954.5,4199.6 11954.3,4199.62 11954.1,4199.67C11953.9,4199.71 11953.7,4199.79 11953.6,4199.89C11953.4,4200 11953.3,4200.15 11953.2,4200.33C11953.1,4200.51 11953,4200.73 11953,4201L11952.2,4201C11952.3,4200.64 11952.4,4200.32 11952.5,4200.06C11952.6,4199.8 11952.8,4199.59 11953.1,4199.43C11953.3,4199.26 11953.5,4199.14 11953.8,4199.07C11954.1,4198.99 11954.5,4198.95 11954.8,4198.95C11955.1,4198.95 11955.4,4198.99 11955.7,4199.05C11956,4199.12 11956.2,4199.23 11956.4,4199.38C11956.6,4199.53 11956.8,4199.72 11956.9,4199.97C11957,4200.22 11957.1,4200.52 11957.1,4200.88L11957.1,4204.27C11957.1,4204.55 11957.1,4204.73 11957.2,4204.8C11957.3,4204.88 11957.5,4204.86 11957.8,4204.75L11957.8,4205.31C11957.8,4205.33 11957.7,4205.35 11957.6,4205.39C11957.5,4205.42 11957.4,4205.43 11957.2,4205.43C11957.1,4205.43 11957,4205.42 11956.9,4205.4C11956.8,4205.38 11956.7,4205.34 11956.6,4205.28C11956.6,4205.22 11956.5,4205.15 11956.5,4205.07C11956.4,4204.98 11956.4,4204.89 11956.4,4204.79C11956.4,4204.69 11956.3,4204.59 11956.3,4204.47C11956,4204.81 11955.7,4205.07 11955.3,4205.24C11954.9,4205.42 11954.5,4205.51 11954,4205.51C11953.8,4205.51 11953.5,4205.47 11953.2,4205.4C11953,4205.32 11952.8,4205.21 11952.6,4205.06C11952.4,4204.91 11952.2,4204.72 11952.1,4204.5C11952,4204.28 11952,4204.02 11952,4203.72C11952,4202.66 11952.7,4202.04 11954.1,4201.84L11955.1,4201.71ZM11956.3,4202.07C11956,4202.2 11955.7,4202.28 11955.4,4202.32C11955.1,4202.36 11954.8,4202.4 11954.5,4202.42C11953.9,4202.46 11953.5,4202.58 11953.2,4202.79C11952.9,4203 11952.7,4203.32 11952.7,4203.74C11952.7,4203.93 11952.8,4204.1 11952.8,4204.24C11952.9,4204.38 11953,4204.49 11953.1,4204.59C11953.3,4204.68 11953.4,4204.75 11953.6,4204.79C11953.7,4204.84 11953.9,4204.86 11954.1,4204.86C11954.4,4204.86 11954.6,4204.82 11954.9,4204.75C11955.2,4204.68 11955.4,4204.57 11955.6,4204.42C11955.8,4204.27 11956,4204.08 11956.1,4203.85C11956.3,4203.63 11956.3,4203.36 11956.3,4203.04L11956.3,4202.07ZM11961.2,4205.36C11961.2,4205.38 11961,4205.4 11960.9,4205.44C11960.8,4205.48 11960.6,4205.51 11960.4,4205.51C11960.1,4205.51 11959.8,4205.41 11959.6,4205.23C11959.4,4205.06 11959.3,4204.73 11959.3,4204.27L11959.3,4199.72L11958.4,4199.72L11958.4,4199.12L11959.3,4199.12L11959.3,4197.39L11960,4197.39L11960,4199.12L11961.2,4199.12L11961.2,4199.72L11960,4199.72L11960,4203.98C11960,4204.13 11960,4204.27 11960,4204.38C11960.1,4204.49 11960.1,4204.58 11960.1,4204.65C11960.2,4204.73 11960.2,4204.78 11960.3,4204.81C11960.4,4204.84 11960.5,4204.86 11960.7,4204.86C11960.8,4204.86 11960.8,4204.85 11960.9,4204.83C11961,4204.82 11961.1,4204.8 11961.2,4204.77L11961.2,4205.36ZM11965,4205.51C11964.6,4205.5 11964.2,4205.43 11963.9,4205.29C11963.5,4205.15 11963.2,4204.95 11963,4204.68C11962.7,4204.4 11962.5,4204.07 11962.3,4203.66C11962.2,4203.25 11962.1,4202.77 11962.1,4202.23C11962.1,4201.77 11962.2,4201.35 11962.3,4200.95C11962.4,4200.55 11962.6,4200.21 11962.8,4199.91C11963.1,4199.62 11963.4,4199.38 11963.7,4199.21C11964.1,4199.04 11964.5,4198.95 11965,4198.95C11965.5,4198.95 11965.9,4199.04 11966.3,4199.21C11966.6,4199.38 11966.9,4199.61 11967.2,4199.91C11967.4,4200.2 11967.6,4200.54 11967.7,4200.94C11967.8,4201.34 11967.9,4201.77 11967.9,4202.23C11967.9,4202.72 11967.8,4203.17 11967.7,4203.57C11967.5,4203.97 11967.3,4204.32 11967.1,4204.61C11966.8,4204.89 11966.5,4205.11 11966.2,4205.27C11965.8,4205.43 11965.4,4205.51 11965,4205.51ZM11967.1,4202.23C11967.1,4201.86 11967.1,4201.52 11967,4201.2C11966.9,4200.88 11966.8,4200.6 11966.6,4200.36C11966.4,4200.13 11966.2,4199.94 11966,4199.8C11965.7,4199.67 11965.4,4199.6 11965,4199.6C11964.6,4199.6 11964.3,4199.67 11964,4199.82C11963.8,4199.97 11963.5,4200.17 11963.4,4200.41C11963.2,4200.65 11963.1,4200.93 11963,4201.25C11962.9,4201.57 11962.9,4201.89 11962.9,4202.23C11962.9,4202.61 11962.9,4202.97 11963,4203.29C11963.1,4203.61 11963.2,4203.89 11963.4,4204.12C11963.6,4204.36 11963.8,4204.54 11964.1,4204.66C11964.3,4204.79 11964.6,4204.86 11965,4204.86C11965.4,4204.86 11965.7,4204.78 11966,4204.64C11966.2,4204.49 11966.4,4204.29 11966.6,4204.04C11966.8,4203.79 11966.9,4203.51 11967,4203.2C11967.1,4202.89 11967.1,4202.56 11967.1,4202.23ZM11970.1,4205.34L11969.3,4205.34L11969.3,4199.12L11970.1,4199.12L11970.1,4200.28L11970.1,4200.28C11970.3,4199.79 11970.5,4199.44 11970.9,4199.25C11971.2,4199.05 11971.6,4198.95 11972.1,4198.95L11972.1,4199.73C11971.7,4199.72 11971.4,4199.79 11971.1,4199.92C11970.8,4200.06 11970.6,4200.24 11970.5,4200.48C11970.3,4200.71 11970.2,4200.98 11970.2,4201.3C11970.1,4201.61 11970.1,4201.94 11970.1,4202.29L11970.1,4205.34ZM11973.5,4205.34L11973.5,4199.12L11974.3,4199.12L11974.3,4205.34L11973.5,4205.34ZM11973.5,4197.76L11973.5,4196.69L11974.3,4196.69L11974.3,4197.76L11973.5,4197.76ZM11978.7,4205.51C11978.3,4205.5 11977.9,4205.43 11977.6,4205.29C11977.2,4205.15 11976.9,4204.95 11976.6,4204.68C11976.4,4204.4 11976.2,4204.07 11976,4203.66C11975.9,4203.25 11975.8,4202.77 11975.8,4202.23C11975.8,4201.77 11975.9,4201.35 11976,4200.95C11976.1,4200.55 11976.3,4200.21 11976.5,4199.91C11976.8,4199.62 11977.1,4199.38 11977.4,4199.21C11977.8,4199.04 11978.2,4198.95 11978.7,4198.95C11979.2,4198.95 11979.6,4199.04 11980,4199.21C11980.3,4199.38 11980.6,4199.61 11980.9,4199.91C11981.1,4200.2 11981.3,4200.54 11981.4,4200.94C11981.5,4201.34 11981.6,4201.77 11981.6,4202.23C11981.6,4202.72 11981.5,4203.17 11981.4,4203.57C11981.2,4203.97 11981,4204.32 11980.8,4204.61C11980.5,4204.89 11980.2,4205.11 11979.9,4205.27C11979.5,4205.43 11979.1,4205.51 11978.7,4205.51ZM11980.8,4202.23C11980.8,4201.86 11980.8,4201.52 11980.7,4201.2C11980.6,4200.88 11980.5,4200.6 11980.3,4200.36C11980.1,4200.13 11979.9,4199.94 11979.7,4199.8C11979.4,4199.67 11979.1,4199.6 11978.7,4199.6C11978.3,4199.6 11978,4199.67 11977.7,4199.82C11977.4,4199.97 11977.2,4200.17 11977.1,4200.41C11976.9,4200.65 11976.8,4200.93 11976.7,4201.25C11976.6,4201.57 11976.6,4201.89 11976.6,4202.23C11976.6,4202.61 11976.6,4202.97 11976.7,4203.29C11976.8,4203.61 11976.9,4203.89 11977.1,4204.12C11977.3,4204.36 11977.5,4204.54 11977.8,4204.66C11978,4204.79 11978.3,4204.86 11978.7,4204.86C11979.1,4204.86 11979.4,4204.78 11979.6,4204.64C11979.9,4204.49 11980.1,4204.29 11980.3,4204.04C11980.5,4203.79 11980.6,4203.51 11980.7,4203.2C11980.8,4202.89 11980.8,4202.56 11980.8,4202.23ZM11992.7,4199.2C11992.5,4198.47 11992.2,4197.94 11991.8,4197.63C11991.3,4197.32 11990.7,4197.16 11990,4197.16C11989.5,4197.16 11989,4197.27 11988.6,4197.48C11988.3,4197.68 11987.9,4197.96 11987.7,4198.32C11987.5,4198.67 11987.3,4199.07 11987.2,4199.53C11987,4199.99 11987,4200.48 11987,4200.99C11987,4201.47 11987,4201.94 11987.1,4202.41C11987.2,4202.87 11987.4,4203.29 11987.6,4203.65C11987.9,4204.02 11988.2,4204.31 11988.6,4204.53C11989,4204.76 11989.5,4204.87 11990,4204.87C11990.4,4204.87 11990.8,4204.81 11991.1,4204.69C11991.4,4204.57 11991.6,4204.4 11991.9,4204.19C11992.1,4203.98 11992.3,4203.73 11992.4,4203.44C11992.6,4203.15 11992.7,4202.84 11992.8,4202.49L11993.6,4202.49C11993.5,4202.91 11993.4,4203.3 11993.2,4203.67C11993,4204.05 11992.8,4204.37 11992.5,4204.65C11992.2,4204.93 11991.8,4205.15 11991.4,4205.32C11991,4205.48 11990.5,4205.57 11989.9,4205.57C11989.2,4205.57 11988.7,4205.44 11988.2,4205.2C11987.7,4204.95 11987.3,4204.62 11987,4204.21C11986.7,4203.79 11986.5,4203.31 11986.4,4202.76C11986.2,4202.21 11986.2,4201.63 11986.2,4201.02C11986.2,4200.19 11986.3,4199.49 11986.5,4198.92C11986.7,4198.34 11987,4197.87 11987.3,4197.51C11987.7,4197.14 11988.1,4196.88 11988.6,4196.71C11989.1,4196.55 11989.6,4196.47 11990.2,4196.47C11990.6,4196.47 11991,4196.52 11991.4,4196.64C11991.8,4196.76 11992.1,4196.93 11992.4,4197.16C11992.7,4197.4 11993,4197.68 11993.2,4198.02C11993.3,4198.36 11993.5,4198.76 11993.5,4199.2L11992.7,4199.2ZM11995.4,4205.34L11995.4,4199.12L11996.1,4199.12L11996.1,4205.34L11995.4,4205.34ZM11995.3,4197.76L11995.3,4196.69L11996.1,4196.69L11996.1,4197.76L11995.3,4197.76ZM11998.8,4205.34L11998,4205.34L11998,4199.12L11998.8,4199.12L11998.8,4199.98C11999,4199.68 11999.3,4199.43 11999.6,4199.24C12000,4199.05 12000.3,4198.95 12000.8,4198.95C12001.1,4198.95 12001.5,4199.02 12001.8,4199.15C12002.2,4199.28 12002.4,4199.51 12002.7,4199.84C12002.8,4200.06 12002.9,4200.29 12002.9,4200.53C12003,4200.77 12003,4201.01 12003,4201.27L12003,4205.34L12002.2,4205.34L12002.2,4201.28C12002.2,4200.72 12002.1,4200.3 12001.9,4200.02C12001.6,4199.74 12001.2,4199.6 12000.6,4199.6C12000.4,4199.6 12000.2,4199.63 12000,4199.7C11999.8,4199.77 11999.7,4199.86 11999.5,4199.97C11999.4,4200.08 11999.3,4200.21 11999.1,4200.36C11999,4200.5 11999,4200.65 11998.9,4200.81C11998.8,4201.01 11998.8,4201.2 11998.8,4201.39C11998.8,4201.57 11998.8,4201.77 11998.8,4201.99L11998.8,4205.34ZM12005.3,4202.4C12005.3,4202.73 12005.3,4203.05 12005.4,4203.35C12005.5,4203.65 12005.6,4203.91 12005.8,4204.13C12006,4204.35 12006.2,4204.53 12006.4,4204.66C12006.7,4204.79 12007,4204.86 12007.4,4204.86C12007.8,4204.86 12008.2,4204.73 12008.6,4204.48C12008.9,4204.24 12009.1,4203.88 12009.2,4203.43L12010,4203.43C12010,4203.72 12009.8,4204 12009.7,4204.25C12009.6,4204.5 12009.4,4204.72 12009.2,4204.91C12008.9,4205.1 12008.7,4205.24 12008.4,4205.35C12008.1,4205.45 12007.7,4205.51 12007.4,4205.51C12006.9,4205.51 12006.4,4205.42 12006.1,4205.25C12005.7,4205.09 12005.4,4204.86 12005.2,4204.56C12005,4204.27 12004.8,4203.93 12004.7,4203.53C12004.6,4203.13 12004.5,4202.71 12004.5,4202.25C12004.5,4201.8 12004.6,4201.37 12004.7,4200.97C12004.8,4200.57 12005,4200.22 12005.3,4199.92C12005.5,4199.62 12005.8,4199.38 12006.2,4199.21C12006.5,4199.04 12006.9,4198.95 12007.4,4198.95C12008.2,4198.95 12008.9,4199.25 12009.4,4199.83C12009.9,4200.42 12010.1,4201.28 12010.1,4202.4L12005.3,4202.4ZM12009.3,4201.8C12009.3,4201.49 12009.3,4201.21 12009.2,4200.94C12009.1,4200.67 12009,4200.44 12008.8,4200.24C12008.7,4200.05 12008.5,4199.89 12008.2,4199.77C12008,4199.66 12007.7,4199.6 12007.4,4199.6C12007,4199.6 12006.8,4199.66 12006.5,4199.78C12006.3,4199.9 12006.1,4200.06 12005.9,4200.26C12005.7,4200.46 12005.6,4200.69 12005.5,4200.96C12005.4,4201.22 12005.3,4201.5 12005.3,4201.8L12009.3,4201.8ZM12012.2,4205.34L12011.5,4205.34L12011.5,4199.12L12012.2,4199.12L12012.2,4200.06L12012.3,4200.06C12012.4,4199.7 12012.7,4199.42 12013.1,4199.23C12013.4,4199.05 12013.8,4198.95 12014.2,4198.95C12014.5,4198.95 12014.7,4198.98 12014.9,4199.05C12015.1,4199.11 12015.3,4199.2 12015.4,4199.31C12015.6,4199.41 12015.7,4199.54 12015.8,4199.68C12015.9,4199.83 12015.9,4199.98 12016,4200.15C12016.2,4199.74 12016.5,4199.44 12016.8,4199.25C12017.2,4199.05 12017.6,4198.95 12018,4198.95C12018.5,4198.95 12018.8,4199.02 12019.1,4199.16C12019.3,4199.3 12019.5,4199.49 12019.6,4199.71C12019.8,4199.94 12019.9,4200.2 12019.9,4200.5C12019.9,4200.8 12020,4201.1 12020,4201.41L12020,4205.34L12019.3,4205.34L12019.3,4201.04C12019.3,4200.59 12019.2,4200.24 12019,4199.98C12018.8,4199.73 12018.4,4199.6 12017.9,4199.6C12017.7,4199.6 12017.4,4199.66 12017.2,4199.77C12016.9,4199.89 12016.7,4200.07 12016.5,4200.31C12016.4,4200.41 12016.4,4200.53 12016.3,4200.67C12016.3,4200.81 12016.2,4200.96 12016.2,4201.11C12016.2,4201.26 12016.1,4201.42 12016.1,4201.57C12016.1,4201.72 12016.1,4201.86 12016.1,4201.99L12016.1,4205.34L12015.4,4205.34L12015.4,4201.04C12015.4,4200.59 12015.3,4200.24 12015.1,4199.98C12014.9,4199.73 12014.6,4199.6 12014.1,4199.6C12013.8,4199.6 12013.5,4199.66 12013.3,4199.77C12013,4199.89 12012.8,4200.07 12012.6,4200.31C12012.6,4200.41 12012.5,4200.53 12012.5,4200.67C12012.4,4200.81 12012.4,4200.96 12012.3,4201.11C12012.3,4201.26 12012.3,4201.42 12012.3,4201.57C12012.2,4201.72 12012.2,4201.86 12012.2,4201.99L12012.2,4205.34ZM12024.6,4201.71C12024.7,4201.7 12024.9,4201.67 12025.1,4201.64C12025.3,4201.61 12025.4,4201.56 12025.5,4201.51C12025.7,4201.45 12025.7,4201.36 12025.8,4201.23C12025.8,4201.09 12025.8,4200.97 12025.8,4200.86C12025.8,4200.49 12025.7,4200.19 12025.5,4199.95C12025.2,4199.72 12024.8,4199.6 12024.3,4199.6C12024,4199.6 12023.8,4199.62 12023.6,4199.67C12023.4,4199.71 12023.2,4199.79 12023,4199.89C12022.9,4200 12022.7,4200.15 12022.6,4200.33C12022.5,4200.51 12022.5,4200.73 12022.4,4201L12021.7,4201C12021.7,4200.64 12021.8,4200.32 12022,4200.06C12022.1,4199.8 12022.3,4199.59 12022.5,4199.43C12022.8,4199.26 12023,4199.14 12023.3,4199.07C12023.6,4198.99 12023.9,4198.95 12024.3,4198.95C12024.6,4198.95 12024.9,4198.99 12025.1,4199.05C12025.4,4199.12 12025.7,4199.23 12025.9,4199.38C12026.1,4199.53 12026.2,4199.72 12026.4,4199.97C12026.5,4200.22 12026.5,4200.52 12026.5,4200.88L12026.5,4204.27C12026.5,4204.55 12026.6,4204.73 12026.7,4204.8C12026.8,4204.88 12027,4204.86 12027.3,4204.75L12027.3,4205.31C12027.2,4205.33 12027.1,4205.35 12027,4205.39C12026.9,4205.42 12026.8,4205.43 12026.7,4205.43C12026.6,4205.43 12026.5,4205.42 12026.4,4205.4C12026.3,4205.38 12026.2,4205.34 12026.1,4205.28C12026,4205.22 12026,4205.15 12025.9,4205.07C12025.9,4204.98 12025.9,4204.89 12025.8,4204.79C12025.8,4204.69 12025.8,4204.59 12025.8,4204.47C12025.5,4204.81 12025.2,4205.07 12024.8,4205.24C12024.4,4205.42 12024,4205.51 12023.5,4205.51C12023.2,4205.51 12023,4205.47 12022.7,4205.4C12022.5,4205.32 12022.2,4205.21 12022,4205.06C12021.9,4204.91 12021.7,4204.72 12021.6,4204.5C12021.5,4204.28 12021.4,4204.02 12021.4,4203.72C12021.4,4202.66 12022.1,4202.04 12023.6,4201.84L12024.6,4201.71ZM12025.8,4202.07C12025.5,4202.2 12025.2,4202.28 12024.9,4202.32C12024.6,4202.36 12024.3,4202.4 12023.9,4202.42C12023.4,4202.46 12023,4202.58 12022.7,4202.79C12022.3,4203 12022.2,4203.32 12022.2,4203.74C12022.2,4203.93 12022.2,4204.1 12022.3,4204.24C12022.4,4204.38 12022.5,4204.49 12022.6,4204.59C12022.7,4204.68 12022.9,4204.75 12023,4204.79C12023.2,4204.84 12023.4,4204.86 12023.5,4204.86C12023.8,4204.86 12024.1,4204.82 12024.4,4204.75C12024.6,4204.68 12024.9,4204.57 12025.1,4204.42C12025.3,4204.27 12025.5,4204.08 12025.6,4203.85C12025.7,4203.63 12025.8,4203.36 12025.8,4203.04L12025.8,4202.07ZM12030.7,4205.36C12030.6,4205.38 12030.5,4205.4 12030.4,4205.44C12030.2,4205.48 12030.1,4205.51 12029.9,4205.51C12029.5,4205.51 12029.3,4205.41 12029.1,4205.23C12028.9,4205.06 12028.8,4204.73 12028.8,4204.27L12028.8,4199.72L12027.9,4199.72L12027.9,4199.12L12028.8,4199.12L12028.8,4197.39L12029.5,4197.39L12029.5,4199.12L12030.7,4199.12L12030.7,4199.72L12029.5,4199.72L12029.5,4203.98C12029.5,4204.13 12029.5,4204.27 12029.5,4204.38C12029.5,4204.49 12029.5,4204.58 12029.6,4204.65C12029.6,4204.73 12029.7,4204.78 12029.8,4204.81C12029.9,4204.84 12030,4204.86 12030.1,4204.86C12030.2,4204.86 12030.3,4204.85 12030.4,4204.83C12030.5,4204.82 12030.6,4204.8 12030.7,4204.77L12030.7,4205.36ZM12034.5,4205.51C12034.1,4205.5 12033.7,4205.43 12033.3,4205.29C12033,4205.15 12032.7,4204.95 12032.4,4204.68C12032.2,4204.4 12032,4204.07 12031.8,4203.66C12031.7,4203.25 12031.6,4202.77 12031.6,4202.23C12031.6,4201.77 12031.6,4201.35 12031.8,4200.95C12031.9,4200.55 12032.1,4200.21 12032.3,4199.91C12032.5,4199.62 12032.8,4199.38 12033.2,4199.21C12033.6,4199.04 12034,4198.95 12034.5,4198.95C12034.9,4198.95 12035.4,4199.04 12035.7,4199.21C12036.1,4199.38 12036.4,4199.61 12036.6,4199.91C12036.9,4200.2 12037,4200.54 12037.2,4200.94C12037.3,4201.34 12037.3,4201.77 12037.3,4202.23C12037.3,4202.72 12037.3,4203.17 12037.1,4203.57C12037,4203.97 12036.8,4204.32 12036.6,4204.61C12036.3,4204.89 12036,4205.11 12035.6,4205.27C12035.3,4205.43 12034.9,4205.51 12034.5,4205.51ZM12036.6,4202.23C12036.6,4201.86 12036.5,4201.52 12036.5,4201.2C12036.4,4200.88 12036.2,4200.6 12036.1,4200.36C12035.9,4200.13 12035.7,4199.94 12035.4,4199.8C12035.2,4199.67 12034.8,4199.6 12034.5,4199.6C12034.1,4199.6 12033.8,4199.67 12033.5,4199.82C12033.2,4199.97 12033,4200.17 12032.8,4200.41C12032.7,4200.65 12032.5,4200.93 12032.5,4201.25C12032.4,4201.57 12032.3,4201.89 12032.3,4202.23C12032.3,4202.61 12032.4,4202.97 12032.5,4203.29C12032.6,4203.61 12032.7,4203.89 12032.9,4204.12C12033.1,4204.36 12033.3,4204.54 12033.5,4204.66C12033.8,4204.79 12034.1,4204.86 12034.5,4204.86C12034.8,4204.86 12035.2,4204.78 12035.4,4204.64C12035.7,4204.49 12035.9,4204.29 12036.1,4204.04C12036.2,4203.79 12036.4,4203.51 12036.5,4203.2C12036.5,4202.89 12036.6,4202.56 12036.6,4202.23ZM12043.6,4199.12L12044.3,4199.12L12044.3,4204.74C12044.3,4205.15 12044.3,4205.55 12044.2,4205.93C12044.1,4206.31 12043.9,4206.65 12043.7,4206.93C12043.5,4207.22 12043.2,4207.45 12042.8,4207.62C12042.5,4207.8 12042,4207.88 12041.4,4207.88C12040.9,4207.88 12040.5,4207.82 12040.2,4207.71C12039.9,4207.59 12039.6,4207.44 12039.4,4207.27C12039.2,4207.09 12039,4206.9 12038.9,4206.69C12038.8,4206.48 12038.8,4206.28 12038.8,4206.09L12039.5,4206.09C12039.6,4206.32 12039.7,4206.52 12039.8,4206.66C12039.9,4206.81 12040,4206.93 12040.2,4207.01C12040.4,4207.1 12040.6,4207.15 12040.8,4207.19C12041,4207.22 12041.2,4207.23 12041.4,4207.23C12041.9,4207.23 12042.3,4207.15 12042.6,4206.98C12042.9,4206.81 12043.1,4206.59 12043.2,4206.32C12043.4,4206.05 12043.5,4205.74 12043.5,4205.4C12043.6,4205.05 12043.6,4204.7 12043.6,4204.34C12043.3,4204.73 12043,4205.02 12042.6,4205.21C12042.2,4205.41 12041.8,4205.51 12041.4,4205.51C12040.9,4205.51 12040.5,4205.41 12040.1,4205.23C12039.8,4205.06 12039.5,4204.82 12039.3,4204.52C12039,4204.22 12038.9,4203.86 12038.8,4203.46C12038.6,4203.06 12038.6,4202.65 12038.6,4202.22C12038.6,4201.76 12038.6,4201.33 12038.7,4200.93C12038.8,4200.53 12039,4200.19 12039.2,4199.89C12039.5,4199.6 12039.8,4199.37 12040.1,4199.2C12040.5,4199.04 12040.9,4198.95 12041.4,4198.95C12041.6,4198.95 12041.8,4198.98 12042,4199.04C12042.2,4199.09 12042.4,4199.17 12042.6,4199.28C12042.8,4199.38 12043,4199.51 12043.2,4199.67C12043.3,4199.83 12043.5,4200.01 12043.6,4200.21L12043.6,4200.21L12043.6,4199.12ZM12043.6,4202.25C12043.6,4201.88 12043.5,4201.53 12043.4,4201.2C12043.4,4200.88 12043.2,4200.6 12043,4200.36C12042.9,4200.13 12042.6,4199.94 12042.4,4199.8C12042.1,4199.67 12041.8,4199.6 12041.5,4199.6C12041.2,4199.6 12040.9,4199.65 12040.6,4199.76C12040.4,4199.87 12040.2,4200.03 12040,4200.24C12039.8,4200.44 12039.6,4200.7 12039.5,4201C12039.4,4201.3 12039.4,4201.64 12039.4,4202.04C12039.3,4202.43 12039.4,4202.79 12039.5,4203.13C12039.5,4203.47 12039.7,4203.77 12039.8,4204.03C12040,4204.28 12040.2,4204.49 12040.5,4204.64C12040.8,4204.78 12041.1,4204.86 12041.5,4204.86C12041.8,4204.86 12042.1,4204.79 12042.4,4204.65C12042.6,4204.51 12042.8,4204.32 12043,4204.08C12043.2,4203.85 12043.3,4203.57 12043.4,4203.25C12043.5,4202.94 12043.6,4202.6 12043.6,4202.25ZM12047,4205.34L12046.3,4205.34L12046.3,4199.12L12047,4199.12L12047,4200.28L12047,4200.28C12047.2,4199.79 12047.5,4199.44 12047.8,4199.25C12048.1,4199.05 12048.5,4198.95 12049,4198.95L12049,4199.73C12048.6,4199.72 12048.3,4199.79 12048,4199.92C12047.8,4200.06 12047.6,4200.24 12047.4,4200.48C12047.2,4200.71 12047.1,4200.98 12047.1,4201.3C12047,4201.61 12047,4201.94 12047,4202.29L12047,4205.34ZM12053.2,4201.71C12053.3,4201.7 12053.5,4201.67 12053.7,4201.64C12053.9,4201.61 12054,4201.56 12054.2,4201.51C12054.3,4201.45 12054.3,4201.36 12054.4,4201.23C12054.4,4201.09 12054.4,4200.97 12054.4,4200.86C12054.4,4200.49 12054.3,4200.19 12054.1,4199.95C12053.8,4199.72 12053.4,4199.6 12052.9,4199.6C12052.6,4199.6 12052.4,4199.62 12052.2,4199.67C12052,4199.71 12051.8,4199.79 12051.6,4199.89C12051.5,4200 12051.4,4200.15 12051.3,4200.33C12051.2,4200.51 12051.1,4200.73 12051.1,4201L12050.3,4201C12050.3,4200.64 12050.4,4200.32 12050.6,4200.06C12050.7,4199.8 12050.9,4199.59 12051.1,4199.43C12051.4,4199.26 12051.6,4199.14 12051.9,4199.07C12052.2,4198.99 12052.5,4198.95 12052.9,4198.95C12053.2,4198.95 12053.5,4198.99 12053.8,4199.05C12054,4199.12 12054.3,4199.23 12054.5,4199.38C12054.7,4199.53 12054.8,4199.72 12055,4199.97C12055.1,4200.22 12055.1,4200.52 12055.1,4200.88L12055.1,4204.27C12055.1,4204.55 12055.2,4204.73 12055.3,4204.8C12055.4,4204.88 12055.6,4204.86 12055.9,4204.75L12055.9,4205.31C12055.8,4205.33 12055.8,4205.35 12055.6,4205.39C12055.5,4205.42 12055.4,4205.43 12055.3,4205.43C12055.2,4205.43 12055.1,4205.42 12055,4205.4C12054.9,4205.38 12054.8,4205.34 12054.7,4205.28C12054.6,4205.22 12054.6,4205.15 12054.5,4205.07C12054.5,4204.98 12054.5,4204.89 12054.5,4204.79C12054.4,4204.69 12054.4,4204.59 12054.4,4204.47C12054.1,4204.81 12053.8,4205.07 12053.4,4205.24C12053,4205.42 12052.6,4205.51 12052.1,4205.51C12051.8,4205.51 12051.6,4205.47 12051.3,4205.4C12051.1,4205.32 12050.9,4205.21 12050.7,4205.06C12050.5,4204.91 12050.3,4204.72 12050.2,4204.5C12050.1,4204.28 12050,4204.02 12050,4203.72C12050,4202.66 12050.8,4202.04 12052.2,4201.84L12053.2,4201.71ZM12054.4,4202.07C12054.1,4202.2 12053.8,4202.28 12053.5,4202.32C12053.2,4202.36 12052.9,4202.4 12052.6,4202.42C12052,4202.46 12051.6,4202.58 12051.3,4202.79C12051,4203 12050.8,4203.32 12050.8,4203.74C12050.8,4203.93 12050.8,4204.1 12050.9,4204.24C12051,4204.38 12051.1,4204.49 12051.2,4204.59C12051.3,4204.68 12051.5,4204.75 12051.7,4204.79C12051.8,4204.84 12052,4204.86 12052.1,4204.86C12052.4,4204.86 12052.7,4204.82 12053,4204.75C12053.3,4204.68 12053.5,4204.57 12053.7,4204.42C12053.9,4204.27 12054.1,4204.08 12054.2,4203.85C12054.4,4203.63 12054.4,4203.36 12054.4,4203.04L12054.4,4202.07ZM12052.1,4198.45L12053.5,4196.78L12054.4,4196.78L12052.7,4198.45L12052.1,4198.45ZM12056.4,4199.72L12056.4,4199.12L12057.4,4199.12L12057.4,4198.14C12057.4,4197.64 12057.5,4197.25 12057.7,4196.96C12057.9,4196.67 12058.2,4196.53 12058.7,4196.53C12058.8,4196.53 12058.9,4196.53 12059,4196.54C12059.1,4196.55 12059.2,4196.56 12059.3,4196.57L12059.3,4197.23C12059.1,4197.19 12059,4197.18 12058.9,4197.18C12058.7,4197.18 12058.5,4197.21 12058.4,4197.28C12058.3,4197.35 12058.3,4197.44 12058.2,4197.55C12058.2,4197.66 12058.1,4197.78 12058.1,4197.93C12058.1,4198.07 12058.1,4198.21 12058.1,4198.35L12058.1,4199.12L12059.3,4199.12L12059.3,4199.72L12058.1,4199.72L12058.1,4205.34L12057.4,4205.34L12057.4,4199.72L12056.4,4199.72ZM12060.7,4205.34L12060.7,4199.12L12061.5,4199.12L12061.5,4205.34L12060.7,4205.34ZM12061.5,4197.76L12060.7,4197.76L12060.7,4196.69L12061.5,4196.69L12061.5,4197.76ZM12067.7,4201.08C12067.5,4200.61 12067.3,4200.25 12067,4199.99C12066.7,4199.73 12066.3,4199.6 12065.8,4199.6C12065.5,4199.6 12065.1,4199.68 12064.9,4199.83C12064.6,4199.98 12064.4,4200.18 12064.2,4200.43C12064.1,4200.69 12063.9,4200.97 12063.9,4201.29C12063.8,4201.6 12063.7,4201.92 12063.7,4202.24C12063.7,4202.57 12063.8,4202.89 12063.8,4203.2C12063.9,4203.51 12064,4203.79 12064.2,4204.04C12064.4,4204.29 12064.6,4204.49 12064.9,4204.64C12065.1,4204.78 12065.4,4204.86 12065.8,4204.86C12066.4,4204.86 12066.8,4204.71 12067.1,4204.41C12067.4,4204.12 12067.6,4203.71 12067.7,4203.19L12068.5,4203.19C12068.4,4203.53 12068.3,4203.85 12068.2,4204.13C12068.1,4204.41 12067.9,4204.66 12067.6,4204.86C12067.4,4205.07 12067.2,4205.23 12066.9,4205.34C12066.6,4205.45 12066.2,4205.51 12065.8,4205.51C12065.3,4205.51 12064.9,4205.42 12064.5,4205.25C12064.2,4205.09 12063.9,4204.86 12063.6,4204.56C12063.4,4204.27 12063.2,4203.92 12063.1,4203.52C12063,4203.12 12063,4202.7 12063,4202.24C12063,4201.81 12063,4201.39 12063.1,4201C12063.3,4200.6 12063.5,4200.25 12063.7,4199.95C12063.9,4199.64 12064.2,4199.4 12064.6,4199.22C12064.9,4199.04 12065.4,4198.95 12065.8,4198.95C12066.5,4198.95 12067.1,4199.12 12067.6,4199.47C12068,4199.81 12068.3,4200.35 12068.4,4201.08L12067.7,4201.08ZM12072.5,4205.51C12072.1,4205.5 12071.8,4205.43 12071.4,4205.29C12071.1,4205.15 12070.8,4204.95 12070.5,4204.68C12070.2,4204.4 12070,4204.07 12069.9,4203.66C12069.7,4203.25 12069.6,4202.77 12069.6,4202.23C12069.6,4201.77 12069.7,4201.35 12069.8,4200.95C12069.9,4200.55 12070.1,4200.21 12070.4,4199.91C12070.6,4199.62 12070.9,4199.38 12071.3,4199.21C12071.6,4199.04 12072,4198.95 12072.5,4198.95C12073,4198.95 12073.4,4199.04 12073.8,4199.21C12074.2,4199.38 12074.5,4199.61 12074.7,4199.91C12074.9,4200.2 12075.1,4200.54 12075.2,4200.94C12075.4,4201.34 12075.4,4201.77 12075.4,4202.23C12075.4,4202.72 12075.3,4203.17 12075.2,4203.57C12075.1,4203.97 12074.9,4204.32 12074.6,4204.61C12074.4,4204.89 12074.1,4205.11 12073.7,4205.27C12073.4,4205.43 12073,4205.51 12072.5,4205.51ZM12074.6,4202.23C12074.6,4201.86 12074.6,4201.52 12074.5,4201.2C12074.4,4200.88 12074.3,4200.6 12074.1,4200.36C12074,4200.13 12073.8,4199.94 12073.5,4199.8C12073.2,4199.67 12072.9,4199.6 12072.5,4199.6C12072.2,4199.6 12071.8,4199.67 12071.6,4199.82C12071.3,4199.97 12071.1,4200.17 12070.9,4200.41C12070.7,4200.65 12070.6,4200.93 12070.5,4201.25C12070.5,4201.57 12070.4,4201.89 12070.4,4202.23C12070.4,4202.61 12070.5,4202.97 12070.6,4203.29C12070.6,4203.61 12070.8,4203.89 12071,4204.12C12071.1,4204.36 12071.4,4204.54 12071.6,4204.66C12071.9,4204.79 12072.2,4204.86 12072.5,4204.86C12072.9,4204.86 12073.2,4204.78 12073.5,4204.64C12073.8,4204.49 12074,4204.29 12074.1,4204.04C12074.3,4203.79 12074.4,4203.51 12074.5,4203.2C12074.6,4202.89 12074.6,4202.56 12074.6,4202.23Z"/>
            </g>
        </g>
    </g>
</svg>
