<?xml version="1.0" encoding="UTF-8" standalone="no"?>
<!DOCTYPE svg PUBLIC "-//W3C//DTD SVG 1.1//EN" "http://www.w3.org/Graphics/SVG/1.1/DTD/svg11.dtd">
<svg width="100%" height="100%" viewBox="0 0 1085 746" version="1.1" xmlns="http://www.w3.org/2000/svg" xmlns:xlink="http://www.w3.org/1999/xlink" xml:space="preserve" xmlns:serif="http://www.serif.com/" style="fill-rule:evenodd;clip-rule:evenodd;stroke-linejoin:round;stroke-miterlimit:2;">
    <g transform="matrix(1,0,0,1,-5159.66,-827.288)">
        <g transform="matrix(4.16667,0,0,4.16667,3947.62,0)">
            <g transform="matrix(1,0,0,1,0,130.232)">
                <path d="M340.254,246.617L340.254,218.591L353.506,218.591C356.603,218.591 359.325,219.165 361.674,220.313C364.023,221.46 365.858,223.075 367.179,225.157C368.5,227.239 369.161,229.721 369.161,232.604C369.161,235.46 368.5,237.936 367.179,240.031C365.858,242.126 364.023,243.748 361.674,244.896C359.325,246.043 356.603,246.617 353.506,246.617L340.254,246.617ZM348.181,240.291L353.186,240.291C354.788,240.291 356.182,239.991 357.37,239.39C358.558,238.79 359.485,237.909 360.153,236.748C360.82,235.587 361.154,234.206 361.154,232.604C361.154,230.976 360.82,229.588 360.153,228.44C359.485,227.292 358.558,226.418 357.37,225.818C356.182,225.217 354.788,224.917 353.186,224.917L348.181,224.917L348.181,240.291Z" style="fill:rgb(242,110,33);fill-rule:nonzero;"/>
            </g>
            <g transform="matrix(1,0,0,1,0,130.232)">
                <path d="M381.172,235.367L381.172,240.492L395.826,240.492L395.826,246.617L373.325,246.617L373.325,218.591L395.305,218.591L395.305,224.717L381.172,224.717L381.172,229.441L393.624,229.441L393.624,235.367L381.172,235.367Z" style="fill:rgb(242,110,33);"/>
            </g>
            <g transform="matrix(1,0,0,1,0,130.232)">
                <path d="M400.23,246.617L400.23,218.591L408.157,218.591L408.157,240.331L421.53,240.331L421.53,246.617L400.23,246.617Z" style="fill:rgb(242,110,33);fill-rule:nonzero;"/>
            </g>
            <g transform="matrix(1,0,0,1,0,130.232)">
                <path d="M436.304,246.617L436.304,218.591L444.231,218.591L444.231,240.331L457.604,240.331L457.604,246.617L436.304,246.617Z" style="fill:rgb(242,110,33);fill-rule:nonzero;"/>
            </g>
            <g transform="matrix(1,0,0,1,0,130.232)">
                <path d="M467.917,241.172L465.731,246.617L457.644,246.617L470.015,218.591L477.823,218.591L490.234,246.617L481.987,246.617L479.801,241.172L467.917,241.172ZM477.455,235.327L473.859,226.365L470.263,235.327L477.455,235.327Z" style="fill:rgb(242,110,33);"/>
            </g>
            <g transform="matrix(1,0,0,1,0,130.232)">
                <path d="M516.9,243.614C515.299,244.762 513.444,245.643 511.335,246.257C509.226,246.871 507.158,247.178 505.129,247.178C502.914,247.178 500.858,246.824 498.963,246.117C497.068,245.409 495.433,244.402 494.059,243.094C492.684,241.786 491.61,240.245 490.836,238.47C490.062,236.695 489.675,234.739 489.675,232.604C489.675,230.469 490.062,228.514 490.836,226.739C491.61,224.964 492.691,223.422 494.079,222.114C495.467,220.806 497.115,219.799 499.023,219.091C500.932,218.384 503.02,218.03 505.289,218.03C507.932,218.03 510.294,218.471 512.376,219.352C514.458,220.233 516.179,221.5 517.541,223.155L512.496,227.72C511.535,226.679 510.501,225.898 509.393,225.377C508.285,224.857 507.051,224.597 505.69,224.597C504.489,224.597 503.394,224.783 502.407,225.157C501.419,225.531 500.578,226.071 499.884,226.779C499.19,227.486 498.65,228.327 498.263,229.301C497.876,230.275 497.682,231.376 497.682,232.604C497.682,233.779 497.876,234.86 498.263,235.847C498.65,236.835 499.19,237.682 499.884,238.39C500.578,239.097 501.412,239.644 502.387,240.031C503.361,240.418 504.435,240.612 505.61,240.612C506.784,240.612 507.932,240.418 509.053,240.031C509.332,239.935 509.612,239.821 509.894,239.691L509.894,232.004L516.9,232.004L516.9,243.614Z" style="fill:rgb(242,110,33);"/>
            </g>
            <g transform="matrix(1,0,0,1,0,130.232)">
                <path d="M535.598,247.178C533.356,247.178 531.287,246.817 529.392,246.097C527.497,245.376 525.849,244.355 524.448,243.034C523.046,241.713 521.959,240.171 521.185,238.41C520.411,236.648 520.023,234.713 520.023,232.604C520.023,230.495 520.411,228.56 521.185,226.799C521.959,225.037 523.046,223.496 524.448,222.174C525.849,220.853 527.497,219.832 529.392,219.111C531.287,218.391 533.356,218.03 535.598,218.03C537.867,218.03 539.942,218.391 541.824,219.111C543.706,219.832 545.341,220.853 546.728,222.174C548.116,223.496 549.204,225.037 549.992,226.799C550.779,228.56 551.173,230.495 551.173,232.604C551.173,234.713 550.779,236.655 549.992,238.43C549.204,240.205 548.116,241.746 546.728,243.054C545.341,244.362 543.706,245.376 541.824,246.097C539.942,246.817 537.867,247.178 535.598,247.178ZM535.598,240.612C536.666,240.612 537.66,240.425 538.581,240.051C539.502,239.677 540.302,239.137 540.983,238.43C541.664,237.722 542.198,236.875 542.585,235.887C542.972,234.9 543.165,233.805 543.165,232.604C543.165,231.376 542.972,230.275 542.585,229.301C542.198,228.327 541.664,227.486 540.983,226.779C540.302,226.071 539.502,225.531 538.581,225.157C537.66,224.783 536.666,224.597 535.598,224.597C534.53,224.597 533.536,224.783 532.615,225.157C531.694,225.531 530.894,226.071 530.213,226.779C529.532,227.486 528.999,228.327 528.612,229.301C528.225,230.275 528.031,231.376 528.031,232.604C528.031,233.805 528.225,234.9 528.612,235.887C528.999,236.875 529.532,237.722 530.213,238.43C530.894,239.137 531.694,239.677 532.615,240.051C533.536,240.425 534.53,240.612 535.598,240.612Z" style="fill:rgb(242,110,33);fill-rule:nonzero;"/>
            </g>
            <g transform="matrix(1,0,0,1,0,56.835)">
                <path d="M298.817,275.869L298.817,283.316L290.889,283.316L290.889,255.289L303.421,255.289C307.505,255.289 310.648,256.217 312.85,258.072C315.052,259.927 316.153,262.456 316.153,265.659C316.153,267.768 315.646,269.59 314.631,271.124C313.679,272.566 312.355,273.69 310.66,274.495L316.713,283.316L308.225,283.316L303.144,275.869L298.817,275.869ZM298.817,269.743L303.221,269.743C304.876,269.743 306.11,269.383 306.924,268.662C307.738,267.941 308.145,266.94 308.145,265.659C308.145,264.351 307.738,263.337 306.924,262.616C306.11,261.896 304.876,261.535 303.221,261.535L298.817,261.535L298.817,269.743Z" style="fill:rgb(242,110,33);"/>
            </g>
            <g transform="matrix(1,0,0,1,0,56.835)">
                <path d="M320.517,283.316L320.517,255.289L342.497,255.289L342.497,261.415L328.364,261.415L328.364,277.19L343.018,277.19L343.018,283.316L320.517,283.316ZM327.804,272.065L327.804,266.14L340.816,266.14L340.816,272.065L327.804,272.065Z" style="fill:rgb(242,110,33);fill-rule:nonzero;"/>
            </g>
            <g transform="matrix(1,0,0,1,0,56.835)">
                <path d="M357.271,283.876C354.976,283.876 352.767,283.589 350.645,283.015C348.523,282.442 346.795,281.701 345.46,280.793L348.063,274.948C349.317,275.749 350.765,276.409 352.407,276.93C354.048,277.45 355.683,277.71 357.311,277.71C358.406,277.71 359.286,277.61 359.954,277.41C360.621,277.21 361.108,276.943 361.415,276.609C361.722,276.276 361.876,275.882 361.876,275.428C361.876,274.788 361.582,274.281 360.995,273.907C360.407,273.533 359.647,273.226 358.713,272.986C357.778,272.746 356.744,272.506 355.61,272.265C354.475,272.025 353.341,271.718 352.206,271.344C351.072,270.971 350.038,270.484 349.104,269.883C348.169,269.283 347.409,268.495 346.821,267.521C346.234,266.547 345.941,265.312 345.941,263.817C345.941,262.136 346.401,260.614 347.322,259.253C348.243,257.892 349.624,256.798 351.466,255.97C353.308,255.143 355.603,254.729 358.352,254.729C360.194,254.729 362.002,254.936 363.777,255.35C365.552,255.763 367.134,256.37 368.522,257.171L366.079,263.057C364.745,262.336 363.424,261.796 362.116,261.435C360.808,261.075 359.54,260.895 358.312,260.895C357.218,260.895 356.337,261.008 355.67,261.235C355.002,261.462 354.522,261.762 354.228,262.136C353.935,262.51 353.788,262.937 353.788,263.417C353.788,264.031 354.075,264.518 354.649,264.878C355.223,265.239 355.983,265.532 356.931,265.759C357.878,265.986 358.919,266.22 360.054,266.46C361.188,266.7 362.323,267 363.457,267.361C364.591,267.721 365.626,268.202 366.56,268.802C367.494,269.403 368.248,270.19 368.822,271.164C369.396,272.139 369.683,273.36 369.683,274.828C369.683,276.456 369.222,277.957 368.302,279.332C367.381,280.707 366.006,281.808 364.178,282.635C362.349,283.462 360.047,283.876 357.271,283.876Z" style="fill:rgb(242,110,33);fill-rule:nonzero;"/>
            </g>
            <g transform="matrix(1,0,0,1,0,56.8358)">
                <rect x="373.326" y="255.289" width="7.927" height="28.026" style="fill:rgb(242,110,33);"/>
            </g>
            <g transform="matrix(1,0,0,1,0,56.835)">
                <path d="M386.899,283.316L386.899,255.289L400.151,255.289C403.248,255.289 405.97,255.863 408.319,257.011C410.668,258.159 412.503,259.774 413.824,261.856C415.145,263.938 415.806,266.42 415.806,269.303C415.806,272.159 415.145,274.634 413.824,276.73C412.503,278.825 410.668,280.446 408.319,281.594C405.97,282.742 403.248,283.316 400.151,283.316L386.899,283.316ZM394.826,276.99L399.831,276.99C401.433,276.99 402.827,276.689 404.015,276.089C405.203,275.488 406.13,274.608 406.798,273.446C407.465,272.285 407.799,270.904 407.799,269.303C407.799,267.674 407.465,266.286 406.798,265.139C406.13,263.991 405.203,263.117 404.015,262.516C402.827,261.916 401.433,261.615 399.831,261.615L394.826,261.615L394.826,276.99Z" style="fill:rgb(242,110,33);fill-rule:nonzero;"/>
            </g>
            <g transform="matrix(1,0,0,1,0,56.835)">
                <path d="M427.817,272.065L427.817,277.19L442.471,277.19L442.471,283.316L419.97,283.316L419.97,255.289L441.95,255.289L441.95,261.415L427.817,261.415L427.817,266.14L440.269,266.14L440.269,272.065L427.817,272.065Z" style="fill:rgb(242,110,33);"/>
            </g>
            <g transform="matrix(1,0,0,1,0,56.835)">
                <path d="M454.642,268.38L454.642,283.316L446.875,283.316L446.875,255.289L453.401,255.289L465.773,270.225L465.773,255.289L473.54,255.289L473.54,283.316L467.014,283.316L454.642,268.38Z" style="fill:rgb(242,110,33);"/>
            </g>
            <g transform="matrix(1,0,0,1,0,56.835)">
                <path d="M493.118,283.876C490.903,283.876 488.854,283.523 486.973,282.815C485.091,282.108 483.463,281.1 482.088,279.792C480.713,278.485 479.639,276.943 478.865,275.168C478.091,273.393 477.704,271.438 477.704,269.303C477.704,267.167 478.091,265.212 478.865,263.437C479.639,261.662 480.713,260.121 482.088,258.813C483.463,257.505 485.091,256.497 486.973,255.79C488.854,255.083 490.903,254.729 493.118,254.729C495.707,254.729 498.023,255.183 500.065,256.09C502.107,256.998 503.808,258.306 505.17,260.014L500.125,264.578C499.217,263.51 498.223,262.696 497.142,262.136C496.061,261.575 494.853,261.295 493.519,261.295C492.371,261.295 491.317,261.482 490.356,261.856C489.395,262.229 488.574,262.77 487.893,263.477C487.213,264.184 486.679,265.032 486.292,266.02C485.905,267.007 485.711,268.101 485.711,269.303C485.711,270.504 485.905,271.598 486.292,272.586C486.679,273.573 487.213,274.421 487.893,275.128C488.574,275.835 489.395,276.376 490.356,276.75C491.317,277.123 492.371,277.31 493.519,277.31C494.853,277.31 496.061,277.03 497.142,276.469C498.223,275.909 499.217,275.095 500.125,274.027L505.17,278.591C503.808,280.273 502.107,281.574 500.065,282.495C498.023,283.416 495.707,283.876 493.118,283.876Z" style="fill:rgb(242,110,33);fill-rule:nonzero;"/>
            </g>
            <g transform="matrix(1,0,0,1,0,56.8358)">
                <rect x="508.373" y="255.289" width="7.927" height="28.026" style="fill:rgb(242,110,33);"/>
            </g>
            <g transform="matrix(1,0,0,1,0,56.835)">
                <path d="M528.855,277.871L526.67,283.316L518.582,283.316L530.954,255.289L538.761,255.289L551.173,283.316L542.925,283.316L540.74,277.871L528.855,277.871ZM538.394,272.025L534.797,263.064L531.201,272.025L538.394,272.025Z" style="fill:rgb(242,110,33);"/>
            </g>
            <g transform="matrix(1,0,0,1,0,-114.593)">
                <path d="M510.407,346.696C510.407,346.696 526.45,353.114 531.275,353.556C536.099,353.998 536.892,353.94 538.53,353.372C540.168,352.804 541.527,353.575 541.86,354.717C541.86,354.717 540.763,353.737 539.501,354.133C539.501,354.133 540.472,355.334 538.566,355.211C538.566,355.211 537.666,355.514 541.028,356.179C544.391,356.843 548.305,358.568 549.359,360.219C549.359,360.219 545.964,358.408 543.609,358.45C543.609,358.45 543.537,359.449 546.735,360.219C549.932,360.989 549.889,361.082 549.778,361.821C549.778,361.821 549.993,362.647 551.173,362.121C551.173,362.121 550.674,363.337 548.574,362.099C546.473,360.86 544.556,361.268 542.724,360.219C540.892,359.169 539.258,359.257 537.218,358.869C535.178,358.482 535.497,357.446 533.325,357.166C531.153,356.885 526.091,354.885 524.302,354.069C522.844,353.403 513.593,350.092 510.319,348.968C510.133,348.288 509.233,347.347 509.233,347.347C509.233,347.347 509.668,347.584 510.007,347.356C510.422,347.077 510.407,346.696 510.407,346.696Z"/>
            </g>
            <g transform="matrix(1,0,0,1,0,-96.932)">
                <path d="M509.233,338.239C509.233,338.239 516.694,342.128 518.779,342.558C520.863,342.988 522.687,342.605 526.218,343.163C529.749,343.722 529.776,340.81 532.066,343.964C532.066,343.964 530.466,342.471 529.469,343.46C529.469,343.46 530.35,344.804 528.869,344.555C528.869,344.555 529.105,345.425 532.848,346.212C536.591,346.998 536.637,347.589 536.577,348.168C536.577,348.168 537.508,348.807 537.983,348.282C537.983,348.282 537.637,349.752 535.646,348.388C533.655,347.025 530.654,346.74 530.654,346.74C530.654,346.74 532.215,348.797 535.613,349.726C539.011,350.655 539.708,350.991 539.774,352.185C539.774,352.185 539.842,353.203 540.991,352.783C540.991,352.783 540.241,354.133 538.63,352.548C537.019,350.962 536.229,351.098 534.722,350.937C533.215,350.776 531.489,348.893 528.79,348.676C526.091,348.46 524.073,346.733 522.15,346.434C520.227,346.135 519.295,345.957 516.859,344.557C515.057,343.521 509.233,340.52 509.233,340.52C509.233,340.52 509.908,340.245 509.928,339.824C509.975,338.832 509.233,338.239 509.233,338.239Z"/>
            </g>
            <g transform="matrix(1,0,0,1,0,-97.264)">
                <path d="M414.358,324.59C387.085,344.757 388.59,362.022 376.849,379.989C373.876,384.54 370.896,389.837 360.801,390.98C360.801,390.98 367.659,392.707 374.498,387.262C374.498,387.262 372.935,391.116 363.974,395.916C363.974,395.916 372.654,394.431 378.572,388.52C378.572,388.52 375.119,393.946 373.044,397.027C373.044,397.027 377.933,396.261 384.658,385.612C384.658,385.612 381.432,394.668 379.511,397.443C379.511,397.443 384.303,395.913 388.219,391.049C388.219,391.049 386.076,395.953 384.491,397.652C384.491,397.652 390.811,396.618 395.344,388.52C395.344,388.52 393.575,392.722 396.704,391.498C399.832,390.273 403.276,385.445 404.483,381.006C404.483,381.006 402.052,387.672 405.899,385.638C409.746,383.603 411.135,380.584 411.046,378.488C411.046,378.488 411.115,381.067 413.363,379.938C415.612,378.808 417.094,376.446 417.237,372.633C417.724,374.204 419.214,375.602 421.066,372.848C422.463,370.77 422.037,368.092 422.037,368.092C422.462,369.638 426.433,369.487 426.637,363.807C427.024,365.08 430.888,365.333 432.079,360.808C432.724,361.543 436.791,361.543 436.159,357.793C436.69,358.589 440.376,357.743 440.042,354.467C441.241,355.24 444.084,354.305 443.602,350.893C443.602,350.893 447.773,351.029 448.395,346.894C448.395,346.894 453.267,347.791 453.429,342.89C453.429,342.89 457.231,344.261 458.676,339.353C458.676,339.353 462.28,339.896 462.684,335.962C465.482,336.524 466.732,335.047 467.132,332.85C468.646,332.416 468.593,330.145 468.567,330.129C469.325,341.232 470.622,362.541 479.366,359.537C479.366,359.537 479.7,360.707 479.559,362.962C479.559,362.962 480.957,363.104 482.196,362.969C486.182,362.536 483.423,357.488 483.423,357.488C485.451,361.783 487.658,363.2 487.258,365.898C487.258,365.898 489.967,366.839 491.077,364.347C492.335,361.522 490.51,357.771 490.51,357.771C492.607,361.242 494.275,361.644 495.041,364.307C495.041,364.307 502.246,365.056 498.025,357.765C499.714,360.706 501.55,361.34 503.281,360.112C504.97,358.915 503.775,355.187 503.775,355.187C503.767,355.346 505.609,357.7 507.139,355.679C508.143,354.353 506.863,351.931 506.863,351.931C507.44,352.7 511.107,353.725 508.685,348.656C509.413,349.318 512.286,350.055 509.358,344.916C509.358,344.916 512.279,345.052 509.233,340.852C509.233,340.852 511.212,340.25 508.612,337.874C508.612,337.874 510.62,337.104 508.366,335.286C508.366,335.286 511.301,335.361 509.013,332.841C509.847,333.316 511.556,332.503 509.233,330.018C509.901,330.506 511.599,329.335 509.05,327.863C509.05,327.863 510.481,328.224 510.712,327.574C510.943,326.923 508.955,326.102 508.955,326.102C508.955,326.102 511.955,325.553 507.809,323.782C507.809,323.782 511.217,323.79 506.719,321.66C506.719,321.66 509.88,321.798 505.511,319.344C502.642,317.733 495.864,312.819 490.752,310.051C483.361,306.049 472.613,302.28 464.105,300.042C455.596,297.805 445.15,295.052 440.619,296.132C436.089,297.213 433.6,299.332 432.854,303.161C431.802,308.561 423.392,316.949 415.145,317.12C406.677,317.297 405.743,311.619 405.722,310.448C405.702,309.277 404.152,301.602 392.628,300.426C380.092,299.147 376.305,298.795 370.715,301.954C363.747,305.893 358.716,306.321 356.511,307.474C354.306,308.626 348.691,310.602 351.564,311.104C354.437,311.605 361.348,309.359 363.287,309.164C365.225,308.97 374.944,309.3 380.378,308.482C385.813,307.664 394.39,308.335 395.843,311.293C397.706,315.086 397.67,325.008 414.358,324.59Z" style="fill:white;"/>
            </g>
            <g transform="matrix(1,0,0,1,0,-96.612)">
                <path d="M503.971,354.955C504.098,355.463 504.275,356.339 504.262,357.21C504.248,358.124 504.021,359.03 503.326,359.523C502.614,360.028 501.885,360.224 501.156,360.087C500.352,359.937 499.545,359.377 498.761,358.365C499.741,360.535 499.522,361.838 498.857,362.616C498.381,363.172 497.671,363.464 496.99,363.612C495.979,363.83 495.033,363.732 495.033,363.732C495.002,363.728 494.976,363.707 494.967,363.676C494.588,362.358 493.985,361.6 493.217,360.741C492.558,360.003 491.778,359.192 490.914,357.899C491.117,358.457 491.363,359.255 491.497,360.148C491.669,361.289 491.657,362.583 491.148,363.726C490.01,366.281 487.233,365.319 487.233,365.319C487.198,365.307 487.176,365.271 487.182,365.235C487.379,363.905 486.93,362.891 486.186,361.68C485.628,360.773 484.905,359.757 484.157,358.424C484.251,358.734 484.332,359.067 484.381,359.403C484.499,360.216 484.427,361.047 483.912,361.632C483.568,362.022 483.026,362.304 482.205,362.394C480.958,362.53 479.551,362.387 479.551,362.387C479.51,362.383 479.48,362.347 479.482,362.305C479.601,360.404 479.381,359.28 479.312,358.985C475.819,360.132 473.496,357.44 471.933,353.055C469.709,346.811 469.012,337.139 468.558,330.472C468.515,330.67 468.455,330.881 468.37,331.087C468.161,331.594 467.802,332.068 467.2,332.258C466.993,333.356 466.571,334.273 465.856,334.849C465.143,335.423 464.137,335.663 462.752,335.402C462.618,336.558 462.206,337.325 461.695,337.832C460.609,338.91 459.069,338.82 458.732,338.785C458.143,340.736 457.18,341.691 456.238,342.136C455.028,342.708 453.846,342.441 453.502,342.342C453.435,343.781 452.958,344.716 452.324,345.32C450.971,346.609 448.887,346.391 448.46,346.33C447.846,350.094 444.305,350.309 443.69,350.318C443.992,352.706 442.676,353.877 441.445,354.105C440.963,354.194 440.493,354.138 440.132,353.955C440.283,356.202 438.554,357.287 437.306,357.469C436.973,357.518 436.673,357.502 436.45,357.429C436.382,357.406 436.321,357.378 436.267,357.345C436.388,358.31 436.19,359.016 435.826,359.52C435.238,360.334 434.212,360.625 433.364,360.615C432.83,360.609 432.367,360.481 432.121,360.297C431.25,363.421 429.096,364.227 427.745,364C427.278,363.921 426.905,363.718 426.701,363.445C426.471,367.264 424.489,368.474 423.172,368.347C422.741,368.305 422.378,368.122 422.156,367.841C422.214,368.679 422.208,370.635 421.13,372.239C420.37,373.37 419.662,373.811 419.062,373.84C418.692,373.857 418.359,373.72 418.074,373.484C417.746,373.213 417.481,372.81 417.295,372.367C417.068,375.991 415.592,378.253 413.398,379.355C412.693,379.709 412.193,379.707 411.839,379.541C411.504,379.384 411.295,379.077 411.168,378.764C411.141,378.698 411.117,378.632 411.097,378.566C410.874,380.611 409.389,383.227 405.935,385.054C405.134,385.478 404.592,385.528 404.241,385.355C403.882,385.178 403.708,384.766 403.662,384.241C403.618,383.745 403.686,383.146 403.796,382.568C402.223,386.321 399.365,389.887 396.732,390.918C395.911,391.239 395.411,391.19 395.123,390.957C394.832,390.721 394.747,390.288 394.774,389.812C394.797,389.403 394.9,388.964 395.007,388.603C390.49,396.102 384.504,397.076 384.504,397.076C384.471,397.081 384.439,397.065 384.423,397.036C384.408,397.007 384.412,396.972 384.435,396.947C385.699,395.592 387.319,392.189 387.915,390.886C384.056,395.422 379.535,396.864 379.535,396.864C379.503,396.875 379.469,396.863 379.449,396.837C379.43,396.81 379.429,396.774 379.448,396.747C381.054,394.427 383.572,387.711 384.349,385.587C377.791,395.719 373.056,396.451 373.056,396.451C373.026,396.456 372.996,396.442 372.979,396.416C372.963,396.391 372.963,396.357 372.98,396.332C374.653,393.848 377.222,389.839 378.153,388.381C372.24,393.928 363.987,395.34 363.987,395.34C363.95,395.346 363.914,395.325 363.901,395.289C363.889,395.253 363.904,395.214 363.938,395.196C371.38,391.21 373.703,387.883 374.27,386.887C367.491,392.095 360.782,390.403 360.782,390.403C360.746,390.394 360.722,390.36 360.724,390.323C360.727,390.286 360.756,390.256 360.793,390.251C370.854,389.112 373.822,383.83 376.785,379.295C381.479,372.112 384.054,365.041 387.199,357.852C391.906,347.096 397.886,336.075 414.117,324.021C407.561,324.147 403.614,322.66 401.119,320.59C398.843,318.701 397.774,316.323 397.041,314.229C396.556,312.844 396.22,311.583 395.774,310.675C395.345,309.802 394.282,309.137 392.864,308.648C389.512,307.491 384.183,307.335 380.39,307.906C374.955,308.724 365.233,308.395 363.295,308.589C362.133,308.706 359.183,309.561 356.389,310.117C354.513,310.491 352.707,310.73 351.551,310.528C351.226,310.471 351.006,310.394 350.872,310.305C350.767,310.234 350.711,310.153 350.693,310.067C350.665,309.933 350.733,309.776 350.894,309.61C351.219,309.276 351.934,308.878 352.776,308.47C354.023,307.866 355.55,307.237 356.475,306.754C358.68,305.601 363.71,305.173 370.677,301.235C376.279,298.069 380.074,298.416 392.636,299.697C404.231,300.88 405.779,308.617 405.799,309.795C405.812,310.489 406.15,312.785 408.225,314.473C409.615,315.605 411.781,316.461 415.144,316.391C419.25,316.306 423.396,314.173 426.648,311.391C429.897,308.61 432.255,305.182 432.779,302.494C433.53,298.635 436.035,296.495 440.601,295.405C442.421,294.971 445.19,295.151 448.405,295.669C453.212,296.444 459.017,297.973 464.125,299.315C472.638,301.555 483.393,305.327 490.789,309.331C495.901,312.099 502.68,317.014 505.549,318.625C506.607,319.219 507.226,319.663 507.558,319.994C507.797,320.232 507.891,320.42 507.901,320.562C507.913,320.742 507.803,320.868 507.633,320.948C507.463,321.029 507.23,321.063 507.041,321.077C507.955,321.526 508.502,321.875 508.8,322.145C509.041,322.363 509.126,322.541 509.123,322.677C509.12,322.842 508.993,322.966 508.805,323.046C508.608,323.131 508.345,323.171 508.138,323.19C508.966,323.563 509.469,323.88 509.753,324.147C509.981,324.362 510.072,324.549 510.081,324.707C510.095,324.952 509.916,325.141 509.687,325.272C509.523,325.366 509.336,325.43 509.194,325.471C509.512,325.618 510.121,325.923 510.487,326.26C510.603,326.367 510.695,326.477 510.75,326.586C510.811,326.709 510.827,326.831 510.785,326.948C510.683,327.235 510.374,327.355 510.033,327.381C509.828,327.398 509.613,327.382 509.435,327.359C510.917,328.352 510.561,329.199 510.003,329.464C509.845,329.539 509.667,329.57 509.502,329.549C510.285,330.449 510.521,331.121 510.476,331.577C510.413,332.232 509.792,332.481 509.272,332.368C509.613,332.777 509.807,333.112 509.898,333.387C510.013,333.734 509.966,333.991 509.838,334.181C509.688,334.405 509.419,334.538 509.147,334.613C508.935,334.672 508.722,334.696 508.572,334.705C509.375,335.397 509.562,335.942 509.503,336.342C509.464,336.606 509.317,336.814 509.153,336.966C509.008,337.101 508.851,337.192 508.75,337.244C509.357,337.812 509.701,338.278 509.876,338.657C510.068,339.073 510.06,339.391 509.97,339.629C509.836,339.981 509.516,340.163 509.354,340.235C510.085,341.256 510.46,342.018 510.612,342.587C510.775,343.196 510.685,343.593 510.501,343.852C510.225,344.239 509.727,344.321 509.489,344.338C510.329,345.832 510.671,346.822 510.719,347.457C510.754,347.921 510.634,348.206 510.443,348.368C510.25,348.532 509.978,348.573 509.695,348.536C509.409,348.498 509.112,348.38 508.881,348.242C509.376,349.332 509.575,350.124 509.581,350.688C509.586,351.112 509.482,351.412 509.316,351.617C509.065,351.927 508.667,352.023 508.253,351.99C507.828,351.955 507.389,351.783 507.091,351.583C507.241,351.93 507.457,352.505 507.552,353.123C507.656,353.8 507.615,354.527 507.201,355.074C506.754,355.663 506.28,355.892 505.832,355.917C505.165,355.954 504.55,355.533 504.155,355.149C504.087,355.082 504.025,355.017 503.971,354.955ZM404.054,381.47C404.236,380.807 404.411,380.328 404.411,380.328C404.425,380.289 404.467,380.268 404.507,380.28C404.546,380.293 404.569,380.334 404.558,380.374C404.453,380.759 404.332,381.146 404.196,381.533C403.974,382.343 403.745,383.422 403.816,384.227C403.857,384.69 403.993,385.06 404.309,385.216C404.632,385.375 405.126,385.308 405.863,384.918C409.666,382.906 411.051,379.929 410.97,377.853C410.969,377.846 410.969,377.838 410.969,377.838C410.968,377.796 411.001,377.76 411.044,377.759C411.086,377.757 411.122,377.79 411.123,377.833C411.123,377.833 411.124,377.843 411.124,377.848C411.128,377.927 411.154,378.321 411.311,378.706C411.424,378.985 411.606,379.261 411.904,379.401C412.228,379.553 412.684,379.541 413.329,379.217C415.556,378.098 417.019,375.755 417.16,371.978C417.162,371.941 417.19,371.909 417.227,371.905C417.264,371.9 417.3,371.922 417.311,371.958C417.454,372.418 417.684,372.863 417.986,373.188C418.279,373.504 418.64,373.705 419.055,373.685C419.623,373.659 420.281,373.225 421.002,372.153C422.383,370.099 421.961,367.452 421.961,367.452C421.955,367.412 421.981,367.373 422.021,367.365C422.061,367.356 422.101,367.38 422.112,367.42C422.272,368.004 422.975,368.32 423.766,368.16C425.001,367.909 426.44,366.505 426.56,363.152C426.562,363.115 426.59,363.083 426.627,363.078C426.665,363.074 426.7,363.096 426.711,363.133C426.82,363.492 427.229,363.757 427.771,363.848C429.091,364.07 431.186,363.247 432.005,360.136C432.012,360.109 432.034,360.087 432.062,360.081C432.089,360.074 432.118,360.084 432.137,360.105C432.208,360.186 432.325,360.255 432.473,360.312C432.709,360.402 433.021,360.457 433.365,360.46C434.169,360.47 435.144,360.201 435.701,359.43C436.073,358.915 436.256,358.177 436.083,357.154C436.077,357.118 436.097,357.083 436.131,357.069C436.165,357.056 436.203,357.068 436.223,357.098C436.279,357.181 436.375,357.241 436.498,357.282C436.703,357.349 436.978,357.361 437.284,357.316C438.499,357.139 440.194,356.062 439.965,353.823C439.962,353.793 439.977,353.765 440.002,353.749C440.027,353.734 440.059,353.734 440.084,353.75C440.429,353.973 440.917,354.045 441.417,353.953C442.604,353.734 443.855,352.582 443.526,350.252C443.523,350.229 443.53,350.206 443.545,350.189C443.56,350.173 443.582,350.163 443.605,350.164C443.605,350.164 447.707,350.298 448.319,346.231C448.322,346.21 448.333,346.191 448.35,346.179C448.367,346.167 448.389,346.162 448.409,346.166C448.409,346.166 450.755,346.601 452.217,345.208C452.843,344.612 453.304,343.679 453.352,342.235C453.353,342.211 453.366,342.188 453.386,342.174C453.406,342.16 453.432,342.157 453.455,342.165C453.455,342.165 454.795,342.648 456.172,341.997C457.096,341.56 458.033,340.613 458.602,338.679C458.613,338.642 458.65,338.619 458.688,338.625C458.688,338.625 460.415,338.886 461.586,337.723C462.09,337.223 462.489,336.459 462.608,335.302C462.61,335.28 462.621,335.261 462.638,335.248C462.656,335.235 462.678,335.23 462.699,335.234C464.07,335.51 465.062,335.29 465.759,334.729C466.458,334.166 466.86,333.262 467.056,332.184C467.062,332.155 467.083,332.132 467.111,332.124C467.692,331.957 468.03,331.507 468.228,331.028C468.43,330.538 468.486,330.017 468.496,329.722C468.498,329.67 468.498,329.622 468.497,329.585C468.495,329.551 468.493,329.516 468.49,329.482C468.488,329.453 468.503,329.426 468.527,329.411C468.552,329.396 468.583,329.396 468.608,329.411L468.629,329.43L468.644,329.462C468.647,329.475 468.651,329.518 468.652,329.586C469.106,336.245 469.759,346.492 472.079,353.003C473.618,357.323 475.883,360 479.341,358.812C479.361,358.805 479.383,358.807 479.402,358.817C479.421,358.826 479.435,358.843 479.44,358.864C479.44,358.864 479.771,360.017 479.641,362.24C479.943,362.267 481.125,362.356 482.188,362.24C482.961,362.156 483.473,361.897 483.797,361.53C484.282,360.979 484.34,360.192 484.228,359.425C484.111,358.621 483.806,357.838 483.59,357.355C483.512,357.199 483.433,357.038 483.355,356.873C483.355,356.872 483.354,356.87 483.353,356.869C483.336,356.831 483.351,356.786 483.388,356.767C483.425,356.748 483.471,356.762 483.491,356.799C483.491,356.799 483.492,356.8 483.493,356.803C483.508,356.831 483.603,357.009 483.727,357.284C484.666,359.165 485.621,360.467 486.317,361.599C487.071,362.825 487.523,363.856 487.344,365.192C487.743,365.311 490.022,365.876 491.007,363.664C491.504,362.547 491.512,361.285 491.345,360.171C491.093,358.493 490.441,357.153 490.441,357.153C490.423,357.116 490.437,357.071 490.473,357.051C490.51,357.032 490.555,357.044 490.576,357.079C491.621,358.809 492.56,359.774 493.332,360.639C494.105,361.503 494.713,362.269 495.101,363.583C495.307,363.599 496.109,363.644 496.957,363.461C497.607,363.32 498.285,363.046 498.74,362.515C499.499,361.628 499.619,360.039 497.985,357.198C497.976,357.183 497.967,357.167 497.958,357.152C497.937,357.115 497.95,357.067 497.987,357.046C498.024,357.025 498.071,357.038 498.092,357.074C498.101,357.09 498.11,357.105 498.119,357.121C499.109,358.829 500.145,359.741 501.184,359.936C501.874,360.065 502.563,359.875 503.237,359.397C503.893,358.932 504.094,358.071 504.108,357.208C504.126,355.998 503.77,354.78 503.71,354.586C503.706,354.575 503.704,354.566 503.702,354.559C503.699,354.547 503.698,354.538 503.698,354.531C503.7,354.494 503.728,354.463 503.765,354.458C503.802,354.454 503.837,354.476 503.849,354.511C503.849,354.511 503.853,354.524 503.86,354.547C503.901,354.633 504.047,354.828 504.263,355.038C504.631,355.397 505.201,355.798 505.824,355.763C506.236,355.74 506.667,355.523 507.078,354.98C507.467,354.467 507.498,353.782 507.4,353.147C507.25,352.176 506.795,351.315 506.795,351.315C506.776,351.279 506.788,351.235 506.822,351.214C506.856,351.192 506.901,351.2 506.925,351.233C507.124,351.498 507.709,351.791 508.266,351.836C508.626,351.865 508.977,351.79 509.196,351.519C509.344,351.337 509.431,351.068 509.427,350.689C509.42,350.094 509.19,349.239 508.616,348.037C508.6,348.004 508.61,347.964 508.639,347.942C508.669,347.92 508.71,347.922 508.737,347.947C508.947,348.137 509.341,348.334 509.715,348.383C509.952,348.414 510.181,348.387 510.343,348.25C510.506,348.112 510.595,347.865 510.565,347.469C510.517,346.831 510.161,345.829 509.291,344.302C509.277,344.278 509.278,344.248 509.292,344.224C509.307,344.2 509.334,344.186 509.362,344.187C509.362,344.187 510.048,344.222 510.375,343.762C510.54,343.53 510.609,343.173 510.463,342.627C510.31,342.055 509.924,341.285 509.171,340.245C509.156,340.225 509.152,340.199 509.16,340.175C509.168,340.152 509.187,340.133 509.211,340.126C509.211,340.126 509.669,339.988 509.826,339.575C509.905,339.365 509.904,339.087 509.736,338.722C509.559,338.338 509.2,337.863 508.56,337.279C508.54,337.261 508.531,337.234 508.536,337.208C508.541,337.181 508.56,337.16 508.585,337.15C508.585,337.15 508.831,337.055 509.048,336.853C509.188,336.722 509.316,336.546 509.35,336.319C509.409,335.925 509.185,335.394 508.318,334.694C508.292,334.673 508.282,334.638 508.294,334.607C508.305,334.576 508.335,334.556 508.368,334.557C508.368,334.557 508.737,334.566 509.106,334.464C509.342,334.399 509.579,334.29 509.71,334.095C509.816,333.937 509.847,333.723 509.751,333.435C509.649,333.124 509.404,332.734 508.956,332.241C508.931,332.213 508.929,332.17 508.953,332.141C508.977,332.111 509.018,332.103 509.051,332.122C509.206,332.21 509.392,332.25 509.575,332.239C509.834,332.225 510.087,332.109 510.223,331.88C510.315,331.726 510.353,331.521 510.309,331.263C510.233,330.807 509.905,330.198 509.177,329.419C509.15,329.39 509.149,329.345 509.176,329.315C509.202,329.285 509.247,329.28 509.279,329.304C509.458,329.434 509.72,329.427 509.937,329.324C510.475,329.069 510.703,328.255 509.012,327.278C508.978,327.259 508.964,327.218 508.979,327.182C508.993,327.146 509.032,327.127 509.069,327.136C509.069,327.136 509.571,327.263 510.021,327.228C510.297,327.206 510.557,327.129 510.64,326.896C510.667,326.818 510.652,326.737 510.612,326.655C510.564,326.561 510.483,326.466 510.382,326.374C509.885,325.916 508.926,325.521 508.926,325.521C508.894,325.508 508.875,325.476 508.879,325.442C508.882,325.408 508.908,325.38 508.941,325.374C508.941,325.374 509.317,325.306 509.61,325.138C509.786,325.038 509.938,324.904 509.927,324.716C509.919,324.586 509.835,324.436 509.647,324.259C509.339,323.97 508.762,323.621 507.779,323.201C507.745,323.187 507.726,323.15 507.734,323.114C507.741,323.079 507.773,323.053 507.809,323.053C507.809,323.053 508.392,323.056 508.744,322.904C508.868,322.851 508.967,322.783 508.969,322.673C508.971,322.565 508.889,322.433 508.696,322.259C508.374,321.967 507.755,321.584 506.686,321.078C506.653,321.062 506.636,321.025 506.644,320.989C506.653,320.954 506.686,320.929 506.723,320.931C506.723,320.931 507.119,320.949 507.428,320.86C507.523,320.833 507.61,320.796 507.671,320.743C507.721,320.7 507.752,320.644 507.747,320.573C507.739,320.453 507.649,320.303 507.449,320.103C507.123,319.778 506.513,319.343 505.473,318.759C502.605,317.148 495.827,312.235 490.716,309.467C483.329,305.467 472.588,301.701 464.086,299.465C458.983,298.123 453.183,296.596 448.381,295.822C445.191,295.307 442.443,295.125 440.637,295.555C436.143,296.627 433.67,298.725 432.93,302.524C432.402,305.236 430.028,308.702 426.748,311.508C423.47,314.313 419.287,316.459 415.147,316.545C411.735,316.616 409.538,315.741 408.128,314.593C406.002,312.863 405.658,310.509 405.645,309.797C405.625,308.634 404.074,301.02 392.62,299.851C380.111,298.574 376.331,298.217 370.753,301.369C363.784,305.309 358.752,305.737 356.547,306.89C355.62,307.374 354.092,308.004 352.844,308.609C352.022,309.007 351.322,309.392 351.004,309.718C350.942,309.782 350.895,309.843 350.868,309.901C350.845,309.948 350.835,309.993 350.844,310.035C350.858,310.104 350.919,310.16 351.022,310.214C351.146,310.279 351.329,310.333 351.578,310.376C352.72,310.575 354.505,310.335 356.358,309.966C359.158,309.408 362.115,308.552 363.28,308.435C365.217,308.241 374.934,308.572 380.367,307.754C384.182,307.179 389.542,307.338 392.914,308.502C394.379,309.007 395.47,309.705 395.913,310.607C396.361,311.52 396.7,312.786 397.187,314.178C397.911,316.25 398.966,318.603 401.218,320.471C403.723,322.55 407.708,324.027 414.356,323.861C414.39,323.86 414.42,323.881 414.431,323.913C414.442,323.945 414.431,323.98 414.404,324C398.055,336.089 392.057,347.134 387.341,357.914C384.192,365.111 381.613,372.189 376.914,379.379C373.979,383.871 371.036,389.086 361.297,390.346C362.959,390.616 368.711,391.119 374.45,386.55C374.478,386.528 374.516,386.527 374.544,386.548C374.573,386.569 374.583,386.606 374.57,386.639C374.57,386.639 373.058,390.384 364.461,395.088C366.385,394.673 373.462,392.863 378.518,387.813C378.546,387.786 378.59,387.783 378.621,387.808C378.651,387.832 378.658,387.876 378.637,387.909C378.637,387.909 375.303,393.149 373.218,396.255C374.166,395.995 378.658,394.317 384.593,384.919C384.614,384.886 384.657,384.873 384.692,384.891C384.727,384.908 384.744,384.949 384.731,384.986C384.731,384.986 381.641,393.658 379.704,396.641C380.678,396.28 384.751,394.582 388.159,390.349C388.183,390.319 388.226,390.311 388.259,390.331C388.292,390.351 388.305,390.392 388.29,390.428C388.29,390.428 386.276,395.033 384.704,396.876C385.865,396.604 391.271,394.987 395.277,387.83C395.297,387.795 395.341,387.781 395.378,387.799C395.415,387.817 395.431,387.86 395.415,387.898C395.415,387.898 394.978,388.935 394.928,389.82C394.904,390.241 394.963,390.629 395.22,390.837C395.481,391.048 395.933,391.065 396.676,390.774C399.522,389.66 402.627,385.544 404.054,381.47Z"/>
            </g>
            <g transform="matrix(1,0,0,1,0,-99.248)">
                <path d="M483.491,359.435C483.511,359.472 483.498,359.519 483.461,359.54C483.423,359.56 483.376,359.547 483.356,359.509C480.857,354.982 478.363,352.688 476.408,348.234C474.383,343.619 472.728,337.395 472.515,335.216C472.511,335.174 472.542,335.136 472.585,335.132C472.627,335.128 472.665,335.159 472.669,335.202C472.881,337.373 474.532,343.573 476.549,348.172C478.502,352.622 480.995,354.912 483.491,359.435Z"/>
            </g>
            <g transform="matrix(1,0,0,1,0,-98.45)">
                <path d="M490.578,358.921C490.598,358.958 490.584,359.005 490.546,359.025C490.509,359.045 490.462,359.031 490.442,358.993C488.313,354.989 482.806,350.622 480.098,346.586C477.138,342.173 475.965,339.14 474.703,334.953C474.691,334.912 474.714,334.869 474.755,334.857C474.796,334.845 474.839,334.868 474.851,334.909C476.108,339.08 477.277,342.103 480.226,346.5C482.937,350.54 488.447,354.913 490.578,358.921Z"/>
            </g>
            <g transform="matrix(1,0,0,1,0,-100.654)">
                <path d="M498.129,361.179C498.151,361.216 498.139,361.263 498.103,361.285C498.066,361.307 498.019,361.295 497.997,361.259C495.455,357.008 489.764,352.48 486.177,349.206C482.082,345.469 477.837,339.319 476.198,334.901C476.183,334.861 476.203,334.816 476.243,334.802C476.283,334.787 476.328,334.807 476.343,334.847C477.975,339.247 482.203,345.371 486.281,349.092C489.878,352.374 495.581,356.918 498.129,361.179Z"/>
            </g>
            <g transform="matrix(1,0,0,1,0,-106.533)">
                <path d="M503.849,364.433C503.862,364.473 503.839,364.517 503.799,364.53C503.758,364.542 503.715,364.52 503.702,364.479C503.104,362.599 501.368,360.69 499.248,358.87C496.05,356.123 491.978,353.582 489.58,351.658C485.257,348.19 479.061,342.234 476.883,337.552C476.865,337.513 476.882,337.467 476.921,337.449C476.959,337.431 477.005,337.448 477.023,337.486C479.193,342.152 485.37,348.082 489.677,351.538C492.076,353.462 496.149,356.005 499.348,358.753C501.493,360.595 503.244,362.53 503.849,364.433Z"/>
            </g>
            <g transform="matrix(1,0,0,1,0,-113.391)">
                <path d="M506.933,368.025C506.951,368.063 506.935,368.109 506.896,368.128C506.858,368.146 506.812,368.13 506.794,368.091C505.909,366.238 503.871,364.277 501.486,362.392C497.893,359.552 493.51,356.888 491.058,355.034C486.476,351.567 481.267,347.814 476.541,340.816C476.517,340.781 476.527,340.733 476.562,340.709C476.597,340.685 476.645,340.695 476.669,340.73C481.383,347.71 486.58,351.453 491.151,354.91C493.604,356.765 497.988,359.431 501.582,362.271C503.988,364.173 506.041,366.155 506.933,368.025Z"/>
            </g>
            <g transform="matrix(1,0,0,1,0,-117.004)">
                <path d="M508.753,368.359C508.773,368.396 508.76,368.443 508.722,368.464C508.685,368.484 508.638,368.47 508.618,368.433C507.433,366.274 503.881,363.637 499.423,360.576C492.713,355.967 483.955,350.407 478.086,344.098C478.057,344.066 478.059,344.018 478.09,343.989C478.121,343.96 478.17,343.961 478.199,343.992C484.061,350.294 492.809,355.846 499.511,360.449C503.994,363.528 507.562,366.187 508.753,368.359Z"/>
            </g>
            <g transform="matrix(1,0,0,1,0,-122.99)">
                <path d="M509.424,370.601C509.446,370.637 509.435,370.685 509.399,370.707C509.363,370.73 509.315,370.719 509.293,370.683C507.869,368.403 504.165,366.038 499.604,363.322C492.737,359.233 483.93,354.361 477.981,347.838C477.953,347.807 477.955,347.758 477.986,347.729C478.018,347.7 478.067,347.703 478.095,347.734C484.034,354.246 492.828,359.107 499.683,363.189C504.271,365.921 507.991,368.308 509.424,370.601Z"/>
            </g>
            <g transform="matrix(1,0,0,1,0,-128.113)">
                <path d="M509.297,371.658C509.321,371.693 509.312,371.741 509.276,371.765C509.241,371.789 509.193,371.779 509.169,371.744C507.631,369.467 504.13,367.558 499.84,365.398C493.376,362.145 485.124,358.334 479.042,351.902C479.013,351.871 479.014,351.822 479.045,351.793C479.076,351.764 479.125,351.765 479.154,351.796C485.223,358.214 493.459,362.014 499.909,365.261C504.228,367.435 507.748,369.365 509.297,371.658Z"/>
            </g>
            <g transform="matrix(1,0,0,1,0,-132.069)">
                <path d="M508.671,372.629C508.699,372.661 508.695,372.71 508.662,372.738C508.63,372.765 508.581,372.761 508.553,372.729C506.731,370.587 503.665,369.06 499.928,367.298C494.298,364.643 487.151,361.461 480.42,354.884C480.39,354.854 480.389,354.806 480.419,354.775C480.449,354.745 480.498,354.744 480.528,354.774C487.244,361.336 494.376,364.509 499.993,367.158C503.754,368.932 506.837,370.473 508.671,372.629Z"/>
            </g>
            <g transform="matrix(1,0,0,1,0,-135.65)">
                <path d="M508.419,373.616C508.45,373.645 508.452,373.694 508.423,373.725C508.393,373.756 508.345,373.757 508.313,373.728C506.3,371.841 503.353,370.464 499.869,368.852C494.624,366.425 488.163,363.471 481.824,357.474C481.793,357.445 481.792,357.396 481.821,357.365C481.85,357.334 481.899,357.333 481.93,357.362C488.255,363.345 494.701,366.291 499.934,368.712C503.436,370.332 506.396,371.719 508.419,373.616Z"/>
            </g>
            <g transform="matrix(1,0,0,1,0,-139.524)">
                <path d="M509.066,375.045C509.097,375.074 509.099,375.123 509.07,375.154C509.04,375.185 508.992,375.186 508.96,375.157C506.948,373.27 503.904,371.981 500.386,370.505C495.086,368.282 488.711,365.636 483.135,359.917C483.105,359.886 483.106,359.837 483.136,359.808C483.167,359.778 483.216,359.779 483.245,359.809C488.804,365.511 495.162,368.146 500.446,370.363C503.984,371.847 507.042,373.147 509.066,375.045Z"/>
            </g>
            <g transform="matrix(1,0,0,1,0,-158.056)">
                <path d="M506.749,382.381C506.788,382.397 506.807,382.443 506.79,382.482C506.774,382.521 506.729,382.54 506.689,382.523C500.316,379.844 497.951,375.982 488.971,371.112C488.934,371.092 488.92,371.045 488.94,371.007C488.961,370.97 489.008,370.956 489.045,370.976C498.018,375.842 500.38,379.704 506.749,382.381Z"/>
            </g>
            <g transform="matrix(1,0,0,1,0,-154.668)">
                <path d="M507.837,381.114C507.877,381.13 507.897,381.174 507.881,381.214C507.866,381.254 507.821,381.273 507.781,381.258C499.807,378.159 497.505,374.175 488.903,368.989C488.867,368.967 488.855,368.92 488.877,368.883C488.899,368.847 488.947,368.835 488.983,368.857C497.575,374.037 499.872,378.019 507.837,381.114Z"/>
            </g>
            <g transform="matrix(1,0,0,1,0,-151.718)">
                <path d="M508.983,380.484C509.023,380.5 509.043,380.545 509.027,380.584C509.011,380.624 508.967,380.643 508.927,380.628C499.313,376.85 495.56,371.622 487.1,366.67C487.064,366.648 487.051,366.601 487.073,366.564C487.094,366.527 487.141,366.515 487.178,366.536C495.63,371.484 499.378,376.71 508.983,380.484Z"/>
            </g>
            <g transform="matrix(1,0,0,1,0,-147.943)">
                <path d="M509.082,378.472C509.121,378.489 509.138,378.535 509.121,378.574C509.103,378.612 509.057,378.63 509.019,378.612C496.463,372.975 496.271,370.674 487.752,364.905C487.717,364.881 487.707,364.833 487.731,364.798C487.755,364.762 487.803,364.753 487.839,364.777C496.349,370.54 496.539,372.841 509.082,378.472Z"/>
            </g>
            <g transform="matrix(1,0,0,1,0,-144.499)">
                <path d="M509.284,377.195C509.316,377.223 509.319,377.272 509.291,377.304C509.263,377.336 509.214,377.339 509.182,377.311C507.793,376.094 504.624,374.937 500.841,373.42C495.14,371.134 488.049,368.04 483.512,362.736C483.484,362.704 483.488,362.655 483.52,362.627C483.552,362.6 483.601,362.603 483.629,362.636C488.15,367.921 495.218,370.999 500.898,373.277C504.703,374.802 507.887,375.971 509.284,377.195Z"/>
            </g>
            <g transform="matrix(1,0,0,1,0,-144.263)">
                <path d="M509.295,376.971C509.321,377.006 509.313,377.054 509.279,377.079C509.245,377.104 509.196,377.097 509.171,377.063C507.947,375.395 505.283,374.061 502.029,372.545C497.119,370.256 490.871,367.561 486.156,362.738C486.126,362.707 486.127,362.659 486.157,362.629C486.188,362.599 486.237,362.6 486.266,362.63C490.968,367.439 497.199,370.123 502.094,372.405C505.377,373.935 508.06,375.289 509.295,376.971Z"/>
            </g>
            <g transform="matrix(1,0,0,1,0,-148.592)">
                <path d="M505.26,378.283C505.295,378.307 505.305,378.355 505.282,378.39C505.258,378.426 505.211,378.436 505.175,378.413C495.421,372.02 495.486,373.675 486.558,365.74C486.526,365.711 486.523,365.663 486.552,365.631C486.58,365.599 486.629,365.596 486.661,365.624C495.58,373.551 495.515,371.898 505.26,378.283Z"/>
            </g>
            <g transform="matrix(1,0,0,1,0,-98.445)">
                <path d="M479.441,360.698C479.452,360.739 479.427,360.781 479.386,360.793C479.345,360.804 479.303,360.779 479.292,360.738C478.843,359.063 478.038,357.712 477.132,356.286C475.763,354.131 474.163,351.809 473.19,347.971C471.68,342.015 470.759,336.986 470.431,333.169C470.428,333.126 470.459,333.089 470.502,333.085C470.544,333.081 470.581,333.113 470.585,333.155C470.912,336.966 471.832,341.987 473.34,347.933C474.308,351.75 475.9,354.06 477.262,356.203C478.177,357.643 478.987,359.008 479.441,360.698Z"/>
            </g>
            <g transform="matrix(1,0,0,1,0,-77.103)">
                <path d="M417.314,352.475C417.312,352.518 417.276,352.551 417.234,352.549C417.191,352.547 417.158,352.511 417.16,352.469C417.217,351.182 416.453,349.219 415.245,346.876C412.406,341.373 407.107,333.795 404.043,327.969C402.913,325.821 402.087,323.91 401.796,322.426C401.598,321.417 401.65,320.602 402.009,320.039C402.032,320.003 402.08,319.992 402.116,320.015C402.152,320.038 402.162,320.086 402.139,320.121C401.797,320.658 401.759,321.435 401.947,322.397C402.236,323.869 403.058,325.765 404.179,327.897C407.244,333.724 412.543,341.302 415.382,346.805C416.606,349.179 417.372,351.172 417.314,352.475Z"/>
            </g>
            <g transform="matrix(1,0,0,1,0,-69.788)">
                <path d="M411.123,351.019C411.12,351.061 411.082,351.092 411.04,351.089C410.997,351.085 410.966,351.048 410.969,351.005C411.158,348.791 410.248,345.206 408.898,341.117C406.868,334.965 403.842,327.675 402.038,322.185C401.263,319.826 400.713,317.798 400.563,316.334C400.46,315.335 400.547,314.593 400.862,314.176C400.887,314.143 400.936,314.136 400.97,314.161C401.004,314.187 401.01,314.236 400.985,314.27C400.686,314.665 400.619,315.37 400.716,316.318C400.865,317.775 401.413,319.791 402.185,322.137C403.989,327.627 407.015,334.916 409.045,341.069C410.402,345.183 411.313,348.791 411.123,351.019Z"/>
            </g>
            <g transform="matrix(1,0,0,1,0,-66.072)">
                <path d="M404.556,349.84C404.541,349.88 404.497,349.901 404.457,349.887C404.417,349.872 404.396,349.828 404.411,349.788C405.136,347.792 405.022,344.88 404.491,341.532C403.69,336.488 401.939,330.459 400.644,325.072C399.778,321.473 399.117,318.159 399.076,315.614C399.048,313.9 399.303,312.531 399.958,311.652C399.984,311.618 400.032,311.611 400.066,311.636C400.1,311.662 400.108,311.71 400.082,311.744C399.443,312.602 399.203,313.939 399.23,315.612C399.271,318.147 399.931,321.449 400.794,325.036C402.09,330.427 403.842,336.461 404.643,341.508C405.179,344.887 405.288,347.826 404.556,349.84Z"/>
            </g>
            <g transform="matrix(1,0,0,1,0,-56.471)">
                <path d="M395.409,347.768C395.387,347.804 395.339,347.815 395.303,347.792C395.267,347.77 395.256,347.722 395.279,347.686C396.77,345.325 397.501,341.913 397.809,338.015C398.272,332.151 397.774,325.191 397.436,319.045C397.21,314.941 397.055,311.2 397.303,308.388C397.47,306.499 397.821,305.027 398.448,304.139C398.473,304.105 398.521,304.096 398.556,304.121C398.591,304.146 398.599,304.194 398.574,304.229C397.958,305.1 397.62,306.547 397.457,308.402C397.209,311.208 397.364,314.941 397.59,319.036C397.929,325.189 398.427,332.157 397.963,338.028C397.653,341.953 396.911,345.389 395.409,347.768Z"/>
            </g>
            <g transform="matrix(1,0,0,1,0,-82.694)">
                <path d="M422.114,353.516C422.118,353.558 422.086,353.595 422.043,353.599C422.001,353.602 421.964,353.571 421.96,353.528C421.842,352.066 420.85,350.133 419.38,347.95C415.928,342.826 409.836,336.346 406.063,331.391C404.671,329.564 403.595,327.943 403.079,326.673C402.725,325.804 402.636,325.094 402.869,324.588C402.887,324.549 402.933,324.532 402.972,324.55C403.01,324.568 403.027,324.614 403.009,324.652C402.789,325.129 402.889,325.796 403.222,326.615C403.734,327.876 404.804,329.484 406.186,331.298C409.96,336.255 416.055,342.738 419.508,347.864C420.997,350.074 421.994,352.035 422.114,353.516Z"/>
            </g>
            <g transform="matrix(1,0,0,1,0,-88.696)">
                <path d="M426.714,355.241C426.713,355.284 426.677,355.317 426.635,355.316C426.592,355.315 426.559,355.279 426.56,355.237C426.571,354.889 426.464,354.478 426.26,354.014C425.948,353.302 425.408,352.468 424.699,351.542C421.927,347.923 416.579,342.925 412.064,338.48C409.048,335.511 406.404,332.788 405.144,330.887C404.591,330.053 404.305,329.371 404.354,328.892C404.359,328.85 404.397,328.819 404.439,328.823C404.481,328.828 404.512,328.866 404.508,328.908C404.461,329.364 404.746,330.008 405.273,330.801C406.529,332.697 409.166,335.41 412.173,338.371C416.692,342.82 422.047,347.825 424.822,351.449C425.539,352.386 426.085,353.231 426.401,353.952C426.616,354.441 426.725,354.875 426.714,355.241Z"/>
            </g>
            <g transform="matrix(1,0,0,1,0,-52.15)">
                <path d="M388.276,345.988C388.247,346.019 388.198,346.021 388.167,345.992C388.136,345.963 388.134,345.914 388.163,345.882C389.24,344.723 390.033,343.115 390.634,341.182C391.54,338.269 392.01,334.621 392.35,330.662C393.2,320.737 393.232,308.855 397.212,301.62C397.232,301.583 397.279,301.569 397.316,301.589C397.354,301.61 397.367,301.657 397.347,301.694C393.376,308.913 393.352,320.771 392.503,330.675C391.935,337.305 390.994,343.062 388.276,345.988Z"/>
            </g>
            <g transform="matrix(1,0,0,1,0,-54.532)">
                <path d="M384.721,342.925C384.696,342.96 384.648,342.968 384.613,342.943C384.579,342.918 384.571,342.87 384.596,342.835C386.923,339.587 388.95,331.595 390.713,323.944C391.948,318.579 393.052,313.381 394.033,310.098C394.456,308.681 394.858,307.619 395.236,307.049C395.26,307.014 395.307,307.004 395.343,307.028C395.378,307.051 395.388,307.099 395.365,307.135C394.991,307.697 394.598,308.745 394.181,310.142C393.201,313.423 392.098,318.617 390.863,323.979C389.096,331.653 387.055,339.668 384.721,342.925Z"/>
            </g>
            <g transform="matrix(1,0,0,1,0,-50.624)">
                <path d="M378.625,341.937C378.593,341.966 378.545,341.964 378.516,341.932C378.487,341.901 378.489,341.852 378.52,341.823C382.983,337.696 385.353,331.401 387.434,324.583C389.52,317.747 391.312,310.387 394.611,304.15C394.631,304.112 394.678,304.098 394.715,304.118C394.753,304.138 394.767,304.184 394.747,304.222C391.453,310.45 389.664,317.801 387.581,324.628C385.492,331.474 383.106,337.793 378.625,341.937Z"/>
            </g>
            <g transform="matrix(1,0,0,1,0,-49.364)">
                <path d="M374.546,339.422C374.513,339.449 374.465,339.443 374.438,339.41C374.411,339.377 374.417,339.328 374.45,339.302C377.536,336.832 380.763,331.574 383.675,325.893C388.052,317.354 391.714,307.86 393.104,305.405C393.125,305.368 393.172,305.355 393.209,305.376C393.246,305.397 393.259,305.444 393.238,305.481C391.848,307.935 388.188,317.427 383.812,325.964C380.889,331.667 377.645,336.943 374.546,339.422Z"/>
            </g>
            <g transform="matrix(1,0,0,1,0,-93.862)">
                <path d="M406.423,331.885C406.428,331.843 406.466,331.812 406.508,331.817C406.551,331.822 406.581,331.861 406.576,331.903C406.554,332.085 406.629,332.316 406.78,332.592C407.019,333.029 407.451,333.571 408.035,334.197C410.326,336.655 414.941,340.398 419.525,344.206C424.117,348.019 428.678,351.896 430.85,354.609C431.414,355.314 431.818,355.941 432.023,356.469C432.164,356.834 432.21,357.154 432.155,357.422C432.146,357.463 432.105,357.49 432.064,357.482C432.022,357.473 431.995,357.432 432.004,357.39C432.054,357.147 432.007,356.857 431.879,356.525C431.679,356.008 431.282,355.395 430.73,354.706C428.562,351.998 424.01,348.13 419.427,344.324C414.836,340.512 410.216,336.763 407.922,334.302C407.327,333.664 406.888,333.111 406.645,332.666C406.474,332.354 406.398,332.091 406.423,331.885Z"/>
            </g>
            <g transform="matrix(1,0,0,1,0,-98.714)">
                <path d="M408.543,334.933C408.532,334.892 408.556,334.85 408.597,334.838C408.638,334.827 408.681,334.852 408.692,334.893C408.717,334.987 408.806,335.125 408.945,335.301C409.166,335.581 409.511,335.951 409.95,336.386C412.89,339.301 419.992,345.122 421.811,346.495C427.416,350.729 431.3,353.593 433.618,355.722C435.18,357.156 436.033,358.264 436.235,359.227C436.243,359.269 436.217,359.31 436.175,359.319C436.133,359.327 436.092,359.3 436.084,359.259C435.886,358.316 435.042,357.239 433.514,355.836C431.198,353.709 427.318,350.848 421.718,346.619C419.897,345.243 412.785,339.414 409.841,336.495C409.397,336.055 409.047,335.68 408.824,335.397C408.667,335.198 408.571,335.039 408.543,334.933Z"/>
            </g>
            <g transform="matrix(1,0,0,1,0,-103.702)">
                <path d="M440.119,360.901C440.121,360.944 440.089,360.98 440.046,360.982C440.004,360.984 439.967,360.951 439.965,360.909C439.952,360.651 439.824,360.363 439.604,360.05C439.263,359.564 438.704,359.02 437.996,358.436C435.218,356.146 430.164,353.253 426.898,350.839C421.223,346.644 412.084,339.325 410.886,338.303C410.854,338.275 410.85,338.226 410.878,338.194C410.905,338.162 410.954,338.158 410.986,338.185C412.184,339.207 421.318,346.522 426.99,350.715C430.257,353.13 435.314,356.025 438.094,358.317C438.815,358.911 439.383,359.466 439.73,359.962C439.97,360.303 440.105,360.619 440.119,360.901Z"/>
            </g>
            <g transform="matrix(1,0,0,1,0,-108.813)">
                <path d="M443.679,362.435C443.683,362.478 443.652,362.515 443.609,362.519C443.567,362.523 443.529,362.491 443.525,362.449C443.446,361.567 442.646,360.672 441.462,359.764C438.651,357.607 433.674,355.407 430.703,353.296C426.458,350.281 414.955,342.736 413.47,341.885C413.433,341.864 413.42,341.817 413.441,341.78C413.462,341.743 413.51,341.73 413.547,341.751C415.033,342.602 426.544,350.153 430.792,353.17C433.765,355.282 438.744,357.483 441.556,359.641C442.783,360.582 443.597,361.521 443.679,362.435Z"/>
            </g>
            <g transform="matrix(1,0,0,1,0,-120.365)">
                <path d="M453.506,365.995C453.504,366.038 453.467,366.07 453.425,366.068C453.382,366.066 453.35,366.029 453.352,365.987C453.365,365.765 453.281,365.539 453.123,365.309C452.874,364.946 452.442,364.576 451.888,364.208C449.7,362.754 445.627,361.335 443.205,360.531C431.514,356.649 427.315,352.762 421.348,349.893C421.309,349.874 421.293,349.828 421.312,349.79C421.33,349.751 421.376,349.735 421.415,349.753C427.377,352.62 431.572,356.505 443.254,360.385C445.686,361.192 449.776,362.619 451.973,364.08C452.547,364.461 452.992,364.846 453.25,365.221C453.431,365.484 453.521,365.743 453.506,365.995Z"/>
            </g>
            <g transform="matrix(1,0,0,1,0,-114.54)">
                <path d="M448.472,364.178C448.468,364.22 448.43,364.251 448.387,364.247C448.345,364.242 448.314,364.204 448.319,364.162C448.345,363.91 448.248,363.646 448.057,363.373C447.757,362.943 447.226,362.494 446.549,362.039C443.882,360.245 438.957,358.369 436.654,357.265C426.797,352.537 423.095,349.205 416.951,345.885C416.913,345.865 416.899,345.818 416.919,345.78C416.94,345.743 416.986,345.729 417.024,345.749C423.166,349.069 426.867,352.399 436.721,357.125C439.029,358.233 443.963,360.113 446.635,361.911C447.331,362.379 447.875,362.842 448.184,363.284C448.399,363.593 448.502,363.893 448.472,364.178Z"/>
            </g>
            <g transform="matrix(1,0,0,1,0,-125.628)">
                <path d="M458.751,367.737C458.74,367.778 458.698,367.803 458.656,367.792C458.615,367.781 458.591,367.738 458.602,367.697C458.651,367.511 458.582,367.313 458.424,367.105C458.166,366.766 457.676,366.406 457.024,366.037C454.452,364.579 449.395,363.008 446.011,362.172C436.335,359.781 429.661,354.898 426.089,353.424C426.049,353.408 426.031,353.363 426.047,353.324C426.063,353.284 426.108,353.265 426.148,353.282C429.716,354.754 436.382,359.633 446.048,362.022C449.445,362.862 454.519,364.44 457.1,365.902C457.775,366.284 458.28,366.66 458.547,367.012C458.74,367.265 458.811,367.51 458.751,367.737Z"/>
            </g>
            <g transform="matrix(1,0,0,1,0,-135.758)">
                <path d="M467.208,371.356C467.202,371.398 467.162,371.427 467.12,371.42C467.078,371.414 467.049,371.374 467.056,371.332C467.106,371.009 466.909,370.614 466.399,370.205C465.596,369.561 464.028,368.904 461.394,368.482C456.963,367.772 452.497,367.149 448.85,365.932C443.063,363.999 437.686,360.863 435.539,359.93C435.499,359.913 435.482,359.867 435.498,359.828C435.515,359.789 435.561,359.771 435.6,359.788C437.746,360.721 443.117,363.855 448.899,365.786C452.539,367.001 456.996,367.622 461.418,368.33C464.091,368.758 465.68,369.431 466.496,370.085C467.066,370.541 467.265,370.995 467.208,371.356Z"/>
            </g>
            <g transform="matrix(1,0,0,1,0,-130.697)">
                <path d="M462.761,369.399C462.759,369.442 462.723,369.474 462.68,369.472C462.637,369.47 462.605,369.433 462.607,369.391C462.627,369.025 462.366,368.59 461.785,368.151C460.878,367.464 459.202,366.781 456.567,366.359C452.135,365.65 447.836,364.325 444.17,363.166C437.512,361.06 433.368,358.115 430.713,356.82C430.675,356.802 430.659,356.755 430.678,356.717C430.697,356.679 430.743,356.663 430.781,356.682C433.432,357.975 437.569,360.916 444.217,363.018C447.876,364.175 452.167,365.498 456.591,366.207C459.262,366.634 460.959,367.332 461.878,368.028C462.515,368.51 462.783,368.998 462.761,369.399Z"/>
            </g>
            <g transform="matrix(1,0,0,1,0,-143.259)">
                <path d="M466.509,372.69C466.552,372.687 466.589,372.72 466.591,372.762C466.594,372.805 466.562,372.841 466.519,372.844C466.519,372.844 458.134,373.362 450.357,370.372C444.487,368.115 439.357,365.494 439.357,365.494C439.319,365.474 439.304,365.428 439.324,365.39C439.343,365.352 439.389,365.337 439.427,365.356C439.427,365.356 444.55,367.975 450.412,370.228C458.158,373.206 466.509,372.69 466.509,372.69Z"/>
            </g>
            <g transform="matrix(1,0,0,1,0,-147.803)">
                <path d="M414.351,375.206C414.309,375.202 414.277,375.164 414.281,375.122C414.285,375.079 414.323,375.048 414.366,375.052C414.366,375.052 420.247,375.612 425.845,373.202C428.654,371.993 431.516,370.18 434.514,369.051C437.53,367.916 440.683,367.473 444.058,369.015C450.752,372.073 457.927,375.258 465.453,374.166C465.495,374.16 465.534,374.189 465.541,374.231C465.547,374.273 465.517,374.312 465.475,374.318C457.919,375.416 450.714,372.225 443.994,369.155C440.661,367.633 437.547,368.075 434.568,369.196C431.572,370.323 428.713,372.136 425.906,373.344C420.271,375.77 414.351,375.206 414.351,375.206Z"/>
            </g>
            <g transform="matrix(1,0,0,1,0,-154.361)">
                <path d="M450.38,358.979C450.338,358.977 450.305,358.941 450.307,358.898C450.309,358.856 450.346,358.823 450.388,358.825C450.388,358.825 456.005,359.115 460.277,361.212C463.146,362.62 465.406,364.842 464.992,368.322C464.515,372.329 464.499,377.115 465.677,381.296C466.852,385.463 469.213,389.03 473.498,390.614C473.893,390.76 474.201,390.823 474.438,390.822C474.657,390.822 474.812,390.766 474.915,390.666C475.114,390.475 475.122,390.138 475.059,389.784C474.961,389.221 474.671,388.614 474.553,388.408C474.536,388.378 474.541,388.339 474.567,388.314C474.592,388.29 474.631,388.286 474.661,388.305C474.661,388.305 475.044,388.543 475.473,388.63C475.745,388.684 476.038,388.68 476.253,388.495C476.399,388.371 476.507,388.167 476.556,387.854C476.633,387.355 476.56,386.59 476.239,385.442C476.232,385.417 476.238,385.39 476.255,385.37C476.273,385.35 476.299,385.341 476.325,385.345C476.325,385.345 476.918,385.436 477.249,385.053C477.416,384.858 477.511,384.544 477.437,384.04C477.359,383.511 477.097,382.783 476.538,381.781C476.523,381.754 476.525,381.721 476.544,381.696C476.562,381.672 476.594,381.661 476.624,381.668C476.624,381.668 476.982,381.756 477.373,381.702C477.626,381.668 477.895,381.574 478.083,381.352C478.34,381.049 478.372,380.648 478.322,380.276C478.246,379.702 477.97,379.194 477.97,379.194C477.955,379.166 477.959,379.131 477.98,379.106C478.001,379.082 478.035,379.073 478.065,379.085C478.065,379.085 478.386,379.204 478.673,379.026C478.799,378.948 478.916,378.814 479,378.593C479.074,378.398 479.046,378.173 478.99,377.973C478.901,377.661 478.739,377.408 478.739,377.408C478.719,377.375 478.725,377.333 478.754,377.308C478.783,377.283 478.825,377.283 478.855,377.307C478.855,377.307 479.039,377.465 479.303,377.558C479.56,377.647 479.894,377.675 480.204,377.418C480.439,377.222 480.442,376.959 480.366,376.715C480.243,376.32 479.919,375.969 479.919,375.969C479.891,375.939 479.891,375.893 479.919,375.864C479.948,375.834 479.994,375.832 480.025,375.858C480.025,375.858 480.413,376.184 480.884,376.296C481.186,376.368 481.525,376.351 481.811,376.085C482.098,375.82 482.088,375.493 481.977,375.198C481.802,374.729 481.377,374.332 481.377,374.332C481.347,374.305 481.344,374.259 481.369,374.228C481.394,374.196 481.439,374.19 481.473,374.212C481.473,374.212 481.953,374.538 482.524,374.638C482.894,374.702 483.304,374.672 483.639,374.382C484.14,373.948 484.048,373.244 483.199,372.42C483.17,372.393 483.167,372.348 483.192,372.317C483.216,372.286 483.26,372.279 483.294,372.3C483.294,372.3 483.992,372.744 484.732,372.951C485.207,373.084 485.701,373.126 486.025,372.863C486.262,372.671 486.334,372.388 486.277,372.093C486.217,371.784 486.019,371.462 485.719,371.208C485.689,371.182 485.683,371.137 485.706,371.105C485.729,371.072 485.773,371.062 485.807,371.082C485.807,371.082 486.267,371.343 486.804,371.402C487.152,371.441 487.534,371.395 487.839,371.125C488.094,370.9 488.024,370.575 487.863,370.267C487.602,369.765 487.088,369.303 487.088,369.303C487.061,369.279 487.054,369.239 487.072,369.208C487.09,369.176 487.128,369.161 487.163,369.173C487.163,369.173 487.758,369.364 488.255,369.313C488.558,369.282 488.828,369.159 488.864,368.814C488.945,368.034 488.143,367.628 488.143,367.628C488.116,367.614 488.1,367.585 488.101,367.555C488.103,367.525 488.122,367.498 488.15,367.487C488.15,367.487 489.938,366.795 491.654,367.56C491.693,367.577 491.71,367.623 491.693,367.661C491.675,367.7 491.63,367.718 491.591,367.7C490.225,367.092 488.812,367.439 488.357,367.58C488.607,367.753 489.086,368.176 489.017,368.83C488.972,369.26 488.649,369.428 488.271,369.467C487.967,369.498 487.629,369.444 487.398,369.393C487.578,369.582 487.837,369.882 488,370.196C488.196,370.571 488.253,370.966 487.941,371.241C487.601,371.542 487.175,371.599 486.787,371.556C486.53,371.527 486.29,371.455 486.104,371.385C486.53,371.929 486.587,372.607 486.122,372.983C485.763,373.274 485.217,373.247 484.691,373.1C484.297,372.99 483.915,372.815 483.638,372.671C484.251,373.431 484.222,374.081 483.74,374.498C483.366,374.822 482.91,374.862 482.498,374.79C482.227,374.742 481.976,374.647 481.781,374.557C481.905,374.718 482.039,374.923 482.122,375.144C482.253,375.496 482.257,375.883 481.916,376.199C481.586,376.504 481.197,376.529 480.848,376.446C480.645,376.398 480.456,376.313 480.303,376.228C480.384,376.357 480.464,376.51 480.513,376.669C480.607,376.971 480.594,377.295 480.303,377.536C479.941,377.836 479.551,377.808 479.252,377.703C479.163,377.672 479.083,377.635 479.014,377.597C479.058,377.693 479.103,377.808 479.138,377.931C479.204,378.162 479.23,378.423 479.144,378.647C479.045,378.909 478.903,379.065 478.755,379.157C478.547,379.286 478.325,379.287 478.178,379.267C478.269,379.467 478.42,379.845 478.475,380.256C478.531,380.67 478.487,381.115 478.201,381.452C477.986,381.705 477.682,381.816 477.394,381.855C477.142,381.889 476.903,381.869 476.751,381.848C477.269,382.8 477.514,383.502 477.59,384.018C477.673,384.584 477.554,384.935 477.366,385.153C477.081,385.484 476.628,385.512 476.417,385.506C476.722,386.627 476.786,387.38 476.708,387.878C476.652,388.238 476.521,388.47 476.354,388.612C476.101,388.828 475.761,388.845 475.443,388.781C475.197,388.731 474.965,388.635 474.803,388.556C474.944,388.85 475.134,389.317 475.211,389.758C475.283,390.168 475.253,390.555 475.022,390.777C474.895,390.899 474.708,390.976 474.439,390.977C474.188,390.978 473.862,390.913 473.444,390.758C469.11,389.156 466.716,385.553 465.529,381.338C464.345,377.137 464.36,372.329 464.839,368.304C465.244,364.897 463.018,362.73 460.209,361.35C455.963,359.266 450.38,358.979 450.38,358.979Z"/>
            </g>
            <g transform="matrix(1,0,0,1,0,-80.779)">
                <path d="M441.801,301.307C441.836,301.282 441.884,301.29 441.909,301.325C441.934,301.36 441.926,301.408 441.891,301.433C436.837,305.059 430.174,307.089 423.557,309.506C416.958,311.917 410.404,314.714 405.546,319.882C396.653,329.343 390.605,341.676 387.869,346.648C386.226,349.635 382.364,359.41 376.216,366.555C372.104,371.334 366.97,374.937 360.797,374.572C360.754,374.57 360.722,374.533 360.724,374.49C360.727,374.448 360.763,374.415 360.806,374.418C366.93,374.78 372.02,371.196 376.099,366.455C382.239,359.319 386.093,349.557 387.734,346.574C390.473,341.596 396.53,329.249 405.434,319.776C410.308,314.591 416.882,311.781 423.504,309.362C430.108,306.949 436.758,304.926 441.801,301.307Z"/>
            </g>
            <g transform="matrix(1,0,0,1,0,-176.457)">
                <path d="M352.688,390.368C356.653,390.046 364.558,387.286 368.558,385.88C372.65,384.442 372.463,381.881 375.36,381.624C377.986,381.392 377.652,383.786 375.942,383.907C375.942,383.907 377.346,384.603 378.661,384.873C378.661,384.873 373.385,384.488 371.835,385.1C370.285,385.713 368.806,386.994 368.299,388.271C368.299,388.271 364.936,388.152 363.469,388.321C362.002,388.49 354.872,390.505 352.688,390.368ZM375.363,383.673C374.889,383.276 375.518,382.87 375.88,383.234C376.056,383.412 376.414,383.326 376.605,383.136C376.803,382.939 376.875,382.573 376.611,382.379C375.487,381.552 374.163,383.104 375.363,383.673Z"/>
            </g>
            <g transform="matrix(1,0,0,1,0,-180.515)">
                <path d="M367.915,388.41C367.915,388.41 368.237,387.545 369.281,387.709C369.281,387.709 369.136,388.274 367.915,388.41Z"/>
            </g>
        </g>
    </g>
</svg>
