<?xml version="1.0" encoding="UTF-8" standalone="no"?>
<!DOCTYPE svg PUBLIC "-//W3C//DTD SVG 1.1//EN" "http://www.w3.org/Graphics/SVG/1.1/DTD/svg11.dtd">
<svg width="100%" height="100%" viewBox="0 0 381 80" version="1.1" xmlns="http://www.w3.org/2000/svg" xmlns:xlink="http://www.w3.org/1999/xlink" xml:space="preserve" xmlns:serif="http://www.serif.com/" style="fill-rule:evenodd;clip-rule:evenodd;stroke-linejoin:round;stroke-miterlimit:2;">
    <g transform="matrix(1,0,0,1,-3301.31,-570.375)">
        <g transform="matrix(1,0,0,1,2126.17,0)">
            <g transform="matrix(0.247673,0,0,0.247673,1118.71,516.632)">
                <path d="M679.116,396.034C679.116,393.95 680.991,392.075 683.074,392.075L708.078,392.075C710.161,392.075 712.036,393.95 712.036,396.034L712.036,533.959C712.036,536.042 710.161,537.917 708.078,537.917L683.074,537.917C680.991,537.917 679.116,536.042 679.116,533.959L679.116,396.034ZM747.86,396.033C747.86,393.95 749.531,392.075 751.822,392.075L800.368,392.075C824.951,392.075 845.16,408.95 845.16,430.829C845.16,446.87 830.785,458.541 820.993,463.75C832.039,468.329 848.91,478.537 848.91,497.708C848.91,521.045 828.285,537.916 803.493,537.916L751.822,537.916C749.531,537.916 747.86,536.041 747.86,533.958L747.86,396.033ZM799.326,508.125C807.451,508.125 814.326,501.454 814.326,492.916C814.326,484.583 805.368,478.333 797.243,478.333L780.364,478.333L780.364,508.125L799.326,508.125ZM796.618,451.245C804.535,451.245 811.201,444.579 811.201,436.245C811.201,427.912 804.535,422.079 796.618,422.079L780.364,422.079L780.364,451.245L796.618,451.245ZM875.364,396.034C875.364,393.95 877.031,392.075 879.323,392.075L965.577,392.075C967.873,392.075 969.539,393.95 969.539,396.034L969.539,418.746C969.539,420.83 967.873,422.705 965.577,422.705L907.868,422.705L907.868,448.538L955.368,448.538C957.456,448.538 959.327,450.413 959.327,452.496L959.327,475.205C959.327,477.496 957.456,479.167 955.368,479.167L907.868,479.167L907.868,507.292L965.577,507.292C967.873,507.292 969.539,509.167 969.539,511.25L969.539,533.959C969.539,536.042 967.873,537.917 965.577,537.917L879.323,537.917C877.031,537.917 875.364,536.042 875.364,533.959L875.364,396.034ZM997.446,396.036C997.446,393.952 999.113,392.077 1001.4,392.077L1063.7,392.077C1088.7,392.077 1109.12,412.286 1109.12,437.082C1109.12,456.244 1096.41,471.661 1078.28,478.957L1106.83,531.877C1108.29,534.586 1106.83,537.919 1103.29,537.919L1075.58,537.919C1073.91,537.919 1072.66,536.877 1072.24,536.044L1044.53,480.832L1030.16,480.832L1030.16,533.961C1030.16,536.044 1028.28,537.919 1026.2,537.919L1001.4,537.919C999.113,537.919 997.446,536.044 997.446,533.961L997.446,396.036ZM1060.99,454.373C1069.54,454.373 1076.83,446.457 1076.83,437.702C1076.83,428.952 1069.54,421.869 1060.99,421.869L1030.16,421.869L1030.16,454.373L1060.99,454.373ZM1159.12,391.45C1159.33,390.617 1160.16,389.992 1160.99,389.992L1163.28,389.992C1164.33,389.992 1164.95,390.408 1165.37,391.45L1208.29,519.375L1208.7,519.375L1251.83,391.45C1252.25,390.408 1252.87,389.992 1253.91,389.992L1256.21,389.992C1257.04,389.992 1257.87,390.617 1258.08,391.45L1287.67,535.208C1288.08,537.292 1287.25,537.917 1285.38,537.917L1280.38,537.917C1279.12,537.917 1278.08,536.875 1277.88,535.629L1254.33,413.537L1253.91,413.537L1211.83,538.333C1211.41,539.587 1210.16,540 1208.91,540L1208.08,540C1207.04,540 1205.79,539.796 1205.37,538.333L1163.28,413.537L1162.87,413.537L1139.33,535.629C1139.11,536.875 1138.07,537.917 1136.82,537.917L1131.82,537.917C1129.95,537.917 1129.12,537.292 1129.53,535.208L1159.12,391.45ZM1320.16,394.785C1320.16,393.326 1321.41,392.076 1322.86,392.076L1406.41,392.076C1407.87,392.076 1409.12,393.326 1409.12,394.785L1409.12,398.326C1409.12,399.785 1407.87,401.035 1406.41,401.035L1330.15,401.035L1330.15,458.539L1396.2,458.539C1397.66,458.539 1398.91,459.789 1398.91,461.247L1398.91,464.789C1398.91,466.247 1397.66,467.497 1396.2,467.497L1330.15,467.497L1330.15,529.164L1406.41,529.164C1407.87,529.164 1409.12,530.418 1409.12,531.876L1409.12,535.21C1409.12,536.668 1407.87,537.918 1406.41,537.918L1322.86,537.918C1321.41,537.918 1320.16,536.668 1320.16,535.21L1320.16,394.785ZM1444.74,394.783C1444.74,393.325 1445.99,392.075 1447.24,392.075L1491.41,392.075C1531.83,392.075 1564.75,424.787 1564.75,464.791C1564.75,505.416 1531.83,537.916 1491.41,537.916L1447.24,537.916C1445.99,537.916 1444.74,536.67 1444.74,535.208L1444.74,394.783ZM1489.74,528.958C1526.2,528.958 1554.33,501.25 1554.33,464.791C1554.33,428.745 1526.2,401.037 1489.74,401.037L1454.53,401.037L1454.53,528.958L1489.74,528.958ZM1598.49,394.785C1598.49,393.326 1599.74,392.076 1601.19,392.076L1605.78,392.076C1607.24,392.076 1608.48,393.326 1608.48,394.785L1608.48,535.21C1608.48,536.876 1607.03,537.918 1605.57,537.918L1601.19,537.918C1599.74,537.918 1598.49,536.668 1598.49,535.21L1598.49,394.785ZM1631.82,535.42L1695.99,390.407C1696.41,389.578 1697.45,388.953 1698.49,388.953L1699.11,388.953C1700.16,388.953 1701.2,389.157 1701.82,390.407L1765.37,535.42C1765.79,536.67 1765.79,537.92 1763.49,537.92L1758.08,537.92C1756.62,537.92 1755.58,536.878 1755.16,536.04L1738.29,497.707L1658.69,497.707L1642.03,536.04C1641.61,536.878 1640.57,537.92 1639.11,537.92L1633.28,537.92C1631.82,537.92 1631.19,537.082 1631.82,535.42ZM1734.74,489.582L1699.11,405.62L1698.7,405.62L1662.44,489.582L1734.74,489.582ZM230.945,537.88C229.261,537.88 227.374,536.405 227.978,533.58C228.582,530.755 275.191,304.222 275.453,302.701C275.803,300.676 277.624,298.139 281.161,298.139L297.824,298.139C300.453,298.139 302.636,300.497 303.074,301.56C303.482,302.56 381.936,471.268 381.936,471.268L383.42,471.268C383.42,471.268 440.628,301.564 440.936,300.535C441.249,299.505 442.266,298.126 444.02,298.126C445.811,298.126 446.561,298.139 448.128,298.139C449.695,298.139 450.903,299.251 451.095,300.418C451.261,301.43 497.657,526.847 497.657,526.847C497.67,526.847 524.541,526.726 526.191,526.735C527.891,526.739 528.586,528.001 528.586,529.701L528.586,535.405C528.586,536.66 527.649,537.918 526.303,537.918L487.428,537.88C485.241,537.88 483.599,536.464 483.166,533.922C482.766,531.589 445.045,336.255 445.045,336.255L444.361,336.255C444.361,336.255 377.549,533.897 377.257,534.722C376.532,536.747 375.436,537.918 372.92,537.918L362.532,537.918C360.786,537.918 358.236,537.085 357.17,534.722C356.411,533.047 278.649,360.11 278.649,360.11L277.395,360.11C277.395,360.11 243.999,533.155 243.841,534.38C243.682,535.601 241.736,537.88 239.961,537.88L230.945,537.88ZM289.15,216.993C307.866,216.993 322.246,232.61 322.246,250.089C322.246,267.568 307.908,283.072 289.15,283.072C270.75,283.072 256.054,268.185 256.054,250.089C256.054,231.997 270.683,216.993 289.15,216.993ZM679.861,299.795C679.861,298.79 680.657,297.895 681.761,297.895L705.257,297.895C717.566,297.895 727.661,307.895 727.661,319.995C727.661,332.395 717.566,342.495 705.361,342.495L692.861,342.495L692.861,365.999C692.861,366.999 691.961,367.899 690.961,367.899L681.761,367.899C680.657,367.899 679.861,366.999 679.861,365.999L679.861,299.795ZM704.461,330.295C710.061,330.295 714.761,325.795 714.761,319.895C714.761,314.395 710.061,310.195 704.461,310.195L692.861,310.195L692.861,330.295L704.461,330.295ZM740.857,299.794C740.857,298.794 741.657,297.894 742.757,297.894L771.361,297.894C783.361,297.894 793.161,307.494 793.161,319.394C793.161,328.594 787.061,336.094 778.357,339.598L792.061,364.998C792.761,366.298 792.061,367.898 790.361,367.898L779.861,367.898C778.961,367.898 778.461,367.398 778.261,366.998L764.961,340.494L753.857,340.494L753.857,365.998C753.857,366.998 752.961,367.898 751.957,367.898L742.757,367.898C741.657,367.898 740.857,366.998 740.857,365.998L740.857,299.794ZM770.261,329.794C775.557,329.794 780.161,325.194 780.161,319.594C780.161,314.294 775.557,309.894 770.261,309.894L753.957,309.894L753.957,329.794L770.261,329.794ZM840.257,296.893C860.261,296.893 876.261,312.993 876.261,332.993C876.261,352.997 860.261,368.901 840.257,368.901C820.257,368.901 804.357,352.997 804.357,332.993C804.357,312.993 820.257,296.893 840.257,296.893ZM840.257,355.897C852.857,355.897 863.261,345.597 863.261,332.993C863.261,320.393 852.857,309.893 840.257,309.893C827.657,309.893 817.357,320.393 817.357,332.993C817.357,345.597 827.657,355.897 840.257,355.897ZM922.158,296.892C931.158,296.892 939.762,300.392 946.558,306.192C947.362,306.992 947.462,308.192 946.662,308.992L940.462,315.492C939.658,316.292 938.758,316.292 937.862,315.492C933.558,311.692 928.262,309.692 922.762,309.692C910.258,309.692 900.358,320.396 900.358,332.896C900.358,345.296 910.258,355.796 922.858,355.796C928.462,355.796 932.762,354.096 934.758,353.296L934.758,344.796L926.758,344.796C925.658,344.796 924.858,343.996 924.858,342.996L924.858,335.096C924.858,333.996 925.658,333.196 926.758,333.196L945.962,333.196C946.962,333.196 947.762,334.096 947.762,335.096L947.762,360.696C947.762,361.496 947.362,361.996 946.962,362.296C946.962,362.296 936.658,368.796 922.158,368.796C902.258,368.796 886.258,352.996 886.258,332.996C886.258,312.992 902.258,296.892 922.158,296.892ZM964.356,299.794C964.356,298.794 965.156,297.894 966.256,297.894L994.86,297.894C1006.86,297.894 1016.66,307.494 1016.66,319.394C1016.66,328.594 1010.56,336.094 1001.86,339.598L1015.56,364.998C1016.26,366.298 1015.56,367.898 1013.86,367.898L1003.36,367.898C1002.46,367.898 1001.96,367.398 1001.76,366.998L988.46,340.494L977.356,340.494L977.356,365.998C977.356,366.998 976.46,367.898 975.456,367.898L966.256,367.898C965.156,367.898 964.356,366.998 964.356,365.998L964.356,299.794ZM993.76,329.794C999.056,329.794 1003.66,325.194 1003.66,319.594C1003.66,314.294 999.056,309.894 993.76,309.894L977.456,309.894L977.456,329.794L993.76,329.794ZM1023.75,365.297L1054.86,297.993C1055.16,297.393 1055.65,296.893 1056.56,296.893L1057.55,296.893C1058.55,296.893 1058.95,297.393 1059.25,297.993L1090.06,365.297C1090.66,366.597 1089.86,367.897 1088.36,367.897L1079.66,367.897C1078.16,367.897 1077.46,367.297 1076.76,365.897L1071.86,355.097L1041.95,355.097L1037.05,365.897C1036.66,366.897 1035.75,367.897 1034.15,367.897L1025.45,367.897C1023.95,367.897 1023.15,366.597 1023.75,365.297ZM1066.96,343.997L1056.96,321.993L1056.65,321.993L1046.86,343.997L1066.96,343.997ZM1108.25,298.392C1108.35,297.592 1108.95,296.892 1110.05,296.892L1111.65,296.892C1112.45,296.892 1113.05,297.292 1113.35,297.892L1135.35,345.096L1135.65,345.096L1157.65,297.892C1157.96,297.292 1158.46,296.892 1159.36,296.892L1160.95,296.892C1162.06,296.892 1162.66,297.592 1162.76,298.392L1174.56,365.596C1174.86,367 1174.06,367.9 1172.76,367.9L1163.66,367.9C1162.76,367.9 1161.96,367.1 1161.76,366.4L1155.86,328.496L1155.56,328.496L1138.05,367.8C1137.85,368.4 1137.25,368.9 1136.35,368.9L1134.55,368.9C1133.66,368.9 1133.16,368.4 1132.85,367.8L1115.15,328.496L1114.85,328.496L1109.05,366.4C1108.95,367.1 1108.15,367.9 1107.25,367.9L1098.25,367.9C1096.95,367.9 1096.15,367 1096.35,365.596L1108.25,298.392ZM1181.05,365.297L1212.15,297.993C1212.45,297.393 1212.95,296.893 1213.85,296.893L1214.85,296.893C1215.85,296.893 1216.25,297.393 1216.55,297.993L1247.35,365.297C1247.95,366.597 1247.15,367.897 1245.65,367.897L1236.95,367.897C1235.45,367.897 1234.75,367.297 1234.05,365.897L1229.15,355.097L1199.25,355.097L1194.35,365.897C1193.95,366.897 1193.05,367.897 1191.45,367.897L1182.75,367.897C1181.25,367.897 1180.45,366.597 1181.05,365.297ZM1224.25,343.997L1214.25,321.993L1213.95,321.993L1204.15,343.997L1224.25,343.997Z"/>
            </g>
        </g>
    </g>
</svg>
