<?xml version="1.0" encoding="UTF-8" standalone="no"?>
<!DOCTYPE svg PUBLIC "-//W3C//DTD SVG 1.1//EN" "http://www.w3.org/Graphics/SVG/1.1/DTD/svg11.dtd">
<svg width="100%" height="100%" viewBox="0 0 218 98" version="1.1" xmlns="http://www.w3.org/2000/svg" xmlns:xlink="http://www.w3.org/1999/xlink" xml:space="preserve" xmlns:serif="http://www.serif.com/" style="fill-rule:evenodd;clip-rule:evenodd;stroke-linejoin:round;stroke-miterlimit:2;">
    <g transform="matrix(1,0,0,1,-3101.3,-395.217)">
        <g transform="matrix(1,0,0,1,2126.17,0)">
            <g transform="matrix(1.99902,0,0,1.99902,975.128,386.823)">
                <path d="M20.955,46.003C20.95,46.054 20.924,46.044 20.919,46.094C20.91,46.182 20.941,46.179 20.937,46.185C20.921,46.211 20.878,46.201 20.847,46.207C20.628,46.245 20.271,46.184 20.216,46.433C20.192,46.542 20.212,50.472 20.206,50.832C20.183,52.318 20.281,52.403 20.102,52.447C19.969,52.481 19.955,52.47 19.872,52.35C19.742,52.161 19.715,52.187 19.549,52.027C19.439,51.922 19.144,51.645 19.108,51.612C18.631,51.164 18.409,50.856 18.089,50.681C18.037,50.653 18.021,50.669 16.948,49.581C16.65,49.28 16.475,49.182 16.376,49.083C16.081,48.786 16.079,48.789 16.054,48.763C15.14,47.822 15.099,47.864 14.917,47.644C14.825,47.533 14.837,47.526 14.828,47.517C14.595,47.274 14.544,47.597 14.54,47.621C14.532,47.671 14.544,51.46 14.545,51.794C14.546,51.996 14.537,52.139 14.979,52.183C15.001,52.185 15.239,52.209 15.257,52.239C15.274,52.266 15.251,52.303 15.25,52.335C15.25,52.366 15.273,52.402 15.255,52.427C15.238,52.452 15.198,52.446 15.169,52.452C14.88,52.514 14.575,52.491 14.524,52.487C14.015,52.449 13.945,52.545 13.43,52.466C13.295,52.446 13.242,52.472 13.242,52.335C13.242,52.25 13.245,52.239 13.325,52.215C13.454,52.177 13.449,52.166 13.461,52.165C13.481,52.162 13.499,52.182 13.519,52.181C13.537,52.179 13.549,52.161 13.566,52.158C13.601,52.151 13.637,52.154 13.672,52.15C13.687,52.148 13.81,52.134 13.853,52.103C14.018,51.987 13.935,51.933 13.955,48.577C13.968,46.295 13.924,46.297 13.944,46.1C13.964,45.904 13.997,45.875 14.193,45.899C14.24,45.905 14.331,46.068 14.441,46.181C15.163,46.919 15.367,47.048 15.461,47.107C15.501,47.132 15.6,47.194 15.911,47.506C16.305,47.901 16.305,47.901 16.338,47.938C16.609,48.241 16.706,48.231 16.908,48.445C17.193,48.747 17.211,48.728 17.495,49.031C17.824,49.381 17.857,49.345 18.482,49.981C18.533,50.033 19.01,50.519 19.129,50.623C19.404,50.862 19.369,50.918 19.459,50.919C19.54,50.92 19.54,50.903 19.557,50.823C19.585,50.695 19.63,50.677 19.619,50.401C19.586,49.607 19.632,46.556 19.596,46.419C19.527,46.15 19.002,46.25 18.927,46.203C18.901,46.187 18.899,46.149 18.879,46.126C18.86,46.105 18.816,46.102 18.823,46.007C18.83,45.925 18.855,45.938 18.934,45.924C19.175,45.879 19.879,45.916 19.886,45.916C20.313,45.917 20.311,45.894 20.738,45.91C20.918,45.936 20.919,45.929 20.932,45.938C20.95,45.952 20.936,45.99 20.955,46.003ZM62.938,50.51C62.858,50.138 62.911,50.134 62.875,49.756C62.873,49.732 62.889,47.829 62.869,47.395C62.857,47.141 62.932,46.804 62.822,46.433C62.737,46.144 62.519,46.285 62.294,46.212C62.219,46.187 62.216,46.18 62.208,46.101C62.194,45.957 62.208,45.898 62.507,45.893C62.618,45.892 62.618,45.92 63.9,45.902C63.928,45.901 64.199,45.898 64.23,45.998C64.363,46.43 63.532,46.005 63.435,46.525C63.374,46.849 63.446,49.066 63.398,51.153C63.391,51.453 63.447,52.168 63.434,52.218C63.409,52.316 63.278,52.463 63.255,52.468C63.173,52.486 63.102,52.306 62.918,52.143C62.206,51.511 61.812,51.002 61.323,50.62C61.122,50.464 60.182,49.475 59.819,49.226C59.579,49.061 59.366,48.796 59.155,48.603C58.821,48.298 58.828,48.239 58.499,47.982C58.252,47.788 58.096,47.58 58.067,47.54C57.865,47.27 57.762,47.491 57.749,47.598C57.728,47.77 57.757,47.769 57.757,49.758C57.758,51.92 57.73,51.974 57.919,52.09C57.931,52.097 57.934,52.09 58.087,52.148C58.214,52.197 58.214,52.197 58.35,52.183C58.37,52.181 58.389,52.165 58.409,52.168C58.426,52.17 58.436,52.189 58.452,52.197C58.545,52.245 58.581,52.231 58.577,52.338C58.572,52.467 58.36,52.477 58.338,52.478C57.688,52.509 57.688,52.458 57.039,52.499C56.687,52.521 56.54,52.404 56.54,52.403C56.536,52.376 56.586,52.364 56.587,52.336C56.587,52.307 56.54,52.289 56.542,52.26C56.543,52.245 56.548,52.249 56.681,52.189C56.697,52.182 56.707,52.164 56.724,52.162C56.745,52.159 56.765,52.176 56.786,52.174C56.798,52.174 56.796,52.168 56.939,52.148C57.057,52.132 57.199,52.103 57.227,51.582C57.274,50.689 57.206,50.59 57.233,48.255C57.234,48.161 57.225,48.162 57.225,47.075C57.225,47.013 57.056,46.083 57.195,45.96C57.276,45.888 57.473,45.841 57.652,46.027C57.682,46.057 57.669,46.068 58.008,46.42C58.05,46.464 58.278,46.701 58.55,46.949C58.624,47.017 58.734,47.057 59.546,47.894L59.868,48.205C60.007,48.339 60.023,48.32 60.156,48.46L60.799,49.105C61.277,49.583 61.432,49.658 61.637,49.876C62.433,50.726 62.505,50.7 62.517,50.706C62.546,50.722 62.579,50.727 62.608,50.743C62.77,50.619 62.776,50.632 62.938,50.51ZM31.724,50.343C31.562,50.439 31.564,50.447 31.5,50.625C31.402,50.902 31.313,50.86 31.238,51.145C31.229,51.178 31.224,51.213 31.215,51.246C31.125,51.572 31.006,51.573 30.958,51.799C30.887,52.133 31.218,52.194 31.275,52.221L31.235,52.328C31.248,52.374 31.336,52.371 31.349,52.417C31.369,52.487 30.78,52.478 30.731,52.477C30.251,52.47 29.786,52.517 29.67,52.496C29.635,52.49 29.453,52.433 29.452,52.429C29.439,52.397 29.485,52.365 29.483,52.33C29.483,52.295 29.436,52.266 29.446,52.232C29.454,52.205 29.498,52.212 29.523,52.199C29.539,52.19 29.549,52.171 29.567,52.167C29.587,52.164 29.605,52.183 29.625,52.181C29.641,52.179 29.651,52.159 29.667,52.158C29.689,52.157 29.708,52.176 29.73,52.175C29.747,52.174 29.759,52.157 29.775,52.154C29.872,52.133 29.923,52.194 30.139,51.967C30.36,51.735 30.313,51.664 30.462,51.442C30.713,51.067 30.591,51.006 30.769,50.752C30.978,50.454 30.878,50.399 31.095,50.109C31.308,49.827 31.156,49.753 31.338,49.52C31.484,49.333 31.472,49.325 31.535,49.096C31.613,48.812 31.698,48.851 31.787,48.571C31.861,48.339 31.875,48.346 32.003,48.139C32.11,47.964 32.101,47.736 32.258,47.519C32.373,47.36 32.363,47.356 32.421,47.171C32.51,46.888 32.623,46.943 32.7,46.658C32.795,46.309 32.816,46.318 32.978,45.996C33.066,45.82 33.251,45.907 33.273,45.917C33.296,45.928 33.324,46.084 33.327,46.099C33.37,46.343 33.352,46.353 33.499,46.551C33.651,46.757 33.567,46.905 33.705,47.092C33.946,47.42 33.894,47.454 33.94,47.614C33.996,47.806 34.128,47.85 34.201,48.136C34.26,48.368 34.266,48.366 34.395,48.566C34.568,48.834 34.472,48.883 34.663,49.134C34.892,49.435 34.715,49.524 34.96,49.84C35.08,49.995 35.048,50.008 35.102,50.198C35.178,50.463 35.3,50.407 35.377,50.714C35.436,50.949 35.44,50.946 35.565,51.151C35.731,51.425 35.651,51.465 35.832,51.728C36.015,51.991 36.023,52.103 36.299,52.145C36.377,52.157 36.375,52.161 36.452,52.183C36.62,52.231 36.622,52.219 36.637,52.224C36.739,52.262 36.695,52.298 36.696,52.335C36.697,52.36 36.72,52.388 36.707,52.409C36.693,52.432 36.657,52.431 36.632,52.44C36.331,52.538 35.934,52.479 35.667,52.476C35.323,52.473 35.027,52.49 35.016,52.49C34.798,52.492 34.629,52.417 34.63,52.41C34.636,52.371 34.712,52.37 34.718,52.331L34.689,52.219C34.723,52.201 34.713,52.19 34.749,52.172C34.755,52.169 34.754,52.174 34.833,52.145C35.227,52.001 34.986,51.701 34.961,51.67C34.709,51.356 34.87,51.226 34.665,50.958C34.543,50.799 34.551,50.794 34.508,50.61C34.462,50.412 34.437,50.413 34.244,50.348C34.077,50.378 33.883,50.412 32.124,50.39C31.877,50.387 31.853,50.352 31.822,50.347C31.79,50.341 31.756,50.349 31.724,50.343ZM34.055,49.437C34.019,49.368 33.981,49.386 33.917,49.126C33.912,49.107 33.868,48.926 33.855,48.894C33.778,48.709 33.67,48.739 33.604,48.369C33.543,48.019 33.444,48.06 33.367,47.846C33.291,47.637 33.333,47.481 33.218,47.379C33.119,47.292 33.106,47.323 32.976,47.35C32.622,47.422 32.852,47.633 32.575,48.052C32.384,48.342 32.506,48.397 32.323,48.676C32.296,48.717 32.264,48.754 32.238,48.795C32.072,49.06 32.224,49.154 31.957,49.464C31.814,49.63 31.855,49.712 31.846,49.751C31.854,49.755 31.851,49.771 31.858,49.774C31.917,49.802 31.976,49.834 32.04,49.842C32.055,49.843 32.044,49.801 32.224,49.796C33.181,49.769 33.77,49.858 33.95,49.712C33.969,49.696 33.994,49.676 33.995,49.651C33.999,49.591 33.945,49.601 33.961,49.543C33.981,49.471 34.035,49.508 34.055,49.437ZM74.533,50.405C74.46,50.503 74.45,50.497 74.417,50.615C74.371,50.779 74.383,50.784 74.287,50.922C74.066,51.24 74.156,51.277 74.082,51.469C74.017,51.637 73.654,51.977 74.079,52.142C74.156,52.171 74.151,52.179 74.224,52.217L74.208,52.335C74.21,52.395 74.281,52.351 74.283,52.412C74.283,52.418 74.284,52.42 74.212,52.446C74.077,52.495 73.716,52.481 73.673,52.48C73.118,52.459 72.536,52.565 72.404,52.426C72.274,52.288 72.508,52.169 72.509,52.168C72.529,52.164 72.549,52.178 72.569,52.175C72.584,52.174 72.595,52.159 72.609,52.156C72.689,52.142 72.803,52.179 72.957,52.048C73.205,51.838 73.247,51.661 73.319,51.563C73.566,51.234 73.481,51.145 73.633,50.916C73.851,50.586 73.755,50.537 73.942,50.26C74.183,49.902 74.057,49.839 74.252,49.57C74.464,49.275 74.351,49.214 74.568,48.925C74.686,48.768 74.668,48.759 74.711,48.568C74.778,48.275 74.904,48.308 74.976,48.046C74.985,48.013 74.99,47.979 74.999,47.946C75.086,47.642 75.194,47.69 75.274,47.394C75.338,47.157 75.34,47.157 75.483,46.959C75.658,46.716 75.573,46.653 75.704,46.426C75.965,45.972 75.904,45.931 75.946,45.915C76.111,45.857 76.149,45.856 76.215,46.017C76.239,46.078 76.243,46.147 76.259,46.211C76.277,46.284 76.273,46.284 76.31,46.351C76.398,46.509 76.435,46.541 76.439,46.549C76.562,46.766 76.471,46.81 76.718,47.16C76.845,47.341 76.726,47.42 76.956,47.744C77.145,48.01 77.023,48.074 77.236,48.348C77.461,48.637 77.329,48.703 77.529,49.012C77.66,49.214 77.651,49.218 77.716,49.449C77.79,49.711 77.937,49.75 77.979,49.969C78.019,50.178 77.992,50.192 78.166,50.413C78.368,50.667 78.209,50.748 78.427,51.027C78.645,51.305 78.552,51.43 78.681,51.603C78.971,51.996 78.927,52.077 79.245,52.138C79.388,52.165 79.384,52.174 79.397,52.175C79.416,52.177 79.435,52.159 79.455,52.162C79.471,52.163 79.481,52.185 79.498,52.187C79.517,52.189 79.536,52.168 79.556,52.172C79.573,52.176 79.58,52.198 79.595,52.207C79.617,52.221 79.659,52.216 79.666,52.241C79.684,52.298 79.681,52.364 79.66,52.419C79.623,52.516 78.994,52.492 78.936,52.49C78.14,52.459 78.14,52.505 77.846,52.481C77.701,52.469 77.573,52.407 77.573,52.407C77.59,52.362 77.674,52.369 77.691,52.324C77.671,52.285 77.6,52.292 77.58,52.253C77.575,52.244 77.587,52.25 77.7,52.198C77.891,52.097 77.953,52.122 77.962,51.905C77.976,51.59 77.803,51.64 77.718,51.273C77.653,50.991 77.647,50.993 77.492,50.751C77.386,50.587 77.423,50.57 77.317,50.407C77.287,50.401 77.263,50.378 77.234,50.372C77.146,50.355 76.066,50.436 74.735,50.368C74.582,50.36 74.568,50.398 74.533,50.405ZM77.121,49.972C77.117,49.934 77.088,49.901 77.084,49.862C77.074,49.769 77.161,49.641 76.951,49.359C76.755,49.097 76.818,48.934 76.718,48.772C76.6,48.581 76.595,48.587 76.586,48.571C76.523,48.466 76.492,48.214 76.472,48.145C76.401,47.908 76.255,47.925 76.209,47.515C76.152,46.993 75.932,47.238 75.914,47.263C75.728,47.529 75.691,47.512 75.619,47.83C75.557,48.107 75.488,48.128 75.407,48.264C75.306,48.437 75.333,48.633 75.202,48.808C75.067,48.987 75.07,48.991 75.021,49.209C74.956,49.491 74.894,49.473 74.847,49.541L75.066,49.761C75.138,49.808 75.225,49.781 76.683,49.794C76.721,49.794 76.759,49.798 76.797,49.794C76.83,49.79 76.862,49.757 76.893,49.769L77.121,49.972ZM99.49,50.437C99.299,50.851 99.235,50.822 99.117,51.261C99.053,51.497 98.781,51.759 98.877,52.02C98.907,52.1 98.912,52.1 98.991,52.134C99.072,52.168 99.068,52.171 99.144,52.209L99.15,52.345C99.143,52.378 99.218,52.394 99.211,52.427C99.197,52.49 98.731,52.48 98.689,52.479C98.081,52.465 97.68,52.551 97.407,52.432C97.385,52.423 97.34,52.42 97.344,52.396C97.349,52.362 97.412,52.364 97.424,52.332C97.435,52.299 97.387,52.262 97.401,52.23C97.412,52.203 97.455,52.211 97.481,52.198C97.497,52.19 97.506,52.17 97.524,52.167C97.544,52.164 97.563,52.184 97.583,52.182C97.599,52.18 97.609,52.159 97.625,52.158C97.646,52.156 97.665,52.175 97.686,52.174C97.702,52.173 97.823,52.134 97.835,52.131C97.884,52.115 98.168,51.921 98.25,51.688C98.37,51.348 98.447,51.383 98.55,51.036C98.645,50.714 98.735,50.757 98.814,50.517C98.89,50.289 98.877,50.283 99.016,50.085C99.209,49.809 99.077,49.745 99.276,49.47C99.472,49.2 99.388,49.123 99.525,48.889C99.646,48.683 99.652,48.686 99.733,48.46C99.817,48.225 99.909,48.235 99.995,47.94C100.062,47.708 100.05,47.702 100.185,47.501C100.346,47.263 100.31,47.124 100.418,46.975C100.454,46.924 100.582,46.82 100.619,46.645C100.688,46.318 100.693,46.318 100.865,46.032C100.882,46.005 100.952,45.922 100.956,45.921C100.986,45.914 101.017,45.932 101.048,45.931C101.078,45.93 101.109,45.905 101.138,45.915C101.209,45.938 101.235,46.101 101.237,46.119C101.277,46.372 101.276,46.375 101.38,46.532C101.564,46.809 101.47,46.851 101.601,47.066C101.63,47.114 101.751,47.253 101.79,47.4C101.854,47.639 101.835,47.648 101.973,47.853C102.202,48.191 102.09,48.273 102.28,48.541C102.491,48.839 102.372,48.903 102.596,49.192C102.788,49.44 102.665,49.555 102.835,49.78C103.057,50.073 102.93,50.141 103.154,50.435C103.384,50.738 103.236,50.813 103.456,51.125C103.665,51.42 103.547,51.483 103.765,51.771C103.991,52.07 103.987,52.108 104.407,52.192C105.221,52.355 104.286,52.493 104.259,52.497C104.158,52.512 103.66,52.461 103.195,52.479C103.144,52.481 102.633,52.5 102.564,52.428C102.483,52.343 102.553,52.247 102.562,52.234C102.628,52.143 103.254,52.129 102.833,51.606C102.678,51.415 102.725,51.2 102.643,51.053C102.634,51.036 102.633,51.039 102.508,50.854C102.389,50.677 102.474,50.638 102.322,50.415C102.305,50.411 102.26,50.369 102.132,50.37C101.85,50.373 101.852,50.392 101.478,50.39C100.207,50.382 100.207,50.403 99.753,50.37C99.568,50.357 99.575,50.395 99.49,50.437ZM102.029,49.537C101.808,49.301 101.861,49.271 101.791,49.009C101.732,48.787 101.609,48.778 101.53,48.455C101.478,48.24 101.5,48.229 101.318,47.964C101.204,47.797 101.225,47.469 101.151,47.4C101.138,47.388 101.051,47.307 100.939,47.33C100.898,47.338 100.863,47.362 100.825,47.377C100.621,47.453 100.674,47.509 100.631,47.722C100.566,48.052 100.451,48.008 100.348,48.377C100.287,48.592 100.283,48.589 100.168,48.779C99.979,49.093 100.104,49.154 99.881,49.444C99.69,49.692 99.786,49.724 99.769,49.863C99.765,49.901 99.739,49.935 99.734,49.974C99.952,49.789 99.946,49.781 99.975,49.771C100.006,49.759 100.038,49.796 100.071,49.798C100.192,49.806 100.191,49.789 101.589,49.795C101.624,49.795 101.816,49.787 101.818,49.786C101.841,49.774 101.833,49.768 102.029,49.537ZM80.551,45.914C81.137,45.888 81.137,45.927 81.723,45.907C81.87,45.902 82.35,45.86 82.391,45.987C82.516,46.374 81.921,46.079 81.827,46.428C81.792,46.56 81.805,46.561 81.745,46.754C81.645,47.083 81.798,47.09 81.76,47.504C81.705,48.094 81.769,48.093 81.771,48.685C81.774,49.863 81.731,50.844 81.766,51.368C81.769,51.413 81.729,51.912 81.905,52.063C81.963,52.112 81.972,52.118 83.549,52.114C83.972,52.113 83.953,52.034 84.108,51.958C84.325,51.85 84.362,51.902 84.528,51.704C84.535,51.695 84.611,51.604 84.627,51.59C84.652,51.567 84.686,51.556 84.708,51.53C84.721,51.514 84.718,51.49 84.727,51.472C84.736,51.453 84.786,51.398 84.827,51.256C84.831,51.242 84.872,51.103 84.884,51.088C84.923,51.044 85.16,51.009 85.167,51.368C85.168,51.403 85.171,51.611 84.999,51.769C84.927,51.834 84.911,51.821 84.877,51.912C84.811,52.087 84.887,52.448 84.303,52.481C84.122,52.492 83.627,52.52 82.046,52.503C81.457,52.497 81.458,52.471 80.869,52.498C80.772,52.502 80.698,52.476 80.319,52.456L80.26,52.335C80.282,52.281 80.207,52.288 80.229,52.235C80.232,52.228 80.234,52.224 80.312,52.209C80.377,52.197 80.476,52.23 80.767,52.132C81.006,52.051 80.967,51.755 80.968,51.476C80.97,51.081 80.99,46.829 80.958,46.54C80.905,46.07 80.215,46.268 80.163,46.163C80.153,46.144 80.19,46.128 80.197,46.108C80.209,46.073 80.207,46.034 80.219,45.999C80.238,45.987 80.225,45.948 80.244,45.935C80.262,45.924 80.526,45.915 80.551,45.914ZM88.287,45.991C88.287,46.023 88.329,45.993 88.329,46.024C88.329,46.032 88.323,46.029 88.288,46.113C88.277,46.14 88.28,46.176 88.258,46.194C88.226,46.22 87.873,46.221 87.751,46.241C87.358,46.307 87.447,46.926 87.452,47.182C87.457,47.452 87.401,47.449 87.421,47.718C87.46,48.243 87.434,49.347 87.434,49.865C87.432,51.544 87.399,51.55 87.495,51.916C87.539,52.084 87.561,52.079 87.722,52.144C87.742,52.152 87.758,52.171 87.779,52.174C87.796,52.176 87.81,52.157 87.827,52.159C87.845,52.161 87.857,52.184 87.875,52.185C87.896,52.186 87.914,52.163 87.934,52.164C87.951,52.165 87.96,52.191 87.977,52.192C88.001,52.192 88.019,52.165 88.042,52.165C88.059,52.165 88.068,52.19 88.085,52.191C88.106,52.192 88.125,52.168 88.146,52.17C88.163,52.172 88.171,52.194 88.187,52.201C88.213,52.214 88.25,52.209 88.269,52.231C88.28,52.243 88.366,52.343 88.268,52.436C88.242,52.461 88.089,52.468 88.073,52.468C87.658,52.487 87.66,52.502 87.624,52.5C86.866,52.464 86.867,52.491 86.108,52.484C86.079,52.484 85.784,52.481 85.777,52.337C85.772,52.239 85.8,52.247 85.886,52.197C85.901,52.188 85.912,52.171 85.929,52.168C85.949,52.164 85.968,52.18 85.988,52.178C86.004,52.177 86.014,52.158 86.03,52.158C86.052,52.158 86.072,52.174 86.094,52.176C86.196,52.188 86.227,52.16 86.248,52.155C86.377,52.129 86.61,52.174 86.637,51.793C86.644,51.699 86.641,46.831 86.64,46.754C86.632,46.154 86.389,46.256 86.013,46.228C85.678,46.203 85.815,45.963 85.842,45.944C85.944,45.874 86.498,45.897 86.555,45.899C87.25,45.929 87.249,45.885 87.945,45.909C87.97,45.91 88.224,45.919 88.25,45.934C88.27,45.945 88.267,45.98 88.287,45.991ZM54.451,21.215L54.267,21.329C54.233,21.402 54.16,21.384 54.169,21.734C54.181,22.168 54.186,22.391 54.047,22.702C53.923,22.978 53.995,23.32 53.979,23.456C53.975,23.493 53.959,23.527 53.955,23.563C53.943,23.671 53.954,23.671 53.934,23.78C53.805,24.485 53.9,25.234 53.757,25.485C53.72,25.55 53.635,25.575 53.593,25.924C53.566,26.144 53.551,26.516 53.458,26.665C53.437,26.698 53.312,26.809 53.269,27.104C53.227,27.397 53.247,27.407 53.087,27.655C52.939,27.884 53.014,27.999 52.804,28.262C52.603,28.515 52.731,28.586 52.486,28.909C52.316,29.132 52.422,29.189 52.211,29.474C52.05,29.692 52.071,29.706 51.891,29.908C51.837,29.969 51.629,30.23 51.607,30.259C51.539,30.345 51.475,30.508 51.292,30.711C51.141,30.88 51.16,30.895 50.994,31.052C50.829,31.209 50.595,31.444 50.561,31.479C50.527,31.513 49.671,32.268 49.522,32.374C49.264,32.557 49.215,32.472 48.969,32.671C48.77,32.832 48.678,32.813 48.551,32.904C48.51,32.932 48.475,32.967 48.435,32.997C48.202,33.171 48.148,33.065 47.913,33.237C47.59,33.475 47.55,33.372 47.161,33.463C46.915,33.521 46.956,33.653 46.518,33.692C46.379,33.704 45.974,33.716 45.751,33.839C45.656,33.891 45.637,33.976 45.115,33.959C44.712,33.945 44.735,33.861 44.571,33.791C44.314,33.68 44.041,33.794 43.709,33.567C43.445,33.386 43.389,33.471 43.166,33.243C42.87,32.941 42.619,32.749 42.537,32.474C42.452,32.188 42.384,32.222 42.31,32.048C42.195,31.773 42.183,30.059 42.34,29.795C42.401,29.693 42.41,29.702 42.47,29.6C42.586,29.405 42.566,29.392 42.724,29.227C42.892,29.053 42.954,28.822 43.308,28.643C43.336,28.629 43.367,28.619 43.395,28.604C43.595,28.505 43.557,28.436 43.85,28.339C43.881,28.329 43.914,28.322 43.945,28.312C43.96,28.307 44.069,28.273 44.13,28.235C44.265,28.152 44.255,28.081 45.114,28.056C45.393,28.048 46.02,28.044 46.184,27.945C46.282,27.887 46.261,27.786 46.834,27.763C47.062,27.754 47.525,27.753 47.691,27.642C47.732,27.615 47.762,27.573 47.802,27.547C48.015,27.408 48.299,27.556 48.642,27.287C48.815,27.151 49.124,27.173 49.285,27.069C49.326,27.043 49.359,27.007 49.399,26.979C49.635,26.817 49.682,26.905 49.959,26.701C50.215,26.514 50.257,26.586 50.511,26.394C50.679,26.267 50.747,26.288 50.981,26.087C51.183,25.914 51.216,25.961 51.416,25.784L51.76,25.481C51.902,25.352 51.934,25.394 52.064,25.254C52.68,24.597 52.64,24.568 52.729,24.416C52.785,24.321 52.881,24.249 52.954,24.1C53.091,23.817 53.169,23.86 53.271,23.561C53.349,23.333 53.374,23.346 53.47,23.125C53.545,22.954 53.567,22.466 53.616,22.391C53.629,22.371 53.659,22.367 53.675,22.349C53.692,22.331 53.696,22.304 53.713,22.286C53.736,22.26 53.777,22.252 53.794,22.222C53.805,22.204 53.773,22.198 53.85,21.96C53.87,21.897 53.858,21.897 53.826,21.838C53.784,21.762 53.77,21.777 53.717,21.768C53.681,21.762 53.644,21.731 53.61,21.745C53.591,21.752 53.632,21.793 53.437,21.926C53.419,21.938 53.394,21.936 53.378,21.951C53.365,21.964 53.377,21.973 53.239,22.137C53.099,22.303 52.588,22.767 52.53,22.82C52.33,23.001 52.301,22.959 52.096,23.136C51.893,23.312 51.883,23.297 51.675,23.469C51.492,23.62 51.458,23.568 51.276,23.722C50.736,24.179 50.581,24.171 50.374,24.313C50.176,24.448 50.167,24.43 49.95,24.536C49.824,24.598 49.754,24.686 49.623,24.742C49.439,24.82 49.43,24.801 49.274,24.914C48.941,25.155 48.855,24.982 48.528,25.229C48.236,25.45 47.983,25.295 47.688,25.489C47.63,25.527 47.562,25.65 47.148,25.676C46.828,25.696 46.61,25.689 46.4,25.804C46.236,25.893 46.236,25.977 43.933,25.955C43.1,25.947 43.097,25.919 42.869,25.791C42.606,25.643 42.185,25.679 42.015,25.565C41.975,25.539 41.943,25.501 41.903,25.475C41.655,25.317 41.382,25.447 41.113,25.221C40.915,25.054 40.847,25.095 40.622,24.934C40.366,24.751 40.326,24.816 40.087,24.612C39.882,24.436 39.85,24.487 39.634,24.322C39.389,24.135 39.368,24.163 39.146,23.948C39.012,23.818 38.715,23.456 38.704,23.437C38.603,23.269 38.606,23.269 38.493,23.112C38.295,22.837 38.422,22.772 38.219,22.501C38.218,22.5 38.05,22.527 38.093,21.412C38.113,20.902 38.223,20.927 38.289,20.787C38.417,20.512 38.277,20.389 38.592,20.043C38.923,19.68 38.957,19.527 39.221,19.395C39.479,19.264 39.459,19.229 39.724,19.114C40.062,18.967 40.021,18.847 40.39,18.831C41.466,18.783 41.674,18.83 41.783,18.855C41.96,18.895 42.006,19.02 42.206,19.079C42.398,19.135 42.411,19.11 42.56,19.241C42.793,19.446 42.828,19.398 43.061,19.606C43.675,20.151 44.09,20.387 44.157,20.437C44.375,20.599 44.406,20.55 44.61,20.726C44.815,20.902 44.828,20.881 45.044,21.044C45.31,21.244 45.366,21.139 45.635,21.335C45.928,21.549 45.983,21.447 46.279,21.658C46.577,21.87 46.639,21.74 46.945,21.941C47.256,22.146 47.489,22.067 47.686,22.182C47.812,22.255 47.794,22.353 48.335,22.385C49.088,22.429 49.088,22.4 49.84,22.466C50.366,22.512 50.364,22.435 51.343,22.403C51.709,22.392 51.916,22.386 52.093,22.274C52.267,22.163 52.264,22.161 52.299,22.148C52.375,22.121 52.452,22.1 52.528,22.075C52.826,21.978 52.771,21.873 53.066,21.765C53.226,21.707 53.206,21.679 53.263,21.609C53.382,21.462 53.581,21.493 53.6,21.488C53.64,21.476 53.673,21.445 53.711,21.428C53.76,21.407 53.792,21.434 53.834,21.317C53.876,21.199 53.849,21.183 53.945,21.103C53.985,21.068 54.122,20.999 54.138,20.991C54.48,20.816 55.426,20.875 57.137,20.916C57.903,20.935 57.945,21.037 58.104,21.101C58.396,21.219 59.176,21.167 59.4,21.286C59.403,21.288 59.533,21.434 59.939,21.487C60.216,21.523 60.232,21.482 60.465,21.635C60.788,21.849 60.926,21.777 61.096,21.88C61.248,21.973 61.226,22.019 61.527,22.097C61.854,22.183 61.817,22.257 61.988,22.342C62.182,22.439 62.193,22.416 62.414,22.578C62.453,22.607 62.493,22.637 62.534,22.662C62.598,22.701 62.628,22.692 62.808,22.844C63.015,23.02 63.054,22.961 63.333,23.177C63.456,23.272 63.705,23.353 63.99,23.686C64.217,23.951 64.694,24.408 64.925,24.679C65.079,24.86 65.096,24.846 65.208,25.056C65.334,25.291 65.367,25.27 65.48,25.513C65.611,25.797 65.671,25.763 65.795,26.053C65.91,26.321 65.983,26.283 66.069,26.56C66.126,26.746 66.125,26.746 66.234,26.906C66.44,27.205 66.32,27.45 66.511,27.737C66.778,28.138 66.594,28.246 66.785,28.826C66.794,28.851 66.865,29.066 66.858,29.146C66.854,29.182 66.834,29.216 66.831,29.253C66.827,29.289 66.843,29.326 66.836,29.362C66.832,29.389 66.758,29.554 66.718,29.901C66.692,30.133 66.676,30.483 66.571,30.641C66.496,30.753 66.473,30.738 66.376,30.973C66.345,31.046 66.273,31.219 65.713,31.705C65.41,31.968 65.37,31.897 65.212,31.982C65.041,32.073 65.015,32.207 64.542,32.227C64.273,32.239 64.274,32.223 64.012,32.27C63.749,32.317 63.749,32.274 63.157,32.224C62.74,32.189 62.732,32.068 62.587,31.985C62.481,31.924 62.474,31.943 62.368,31.877C62.164,31.75 62.197,31.702 61.977,31.603C61.587,31.426 61.732,31.281 61.449,30.959C61.258,30.741 61.351,30.685 61.176,30.456C60.908,30.106 61.067,29.802 60.939,29.352C60.883,29.157 60.776,29.184 60.725,28.495C60.686,27.971 60.723,27.955 60.542,27.651C60.372,27.366 60.471,26.824 60.322,26.585C60.297,26.544 60.261,26.51 60.236,26.469C60.085,26.233 60.173,26.032 59.979,25.793C59.766,25.528 59.886,25.462 59.684,25.192C59.523,24.975 59.579,24.941 59.409,24.732C59.209,24.486 59.298,24.429 59.086,24.195C58.905,23.996 58.925,23.983 58.754,23.774C58.564,23.542 58.589,23.522 57.992,22.924C57.924,22.855 57.562,22.523 57.347,22.393C57.115,22.254 57.141,22.219 56.908,22.085C56.682,21.955 56.707,21.917 56.503,21.829C56.282,21.732 56.291,21.721 56.092,21.584C55.967,21.498 55.771,21.478 55.753,21.472C55.712,21.458 55.675,21.433 55.636,21.417C55.565,21.387 55.55,21.385 55.542,21.385C55.437,21.372 55.438,21.392 55.333,21.38C55.319,21.373 55.311,21.357 55.296,21.351C54.914,21.188 54.625,21.219 54.451,21.215ZM53.77,18.795C53.812,18.713 53.86,18.704 53.874,18.504C53.888,18.306 53.9,17.921 53.981,17.753C53.996,17.72 54.022,17.693 54.039,17.661C54.165,17.417 54.129,16.803 54.255,16.589C54.295,16.521 54.385,16.483 54.431,16.149C54.461,15.934 54.474,15.686 54.585,15.519C54.718,15.318 54.707,15.313 54.785,15.085C54.865,14.85 54.95,14.822 54.999,14.655C55.082,14.374 55.036,14.353 55.21,14.117C55.37,13.9 55.332,13.876 55.503,13.669C55.686,13.447 55.62,13.408 55.794,13.178C55.954,12.967 55.917,12.942 56.088,12.738C56.284,12.506 56.274,12.499 56.481,12.278C56.825,11.911 56.899,11.748 56.961,11.677C57.21,11.391 57.954,10.711 58.043,10.62C58.227,10.435 58.295,10.532 58.56,10.283C58.577,10.267 58.938,9.981 59.07,9.926L59.206,9.87C59.471,9.761 59.443,9.712 59.622,9.634C59.758,9.574 59.813,9.609 60.054,9.424C60.304,9.232 60.699,9.277 60.896,9.175C60.903,9.171 61.005,9.064 61.338,9.012C61.823,8.935 61.842,9.001 62.179,8.821C62.285,8.764 62.471,8.665 63.689,8.701C64.122,8.713 64.104,8.832 64.343,8.939C64.401,8.965 64.462,8.984 64.52,9.009C64.611,9.048 64.725,9.166 64.886,9.258C65.057,9.355 65.059,9.35 65.204,9.482C65.259,9.532 65.379,9.603 65.496,9.73C65.679,9.926 65.689,9.917 65.841,10.139C65.895,10.219 65.994,10.312 66.046,10.466C66.119,10.68 66.098,10.689 66.24,10.904C66.253,10.925 66.398,10.904 66.361,12.182C66.348,12.628 66.241,12.615 66.134,12.813C66.007,13.049 66.018,13.054 65.865,13.275C65.854,13.291 65.863,13.296 65.737,13.478C65.662,13.587 65.334,13.913 65.269,13.958C65.16,14.034 64.943,14.033 64.746,14.195C64.51,14.391 64.383,14.348 64.226,14.44C64.138,14.492 64.087,14.612 63.685,14.631C62.061,14.705 61.826,14.551 61.228,14.811C60.851,14.975 60.264,14.913 60.053,15.025C59.988,15.059 59.898,15.176 59.615,15.214C59.278,15.26 59.066,15.247 58.847,15.38C58.508,15.586 58.461,15.479 58.217,15.629C58.216,15.629 58.053,15.766 57.884,15.816C57.731,15.86 57.675,15.817 57.437,16.006C57.213,16.183 57.166,16.105 56.945,16.287C56.736,16.457 56.721,16.436 56.525,16.621C56.415,16.726 55.815,17.179 55.755,17.24C55.595,17.403 55.613,17.417 55.45,17.578C55.048,17.976 55.127,18.038 54.892,18.31C54.864,18.342 54.544,18.713 54.539,18.721C54.444,18.907 54.484,19.281 54.304,19.464C54.291,19.477 54.269,19.479 54.256,19.492C54.235,19.515 54.225,19.547 54.203,19.57C54.188,19.585 54.163,19.589 54.146,19.603C54.103,19.642 54.071,19.691 54.026,19.727C53.998,19.748 53.959,19.752 53.932,19.773C53.722,19.608 53.698,19.63 53.562,19.399C53.46,19.225 53.372,19.216 53.142,18.978C52.922,18.751 52.848,18.832 52.674,18.588C52.474,18.306 52.454,18.325 52.223,18.069C52.064,17.892 52.121,17.852 51.957,17.683C51.504,17.215 51.512,17.073 51.358,16.895C51.171,16.677 51.218,16.645 51.058,16.452C50.859,16.209 50.918,16.17 50.719,15.926C50.612,15.796 50.561,15.652 50.522,15.594C50.399,15.409 50.389,15.418 50.378,15.402C50.262,15.217 50.309,15.017 50.146,14.765C49.948,14.461 50.053,14.409 49.85,14.11C49.662,13.832 49.742,13.791 49.641,13.252C49.608,13.077 49.509,12.976 49.492,12.94C49.374,12.692 49.417,11.884 49.271,11.543C49.177,11.325 49.148,11.326 49.151,10.679C49.154,9.763 49.073,9.687 49.242,9.403C49.398,9.142 49.363,9.071 49.425,8.644C49.47,8.326 49.588,8.357 49.65,8.111C49.682,7.984 49.713,7.694 49.717,7.67C49.765,7.382 49.872,7.394 49.971,7.15C50.075,6.894 50.083,6.901 50.201,6.73C50.304,6.582 50.273,6.452 50.434,6.252C50.643,5.993 50.515,5.913 50.749,5.675C50.907,5.513 50.885,5.496 51.03,5.32C51.193,5.124 51.158,5.039 51.653,4.653C51.886,4.471 51.934,4.564 52.18,4.401C52.319,4.31 52.305,4.229 53.056,4.205C54.103,4.172 54.265,4.278 54.353,4.334C54.516,4.44 54.51,4.447 54.687,4.53C54.905,4.632 54.872,4.684 55.09,4.79C55.303,4.895 55.282,4.922 55.503,5.125C55.734,5.336 55.63,5.408 55.83,5.649C55.994,5.847 55.981,5.948 56.045,6.071C56.136,6.246 56.225,6.225 56.243,6.817C56.28,8.094 56.079,8.081 56.064,8.103C55.917,8.322 56.027,8.382 55.788,8.669C55.65,8.834 55.646,8.966 55.556,9.088C55.53,9.123 55.333,9.389 55.224,9.512C55.031,9.728 55.072,9.753 54.971,9.916C54.811,10.175 54.602,10.427 54.567,10.469C54.418,10.649 54.481,10.758 54.301,10.974C54.14,11.166 54.163,11.259 54.081,11.405C54.004,11.544 53.944,11.515 53.87,11.844C53.795,12.175 53.756,12.159 53.678,12.278C53.496,12.552 53.633,12.614 53.409,12.944C53.2,13.251 53.308,13.837 53.16,14.114C53.09,14.246 52.993,14.228 52.97,15.082C52.908,17.381 53.075,17.367 53.11,17.428C53.381,17.9 53.192,18.248 53.357,18.423C53.438,18.509 53.438,18.505 53.521,18.591C53.536,18.607 53.651,18.727 53.721,18.777C53.735,18.788 53.756,18.785 53.77,18.795ZM54.454,20.127C54.71,19.907 54.718,19.916 54.738,19.894C54.791,19.837 54.78,19.83 54.838,19.774C55.707,18.931 55.839,18.866 55.943,18.813C56.277,18.646 56.375,18.45 56.723,18.214C56.902,18.092 57.227,17.743 57.462,17.66C57.692,17.579 57.7,17.597 57.898,17.458C58.038,17.361 58.044,17.376 58.206,17.321C58.347,17.274 58.338,17.258 58.457,17.17C58.729,16.968 58.787,17.089 59.069,16.903C59.313,16.741 59.325,16.766 59.61,16.698C59.837,16.643 59.815,16.507 60.14,16.456C60.53,16.395 60.549,16.449 60.893,16.252C61.233,16.057 62.014,16.169 62.292,16.045C62.434,15.981 62.428,15.882 62.938,15.861C63.994,15.817 64.226,15.925 64.327,15.972C64.604,16.1 64.62,16.093 65.088,16.13C65.627,16.172 65.602,16.258 65.739,16.337C65.829,16.388 66.23,16.433 66.273,16.437C66.711,16.486 66.673,16.599 66.913,16.682C66.974,16.704 67.037,16.72 67.098,16.741C67.258,16.797 67.343,16.937 67.552,17.015C67.848,17.124 67.811,17.189 68.089,17.336C68.326,17.461 68.291,17.517 68.537,17.624C68.97,17.811 69.439,18.498 69.468,18.531C69.629,18.711 69.61,18.722 69.705,18.943C69.77,19.095 69.865,19.15 69.905,19.271C70,19.569 69.956,20.825 69.941,20.991C69.91,21.335 69.8,21.295 69.672,21.617C69.557,21.907 69.51,21.879 69.352,22.15C69.239,22.345 69.213,22.322 69.045,22.478C68.79,22.714 68.756,22.663 68.607,22.777C68.252,23.049 68.209,22.949 67.769,23.033C67.493,23.085 67.505,23.27 67.015,23.252C66.702,23.241 66.602,23.14 66.587,23.131C66.271,22.952 66.064,23.022 65.827,22.939C65.78,22.922 65.702,22.894 65.32,22.571C65.114,22.395 65.091,22.429 64.885,22.254C64.679,22.079 64.657,22.111 64.449,21.94C64.241,21.769 64.213,21.809 64.015,21.624C63.872,21.491 63.858,21.512 63.704,21.392C63.315,21.089 63.307,21.102 63.273,21.075C63.062,20.906 63.042,20.937 62.827,20.774C62.634,20.628 62.626,20.643 62.405,20.547C62.294,20.499 62.207,20.385 62.081,20.334C61.856,20.244 61.843,20.273 61.644,20.134C61.454,20 61.371,20.021 61.116,19.995C60.788,19.96 60.735,19.846 60.68,19.809C60.599,19.755 60.191,19.696 60.147,19.689C59.791,19.638 59.837,19.513 59.614,19.459C59.184,19.353 57.537,19.404 57.357,19.41C56.717,19.429 56.734,19.509 56.603,19.593C56.333,19.766 55.922,19.627 55.653,19.85C55.464,20.006 55.447,19.974 55.208,20.029C55.137,20.046 55.135,20.044 55.084,20.095C54.946,20.233 54.913,20.251 54.895,20.26C54.698,20.362 54.685,20.327 54.669,20.338C54.542,20.425 54.581,20.467 54.452,20.554C54.309,20.652 54.231,20.594 54.215,20.583C54.151,20.535 54.149,20.53 54.154,20.45C54.161,20.333 54.345,20.211 54.454,20.127ZM44.256,9.288C44.454,9.292 44.452,9.288 44.788,9.318C45.108,9.348 45.101,9.428 45.223,9.495C45.272,9.523 45.568,9.584 45.681,9.671C45.812,9.771 45.804,9.777 45.937,9.874C46.202,10.066 46.454,10.386 46.57,10.508C46.707,10.651 46.729,10.81 46.856,10.989C47.098,11.33 46.984,11.597 47.087,11.851C47.16,12.033 47.272,12.005 47.295,12.608C47.331,13.524 47.316,13.539 47.476,13.793C47.693,14.14 47.496,14.45 47.752,14.883C47.892,15.121 47.861,15.132 47.912,15.402C47.965,15.677 48.104,15.832 48.107,15.838C48.125,15.868 48.122,15.868 48.223,16.158C48.315,16.421 48.391,16.382 48.493,16.668C48.598,16.963 48.646,16.938 48.785,17.217C48.922,17.493 48.97,17.461 49.077,17.665C49.358,18.203 49.95,18.649 50.524,19.225C50.713,19.414 50.729,19.393 50.927,19.575C51.074,19.71 51.172,19.716 51.256,19.769C51.359,19.834 51.347,19.848 51.448,19.915C51.656,20.053 51.763,19.945 52.061,20.177C52.222,20.302 52.408,20.313 52.524,20.337C52.817,20.398 52.816,20.563 53.273,20.567C53.317,20.567 53.752,20.57 53.811,20.664C53.83,20.693 53.785,20.729 53.776,20.763C53.771,20.785 53.781,20.812 53.769,20.831C53.677,20.967 52.921,20.931 52.847,20.928C51.461,20.861 50.784,20.917 50.482,20.778C50.103,20.605 50.091,20.64 49.298,20.583C48.899,20.554 48.853,20.428 48.754,20.375C48.643,20.316 48.1,20.277 48.008,20.257C47.766,20.205 47.81,20.093 47.477,20.018C47.165,19.948 47.18,19.912 47.042,19.815C46.83,19.667 46.661,19.753 46.411,19.576C46.096,19.353 46.034,19.47 45.843,19.305C45.637,19.127 45.617,19.155 45.409,18.982C45.2,18.808 45.159,18.866 44.963,18.677C44.832,18.55 44.724,18.498 44.602,18.381C44.381,18.17 44.342,18.218 44.125,18.004C44.09,17.97 43.882,17.764 43.705,17.564C43.297,17.102 42.956,16.774 42.853,16.589C42.698,16.314 42.632,16.349 42.537,16.048C42.482,15.875 42.456,15.89 42.329,15.722C42.225,15.585 42.276,15.554 42.085,15.314C41.943,15.135 41.96,15.052 41.914,14.86C41.87,14.683 41.749,14.578 41.724,14.532C41.683,14.455 41.64,13.934 41.637,13.911C41.596,13.618 41.465,13.503 41.45,13.475C41.405,13.392 41.333,13.258 41.345,12.29C41.357,11.354 41.346,11.304 41.52,11.082C41.679,10.879 41.63,10.736 41.839,10.513C41.872,10.477 42.125,10.207 42.25,10.064C42.425,9.865 42.453,9.9 42.655,9.728C42.898,9.52 42.985,9.654 43.305,9.434C43.519,9.287 43.564,9.31 44.256,9.288ZM55.762,22.032C55.901,22.195 55.908,22.188 55.919,22.203C55.939,22.23 55.95,22.291 56.044,22.404C56.27,22.677 56.215,22.714 56.436,22.99C56.561,23.147 56.565,23.229 56.632,23.33C56.659,23.371 56.692,23.408 56.719,23.449C56.763,23.516 56.757,23.517 56.856,23.759C56.864,23.776 56.9,23.864 56.975,23.961C56.986,23.976 57.001,23.989 57.012,24.004C57.159,24.197 57.099,24.228 57.227,24.433C57.331,24.6 57.375,24.578 57.452,24.855C57.518,25.096 57.595,25.144 57.626,25.192C57.786,25.438 57.633,25.503 57.896,25.922C58.115,26.269 57.951,26.339 58.175,26.691C58.34,26.95 58.297,26.995 58.339,27.532C58.369,27.926 58.515,28.07 58.518,28.076C58.652,28.324 58.622,29.189 58.626,30.004C58.631,31.212 58.618,31.224 58.448,31.514C58.266,31.822 58.393,32.345 58.191,32.681C57.979,33.034 58.12,33.096 57.891,33.44C57.756,33.641 57.779,33.651 57.719,33.884C57.644,34.173 57.558,34.132 57.452,34.402C57.43,34.459 57.35,34.664 57.017,35.039C56.839,35.239 56.882,35.272 56.69,35.459C56.42,35.723 56.143,36.067 55.705,36.514C55.488,36.735 55.443,36.67 55.194,36.853C54.976,37.014 54.778,36.996 54.657,37.06C54.521,37.132 54.529,37.254 54.13,37.269C53.068,37.307 53.08,37.191 52.947,37.102C52.717,36.946 52.468,37.032 52.225,36.838C51.776,36.479 51.795,36.458 51.78,36.439C51.28,35.802 51.244,35.818 51.193,35.601C51.138,35.364 51.151,35.358 51.014,35.16C50.987,35.122 50.959,35.085 50.939,35.042C50.87,34.892 50.878,33.735 50.923,33.55C50.974,33.338 51.079,33.385 51.195,32.995C51.258,32.784 51.25,32.775 51.534,32.453C51.829,32.117 51.801,32.093 51.924,31.985C52.269,31.681 52.248,31.661 52.594,31.36C52.925,31.071 52.892,31.04 53.175,30.765C53.282,30.662 53.517,30.416 53.546,30.385C54.066,29.842 54.111,29.754 54.144,29.689C54.267,29.449 54.305,29.475 54.443,29.244C54.542,29.077 54.547,29.082 54.663,28.926C54.807,28.732 54.737,28.696 54.867,28.491C54.908,28.428 54.918,28.438 54.959,28.375C55.095,28.168 54.997,28.116 55.25,27.776C55.426,27.541 55.302,27.346 55.488,27.088C55.657,26.853 55.635,26.684 55.674,26.252C55.699,25.969 55.817,25.878 55.851,25.817C55.936,25.666 55.95,25.399 55.955,24.314C55.96,23.346 55.889,23.35 55.757,23.129C55.656,22.961 55.622,22.458 55.613,22.381C55.62,22.324 55.602,22.325 55.609,22.27C55.61,22.261 55.617,22.2 55.639,22.167C55.672,22.116 55.729,22.083 55.762,22.032ZM55.349,50.521C55.297,50.636 55.309,50.642 55.229,50.741C55.03,50.985 55.114,51.042 54.893,51.27C54.734,51.435 54.75,51.448 54.584,51.607C54.413,51.771 54.432,51.794 54.237,51.9C54.037,52.009 54.03,52.078 53.789,52.176C53.759,52.189 53.727,52.197 53.696,52.208C53.458,52.295 53.435,52.434 53.177,52.478C52.814,52.541 52.459,52.52 52.312,52.59C52.285,52.603 52.034,52.818 51.765,52.686C51.667,52.639 51.66,52.554 51.235,52.531C50.836,52.511 50.632,52.522 50.386,52.313C50.19,52.146 50.123,52.265 49.75,51.987C49.656,51.916 49.513,51.889 49.077,51.377C48.901,51.17 48.881,51.185 48.764,50.94C48.681,50.767 48.557,50.691 48.519,50.52C48.482,50.351 48.499,50.35 48.457,50.183C48.395,49.934 48.284,49.951 48.246,49.648C48.233,49.548 48.161,48.769 48.325,48.467C48.379,48.369 48.436,48.353 48.48,48.051C48.535,47.684 48.61,47.713 48.739,47.487C48.761,47.448 48.813,47.303 48.899,47.203C49.407,46.619 49.536,46.543 49.605,46.502C49.898,46.329 49.876,46.292 50.058,46.226C50.242,46.159 50.246,46.166 50.399,46.044C50.734,45.778 51.293,45.953 51.557,45.788C51.592,45.767 51.66,45.645 51.987,45.657C52.304,45.669 52.265,45.805 52.526,45.854C52.761,45.899 53.177,45.825 53.463,46.051C53.709,46.246 53.756,46.162 54.011,46.343C54.292,46.543 54.314,46.512 54.559,46.756C54.668,46.864 54.964,47.173 55.024,47.271C55.066,47.338 55.075,47.485 55.24,47.694C55.445,47.951 55.347,48.146 55.464,48.351C55.513,48.438 55.631,48.506 55.634,48.899C55.64,49.717 55.636,49.776 55.52,49.97C55.37,50.221 55.405,50.234 55.349,50.521ZM54.757,49.221C54.756,49.162 54.75,48.595 54.734,48.476C54.703,48.239 54.667,48.252 54.548,48.046C54.486,47.938 54.502,47.933 54.447,47.722C54.396,47.527 54.278,47.461 54.159,47.275C53.958,46.961 53.82,46.919 53.561,46.689C53.395,46.542 53.241,46.523 53.071,46.41C53.03,46.383 52.994,46.348 52.952,46.323C52.728,46.195 51.598,46.228 51.24,46.251C50.879,46.275 50.909,46.368 50.577,46.514C50.549,46.527 50.519,46.537 50.491,46.55C50.359,46.61 49.868,47.059 49.846,47.081C49.656,47.275 49.712,47.313 49.552,47.53C49.36,47.792 49.36,48.001 49.275,48.138C49.164,48.314 49.072,48.312 49.109,49.649C49.123,50.126 49.19,50.111 49.299,50.296C49.39,50.448 49.325,50.539 49.517,50.831C49.624,50.992 49.628,50.987 49.719,51.16C49.823,51.36 50.117,51.56 50.158,51.587C50.382,51.739 50.35,51.788 50.601,51.888C50.755,51.949 50.89,52.069 50.924,52.087C51.114,52.186 52.376,52.162 52.633,52.139C52.985,52.106 52.95,52.003 53.263,51.886C53.61,51.756 54.087,51.249 54.137,51.156C54.209,51.022 54.207,51.023 54.303,50.902C54.483,50.675 54.466,50.47 54.581,50.302C54.609,50.263 54.646,50.23 54.67,50.188C54.771,50.016 54.757,49.231 54.757,49.221ZM22.041,46.105C22.036,46.073 21.983,46.062 21.978,46.03C21.976,46.011 22.012,46.009 22.023,45.994C22.037,45.975 22.033,45.943 22.052,45.931C22.144,45.873 22.903,45.931 23.321,45.908C23.691,45.887 26.365,45.842 26.661,45.965C26.777,46.013 26.801,46.116 27.085,46.186C27.301,46.24 27.313,46.211 27.499,46.336C27.947,46.635 27.969,46.614 28.313,47.031C28.323,47.044 28.483,47.189 28.55,47.307C28.749,47.662 28.79,47.642 28.825,47.818C28.893,48.162 28.833,48.206 28.998,48.473C29.044,48.546 29.162,48.737 29.122,49.544C29.102,49.955 28.992,49.945 28.919,50.085C28.799,50.317 28.959,50.511 28.658,50.917C28.523,51.1 28.555,51.122 28.399,51.29C28.166,51.54 28.172,51.545 27.918,51.773C27.794,51.884 27.777,51.857 27.52,52.03C27.172,52.263 27.085,52.172 26.855,52.309C26.799,52.343 26.744,52.468 26.225,52.488C24.325,52.558 23.115,52.457 22.562,52.49C22.293,52.506 22.286,52.538 22.038,52.436C21.969,52.408 21.969,52.406 21.971,52.4C21.992,52.337 22.051,52.395 22.072,52.331L22.034,52.228C22.151,52.171 22.149,52.168 22.16,52.166C22.177,52.163 22.194,52.18 22.212,52.178C22.23,52.176 22.244,52.16 22.263,52.156C22.369,52.132 22.552,52.178 22.59,51.91C22.614,51.74 22.598,46.725 22.596,46.643C22.587,46.226 22.457,46.261 22.047,46.195L22.041,46.105ZM28.249,49.221C28.247,48.952 28.253,48.954 28.24,48.687C28.215,48.205 28.148,48.222 28.041,48.042C27.981,47.94 27.924,47.653 27.91,47.624C27.877,47.554 27.592,47.169 27.561,47.135C27.29,46.846 27.193,46.825 27.09,46.737C26.736,46.44 26.678,46.575 26.215,46.449C26.023,46.397 26.05,46.251 25.146,46.25C23.61,46.247 23.593,46.25 23.534,46.321C23.46,46.41 23.469,46.425 23.469,48.899C23.469,51.948 23.468,51.951 23.503,52.032C23.564,52.169 23.71,52.14 25.039,52.141C25.925,52.142 25.92,52.075 26.104,51.976C26.272,51.884 26.546,51.876 26.636,51.864C26.989,51.816 26.952,51.727 27.186,51.582C27.535,51.366 27.663,51.101 27.803,50.919C28.022,50.635 27.934,50.494 28.062,50.301C28.088,50.261 28.125,50.228 28.151,50.187C28.255,50.021 28.241,49.747 28.249,49.221ZM89.987,45.89C90.046,45.889 90.042,45.906 90.099,45.905C90.203,45.903 90.199,45.886 90.208,45.887C90.366,45.904 90.73,46.456 91.201,46.817C91.357,46.936 91.345,46.947 91.489,47.079C91.784,47.35 92.3,47.89 92.352,47.934C92.421,47.993 92.859,48.365 93.18,48.712C93.527,49.087 94.052,49.507 94.286,49.757C94.874,50.384 94.939,50.341 95.174,50.582C95.336,50.748 95.359,50.717 95.47,50.815C95.601,50.929 95.59,50.965 95.684,50.953C95.774,50.941 95.834,50.759 95.77,50.616C95.753,50.578 95.719,50.55 95.703,50.512C95.582,50.227 95.685,49.019 95.663,48.685C95.599,47.667 95.691,46.991 95.648,46.756C95.571,46.333 95.562,46.33 95.506,46.288C95.401,46.209 95.388,46.249 95.243,46.24C95.221,46.239 94.995,46.226 94.973,46.168C94.916,46.017 95.034,45.935 95.051,45.923C95.097,45.891 95.334,45.896 95.359,45.896C96.735,45.924 96.736,45.891 96.853,45.913C97.026,45.945 97.128,46.208 96.759,46.226C96.368,46.246 96.197,46.248 96.2,46.752C96.205,48.007 96.196,49.643 96.2,50.188C96.207,51.154 96.153,51.153 96.198,52.118C96.199,52.15 96.214,52.48 95.996,52.466C95.949,52.464 95.84,52.312 95.829,52.297C95.656,52.055 95.264,51.775 94.957,51.451C94.594,51.07 93.678,50.202 93.531,50.083C93.264,49.865 92.917,49.403 92.581,49.201C92.163,48.949 91.729,48.313 90.968,47.702C90.823,47.585 90.798,47.406 90.639,47.419C90.485,47.432 90.504,47.692 90.505,47.715C90.54,49.751 90.5,51.175 90.517,51.692C90.533,52.166 90.715,52.114 90.938,52.159C90.957,52.162 90.973,52.181 90.992,52.181C91.014,52.181 91.03,52.158 91.052,52.157C91.068,52.155 91.08,52.173 91.096,52.174C91.15,52.175 91.15,52.161 91.201,52.182C91.318,52.229 91.362,52.208 91.361,52.333C91.36,52.49 91.067,52.524 90.531,52.489C90.035,52.457 89.431,52.546 89.353,52.434C89.35,52.43 89.344,52.233 89.347,52.228C89.361,52.203 89.401,52.205 89.426,52.192C89.441,52.184 89.453,52.167 89.47,52.164C89.49,52.16 89.51,52.176 89.53,52.174C89.545,52.173 89.556,52.157 89.571,52.154C89.608,52.148 89.645,52.153 89.681,52.149C89.716,52.145 89.751,52.141 89.785,52.131C90.068,52.043 89.982,51.018 89.984,50.724C89.996,48.375 89.968,47.512 90.014,47.182C90.044,46.967 90.024,46.967 89.98,46.754C89.966,46.687 89.836,46.05 89.927,45.913C89.939,45.895 89.975,45.908 89.987,45.89ZM10.741,46.115C10.738,46.074 10.675,46.054 10.673,46.013C10.671,45.99 10.711,45.986 10.732,45.977C10.951,45.888 10.954,45.894 11.191,45.902C12.281,45.94 12.346,45.844 12.394,45.987C12.5,46.296 12.032,46.227 11.981,46.249C11.823,46.315 11.856,46.376 11.854,48.792C11.853,50.163 11.872,50.176 11.713,50.506C11.546,50.852 11.697,51.048 11.448,51.402C11.267,51.66 11.233,51.769 11.141,51.852C10.912,52.062 10.935,52.096 10.65,52.221C10.454,52.308 10.421,52.464 10.111,52.5C9.898,52.524 9.899,52.517 9.685,52.542C9.478,52.567 9.482,52.581 9.364,52.656C8.95,52.92 8.73,52.596 8.718,52.588C8.635,52.537 7.924,52.524 7.762,52.424C7.717,52.395 7.59,52.267 7.44,52.21C7.152,52.102 7.179,52.059 6.955,51.851C6.751,51.66 6.82,51.612 6.656,51.387C6.327,50.936 6.59,50.762 6.379,50.292C6.163,49.81 6.356,49.771 6.317,49.115C6.253,48.033 6.319,48.035 6.332,47.825C6.343,47.663 6.259,47.365 6.28,47.183C6.323,46.806 6.331,46.802 6.231,46.438C6.16,46.178 6.043,46.245 5.919,46.241C5.566,46.231 5.62,46.019 5.67,45.971C5.83,45.817 5.872,45.957 7.216,45.901C7.248,45.9 7.536,45.888 7.611,45.942C7.63,45.955 7.794,46.198 7.44,46.237C7.268,46.256 7.103,46.181 7.093,46.536C7.089,46.647 7.089,50.191 7.092,50.297C7.108,50.903 7.102,50.915 7.252,51.13C7.43,51.388 7.359,51.435 7.582,51.654C7.773,51.84 7.792,51.813 7.999,51.979C8.254,52.185 8.397,52.14 8.716,52.155C8.803,52.159 9.306,52.183 9.798,52.145C10.106,52.121 10.097,52 10.327,51.898C10.611,51.772 10.588,51.739 10.797,51.508C11.017,51.264 10.943,51.171 11.073,50.936C11.275,50.571 11.265,50.55 11.261,47.074C11.26,46.548 11.297,46.273 11.062,46.242L10.768,46.203L10.741,46.115ZM4.085,47.947C4.161,48.476 4.128,48.478 4.138,49.013C4.142,49.222 4.132,49.22 4.089,49.425L3.992,49.417C3.959,49.404 3.92,49.452 3.887,49.439C3.861,49.43 3.868,49.388 3.855,49.364C3.844,49.345 3.823,49.332 3.816,49.311C3.782,49.212 3.843,48.965 3.56,48.935C3.42,48.92 2.006,48.925 1.96,48.927C1.657,48.942 1.666,49.027 1.65,49.329C1.628,49.758 1.658,49.757 1.637,50.188C1.623,50.48 1.691,50.815 1.638,51.261C1.612,51.479 1.647,51.476 1.709,51.806C1.743,51.983 1.71,52.008 1.857,52.112C1.913,52.152 2.462,52.218 2.475,52.243C2.489,52.271 2.459,52.304 2.459,52.335C2.458,52.363 2.488,52.396 2.472,52.42C2.457,52.445 2.417,52.438 2.388,52.445C2.09,52.512 1.799,52.493 1.748,52.49C0.825,52.429 0.01,52.619 0,52.337C-0.003,52.239 0.022,52.245 0.106,52.196C0.121,52.187 0.133,52.17 0.15,52.167C0.17,52.163 0.188,52.179 0.208,52.178C0.224,52.176 0.235,52.157 0.251,52.157C0.272,52.157 0.291,52.177 0.312,52.177C0.33,52.177 0.343,52.156 0.361,52.156C0.379,52.156 0.393,52.178 0.412,52.177C0.433,52.176 0.449,52.156 0.47,52.15C0.635,52.106 0.793,52.163 0.843,51.79C0.865,51.623 0.862,45.637 0.845,45.471C0.777,44.827 0.068,45.175 0.026,44.926C0.012,44.843 0.018,44.837 0.085,44.786C0.106,44.77 0.12,44.745 0.144,44.736C0.199,44.713 0.654,44.711 0.776,44.719C1.313,44.753 1.312,44.73 1.849,44.721C2.03,44.719 3.338,44.698 4.104,44.718C4.415,44.726 4.409,44.755 4.449,44.783C4.589,44.881 4.625,44.864 4.653,45.034C4.692,45.28 4.767,45.41 4.734,45.674C4.731,45.696 4.706,45.894 4.538,45.87C4.432,45.856 4.423,45.742 4.336,45.435C4.313,45.355 4.296,45.366 4.216,45.342C4.051,45.292 4.053,45.276 3.883,45.291C3.537,45.323 2.473,45.297 2.28,45.302C1.799,45.315 1.652,45.304 1.655,45.786C1.658,46.216 1.643,46.214 1.642,46.645C1.64,47.343 1.657,47.34 1.649,48.04C1.648,48.181 1.715,48.468 1.83,48.511C1.936,48.551 1.939,48.549 3.244,48.539C3.824,48.535 3.747,48.324 3.818,48.174C3.828,48.152 3.857,48.141 3.866,48.118C3.877,48.089 3.87,48.055 3.875,48.024C3.88,47.996 3.869,47.953 3.895,47.94C3.925,47.923 3.966,47.976 3.997,47.96L4.085,47.947ZM43.61,49.872L43.707,49.875C43.82,50.51 43.734,51.105 43.716,51.153C43.671,51.269 43.18,51.786 43.058,51.878C42.794,52.077 42.822,52.124 42.535,52.219C42.382,52.269 42.368,52.312 42.328,52.343C42.1,52.518 41.86,52.504 41.357,52.539C41.03,52.562 40.941,52.681 40.815,52.715C40.747,52.734 40.455,52.737 40.395,52.72C40.212,52.67 40.246,52.561 39.857,52.528C39.279,52.479 39.239,52.51 38.999,52.329C38.753,52.144 38.705,52.188 38.576,52.103C38.452,52.021 38.462,52.011 38.337,51.927C38.286,51.893 38,51.702 37.78,51.392C37.614,51.16 37.553,51.147 37.482,50.944C37.383,50.661 37.325,50.692 37.251,50.521C37.092,50.155 37.175,48.235 37.191,48.043C37.218,47.719 37.369,47.718 37.438,47.529C37.466,47.453 37.478,47.371 37.51,47.297C37.543,47.219 37.671,47.095 37.787,46.947C37.997,46.679 38.193,46.547 38.396,46.375C38.666,46.146 38.738,46.267 39.02,46.044C39.354,45.779 39.868,45.984 40.17,45.764C40.181,45.756 40.168,45.584 41.036,45.659C41.252,45.678 41.272,45.787 41.451,45.837C41.606,45.88 41.891,45.89 42.001,45.899C42.397,45.93 42.427,46.033 42.537,46.111C42.772,46.28 43.047,46.141 43.198,46.639C43.275,46.892 43.328,46.861 43.389,46.968C43.457,47.086 43.521,47.682 43.425,47.845C43.301,48.056 43.18,47.982 43.134,47.742C43.078,47.445 43.156,47.332 42.515,46.666C42.358,46.502 42.21,46.541 42.015,46.408C41.808,46.267 41.803,46.243 41.035,46.233C39.614,46.214 39.616,46.297 39.42,46.422C39.292,46.503 39.144,46.53 39.003,46.654C38.803,46.83 38.789,46.811 38.605,47.001C38.357,47.257 38.417,47.298 38.213,47.591C37.983,47.922 38.085,48.296 38,48.573C37.929,48.805 37.782,48.779 37.807,49.329C37.836,49.942 37.927,49.97 37.928,49.971C38.173,50.386 37.986,50.486 38.189,50.802C38.294,50.966 38.297,50.962 38.392,51.131C38.427,51.191 38.609,51.365 38.639,51.397C39.087,51.882 39.199,51.86 39.32,51.9C39.459,51.947 39.609,52.071 39.65,52.093C39.898,52.218 41.323,52.153 41.468,52.147C41.963,52.124 41.936,52.033 41.992,51.993C42.03,51.967 42.031,51.972 42.304,51.866C42.589,51.755 42.944,51.353 43.001,51.296C43.164,51.133 43.14,51.116 43.279,50.93C43.472,50.671 43.397,50.309 43.428,50.089C43.43,50.072 43.449,50.062 43.454,50.045C43.506,49.877 43.489,49.87 43.502,49.863C43.534,49.846 43.578,49.889 43.61,49.872ZM68.165,46.538C68.165,46.495 68.17,46.146 68.196,46C68.233,45.792 68.539,45.372 68.539,45.372C68.788,45.1 68.897,45.03 68.934,45.007C69.095,44.904 69.147,44.839 69.166,44.825C69.235,44.773 69.37,44.672 70.238,44.693C70.315,44.695 71.022,44.712 71.198,44.747C71.22,44.751 71.37,44.781 71.414,44.928C71.445,45.03 71.466,45.546 71.447,45.905C71.445,45.929 71.433,46.157 71.305,46.17C71.192,46.182 71.209,46.137 71.16,46.036C71.019,45.749 71.269,45.545 70.903,45.322C70.618,45.147 70.635,45.072 70.235,45.057C69.71,45.037 69.625,45.106 69.515,45.183C69.329,45.312 69.224,45.353 69.181,45.379C69.146,45.401 69.077,45.444 68.87,45.801C68.767,45.979 68.693,46.502 68.857,46.743C68.966,46.904 68.973,46.897 69.069,47.066C69.099,47.119 69.218,47.327 69.587,47.617C69.858,47.828 69.845,47.839 70.096,48.077C70.761,48.708 70.899,48.809 71.046,48.953C71.154,49.059 71.138,49.07 71.246,49.175C71.287,49.214 71.463,49.385 71.671,49.737C71.704,49.791 71.738,49.85 71.795,50.515C71.8,50.576 71.742,51.333 71.736,51.368C71.693,51.622 71.59,51.573 71.428,51.911C71.303,52.173 71.19,52.109 70.898,52.355C70.657,52.558 70.495,52.495 70.236,52.545C69.992,52.592 70.001,52.75 69.7,52.748C69.483,52.747 69.405,52.652 69.385,52.638C69.2,52.513 69.183,52.555 68.725,52.477C68.456,52.431 67.998,52 67.927,51.887C67.826,51.725 67.841,50.825 67.901,50.739C67.915,50.719 67.946,50.718 67.967,50.704C67.983,50.693 67.99,50.664 68.009,50.665C68.04,50.666 68.063,50.694 68.091,50.708C68.169,50.746 68.187,50.731 68.217,50.811C68.254,50.911 68.219,50.915 68.247,51.017C68.251,51.033 68.273,51.04 68.28,51.056C68.292,51.087 68.291,51.123 68.301,51.155C68.33,51.247 68.368,51.267 68.374,51.278C68.429,51.386 68.417,51.682 68.666,51.858C68.948,52.057 68.945,52.061 68.971,52.076C69.25,52.226 70.263,52.147 70.346,52.126C70.59,52.065 71.054,51.513 71.082,51.469C71.202,51.28 71.145,50.359 71.125,50.285C71.099,50.189 70.754,49.747 70.419,49.479C70.31,49.391 70.002,49.088 69.969,49.053C69.53,48.575 69.471,48.637 68.671,47.788C68.486,47.592 68.507,47.577 68.341,47.369C68.15,47.13 68.177,46.963 68.165,46.538ZM105.43,51.079L105.583,51.136C105.603,51.181 105.585,51.185 105.605,51.229C105.617,51.256 105.636,51.241 105.643,51.27C105.66,51.336 105.658,51.407 105.667,51.475C105.71,51.806 105.808,51.809 105.96,51.938C106.112,52.067 106.103,52.198 107.388,52.155C107.685,52.146 107.795,52.134 108.269,51.601C108.465,51.381 108.345,50.632 108.341,50.619C108.233,50.253 107.073,49.516 106.915,49.373C106.724,49.199 106.71,49.218 106.561,49.075C106.338,48.862 106.3,48.914 106.068,48.714C105.797,48.48 105.78,48.492 105.656,48.261C105.587,48.131 105.496,48.039 105.485,48.022C105.337,47.79 105.391,46.974 105.422,46.85C105.433,46.805 105.445,46.76 105.707,46.351C105.73,46.316 105.751,46.283 106.1,46.009C106.268,45.876 106.635,45.873 106.729,45.842C106.93,45.777 106.899,45.651 107.275,45.636C107.728,45.619 107.755,45.751 107.812,45.788C107.993,45.909 108.422,45.838 108.593,45.979C108.669,46.041 108.67,46.213 108.67,46.215C108.715,46.884 108.659,46.973 108.583,47.008C108.507,47.043 108.496,47.057 108.438,46.998C108.42,46.98 108.393,46.969 108.381,46.946C108.318,46.825 108.429,46.718 108.208,46.474C108.006,46.25 107.896,46.234 107.489,46.228C106.566,46.214 106.534,46.298 106.447,46.364C106.036,46.672 105.961,46.725 105.987,47.396C105.997,47.649 106.14,47.714 106.546,48.126C106.706,48.288 106.722,48.268 106.89,48.424C107.188,48.704 107.616,48.948 107.696,49.017C108.214,49.463 108.446,49.587 108.662,49.872C108.884,50.165 108.954,50.145 108.971,50.512C109.01,51.321 108.965,51.442 108.87,51.573C108.756,51.73 108.75,51.725 108.666,51.902C108.555,52.14 108.45,52.115 108.221,52.308C107.956,52.532 107.791,52.513 107.597,52.546C107.334,52.592 107.354,52.719 107.059,52.743C106.691,52.773 106.581,52.617 106.516,52.584C106.319,52.484 105.89,52.568 105.646,52.364C105.351,52.117 105.275,52.174 105.166,51.997C105.093,51.878 105.078,51.245 105.13,51.047C105.182,50.848 105.263,50.96 105.43,51.079ZM44.727,52.408C44.728,52.369 44.751,52.377 44.752,52.339C44.754,52.257 44.729,52.263 44.731,52.257C44.737,52.236 44.767,52.231 44.787,52.222L44.918,52.166C44.938,52.164 44.957,52.182 44.978,52.181C44.993,52.179 45.004,52.162 45.019,52.159C45.063,52.151 45.411,52.176 45.498,52.084C45.561,52.018 45.651,51.648 45.654,51.583C45.657,51.54 45.673,51.214 45.666,51.046C45.652,50.671 45.665,50.672 45.658,50.295C45.625,48.517 45.644,48.517 45.637,48.363C45.624,48.057 45.644,48.059 45.677,47.826C45.725,47.496 45.597,47.496 45.648,47.074C45.654,47.022 45.677,46.827 45.557,46.425C45.469,46.133 44.999,46.275 44.903,46.21C44.878,46.193 44.878,46.153 44.859,46.129C44.848,46.115 44.822,46.115 44.814,46.099C44.808,46.088 44.754,45.982 44.817,45.935C44.895,45.878 45.586,45.903 45.653,45.905C46.79,45.946 47.215,45.811 47.276,45.993C47.396,46.354 46.783,46.186 46.586,46.281C46.393,46.373 46.414,46.433 46.415,47.718C46.419,50.927 46.406,51.757 46.429,51.901C46.495,52.319 47.118,52.042 47.26,52.229C47.27,52.242 47.34,52.335 47.251,52.433C47.151,52.542 46.773,52.484 46.742,52.484C46.411,52.489 46.414,52.478 46.081,52.477C45.786,52.477 45.475,52.5 45.442,52.5C44.885,52.516 44.753,52.418 44.727,52.408ZM52.028,44.936C52.042,44.91 52.061,44.801 52.194,44.705C52.257,44.66 52.254,44.66 52.311,44.608C52.527,44.413 52.667,44.318 52.976,43.983C53.327,43.603 53.805,44.203 53.416,44.438C53.168,44.588 53.198,44.639 52.956,44.723C52.619,44.841 52.686,44.971 52.417,45.04C52.195,45.098 52.169,45.005 52.144,44.989C52.108,44.966 52.063,44.959 52.028,44.936Z"/>
            </g>
        </g>
    </g>
</svg>
