<?xml version="1.0" encoding="UTF-8" standalone="no"?>
<!DOCTYPE svg PUBLIC "-//W3C//DTD SVG 1.1//EN" "http://www.w3.org/Graphics/SVG/1.1/DTD/svg11.dtd">
<svg width="100%" height="100%" viewBox="0 0 82 100" version="1.1" xmlns="http://www.w3.org/2000/svg" xmlns:xlink="http://www.w3.org/1999/xlink" xml:space="preserve" xmlns:serif="http://www.serif.com/" style="fill-rule:evenodd;clip-rule:evenodd;stroke-linejoin:round;stroke-miterlimit:2;">
    <g transform="matrix(1,0,0,1,-3600.8,-397.373)">
        <g transform="matrix(1,0,0,1,2126.17,0)">
            <g transform="matrix(2.00135,0,0,2.00135,529.993,159.967)">
                <path d="M478.476,121.82C478.497,121.697 478.512,121.701 478.526,121.576C478.543,121.427 478.563,121.431 478.579,121.282C478.588,121.195 478.615,121.125 478.622,121.085C478.709,120.556 478.843,119.946 478.86,119.819C478.878,119.694 478.884,119.696 478.902,119.623C478.911,119.587 478.916,119.48 478.933,119.423C478.979,119.257 478.962,119.254 479.003,119.086C479.033,118.965 479.018,118.963 479.049,118.841C479.073,118.745 479.07,118.684 479.099,118.654C479.138,118.614 479.294,118.624 479.38,118.624L484.958,118.624C485.042,118.625 485.055,118.62 485.092,118.696C485.097,118.705 485.208,119.26 485.223,119.374C485.236,119.476 485.266,119.539 485.276,119.623C485.287,119.719 485.288,119.718 485.314,119.813C485.34,119.912 485.318,119.914 485.344,120.013C485.376,120.135 485.364,120.136 485.391,120.258C485.449,120.526 485.444,120.527 485.449,120.55C485.503,120.788 485.554,121.088 485.562,121.135C485.585,121.27 485.648,121.549 485.663,121.674C485.682,121.825 485.705,121.82 485.72,121.972C485.732,122.095 485.758,122.09 485.769,122.216C485.78,122.341 485.8,122.337 485.818,122.461C485.835,122.585 485.844,122.583 485.866,122.707C485.87,122.734 485.906,122.941 485.927,123.048C486.061,123.725 486.069,123.804 486.076,123.831C486.115,123.974 486.093,123.978 486.135,124.121C486.173,124.25 486.147,124.255 486.179,124.367C486.212,124.485 486.205,124.486 486.215,124.565C486.219,124.595 486.248,124.691 486.258,124.761C486.277,124.886 486.282,124.884 486.306,125.007C486.317,125.065 486.431,125.663 486.443,125.734C486.465,125.879 486.473,125.876 486.484,125.931C486.49,125.959 486.502,126.077 486.516,126.13C486.555,126.274 486.532,126.279 486.575,126.421C486.618,126.564 486.593,126.568 486.632,126.712C486.659,126.811 486.642,126.813 486.665,126.912C486.698,127.057 486.691,127.058 486.723,127.204C486.724,127.207 486.936,128.303 486.94,128.333C486.957,128.457 486.975,128.453 486.989,128.577C487,128.673 487.002,128.672 487.027,128.767C487.053,128.865 487.033,128.868 487.059,128.967C487.084,129.064 487.345,130.463 487.351,130.484C487.391,130.629 487.369,130.633 487.395,130.73C487.421,130.827 487.423,130.826 487.433,130.926C487.444,131.025 487.468,131.019 487.483,131.17C487.493,131.276 487.515,131.301 487.531,131.415C487.535,131.443 487.548,131.529 487.593,131.756C487.683,132.207 487.68,132.208 487.688,132.247C487.735,132.472 487.729,132.473 487.734,132.492C487.791,132.761 487.784,132.761 487.79,132.784C487.828,132.919 487.806,132.923 487.835,133.03C487.86,133.127 487.864,133.125 487.874,133.225C487.886,133.346 487.91,133.341 487.923,133.47C487.934,133.579 487.955,133.605 487.972,133.715C487.99,133.832 488.59,136.946 488.597,136.988C488.618,137.136 488.628,137.134 488.639,137.184C488.644,137.208 488.654,137.329 488.67,137.384C488.71,137.528 488.687,137.532 488.728,137.675C488.764,137.8 488.742,137.804 488.773,137.921C488.798,138.019 488.796,138.018 488.81,138.118C488.814,138.145 488.839,138.242 488.852,138.315C488.972,138.976 489.025,139.197 489.037,139.288C489.055,139.412 489.068,139.408 489.086,139.533C489.1,139.631 489.096,139.632 489.124,139.728C489.146,139.805 489.147,139.897 489.154,139.929C489.217,140.196 489.207,140.197 489.213,140.22C489.243,140.342 489.233,140.343 489.26,140.465C489.332,140.799 489.431,141.383 489.46,141.492C489.492,141.613 489.47,141.617 489.505,141.738C489.546,141.881 489.523,141.885 489.563,142.028C489.588,142.114 489.588,142.196 489.595,142.228C489.656,142.496 489.647,142.497 489.653,142.52C489.683,142.642 489.674,142.643 489.7,142.765C489.71,142.812 489.792,143.195 489.815,143.349C489.838,143.498 489.849,143.495 489.869,143.643C489.887,143.768 489.903,143.763 489.919,143.888C489.938,144.039 489.958,144.034 489.975,144.185C489.982,144.248 490.355,146.153 490.366,146.241C490.381,146.366 490.402,146.361 490.416,146.485C490.433,146.633 490.453,146.63 490.469,146.779C490.476,146.848 490.508,146.949 490.512,146.976C490.576,147.37 490.591,147.367 490.659,147.759C490.689,147.935 490.741,148.171 490.751,148.242C490.771,148.393 490.789,148.389 490.807,148.54C490.821,148.665 490.842,148.661 490.857,148.785C490.869,148.89 491.082,149.955 491.099,150.059C491.121,150.195 491.185,150.495 491.191,150.542C491.207,150.658 491.213,150.656 491.233,150.737C491.263,150.858 491.244,150.861 491.277,150.982C491.299,151.06 491.301,151.149 491.309,151.182C491.37,151.449 491.362,151.451 491.367,151.474C491.396,151.596 491.388,151.596 491.415,151.719L491.425,151.765C491.554,152.398 491.542,152.4 491.556,152.454C491.592,152.599 491.575,152.602 491.614,152.745C491.648,152.866 491.622,152.871 491.658,152.991C491.701,153.135 491.678,153.139 491.717,153.282C491.74,153.368 491.742,153.451 491.749,153.482C491.814,153.772 491.807,153.773 491.865,154.065C491.874,154.108 491.962,154.545 491.97,154.603C491.991,154.757 492.068,155.101 492.073,155.141C492.091,155.293 492.112,155.288 492.129,155.439C492.141,155.536 492.152,155.533 492.168,155.629C492.182,155.717 492.185,155.738 492.099,155.758C492.098,155.758 492.098,155.759 488.334,155.758C488.117,155.758 488.053,155.772 488.027,155.635C487.985,155.409 487.982,155.41 487.979,155.39C487.959,155.267 487.953,155.269 487.93,155.146C487.908,155.022 487.912,155.023 487.883,154.901C487.874,154.862 487.867,154.754 487.853,154.701C487.806,154.535 487.824,154.531 487.781,154.364C487.75,154.243 487.769,154.24 487.736,154.119C487.71,154.02 487.724,154.018 487.702,153.919C487.636,153.613 487.645,153.612 487.606,153.43C487.584,153.322 487.458,152.649 487.457,152.647C487.417,152.506 487.44,152.502 487.413,152.401C487.369,152.234 487.384,152.231 487.342,152.064C487.317,151.966 487.333,151.964 487.309,151.865C487.28,151.743 487.288,151.742 487.262,151.62C487.149,151.084 487.17,151.08 487.05,150.547C487.047,150.533 487.036,150.41 487.018,150.347C486.977,150.203 487.001,150.199 486.96,150.056C486.924,149.932 486.947,149.928 486.915,149.81C486.883,149.687 486.889,149.687 486.879,149.612C486.875,149.587 486.852,149.501 486.837,149.415C486.832,149.388 486.79,149.154 486.774,149.075C486.673,148.581 486.679,148.581 486.668,148.538C486.642,148.435 486.654,148.31 486.576,148.283C486.547,148.273 486.547,148.274 477.569,148.274C477.29,148.274 477.214,148.242 477.199,148.442C477.198,148.451 476.844,150.312 476.833,150.348C476.799,150.469 476.825,150.474 476.79,150.594C476.756,150.708 476.764,150.708 476.754,150.791C476.75,150.826 476.719,150.921 476.71,150.987C476.685,151.165 476.433,152.424 476.424,152.499C476.405,152.65 476.38,152.645 476.367,152.797C476.358,152.9 476.334,152.911 476.317,153.042C476.302,153.167 476.288,153.163 476.269,153.287C476.247,153.435 476.237,153.433 476.216,153.581C476.205,153.662 476.052,154.4 476.032,154.554C476.021,154.634 475.993,154.715 475.988,154.749C475.968,154.873 475.972,154.873 475.94,154.993C475.914,155.092 475.936,155.094 475.909,155.194C475.87,155.338 475.888,155.341 475.851,155.484C475.806,155.66 475.842,155.739 475.709,155.758C475.704,155.759 475.704,155.758 472.823,155.758C472.052,155.758 472.003,155.772 472.003,155.681C472.002,155.592 472.104,155.138 472.109,155.097C472.131,154.921 472.147,154.925 472.17,154.75C472.186,154.626 472.204,154.63 472.219,154.505C472.225,154.45 472.232,154.452 472.35,153.826C472.381,153.666 472.552,152.78 472.556,152.744C472.571,152.619 472.591,152.623 472.606,152.499C472.625,152.35 472.642,152.354 472.659,152.205C472.667,152.137 472.697,152.035 472.702,152.008C472.832,151.287 472.838,151.288 472.848,151.225C472.864,151.129 472.936,150.783 472.941,150.742C472.957,150.603 472.98,150.557 472.983,150.547C473.009,150.449 472.987,150.446 473.013,150.347L473.027,150.302C473.047,150.229 473.051,150.139 473.059,150.102C473.118,149.834 473.112,149.834 473.118,149.81C473.141,149.712 473.306,148.832 473.306,148.83C473.343,148.686 473.325,148.683 473.365,148.539C473.398,148.418 473.372,148.414 473.409,148.293C473.451,148.15 473.429,148.146 473.467,148.002C473.488,147.923 473.493,147.832 473.5,147.802C473.596,147.367 473.777,146.333 473.804,146.239C473.842,146.109 473.815,146.104 473.848,145.993C473.89,145.849 473.869,145.846 473.906,145.702C473.919,145.653 473.937,145.515 474.009,145.164C474.019,145.117 474.232,143.98 474.244,143.939C474.283,143.808 474.257,143.804 474.288,143.693C474.315,143.595 474.312,143.596 474.324,143.496C474.329,143.46 474.358,143.364 474.368,143.3C474.39,143.152 474.4,143.154 474.421,143.006C474.433,142.926 474.586,142.18 474.605,142.033C474.622,141.906 474.644,141.911 474.658,141.784C474.669,141.687 474.672,141.688 474.697,141.594C474.723,141.495 474.701,141.492 474.728,141.393C474.76,141.272 474.746,141.27 474.774,141.148C474.801,141.026 474.797,141.026 474.821,140.904C474.979,140.096 474.982,140.097 474.993,140.027C475.011,139.903 475.022,139.905 475.042,139.782C475.085,139.506 475.096,139.508 475.099,139.484C475.11,139.387 475.111,139.388 475.136,139.294C475.162,139.195 475.142,139.193 475.168,139.093C475.198,138.974 475.338,138.206 475.357,138.114C475.454,137.643 475.491,137.381 475.518,137.286C475.553,137.164 475.529,137.156 475.562,137.039C475.597,136.918 475.578,136.915 475.608,136.794C475.648,136.632 475.939,135.052 475.958,134.986C475.996,134.861 475.97,134.855 476.002,134.739C476.037,134.614 476.02,134.611 476.048,134.494C476.093,134.304 476.385,132.729 476.398,132.686C476.435,132.558 476.411,132.555 476.442,132.44C476.479,132.302 476.672,131.2 476.748,130.877L476.763,130.774C476.777,130.65 476.798,130.654 476.813,130.53C476.83,130.381 476.851,130.385 476.865,130.236C476.875,130.139 476.902,130.079 476.909,130.039C476.94,129.844 476.937,129.844 476.977,129.65C477.168,128.705 477.152,128.703 477.174,128.623C477.216,128.476 477.192,128.472 477.218,128.376C477.264,128.21 477.246,128.207 477.29,128.04C477.315,127.942 477.297,127.94 477.322,127.84C477.353,127.718 477.343,127.717 477.369,127.595C477.452,127.21 477.541,126.675 477.57,126.569C477.602,126.447 477.58,126.444 477.614,126.323C477.653,126.186 477.631,126.182 477.658,126.077C477.702,125.91 477.687,125.907 477.729,125.74C477.754,125.641 477.739,125.639 477.762,125.541C477.77,125.509 477.789,125.43 477.842,125.146C477.958,124.52 477.964,124.521 477.973,124.467C478.019,124.19 478.276,122.88 478.282,122.846C478.406,122.175 478.411,122.177 478.42,122.118C478.442,121.965 478.453,121.967 478.462,121.923C478.469,121.889 478.469,121.854 478.476,121.82ZM481.863,123.407C481.802,123.442 481.799,123.439 481.797,123.445C481.794,123.452 481.804,123.461 481.803,123.469C481.802,123.477 481.793,123.482 481.792,123.49C481.787,123.521 481.788,123.553 481.785,123.585C481.779,123.653 481.741,123.856 481.736,123.879C481.716,123.985 481.488,125.178 481.482,125.198C481.439,125.341 481.464,125.345 481.424,125.489C481.397,125.587 481.416,125.59 481.393,125.69C481.331,125.957 481.34,125.958 481.334,125.981C481.316,126.059 481.148,126.957 481.147,126.962C481.11,127.106 481.128,127.109 481.089,127.253C481.065,127.337 481.074,127.403 481.045,127.499C481.003,127.641 481.017,127.643 481.011,127.697C481.007,127.729 480.977,127.818 480.966,127.892C480.944,128.059 480.936,128.056 480.831,128.62C480.807,128.745 480.685,129.373 480.681,129.404C480.672,129.475 480.669,129.474 480.639,129.599C480.631,129.631 480.626,129.738 480.609,129.8C480.569,129.943 480.59,129.947 480.551,130.091C480.517,130.212 480.535,130.215 480.505,130.336C480.476,130.458 480.485,130.459 480.459,130.581C480.391,130.897 480.285,131.517 480.26,131.608C480.227,131.73 480.251,131.734 480.216,131.855C480.175,131.998 480.198,132.002 480.158,132.145C480.123,132.269 480.145,132.273 480.114,132.391C480.08,132.519 480.094,132.521 480.068,132.637C480.061,132.668 480.034,132.785 479.989,133.031C479.915,133.432 479.91,133.431 479.905,133.466C479.882,133.614 479.872,133.611 479.851,133.759C479.83,133.91 479.812,133.906 479.795,134.057C479.781,134.179 479.763,134.175 479.748,134.297C479.732,134.423 479.724,134.421 479.708,134.492C479.687,134.591 479.7,134.593 479.676,134.692C479.67,134.718 479.651,134.793 479.608,135.03C479.477,135.753 479.467,135.75 479.46,135.814C479.442,135.966 479.422,135.962 479.411,136.059C479.394,136.207 479.374,136.203 479.358,136.353C479.341,136.504 479.321,136.499 479.301,136.65C479.285,136.775 479.27,136.771 479.252,136.895C479.239,136.991 479.234,136.989 479.216,137.085C479.084,137.807 479.077,137.805 479.069,137.869C479.056,137.965 478.982,138.287 478.967,138.408C478.953,138.532 478.932,138.528 478.917,138.652C478.903,138.776 478.89,138.772 478.87,138.895C478.824,139.173 478.816,139.171 478.813,139.195C478.795,139.315 478.791,139.314 478.77,139.433C478.753,139.532 478.528,140.697 478.527,140.707C478.515,140.859 478.488,140.853 478.471,141.005L478.238,142.223C478.217,142.372 478.203,142.369 478.19,142.468C478.16,142.697 478.144,142.693 478.142,142.713C478.137,142.745 478.137,142.778 478.133,142.81C478.126,142.856 478.095,142.925 478.087,143.007C478.085,143.023 478.086,143.04 478.084,143.056C478.076,143.126 478.046,143.203 478.039,143.25C477.999,143.522 477.99,143.52 477.986,143.544C477.966,143.681 477.835,144.311 477.793,144.572C477.777,144.676 477.757,144.717 477.863,144.724L485.398,144.725C485.966,144.725 485.985,144.733 486.004,144.683C486.025,144.629 486.014,144.628 486.005,144.572C485.99,144.476 485.986,144.478 485.969,144.383C485.903,144.017 485.774,143.404 485.769,143.354C485.758,143.228 485.731,143.234 485.719,143.109C485.707,142.985 485.69,142.989 485.67,142.866C485.625,142.588 485.617,142.59 485.613,142.566C485.595,142.442 485.588,142.444 485.565,142.32C485.553,142.258 485.448,141.689 485.415,141.537C485.35,141.227 485.352,141.226 485.345,141.2C485.319,141.1 485.34,141.098 485.313,140.999C485.305,140.969 485.293,140.939 485.286,140.909C485.281,140.89 485.274,140.781 485.253,140.709C485.232,140.635 485.134,140.097 485.109,139.974C484.924,139.074 484.941,139.071 484.919,138.994L484.905,138.949C484.878,138.85 484.9,138.847 484.873,138.749C484.865,138.718 484.853,138.689 484.846,138.658C484.837,138.625 484.833,138.529 484.813,138.458C484.78,138.336 484.795,138.334 484.766,138.213C484.737,138.091 484.744,138.091 484.718,137.968C484.658,137.688 484.527,136.994 484.525,136.988C484.494,136.866 484.513,136.863 484.479,136.743C484.453,136.647 484.453,136.648 484.44,136.548C484.427,136.45 484.413,136.454 484.398,136.358C484.385,136.275 484.383,136.262 484.202,135.331L484.143,135.03C484.086,134.76 484.092,134.76 484.086,134.737C484.048,134.593 484.069,134.589 484.025,134.447C483.997,134.353 484.008,134.298 483.98,134.201C483.96,134.128 483.663,132.553 483.632,132.441C483.605,132.343 483.627,132.34 483.6,132.241C483.592,132.211 483.581,132.181 483.573,132.15C483.568,132.132 483.56,132.019 483.541,131.95C483.523,131.885 483.311,130.777 483.31,130.773C483.25,130.505 483.259,130.504 483.253,130.481C483.221,130.359 483.241,130.356 483.207,130.235C483.179,130.139 483.181,130.139 483.168,130.04C483.155,129.943 483.14,129.947 483.125,129.85C483.107,129.727 483.101,129.729 483.078,129.606C482.886,128.566 482.791,128.172 482.784,128.088C482.773,127.962 482.75,127.968 482.734,127.843C482.718,127.72 482.705,127.723 482.685,127.6C482.665,127.477 482.661,127.478 482.638,127.356C482.485,126.558 482.487,126.558 482.467,126.47C482.444,126.371 482.452,126.37 482.431,126.271C482.373,126.003 482.38,126.002 482.374,125.979C482.336,125.835 482.356,125.831 482.314,125.689C482.277,125.568 482.302,125.564 482.268,125.443C482.233,125.318 482.25,125.315 482.221,125.198C482.191,125.076 482.199,125.075 482.172,124.953C482.143,124.822 481.912,123.644 481.908,123.586C481.903,123.492 481.903,123.492 481.863,123.407ZM512.43,140.612C512.441,141.322 512.388,141.32 512.376,142.031C512.37,142.447 512.344,142.445 512.335,142.862C512.327,143.189 512.199,145.74 512.193,145.944C512.18,146.463 512.161,146.461 512.15,146.727C512.121,147.452 512.166,147.493 512.07,147.524C512.047,147.532 512.046,147.531 509.276,147.531C509.121,147.531 509.064,147.565 509.048,147.411C508.973,146.73 509.03,146.727 508.973,146.043C508.945,145.707 508.968,145.536 508.928,145.015C508.915,144.847 508.926,144.847 508.828,142.911C508.807,142.504 508.823,142.504 508.784,141.982C508.756,141.604 508.784,141.479 508.737,140.954C508.692,140.448 508.746,140.444 508.688,139.877C508.637,139.37 508.694,139.144 508.645,139.09C508.607,139.047 508.6,139.06 508.541,139.059L499.686,139.059C499.551,139.061 499.563,139.107 499.56,139.241C499.558,139.296 499.562,155.664 499.558,155.686C499.546,155.743 499.503,155.75 499.496,155.752C499.458,155.759 499.458,155.759 495.673,155.758C495.528,155.758 495.429,155.786 495.426,155.633L495.426,118.887C495.426,118.704 495.393,118.631 495.575,118.63L499.392,118.629C499.513,118.629 499.552,118.618 499.559,118.738C499.562,118.774 499.556,135.257 499.562,135.274C499.581,135.327 499.627,135.337 499.634,135.338C499.669,135.346 507.604,135.341 508.297,135.341C508.309,135.34 508.432,135.34 508.446,135.337C508.508,135.321 508.511,135.241 508.512,135.231C508.514,135.17 508.508,118.714 508.515,118.696C508.518,118.688 508.535,118.643 508.589,118.632C508.599,118.63 508.599,118.629 512.065,118.63C512.591,118.63 512.613,118.621 512.624,118.672C512.63,118.701 512.626,134.986 512.626,136.404C512.626,137.016 512.592,137.014 512.582,137.626C512.574,138.116 512.539,138.114 512.534,138.605C512.53,138.972 512.521,138.971 512.491,139.338C512.457,139.751 512.51,139.753 512.447,140.366C512.445,140.386 512.443,140.398 512.43,140.612ZM511.233,150.618C512.274,150.618 512.273,150.618 512.407,150.615C512.541,150.611 512.537,150.655 512.537,150.789L512.537,155.633C512.535,155.742 512.516,155.755 512.407,155.758L508.786,155.758C508.63,155.758 508.568,155.789 508.563,155.633L508.563,150.74C508.564,150.583 508.63,150.618 508.786,150.618L511.233,150.618ZM500.289,166.235C500.303,166.236 500.308,166.258 500.321,166.259C500.396,166.261 500.331,166.196 500.33,165.614C500.329,165.211 500.323,160.633 500.332,160.577C500.347,160.49 500.404,160.505 500.86,160.505C501.036,160.505 501.119,160.478 501.124,160.623L501.124,168.404C501.121,168.562 501.034,168.524 500.811,168.524C500.505,168.524 500.505,168.523 500.322,168.527C500.184,168.53 500.178,168.475 500.109,168.262C500.097,168.223 500.098,168.223 499.957,167.774C499.534,166.423 499.522,166.428 499.102,165.075C498.923,164.498 498.311,162.599 498.259,162.388C498.202,162.159 498.214,162.154 498.206,162.148C498.196,162.14 498.181,162.151 498.169,162.151C498.157,162.15 498.141,162.139 498.132,162.147C498.102,162.175 498.143,162.184 498.143,162.776C498.143,163.227 498.145,168.316 498.143,168.404C498.14,168.56 498.058,168.524 497.875,168.524C497.616,168.524 497.617,168.523 497.484,168.527C497.306,168.533 497.339,168.428 497.339,168.257C497.339,160.592 497.338,160.592 497.342,160.576C497.358,160.491 497.394,160.505 497.973,160.505C498.426,160.505 498.443,160.493 498.486,160.562C498.518,160.613 499.451,163.569 499.531,163.806L500.141,165.708C500.15,165.735 500.208,165.916 500.234,166.051C500.249,166.128 500.256,166.126 500.289,166.235ZM476.613,166.006C476.613,166.669 476.688,167.552 476.058,168.165C475.905,168.313 475.535,168.559 475.024,168.584C474.746,168.597 474.461,168.584 474.385,168.565C474.14,168.504 473.631,168.403 473.296,167.825C473.269,167.778 473.15,167.571 473.058,167.182C473.052,167.155 473.067,167.153 473.015,166.838C472.997,166.726 472.998,166.725 472.998,162.581C472.999,162.23 472.999,162.23 473.025,162.093C473.045,161.986 473.041,161.616 473.333,161.126C473.354,161.09 473.5,160.902 473.576,160.84C473.773,160.678 473.932,160.567 474.338,160.469C474.357,160.464 474.358,160.47 474.586,160.435C474.925,160.383 475.556,160.468 475.899,160.73C475.986,160.796 476.302,160.989 476.499,161.6C476.611,161.946 476.612,162.457 476.613,162.532C476.614,163.026 476.622,163.026 476.616,163.068C476.601,163.158 476.553,163.161 476.493,163.162C476.442,163.162 475.938,163.17 475.858,163.161C475.757,163.149 475.77,163.053 475.77,163.021C475.767,162.31 475.839,161.614 475.263,161.322C475.222,161.301 475.221,161.305 475.074,161.26C474.958,161.223 474.411,161.158 474.106,161.561C474.041,161.646 473.958,161.781 473.891,162.188C473.881,162.253 473.882,162.252 473.882,166.446C473.882,166.715 473.881,166.715 473.921,166.981C474.072,167.975 475.09,167.863 475.406,167.608C475.88,167.226 475.752,166.508 475.77,165.713C475.773,165.604 475.796,165.594 475.905,165.594C475.957,165.593 476.515,165.589 476.546,165.596C476.622,165.614 476.611,165.635 476.613,165.711L476.613,166.006ZM511.037,164.854L510.012,164.855C509.929,164.874 509.935,164.894 509.931,164.979L509.931,167.571C509.933,167.73 509.997,167.701 510.156,167.701C512.242,167.701 512.243,167.7 512.264,167.706C512.339,167.727 512.326,167.771 512.326,168.306C512.326,168.318 512.326,168.445 512.324,168.456C512.308,168.53 512.288,168.522 512.213,168.524C512.122,168.527 509.428,168.519 509.178,168.527C509.012,168.533 509.027,168.471 509.027,168.306C509.027,167.691 509.026,160.665 509.027,160.623C509.032,160.477 509.116,160.505 509.373,160.505C512.247,160.505 512.247,160.504 512.266,160.51C512.348,160.533 512.326,160.704 512.326,160.721C512.326,161.257 512.338,161.299 512.264,161.32C512.224,161.331 510.031,161.321 510.012,161.326C509.926,161.348 509.934,161.368 509.931,161.456C509.927,161.57 509.931,163.706 509.931,163.902C509.931,164.023 509.936,164.054 510.058,164.056C510.241,164.058 511.793,164.051 511.817,164.061C511.894,164.094 511.881,164.112 511.882,164.195C511.886,164.78 511.894,164.787 511.862,164.825C511.833,164.859 511.824,164.854 511.037,164.854ZM487.453,168.524C487.208,168.524 487.209,168.531 486.964,168.527C486.818,168.525 486.847,168.407 486.847,168.306C486.847,167.691 486.846,160.662 486.848,160.623C486.852,160.478 486.924,160.505 487.208,160.505C487.669,160.505 487.726,160.49 487.742,160.576C487.748,160.603 487.746,168.434 487.743,168.452C487.731,168.518 487.718,168.516 487.652,168.523L487.453,168.524Z"/>
            </g>
        </g>
    </g>
</svg>
