<?xml version="1.0" encoding="UTF-8" standalone="no"?>
<!DOCTYPE svg PUBLIC "-//W3C//DTD SVG 1.1//EN" "http://www.w3.org/Graphics/SVG/1.1/DTD/svg11.dtd">
<svg width="100%" height="100%" viewBox="0 0 254 100" version="1.1" xmlns="http://www.w3.org/2000/svg" xmlns:xlink="http://www.w3.org/1999/xlink" xml:space="preserve" xmlns:serif="http://www.serif.com/" style="fill-rule:evenodd;clip-rule:evenodd;stroke-linejoin:round;stroke-miterlimit:2;">
    <g transform="matrix(1,0,0,1,-2490.3,-572.385)">
        <g transform="matrix(1,0,0,1,2126.17,0)">
            <g transform="matrix(2.00998,0,0,2.00998,243.245,549.306)">
                <path d="M85.294,61.193C83.959,61.142 83.971,61.062 82.647,60.915C81.557,60.795 78.095,60.061 74.987,58.426C74.22,58.022 74.233,58.006 73.482,57.576C69.921,55.537 65.92,51.689 63.649,46.703C62.3,43.742 62.467,43.498 62.04,42.114C61.543,40.502 61.616,39.001 61.353,38.486C61.207,38.199 60.297,37.983 60.161,36.833C59.974,35.245 61.084,34.904 61.208,34.815C61.66,34.489 61.658,32.716 61.791,31.804C61.985,30.469 62.603,28.539 62.651,28.41C62.805,27.995 65.442,18.777 75.752,13.922C77.875,12.922 79.77,12.442 80.238,12.298C81.377,11.947 84.619,11.525 85.064,11.51C88.183,11.4 89.339,11.629 91.286,11.949C92.619,12.167 92.595,12.26 93.714,12.542C95.396,12.965 97.4,13.937 97.556,14C98.105,14.22 98.705,14.603 98.795,14.651C101.49,16.075 103.319,17.829 104.075,18.54C107.46,21.727 109.726,26.38 110.481,28.927C111.11,31.051 111.107,31.051 111.508,33.233C111.669,34.103 111.544,34.455 111.718,34.667C111.859,34.838 113.188,35.465 112.884,36.839C112.614,38.053 111.94,38.218 111.763,38.355C111.613,38.472 111.591,38.489 111.295,40.695C110.989,42.975 109.78,45.91 109.616,46.239C109.424,46.624 108.283,49.348 105.898,52.17C101.803,57.015 97.758,58.564 96.778,59.081C96.617,59.166 96.428,59.266 94.677,59.931C94.268,60.086 91.953,60.705 91.756,60.74C88.233,61.382 85.811,61.227 85.294,61.193ZM108.95,36.358C109.06,35.488 109.081,35.463 109.711,34.85C110.028,34.541 110.036,34.417 109.827,32.755C109.717,31.878 109.063,29.4 108.87,28.901C108.294,27.41 108.316,27.403 108.257,27.278C107.631,25.939 107.644,25.934 107.582,25.822C106.657,24.14 106.383,23.753 106.263,23.583C105.497,22.5 104.554,20.955 101.821,18.647C99.41,16.611 96.472,15.234 95.143,14.747C93.072,13.987 92.478,13.913 92.021,13.788C91.721,13.706 90.123,13.269 88.171,13.188C86.401,13.115 79.713,12.504 72.899,17.282C66.621,21.684 64.297,28.557 64.239,28.706C64.117,29.018 63.286,31.146 63.144,32.755C62.964,34.79 63.318,34.798 63.447,34.933C64.567,36.1 64.086,37.546 63.381,38.198C63.04,38.512 63.061,38.554 63.116,39.012C63.291,40.471 63.349,40.458 63.64,41.895C63.984,43.597 65.094,46.093 65.3,46.481C65.892,47.598 67.963,51.895 73.104,55.493C75.083,56.878 77.925,58.259 80.278,58.836C82.927,59.485 83.058,59.417 83.848,59.497C87.106,59.828 90.195,59.417 91.07,59.211C91.224,59.175 92.344,58.912 92.993,58.741C93.549,58.594 95.491,57.885 95.569,57.852C99.076,56.352 101.358,54.433 101.804,54.057C109.248,47.795 109.909,39.522 109.951,38.995C110.021,38.133 109.586,38.199 109.252,37.588C108.852,36.856 108.956,36.487 108.95,36.358ZM106.281,36.362C106.29,36.767 106.328,38.472 105.644,41.388C105.612,41.523 105.074,43.279 104.816,43.837C104.323,44.901 102.671,49.274 97.572,52.736C96.006,53.8 95.038,54.173 94.462,54.456C93.917,54.724 92.241,55.295 92.025,55.35C89.92,55.878 88.927,55.977 88.654,56.005C78.651,57.013 71.761,50.821 69.145,45.759C68.782,45.058 68.145,44.06 67.286,40.925C67.272,40.875 66.621,37.697 66.781,35.639C66.929,33.747 67.059,31.487 68.599,28.01C68.637,27.924 68.657,27.936 69.148,26.967C70.171,24.946 72.972,21.033 77.573,18.75C79.672,17.708 80.491,17.531 81.431,17.294C82.026,17.144 84.36,16.356 88.415,16.708C90.568,16.895 97.135,17.817 102.269,24.415C102.875,25.194 104.053,27.091 104.429,27.991C104.662,28.549 105.484,30.321 105.849,32.298C106.39,35.227 106.281,35.992 106.281,36.362ZM79.765,44.893C80.445,44.781 80.442,44.786 80.5,44.772C80.994,44.658 81.353,44.595 81.401,44.274C81.415,44.178 81.317,43.075 81.186,42.369C81.178,42.33 81.12,42.018 80.948,41.946C80.683,41.835 78.782,42.402 77.558,41.486C74.988,39.563 75.756,35.165 75.855,34.429C76.101,32.602 77.133,31.249 78.334,30.831C79.956,30.266 80.711,31.133 81.077,30.68C81.16,30.578 81.625,28.764 81.53,28.42C81.342,27.739 78.91,27.665 77.849,27.927C76.232,28.325 75.71,28.769 75.454,28.918C74.438,29.507 72.131,31.801 71.948,36.128C71.908,37.064 72.03,38.185 72.05,38.29C72.493,40.649 73.001,41.822 73.968,42.886C76.094,45.228 78.994,44.933 79.765,44.893ZM97.057,44.843C98.64,44.843 99.025,44.974 99.065,44.288C99.065,44.283 99.07,28.501 99.062,28.432C98.993,27.848 98.667,27.954 96.818,27.954C95.882,27.954 95.465,27.745 95.492,28.683C95.509,29.274 95.507,29.273 95.507,38.522C95.507,44.553 95.487,44.595 95.642,44.733C95.807,44.882 96.534,44.843 97.057,44.843ZM84.449,35.402C84.449,44.321 84.438,44.332 84.531,44.546C84.689,44.912 85.272,44.844 86.738,44.843C87.673,44.843 88.03,44.98 88.044,44.044C88.047,43.882 88.044,38.324 88.047,38.289C88.099,37.746 88.538,37.787 88.657,37.785C91.712,37.723 91.83,37.872 91.993,37.55C92.066,37.405 92.051,36.731 92.05,36.122C92.05,36.052 92.048,35.38 91.926,35.25C91.698,35.007 90.061,35.143 88.659,35.111C88.115,35.099 88.066,34.988 88.061,34.444C88.058,34.177 88.03,31.186 88.056,31.103C88.176,30.728 88.259,30.763 88.654,30.755C89.051,30.748 91.896,30.774 91.989,30.734C92.023,30.719 92.229,30.631 92.277,30.365C92.291,30.286 92.286,28.478 92.282,28.439C92.227,27.916 91.866,27.955 91.537,27.954C91,27.952 85.01,27.929 84.818,27.965C84.397,28.044 84.466,28.224 84.466,31.082C84.466,34.859 84.468,34.856 84.449,35.402ZM163.779,27.871C165.111,27.974 166.758,28.353 166.696,31.562C166.687,32.005 166.514,33.877 165.212,34.429C164.275,34.826 164.131,34.758 163.057,34.757C162.612,34.756 162.257,34.808 162.232,34.21C162.229,34.139 162.231,28.95 162.23,28.922C162.211,28.031 162.401,27.961 163.291,27.888C163.33,27.885 163.327,27.887 163.779,27.871ZM165.104,32.029C165.149,31.168 165.265,30.171 164.738,29.401C164.492,29.041 163.786,28.86 163.685,29.379C163.667,29.47 163.674,33.222 163.68,33.263C163.794,33.995 164.422,33.489 164.473,33.448C164.978,33.041 165.043,32.345 165.104,32.029ZM161.022,40.912C161.024,40.901 160.989,40.613 161.368,39.479C161.534,38.984 162.132,37.942 163.304,37.891C166.177,37.767 166.185,42.838 164.916,44.231C164.224,44.989 162.121,45.455 161.339,43.336C160.849,42.01 160.999,41.24 161.022,40.912ZM162.664,42.588C162.664,42.59 162.704,43.096 162.958,43.405C163.352,43.886 164.161,43.694 164.182,41.641C164.185,41.321 164.323,39.082 163.291,39.19C162.222,39.303 162.627,42.314 162.664,42.588ZM124.418,34.792C124.344,34.786 123.946,34.894 123.21,34.453C122.838,34.231 122.082,33.334 122.053,31.801C122.028,30.521 122.057,29.541 122.971,28.436C123.553,27.733 124.97,27.545 125.878,28.42C126.808,29.317 127.243,32.525 125.861,34.205C125.673,34.433 125.177,34.694 124.914,34.751C124.875,34.76 124.878,34.754 124.418,34.792ZM125.27,31.326C125.173,30.649 125.18,30.653 125.166,30.595C124.98,29.829 124.765,29.072 124.406,29.038C123.349,28.939 123.252,33.231 124.146,33.545C124.731,33.75 124.947,32.977 125.026,32.728C125.244,32.042 125.253,32.043 125.27,31.326ZM147.933,34.79C147.769,34.767 147.673,34.816 147.234,34.644C147.073,34.581 146.198,34.238 145.877,32.974C145.138,30.058 146.595,26.741 149.159,28.165C150.215,28.752 150.469,30.904 150.343,31.803C150.178,32.98 149.909,34.072 149.168,34.492C148.463,34.891 148.031,34.786 147.933,34.79ZM148.786,31.322C148.777,31.08 148.772,31.085 148.767,30.839C148.765,30.694 148.737,29.296 148.194,29.124C147.17,28.801 147.102,31.225 147.285,32.512C147.473,33.835 148.222,33.665 148.461,33.273C148.833,32.662 148.783,32.04 148.786,31.322ZM119.133,44.867C119.086,44.864 118.287,44.888 118.144,44.539C118.075,44.369 118.08,44.362 118.081,39.242C118.081,38.343 117.997,38.045 118.895,37.994C120.472,37.905 121.241,38.213 121.74,38.794C122.33,39.48 122.524,40.833 122.448,41.637C122.375,42.403 122.16,43.716 121.302,44.287C120.267,44.976 119.152,44.866 119.133,44.867ZM120.946,41.163C120.877,40.193 120.85,40.181 120.788,39.971C120.485,38.938 119.507,38.912 119.428,39.49C119.411,39.614 119.415,43.229 119.426,43.315C119.431,43.36 119.482,43.761 119.848,43.703C120.998,43.52 120.942,41.471 120.946,41.163ZM152.022,44.872C151.724,44.85 151.316,45.039 151.144,44.266C151.128,44.192 151.163,44.187 150.977,43.34C150.64,41.812 150.078,42.11 150.014,42.312C149.915,42.624 150.148,44.444 149.831,44.731C149.687,44.861 148.713,45.069 148.574,44.547C148.53,44.379 148.549,38.55 148.556,38.509C148.635,37.989 148.904,37.933 150.339,37.943C150.494,37.944 151.524,37.951 152.159,38.615C152.641,39.118 152.806,40.292 152.151,41.073C151.823,41.464 151.65,41.506 151.928,41.932C152.28,42.471 152.387,43.001 152.407,43.1C152.671,44.403 152.694,44.401 152.685,44.516C152.661,44.792 152.321,44.85 152.279,44.857C152.194,44.871 152.106,44.858 152.022,44.872ZM150.969,39.531C150.918,39.466 150.377,38.776 150.012,39.151C149.973,39.19 149.849,39.175 149.887,40.441C149.914,41.337 150.653,40.984 150.844,40.704C151.278,40.068 151.056,39.812 150.969,39.531ZM172.896,34.794C172.811,34.781 172.723,34.801 172.639,34.788C172.172,34.716 172.237,34.382 172.237,33.962C172.236,28.381 172.234,28.376 172.286,28.256C172.322,28.171 172.42,27.941 173.374,27.893C176.619,27.729 176.256,29.851 176.255,29.882C176.202,31.029 175.486,31.162 175.493,31.563C175.497,31.774 175.553,31.755 175.739,32.064C176.143,32.735 176.425,34.185 176.333,34.48C176.239,34.783 175.303,34.81 175.082,34.648C174.67,34.346 174.723,31.987 173.864,32.078C173.457,32.121 173.733,33.265 173.712,34.204C173.695,34.929 173.294,34.801 172.896,34.794ZM174.721,29.458C174.663,29.388 174.034,28.619 173.622,29.165C173.539,29.275 173.547,30.045 173.551,30.365C173.564,31.377 174.459,30.784 174.583,30.606C175.027,29.967 174.792,29.693 174.721,29.458ZM136.066,39.242C136.067,38.293 135.958,37.881 136.903,37.99C136.946,37.995 137.272,38.033 137.342,38.293C137.384,38.451 137.409,44.218 137.328,44.506C137.189,44.997 136.245,44.94 135.987,44.708C135.761,44.505 135.103,42.764 135.045,42.578C134.654,41.324 134.692,41.314 134.643,41.211C134.622,41.165 134.569,41.139 134.543,41.095C134.516,41.048 134.534,40.966 134.485,40.941C134.27,40.832 134.204,41.094 134.197,41.121C134.15,41.31 134.443,43.978 134.269,44.526C134.133,44.953 133.457,44.882 133.274,44.811C132.925,44.673 132.977,44.546 132.977,40.682C132.977,38.383 132.862,38.098 133.533,38.009C134.543,37.875 134.659,38.81 135.159,39.987C135.854,41.623 135.685,41.692 135.792,41.802C135.833,41.845 136.071,41.856 136.109,41.822C136.219,41.72 136.159,41.215 136.153,41.162C136.063,40.405 136.068,40.409 136.066,39.242ZM130.661,31.797L130.878,31.774C130.904,31.733 130.999,31.806 131.025,31.765C131.136,31.588 130.863,31.575 130.86,29.162C130.858,28.242 130.7,27.851 131.621,27.888C132.327,27.916 132.195,28.332 132.195,29.642C132.195,34.442 132.216,34.48 132.057,34.638C131.949,34.745 131.113,35.025 130.701,34.414C130.694,34.403 129.84,32.68 129.498,31.541C129.352,31.056 129.285,31.078 129.248,31.028C129.22,30.992 129.225,30.905 129.18,30.909C128.925,30.931 128.903,31.259 128.901,31.297C128.887,31.51 128.985,31.507 128.981,33.962C128.98,34.129 129.109,34.854 128.249,34.753C127.852,34.707 127.806,34.474 127.797,34.201C127.797,34.183 127.793,28.561 127.8,28.444C127.844,27.718 128.987,27.776 129.247,28.179C129.327,28.302 129.388,28.396 129.965,29.87C130.241,30.573 130.334,31.245 130.661,31.797ZM168.292,40.997C167.997,41.181 167.981,41.165 167.975,41.194C167.963,41.251 168.014,41.305 168.02,41.363C168.161,42.629 168.115,44.049 168.107,44.283C168.078,45.18 167.07,44.793 166.989,44.687C166.875,44.537 166.89,44.514 166.89,39.722C166.89,38.514 166.723,38.04 167.617,38.058C168.463,38.076 168.393,38.524 169.247,40.705C169.548,41.474 169.5,41.886 169.77,42.369C169.906,42.613 170.176,42.533 170.203,42.346C170.232,42.148 170.186,42.154 170.104,41.883C169.896,41.198 169.894,38.513 169.998,38.272C170.098,38.042 171.039,37.806 171.119,38.529C171.123,38.571 171.121,43.38 171.121,43.802C171.12,44.547 171.24,44.836 170.499,44.844C169.91,44.85 169.76,44.753 169.582,44.265C169.323,43.55 169.267,43.579 168.997,42.865C168.505,41.565 168.556,41.548 168.506,41.438C168.483,41.387 168.43,41.354 168.405,41.304C168.394,41.28 168.397,41.281 168.292,40.997ZM177.931,34.786C177.471,34.734 177.471,34.745 177.434,34.73C177.251,34.657 177.239,34.469 177.237,34.441C177.232,34.368 177.343,33.973 177.354,33.933C177.847,32.177 177.7,32.146 178.188,30.125C178.581,28.494 178.354,27.873 179.379,27.891C180.496,27.909 180.506,28.165 180.607,28.676C180.799,29.649 180.842,29.636 181.012,30.61C181.204,31.702 181.206,31.698 181.426,32.784C181.715,34.203 181.981,34.643 181.316,34.768C180.545,34.912 180.459,34.736 180.313,33.966C180.196,33.354 180.247,33.171 179.624,33.143C178.787,33.106 178.849,33.384 178.689,34.208C178.537,34.992 178.172,34.757 177.931,34.786ZM179.433,29.922C179.279,30.635 178.999,31.727 179.226,31.938C179.37,32.071 179.967,32.168 179.936,31.56C179.905,30.962 179.86,30.968 179.841,30.367C179.84,30.331 179.828,29.942 179.796,29.919C179.784,29.91 179.8,29.976 179.614,29.977C179.514,29.978 179.531,29.921 179.433,29.922ZM140.904,42.564C140.932,42.22 141.211,38.824 141.454,38.28C141.686,37.763 142.845,38.108 142.857,38.115C143.2,38.325 142.899,38.645 142.447,40.689C142.387,40.957 142.35,40.945 141.61,44.021C141.455,44.665 141.317,44.922 140.494,44.871C139.64,44.819 139.792,44.501 139.44,43.107C138.984,41.294 139.053,41.284 138.593,39.478C138.382,38.653 138.321,38.37 138.472,38.2C138.759,37.875 139.64,37.942 139.803,38.266C139.938,38.531 140.293,40.459 140.332,40.91C140.344,41.043 140.474,42.514 140.54,42.568C140.562,42.586 140.565,42.568 140.904,42.564ZM169.145,32.762C169.157,33.258 169.085,33.558 169.776,33.566C169.936,33.568 170.097,33.566 170.257,33.566C170.547,33.567 171.04,33.497 171.011,34.203C170.997,34.524 170.904,34.731 170.504,34.754C170.483,34.756 168.166,34.763 168.086,34.749C167.605,34.667 167.682,34.458 167.682,31.322C167.682,28.241 167.639,28.163 167.89,28.021C168.119,27.891 170.658,27.959 170.733,27.979C171.1,28.075 171.329,28.973 170.504,29.008C170.077,29.026 169.036,28.781 169.138,30.113C169.223,31.221 170.89,29.908 170.928,31.084C170.947,31.701 170.579,31.71 170.256,31.712C169.575,31.716 169.574,31.711 169.521,31.721C169.132,31.8 169.146,32.274 169.145,32.285C169.136,32.444 169.154,32.603 169.145,32.762ZM175.058,43.685C175.408,43.675 175.996,43.53 175.937,44.272C175.896,44.793 175.568,44.835 175.301,44.842C175.107,44.848 173.169,44.904 172.879,44.816C172.526,44.709 172.584,44.56 172.584,41.642C172.584,38.342 172.554,38.291 172.744,38.151C172.94,38.007 175.478,37.997 175.684,38.156C175.84,38.277 176.071,39.115 175.295,39.157C174.482,39.202 174.094,38.903 174.077,39.721C174.076,39.791 174.062,40.437 174.201,40.581C174.559,40.951 175.837,40.168 175.706,41.394C175.607,42.313 174.128,41.294 174.078,42.361C174.025,43.516 174.148,43.628 174.565,43.666C174.604,43.67 174.602,43.668 175.058,43.685ZM146.498,43.685L146.966,43.673C147.238,43.736 147.267,43.743 147.334,44.014C147.526,44.796 146.823,44.837 146.742,44.842C146.144,44.876 144.748,44.847 144.574,44.844C143.861,44.829 143.994,44.435 143.994,43.082C143.994,38.422 143.985,38.413 144.054,38.257C144.151,38.037 144.33,38.049 146.497,38.057C146.592,38.057 147.196,37.973 147.25,38.519C147.369,39.704 145.674,38.681 145.481,39.467C145.476,39.488 145.386,40.41 145.609,40.602C145.896,40.847 146.879,40.463 147.057,40.873C147.165,41.121 147.214,41.75 146.728,41.817C145.86,41.935 145.5,41.625 145.465,42.356C145.41,43.536 145.538,43.643 146.009,43.668L146.498,43.685ZM140.257,33.566C140.415,33.572 140.573,33.562 140.731,33.568C140.808,33.571 141.344,33.592 141.172,34.429C141.089,34.835 140.689,34.757 139.057,34.757C138.98,34.757 138.182,34.757 138.094,34.687C137.868,34.507 137.9,34.455 137.899,31.562C137.898,28.232 137.861,28.146 138.122,28.012C138.287,27.928 140.722,27.898 140.937,28.03C141.183,28.182 141.268,28.92 140.763,29.025C140.629,29.052 139.699,28.946 139.51,29.133C139.383,29.259 139.378,29.602 139.377,29.644C139.369,30.28 139.33,30.643 140.017,30.591C140.367,30.565 140.999,30.363 141.028,31.08C141.074,32.2 139.643,31.345 139.426,31.993C139.35,32.217 139.38,33.195 139.39,33.224C139.531,33.643 139.976,33.562 140.257,33.566ZM125.858,43.685C126.213,43.674 126.969,43.504 126.889,44.29C126.818,44.984 126.149,44.844 125.617,44.844C124.139,44.844 123.706,44.912 123.587,44.574C123.528,44.408 123.533,44.402 123.533,39.002C123.533,38.349 123.472,38.066 124.178,38.057C126.37,38.031 126.374,38.032 126.547,38.11C126.825,38.236 126.987,39.106 126.33,39.156C126.219,39.164 125.676,39.138 125.619,39.136C124.933,39.103 124.97,39.537 124.989,40.197C125.022,41.355 126.594,40 126.672,41.155C126.701,41.582 126.73,41.672 126.324,41.812C126.18,41.861 125.194,41.688 125.046,42.075C124.977,42.257 124.987,43 124.988,43.08C124.997,43.722 125.219,43.654 125.858,43.685ZM157.878,33.002L157.878,28.683C157.894,28.102 157.918,27.96 158.497,27.952C160.693,27.923 160.7,27.927 160.864,28.022C161.053,28.132 161.095,28.541 161.056,28.67C160.935,29.078 160.844,29.054 160.416,29.034C160.338,29.03 159.586,28.995 159.446,29.152C159.393,29.211 159.249,29.371 159.342,30.139C159.47,31.205 160.898,29.956 160.947,31.08C160.981,31.88 160.284,31.679 160.174,31.676C159.074,31.649 159.289,32.134 159.362,33.013C159.421,33.711 159.716,33.492 160.416,33.522C161.611,33.573 161.206,34.573 161.113,34.654C160.954,34.79 160.931,34.79 158.496,34.757C158.1,34.751 158.015,34.795 157.889,34.421C157.874,34.376 157.878,33.231 157.878,33.002ZM178.18,44.865C177.975,44.854 176.788,44.936 176.883,44.028C176.976,43.145 177.872,43.896 178.657,43.561C179.08,43.38 179.462,42.61 178.386,41.935C178.098,41.754 177.858,41.706 177.407,41.207C176.235,39.91 177.205,37.854 179.134,37.899C180.765,37.936 180.228,39.033 180.032,39.14C179.709,39.315 178.437,38.873 178.379,39.719C178.3,40.869 181.09,41.012 180.532,43.311C180.507,43.414 180.366,43.991 179.77,44.404C179.244,44.768 178.312,44.853 178.18,44.865ZM154.896,44.863C154.444,44.836 154.447,44.839 154.408,44.834C153.181,44.675 153.64,43.586 153.926,43.521C154.03,43.497 154.376,43.569 154.415,43.578C154.527,43.601 155.45,43.794 155.818,43.292C156.564,42.275 154.019,41.818 153.74,40.194C153.503,38.819 154.786,37.664 156.356,37.925C156.453,37.941 157.266,38.076 156.995,38.979C156.82,39.565 155.876,38.794 155.297,39.412C154.66,40.09 156.076,40.815 156.296,40.98C157.352,41.771 157.853,43.088 156.887,44.108C156.211,44.822 155.421,44.831 154.896,44.863ZM134.499,34.793C134.013,34.776 133.991,34.867 133.554,34.65C133.265,34.506 133.256,34.246 133.255,34.203C133.253,34.128 133.357,33.633 133.406,33.562C133.672,33.179 134.725,33.953 135.304,33.317C135.625,32.963 135.44,32.598 135.412,32.543C134.991,31.713 133.861,31.706 133.323,30.351C132.807,29.05 134.012,27.984 135.45,27.859C136.994,27.725 136.537,28.991 136.371,29.096C136.165,29.227 135.6,28.949 135.192,29.098C134.852,29.222 134.299,29.942 135.535,30.728C135.594,30.766 137.121,31.444 136.962,33.008C136.856,34.051 135.876,34.463 135.732,34.523C134.998,34.831 134.931,34.769 134.499,34.793ZM153.586,29.162C153.586,29.082 153.589,28.282 153.636,28.168C153.647,28.141 153.701,28.008 153.938,27.963C154.041,27.944 156.307,27.953 156.338,27.956C157.027,28.028 156.844,28.867 156.609,28.974C156.28,29.125 155.372,28.899 155.151,29.172C155.047,29.3 155.055,30.047 155.056,30.124C155.06,30.525 155.011,30.616 155.396,30.742C155.434,30.755 156.287,30.728 156.365,30.746C156.896,30.865 156.667,31.739 156.593,31.815C156.341,32.078 155.416,31.865 155.185,32.091C155.016,32.255 155.056,32.818 155.056,33.722C155.055,34.465 155.161,34.745 154.419,34.757C153.833,34.766 153.541,34.782 153.569,33.962C153.588,33.408 153.586,33.41 153.586,29.162ZM120.819,27.851C120.962,27.87 121.642,27.657 121.473,28.67C121.349,29.412 120.516,28.657 119.67,29.684C118.897,30.623 118.921,33.528 120.814,33.598C121.368,33.619 121.508,33.645 121.499,34.203C121.484,35.11 119.587,34.913 118.701,34.154C118.11,33.647 117.888,32.912 117.851,32.789C117.672,32.196 117.397,31.427 117.931,29.88C118.341,28.693 119.469,27.899 120.572,27.854C120.654,27.85 120.737,27.854 120.819,27.851ZM185.137,33.566C185.676,33.655 185.881,33.441 186.009,33.971C186.018,34.006 186.044,34.495 185.848,34.669C185.754,34.751 185.739,34.764 183.457,34.757C182.785,34.755 182.694,34.638 182.692,33.962C182.691,33.52 182.676,28.615 182.695,28.438C182.749,27.926 183.09,27.951 183.457,27.952C184.342,27.955 184.181,28.357 184.181,29.642C184.181,33.303 184.141,33.4 184.403,33.511C184.499,33.551 184.628,33.561 184.648,33.562C184.895,33.581 184.892,33.548 185.137,33.566ZM142.657,34.794C142.181,34.771 142.183,34.781 142.143,34.769C141.733,34.646 141.897,33.759 142.146,33.665C142.317,33.6 142.503,33.582 142.676,33.523C142.741,33.501 142.799,33.462 142.855,33.423C143.28,33.124 143.215,33.018 143.215,29.642C143.215,28.392 143.063,27.967 143.857,27.953C144.347,27.943 144.615,27.953 144.665,28.432C144.7,28.768 144.67,32.416 144.668,32.763C144.666,32.923 144.657,34.08 143.79,34.562C143.274,34.849 143.249,34.773 142.657,34.794ZM130.899,44.844C130.671,44.814 130.223,44.966 130.204,44.281C130.171,43.062 130.2,39.204 130.204,38.762C130.207,38.261 130.25,38.048 130.897,38.057C131.445,38.065 131.527,38.256 131.529,38.763C131.531,39.222 131.55,44.399 131.515,44.501C131.377,44.903 130.909,44.842 130.899,44.844ZM159.853,43.082C159.853,43.324 159.857,44.453 159.84,44.503C159.71,44.889 159.621,44.842 159.218,44.844C158.455,44.848 158.542,44.565 158.541,43.802C158.537,38.355 158.565,38.357 158.58,38.314C158.702,37.978 159.484,38.029 159.652,38.122C159.838,38.225 159.849,38.493 159.85,38.529C159.853,38.586 159.853,38.91 159.853,43.082Z"/>
            </g>
        </g>
    </g>
</svg>
