<?xml version="1.0" encoding="UTF-8" standalone="no"?>
<!DOCTYPE svg PUBLIC "-//W3C//DTD SVG 1.1//EN" "http://www.w3.org/Graphics/SVG/1.1/DTD/svg11.dtd">
<svg width="100%" height="100%" viewBox="0 0 117 150" version="1.1" xmlns="http://www.w3.org/2000/svg" xmlns:xlink="http://www.w3.org/1999/xlink" xml:space="preserve" xmlns:serif="http://www.serif.com/" style="fill-rule:evenodd;clip-rule:evenodd;stroke-linejoin:round;stroke-miterlimit:2;">
    <g transform="matrix(1,0,0,1,-3128.74,-539)">
        <g transform="matrix(1,0,0,1,2126.17,0)">
            <g transform="matrix(2.01763,0,0,2.01763,207.359,496.347)">
                <path d="M422.223,30.425C422.38,29.339 422.199,29.277 422.711,27.563C422.913,26.885 423.725,25.095 424.476,24.265C424.76,23.952 426.09,22.239 428.969,21.537C430.809,21.088 432.434,21.137 433.057,21.146C433.47,21.152 433.833,21.152 433.78,21.811C433.684,23.014 433.516,25.492 431.743,28.208C431.531,28.531 430.236,29.907 429.403,30.356C426.522,31.91 423.511,31.714 423.188,31.806C422.812,31.912 422.897,32.422 422.895,33.57C422.892,35.176 422.892,43.806 422.896,43.895C422.938,44.716 423.601,44.361 424.668,44.556C425.392,44.688 427.283,44.947 429.224,45.797C429.264,45.815 430.633,46.492 431.309,46.886C431.901,47.23 433.317,48.315 433.503,48.487C434.252,49.179 434.265,49.161 434.954,49.912C436.481,51.58 436.671,52.178 437.189,52.98C437.764,53.872 438.889,56.362 439.209,58.786C439.267,59.223 439.359,59.287 439.377,59.968C439.458,63.211 439.288,63.203 439.169,64.062C439.125,64.377 438.952,65.627 438.079,67.883C437.722,68.806 436.578,70.864 435.425,72.183C433.814,74.027 433.715,74.058 432.578,74.063C429.492,74.077 429.494,74.088 429.226,74.082C429.187,74.08 428.831,74.071 428.977,73.65C428.99,73.611 429.982,72.696 430.079,71.002C430.183,69.171 428.988,67.846 428.742,67.646C428.289,67.277 427.619,66.623 426.099,66.439C424.611,66.259 422.858,67.208 422.262,68.134C421.632,69.113 421.209,69.94 421.429,71.505C421.562,72.447 422.187,73.306 422.265,73.406C422.441,73.632 422.527,73.606 422.501,73.892C422.484,74.083 422.438,74.078 422.248,74.086C421.808,74.102 421.813,74.066 416.737,74.066C411.707,74.066 411.699,74.068 411.426,73.966C410.93,73.782 410.006,72.681 409.899,72.554C409.465,72.037 407.594,70.176 406.375,66.464C405.94,65.14 405.809,64.015 405.784,63.798C405.752,63.526 405.54,62.979 405.563,61.409C405.581,60.205 405.518,60.2 405.753,59.021C405.832,58.627 405.764,58.62 405.956,57.815C406.092,57.248 406.27,56.258 406.904,54.694C407.098,54.215 408.097,52.326 408.635,51.613C409.794,50.076 411.602,47.787 415.286,46.029C417.115,45.156 418.031,44.955 420.327,44.554C421.375,44.372 422.027,44.698 422.071,43.894C422.072,43.869 422.067,37.231 422.071,35.251C422.072,34.969 422.17,34.214 421.762,34.092C421.343,33.967 418.75,34.136 416.646,32.232C414.595,30.377 414.455,26.699 414.613,26.388C414.7,26.215 414.896,26.033 416.748,26.306C418.413,26.55 420.117,27.439 420.969,28.598C421.859,29.807 421.787,30.303 421.852,30.397C421.869,30.422 421.877,30.399 422.223,30.425ZM425.377,47.398C425.172,47.404 424.368,47.302 422.964,48.191C421.486,49.127 420.009,52.027 422.138,54.554C424.963,57.908 430.317,55.454 429.765,51.083C429.615,49.893 428.665,48.755 428.411,48.546C426.839,47.25 425.397,47.398 425.377,47.398ZM419.73,61.406C419.745,61.494 419.694,61.883 420.074,62.624C420.9,64.237 423.456,64.75 424.816,62.794C425.417,61.929 425.647,59.83 423.67,58.828C422.202,58.083 420.169,59.01 419.795,60.676C419.782,60.733 419.79,60.73 419.73,61.406ZM413.601,71.58C415.099,71.788 415.734,71.56 416.736,71.008C417.996,70.314 419.355,68.25 418.626,65.981C418.036,64.144 415.309,61.574 411.92,63.786C411.026,64.37 410.248,65.679 410.157,66.68C410.13,66.983 409.755,69.195 411.909,70.81C412.558,71.297 413.457,71.541 413.601,71.58ZM418.244,57.362C418.373,57.05 418.498,56.895 418.652,55.89C418.769,55.129 418.421,54.135 418.361,53.993C416.934,50.611 413.167,50.692 411.437,52.267C409.343,54.175 409.571,56.985 411.289,58.697C412.281,59.686 413.819,59.935 414.573,59.868C417.176,59.637 417.994,57.82 418.244,57.362ZM431.402,56.946C431.298,56.984 430.49,57.277 430.143,57.519C430.105,57.545 428.5,58.432 428.185,60.68C428.053,61.621 428.349,63.229 429.47,64.277C432.118,66.75 435.575,65.197 436.499,62.886C437.471,60.457 436.224,58.348 434.97,57.582C433.137,56.463 432.061,56.817 431.402,56.946ZM446.737,76.18C447.161,76.18 449.559,75.948 450.865,77.45C451.862,78.596 451.993,80.599 451.157,81.873C450.491,82.886 450.317,82.713 449.777,83.163C449.279,83.578 449.989,84.141 450.713,85.244C451.189,85.969 451.166,85.98 451.702,86.664C451.731,86.701 452.041,87.095 451.739,87.254C451.606,87.324 451.595,87.282 449.857,87.271C448.86,87.264 448.984,86.949 448.382,86.156C447.639,85.178 447.099,83.858 446.492,83.768C446.383,83.752 445.433,83.745 445.307,83.771C444.882,83.858 444.971,84.197 444.968,86.371C444.967,87.045 445.01,87.268 444.336,87.275C442.747,87.292 442.702,87.249 442.602,87.153C442.405,86.963 442.465,86.913 442.459,82.051C442.452,76.977 442.405,76.976 442.473,76.54C442.538,76.116 443.032,76.178 443.136,76.178C446.082,76.158 446.449,76.17 446.737,76.18ZM444.967,80.131C444.966,81.101 444.841,81.515 445.539,81.525C447.464,81.552 448.809,81.622 449.108,80.363C449.257,79.735 449.119,78.478 447.217,78.461C445.158,78.443 445.105,78.484 445.023,78.672C444.946,78.851 444.967,79.583 444.967,80.131ZM425.937,80.472C425.33,81.72 424.847,82.257 423.733,83.994C423.42,84.48 423.38,84.622 423.205,84.642C422.844,84.683 422.674,84.108 422.061,83.223C421.099,81.833 420.821,81.326 420.726,81.153C420.644,81.003 420.645,81.006 420.58,80.848C420.413,80.438 420.101,80.403 420.07,80.842C420.052,81.092 420.143,81.09 420.147,83.971C420.15,86.92 420.147,86.932 420.061,87.068C419.948,87.248 419.652,87.266 419.613,87.268C419.566,87.271 418.233,87.275 418.181,87.273C417.487,87.24 417.632,86.567 417.633,86.131C417.654,76.539 417.582,76.502 417.732,76.322C417.841,76.19 417.913,76.103 419.865,76.181C420.503,76.206 420.567,76.627 421.108,77.459C421.968,78.78 422.954,80.478 423.032,80.534C423.063,80.556 423.339,80.547 423.376,80.52C423.392,80.508 423.831,79.683 424.352,78.888C425.319,77.414 425.83,76.376 426.079,76.258C426.41,76.103 426.962,76.197 427.778,76.18C428.202,76.171 428.703,76.028 428.72,76.771C428.729,77.173 428.722,85.603 428.722,86.371C428.721,86.742 428.749,86.987 428.559,87.164C428.433,87.281 428.422,87.261 428.252,87.27C427.96,87.285 426.933,87.276 426.818,87.275C426.276,87.27 426.229,87.154 426.223,86.613C426.17,81.467 426.251,81.331 426.268,80.86C426.276,80.661 426.272,80.652 426.264,80.636C426.252,80.61 426.242,80.625 425.937,80.472ZM440.582,85.134C440.922,85.866 440.902,85.871 441.216,86.611C441.236,86.658 441.437,87.132 441.184,87.251C441.085,87.298 439.194,87.278 439.081,87.238C438.736,87.113 438.638,86.787 438.367,86.119C437.981,85.166 438.085,84.832 437.138,84.828C433.802,84.814 433.796,84.782 433.517,84.859C432.881,85.033 432.606,87.05 432.058,87.227C431.876,87.286 431.876,87.258 430.418,87.28C430.373,87.281 429.93,87.287 429.881,87.125C429.799,86.856 429.888,86.858 430.365,85.631C430.493,85.302 430.517,85.318 432.095,81.57C432.258,81.181 433.998,77.047 434.163,76.726C434.355,76.351 434.369,76.114 434.978,76.103C436.65,76.071 436.719,76.145 436.899,76.53C437.495,77.806 440.111,84.082 440.582,85.134ZM435.937,82.594C436.101,82.583 436.265,82.613 436.429,82.602C437.093,82.556 436.793,82.233 436.549,81.614C436.485,81.453 435.861,79.87 435.729,79.615C435.563,79.294 435.306,79.66 435.285,79.69C435.181,79.838 435.328,79.898 434.491,81.808C434.386,82.048 434.262,82.289 434.368,82.457C434.482,82.638 434.759,82.591 435.937,82.594ZM396.577,76.18C402.279,76.181 402.278,76.174 402.366,76.2C402.723,76.306 402.672,76.396 402.681,76.766C402.72,78.277 402.667,78.386 402.338,78.454C402.144,78.494 397.273,78.444 397.065,78.486C396.749,78.549 396.709,78.736 396.691,79.65C396.689,79.727 396.675,80.447 396.832,80.594C396.96,80.714 396.987,80.707 401.138,80.705C401.767,80.704 401.945,80.694 401.972,81.326C402.036,82.858 401.941,83.021 401.38,83.056C400.78,83.093 397.137,82.983 396.886,83.129C396.601,83.295 396.738,83.393 396.706,86.609C396.699,87.39 396.4,87.275 395.617,87.276C395.093,87.277 394.506,87.302 394.353,87.185C394.102,86.993 394.135,86.935 394.134,84.691C394.133,76.541 394.153,76.541 394.157,76.526C394.259,76.113 394.855,76.18 394.895,76.18C396.237,76.168 396.443,76.175 396.577,76.18ZM410.018,76.18C410.542,76.163 411.027,76.043 411.045,76.769C411.067,77.681 411.005,84.425 411.079,84.655C411.189,84.994 411.571,84.925 414.577,84.928C416.133,84.929 416.522,84.772 416.538,85.65C416.558,86.785 416.629,87.256 416.015,87.274C415.931,87.277 409.835,87.273 409.298,87.273C408.66,87.272 408.497,87.248 408.49,86.612C408.473,84.893 408.49,77.779 408.492,77.011C408.492,76.966 408.423,76.332 408.787,76.215C408.939,76.166 409.913,76.18 410.018,76.18ZM405.457,76.18C405.518,76.178 406.061,76.16 406.21,76.212C406.529,76.325 406.484,76.444 406.482,79.411C406.477,86.874 406.519,86.899 406.398,87.077C406.275,87.258 405.974,87.269 405.934,87.27C404.229,87.329 404.121,87.205 404.019,87.089C403.904,86.957 403.923,86.927 403.929,77.011C403.929,76.955 403.93,76.467 404.058,76.328C404.234,76.137 404.835,76.179 405.457,76.18ZM427.783,95.158C427.623,95.086 427.294,95.18 427.236,94.533C427.22,94.358 427.22,93.427 427.22,93.331C427.22,89.909 427.184,89.85 427.45,89.617C427.746,89.359 429.791,89.324 430.631,89.784C433.051,91.109 432.202,93.828 431.145,94.541C430.132,95.224 429.422,95.236 427.783,95.158ZM427.874,91.411C427.873,94.155 427.842,94.349 428.032,94.513C428.148,94.613 431.303,94.988 431.565,92.604C431.704,91.348 430.891,90.14 429.212,90.066C428.057,90.015 428.018,90.083 427.969,90.17C427.84,90.399 427.875,91.223 427.874,91.411ZM422.932,93.134C422.693,92.964 422.698,92.957 422.674,92.951C422.556,92.919 421.461,92.913 421.336,92.937C420.981,93.005 421.087,93.774 421.081,94.531C421.073,95.531 420.604,95.064 420.566,95.022C420.507,94.958 420.461,94.83 420.477,93.332C420.514,89.973 420.468,89.961 420.571,89.727C420.649,89.55 420.73,89.365 422.978,89.452C425.155,89.536 425.512,91.902 423.957,92.645C423.276,92.97 423.785,93.164 424.199,93.795C424.612,94.425 424.904,94.625 424.938,94.756C424.946,94.787 425.018,95.069 424.855,95.141C424.431,95.331 423.878,94.34 422.932,93.134ZM424.298,91.171C424.201,90.755 424.255,90.73 424.085,90.52C424.07,90.502 423.982,90.393 423.862,90.317C423.258,89.933 421.337,90.041 421.235,90.123C421.049,90.273 421.08,90.614 421.079,90.691C421.063,92.22 421.15,92.216 421.184,92.249C421.316,92.376 423.03,92.358 423.206,92.304C424.378,91.951 424.274,91.27 424.298,91.171ZM414.138,92.37C414.129,92.198 414.064,90.95 414.109,90.211C414.153,89.506 414.347,89.451 415.298,89.446C417.977,89.431 418.127,89.431 418.141,89.734C418.162,90.186 417.264,90.044 415.301,90.063C414.783,90.067 414.727,90.169 414.72,90.688C414.719,90.814 414.688,91.783 414.808,91.901C415.007,92.097 417.526,91.849 417.716,92.115C417.903,92.375 417.68,92.524 417.651,92.543C417.396,92.711 415.09,92.532 414.863,92.675C414.644,92.813 414.666,94.351 414.845,94.497C415.106,94.71 417.718,94.439 418.036,94.668C418.274,94.84 418.253,94.937 418.011,95.105C417.872,95.2 417.649,95.182 417.457,95.182C414.554,95.186 414.539,95.184 414.304,95.054C413.978,94.872 414.113,92.838 414.138,92.37ZM434.555,92.37C434.428,89.697 434.612,89.643 434.771,89.553C434.985,89.43 434.999,89.422 437.858,89.445C437.92,89.446 438.762,89.452 438.481,89.906C438.389,90.056 437.91,90.06 437.859,90.061C435.495,90.08 435.434,89.946 435.196,90.193C435.095,90.299 435.077,91.769 435.209,91.901C435.404,92.094 437.931,91.855 438.116,92.115C438.298,92.37 438.074,92.518 438.046,92.537C437.767,92.721 435.485,92.534 435.262,92.677C435.051,92.813 435.073,94.361 435.241,94.501C435.492,94.71 438.112,94.438 438.432,94.676C438.662,94.847 438.643,94.936 438.413,95.101C438.249,95.219 437.631,95.183 437.618,95.183C434.877,95.192 434.871,95.146 434.704,95.051C434.406,94.883 434.53,92.876 434.555,92.37ZM408.973,94.821C408.815,94.544 408.507,94.004 407.336,91.19C407.01,90.407 406.587,89.695 406.921,89.543C407.127,89.449 407.335,89.714 407.359,89.745C407.495,89.917 409.078,93.743 409.095,93.789C409.109,93.825 409.328,94.419 409.573,93.837C409.704,93.528 410.666,91.244 411.215,89.97C411.529,89.24 411.974,89.569 411.873,89.958C411.854,90.033 410.238,93.856 409.754,94.76C409.727,94.81 409.457,95.314 409.084,94.983C409.035,94.94 409.023,94.864 408.973,94.821Z" style="fill-opacity:0.99;"/>
            </g>
        </g>
    </g>
</svg>
