<?xml version="1.0" encoding="UTF-8" standalone="no"?>
<!DOCTYPE svg PUBLIC "-//W3C//DTD SVG 1.1//EN" "http://www.w3.org/Graphics/SVG/1.1/DTD/svg11.dtd">
<svg width="100%" height="100%" viewBox="0 0 274 97" version="1.1" xmlns="http://www.w3.org/2000/svg" xmlns:xlink="http://www.w3.org/1999/xlink" xml:space="preserve" xmlns:serif="http://www.serif.com/" style="fill-rule:evenodd;clip-rule:evenodd;stroke-linejoin:round;stroke-miterlimit:2;">
    <g transform="matrix(1,0,0,1,-2799.38,-571.052)">
        <g transform="matrix(1,0,0,1,2126.17,0)">
            <g transform="matrix(2.00606,0,0,2.00606,211.518,550.351)">
                <path d="M250.254,58.491C249.986,58.489 249.584,58.493 249.314,58.456C248.982,58.411 248.985,58.399 248.65,58.392C248.244,58.384 248.247,58.359 247.843,58.339C247.433,58.318 247.44,58.284 247.035,58.226C245.795,58.045 244.397,57.656 244.361,57.645C243.392,57.345 243.395,57.341 243.311,57.316C242.824,57.171 242.836,57.143 242.354,56.977C242.069,56.879 242.084,56.851 241.806,56.74C240.498,56.22 239.445,55.554 239.024,55.337C238.859,55.251 238.869,55.238 238.711,55.14C238.521,55.024 237.328,54.291 236.445,53.512C235.916,53.047 235.888,53.079 235.512,52.701C234.899,52.082 234.905,52.078 234.851,52.025C234.514,51.692 234.537,51.673 234.222,51.318C233.467,50.471 232.657,49.178 232.375,48.639C232.135,48.179 231.853,47.625 231.832,47.575C231.619,47.066 231.6,47.076 231.583,47.032C230.63,44.627 230.442,43.135 230.398,42.784C230.32,42.174 230.276,42.181 230.238,41.566C230.227,41.389 230.168,41.11 230.16,40.769C230.116,38.995 230.222,38.549 230.261,37.82C230.28,37.484 230.34,37.495 230.37,37.159C230.419,36.613 230.429,36.617 230.521,36.077C230.647,35.335 230.666,35.339 230.675,35.274C230.738,34.855 231.239,32.974 231.39,32.607C231.528,32.272 231.485,32.259 231.617,31.922L231.925,31.136C232.1,30.751 232.064,30.74 232.229,30.349C232.236,30.332 232.998,28.408 233.027,28.34C233.38,27.523 234.09,25.537 234.157,25.365C234.256,25.11 234.246,25.107 234.34,24.85C234.38,24.742 234.764,23.693 234.82,23.496C235.258,21.973 236.024,20.31 236.102,20.182C236.166,20.077 236.487,19.373 236.834,18.803C237.353,17.954 237.359,17.96 237.402,17.885C237.729,17.326 238.852,16.011 238.934,15.939C239.578,15.378 239.556,15.353 240.23,14.826C240.813,14.37 241.93,13.781 242.079,13.711C243.324,13.134 243.356,13.222 243.825,13.053C244.437,12.832 244.546,12.88 244.773,12.829C245.633,12.637 245.634,12.651 246.513,12.588C247.052,12.55 247.043,12.487 247.582,12.464C247.946,12.449 247.97,12.384 248.244,12.365C248.353,12.358 249.002,12.314 249.591,12.157C250.114,12.017 250.358,12.058 250.927,11.881C251.301,11.765 251.671,11.735 252.005,11.643C252.987,11.374 252.992,11.398 253.076,11.372C253.605,11.208 253.613,11.25 254.145,11.102C254.676,10.955 254.68,10.978 255.217,10.855C255.534,10.782 255.526,10.746 256.273,10.65C256.842,10.576 256.838,10.557 257.069,10.5C257.309,10.442 258.581,10.332 259.219,10.323C261.524,10.29 262.295,10.5 262.553,10.57C262.83,10.645 263.12,10.63 263.627,10.815C263.905,10.917 264.198,10.963 264.441,11.057C265.35,11.408 265.356,11.386 266.055,11.706C266.234,11.788 267.3,12.275 268.204,12.907C268.318,12.986 269.341,13.701 269.603,13.934C272.018,16.08 272.657,17.578 272.963,18.046C273.311,18.578 274.071,20.434 274.221,20.962C274.354,21.433 274.385,21.422 274.499,21.898C274.642,22.499 274.682,22.488 274.791,23.098C274.899,23.707 274.962,23.692 275.049,24.307C275.26,25.791 275.296,25.783 275.312,25.913C275.432,26.863 275.481,26.853 275.64,27.797C275.701,28.159 276.336,30.271 276.501,30.726C277.055,32.257 277.188,32.431 277.255,32.617C277.384,32.974 277.717,33.552 277.82,33.809C277.984,34.218 278.253,34.558 278.58,35.3C279.149,36.595 279.149,36.593 279.32,37.146C279.503,37.738 279.461,37.746 279.579,38.355C279.681,38.885 279.618,40.463 279.586,40.641C279.431,41.498 279.448,41.5 279.428,41.573C279.032,42.998 278.863,43.21 278.663,43.6C277.564,45.734 275.925,46.721 275.127,47.306C274.742,47.587 274.733,47.569 273.707,48.186C273.597,48.252 273.611,48.269 273.499,48.335C272.776,48.759 272.777,48.757 272.073,49.214C271.823,49.376 270.811,50.068 270.58,50.254C270.459,50.351 269.409,51.164 269.376,51.193C268.987,51.542 268.981,51.532 268.576,51.863C267.964,52.362 267.956,52.351 267.904,52.396C267.352,52.865 266.479,53.452 266.351,53.538C265.96,53.801 265.211,54.403 262.99,55.538C261.963,56.063 261.941,56.012 261.469,56.235C261.07,56.424 260.844,56.484 260.69,56.555C260.418,56.68 260.414,56.665 260.136,56.777C258.889,57.278 257.759,57.575 257.612,57.623C257.072,57.799 256.763,57.809 256.536,57.863C255.196,58.184 255.186,58.131 255.07,58.16C254.69,58.256 254.679,58.227 254.528,58.255C254.433,58.272 253.898,58.37 253.33,58.387C252.528,58.41 252.151,58.545 250.254,58.491ZM246.38,14.338C244.762,14.651 244.054,15.181 243.979,15.233C243.698,15.425 243.552,15.478 243.551,15.616C243.55,15.811 243.637,15.755 243.83,15.765C244.007,15.775 245.156,15.668 245.711,15.497C246.239,15.335 246.253,15.393 246.774,15.211C246.888,15.171 247.884,14.94 248.17,14.736C248.205,14.711 248.517,14.461 247.838,14.312C247.65,14.271 247.23,14.275 247.177,14.275C246.776,14.279 246.779,14.304 246.38,14.338ZM277.206,38.628C277.207,38.708 277.22,39.428 277.544,39.572C278,39.775 278.164,39.212 278.181,39.153C278.235,38.969 278.358,38.868 278.132,37.947C277.984,37.345 277.29,37.279 277.224,38.221L277.206,38.628ZM254.479,54.338C254.43,54.324 254.439,54.297 254.27,54.277C253.086,54.134 253.057,54.207 252.397,54.132C252.332,54.125 251.637,54.046 251.588,54.035C251.254,53.962 251.258,53.957 250.919,53.904C250.307,53.808 250.32,53.757 249.716,53.626C249.274,53.53 247.423,52.949 246.792,52.645C246.54,52.524 246.262,52.448 245.28,51.92C244.621,51.565 244.614,51.579 243.986,51.171C242.186,50.001 242.072,49.94 240.374,48.373C240.263,48.271 239.467,47.433 239.389,47.351C239.073,47.018 238.034,45.763 237.423,44.774C235.809,42.162 235.515,40.563 235.239,39.709C235.175,39.511 235.076,38.951 235.064,38.885C235.004,38.548 234.967,38.558 234.918,38.218C234.833,37.619 234.822,37.623 234.787,37.018C234.761,36.556 234.663,36.565 234.674,35.819C234.692,34.529 234.575,34.523 234.767,33.281C234.801,33.058 234.759,32.786 234.922,31.814C234.932,31.756 235.212,30.414 235.239,30.323C235.338,29.995 235.721,28.516 236.433,26.838C236.488,26.71 236.904,25.729 237.127,25.244C237.141,25.214 237.282,24.907 237.275,24.847C237.271,24.81 237.14,24.589 237.008,24.846C236.638,25.567 236.667,25.578 236.292,26.294C236.205,26.458 235.345,28.48 235.083,29.516C234.963,29.99 234.919,29.976 234.815,30.455C234.736,30.823 234.589,31.137 234.325,33.008C234.313,33.093 234.327,33.093 234.255,34.082C234.254,34.083 234.19,36.359 234.359,37.285C234.41,37.561 234.366,37.637 234.448,37.964C234.625,38.669 234.517,38.69 234.741,39.428C234.795,39.606 234.853,40.019 234.982,40.375C235.008,40.448 234.991,40.453 235.291,41.295C235.398,41.594 235.371,41.606 235.53,41.976C235.698,42.372 235.637,42.396 236.227,43.569C236.37,43.855 236.88,44.776 236.937,44.881C237.123,45.217 238.137,46.713 238.524,47.154C239.487,48.251 240.786,49.913 243.999,51.816C244.242,51.96 245.458,52.68 247.192,53.304C247.682,53.479 248.981,53.872 249.179,53.911C250.12,54.095 250.108,54.151 251.058,54.266C251.462,54.315 251.454,54.35 251.862,54.38C252.317,54.414 252.31,54.489 253.331,54.506C254.001,54.518 254.32,54.56 254.387,54.518C254.401,54.51 254.394,54.506 254.479,54.338ZM271.132,18.52C271.151,18.474 271.223,18.467 271.242,18.421C271.254,18.391 271.276,18.338 271.072,18.054C270.621,17.426 270.261,16.703 269.688,16.117C269.158,15.576 269.159,15.577 268.566,15.103C268.353,14.932 268.033,14.727 268.021,14.718C267.695,14.48 267.176,14.206 267.1,14.166C266.781,13.997 266.78,14.007 266.457,13.849C265.516,13.389 263.807,12.946 263.504,12.906C262.361,12.754 262.372,12.677 261.221,12.594C260.792,12.562 259.046,12.585 258.961,12.597C258.794,12.619 258.604,12.697 258.595,12.712C258.581,12.737 258.608,12.769 258.607,12.798C258.606,12.825 258.575,12.857 258.592,12.879C258.617,12.91 258.803,12.911 258.822,12.911C259.556,12.916 259.822,13.001 260.284,13.1C260.435,13.132 260.437,13.105 260.83,13.165C260.895,13.175 261.476,13.265 261.636,13.304C261.958,13.384 261.958,13.371 262.287,13.407C263.055,13.491 265.179,14.253 265.393,14.372C265.725,14.557 265.759,14.481 266.476,14.889C266.604,14.962 267.747,15.579 268.602,16.261C269.014,16.589 269.029,16.567 269.415,16.923C269.799,17.277 269.82,17.25 270.196,17.615C270.536,17.944 270.527,17.951 270.862,18.286C270.989,18.413 270.995,18.402 271.132,18.52ZM235.599,36.485C235.639,37.127 235.731,37.999 235.798,38.229C235.902,38.585 235.972,39.154 236.062,39.434C236.238,39.982 236.203,39.988 236.269,40.216C236.296,40.309 236.383,40.484 236.507,40.892C236.769,41.753 237.661,43.78 238.998,45.598C239.109,45.749 239.172,45.877 240.211,47.065C240.68,47.603 241.233,48.141 241.543,48.412C241.883,48.708 241.885,48.7 242.787,49.433C244.505,50.829 246.852,52.01 247.836,52.306C248.106,52.388 248.12,52.441 248.511,52.554C248.982,52.691 248.97,52.723 249.445,52.836C249.992,52.966 249.984,53.027 250.646,53.123C250.94,53.166 250.934,53.181 251.182,53.242C251.408,53.297 252.5,53.401 252.932,53.424C254.412,53.503 254.413,53.54 254.935,53.463C255.455,53.386 255.459,53.46 256.014,53.398C256.476,53.345 256.476,53.374 256.938,53.311C257.277,53.264 257.279,53.285 257.608,53.196C257.95,53.103 258.225,53.162 258.943,52.922C259.149,52.853 259.494,52.8 259.762,52.695C260.213,52.518 260.229,52.57 260.677,52.38C261.01,52.239 261.018,52.265 261.347,52.117C261.571,52.016 261.847,51.938 262.01,51.841C262.317,51.66 262.386,51.707 263.133,51.261C263.19,51.227 263.204,51.255 263.863,50.871C264.878,50.278 265.616,49.694 265.76,49.58C265.789,49.558 266.667,49.033 268.358,47.229C269.38,46.137 270.276,44.745 270.328,44.652C270.447,44.442 270.467,44.457 270.577,44.24C270.74,43.916 270.989,43.526 271.027,43.466C271.089,43.369 271.096,43.372 271.635,42.228C271.645,42.208 272.054,41.167 272.171,40.892C272.285,40.623 272.295,40.486 272.442,40.091C272.545,39.816 272.63,39.364 272.692,39.151C272.932,38.327 272.859,38.13 272.972,37.552C272.983,37.5 273.008,37.505 273.099,36.617C273.219,35.451 273.098,33.34 273.011,33.005C272.864,32.436 272.839,31.941 272.763,31.663C272.639,31.206 272.643,31.208 272.546,30.746C272.366,29.892 271.409,27.471 270.961,26.738C270.742,26.38 270.63,26.12 270.422,25.806C270.297,25.617 270.313,25.602 270.167,25.398C270.025,25.201 270.041,25.193 269.897,24.998C269.888,24.985 269.62,24.559 269.222,24.068C268.616,23.32 268.32,22.908 267.262,21.887C266.853,21.493 266.865,21.483 266.425,21.124C265.998,20.776 265.209,20.082 264.179,19.477C263.922,19.326 263.557,19.074 263.359,18.973C263.295,18.941 263.302,18.929 262.574,18.54C262.495,18.498 261.613,18.087 261.489,18.031C261.102,17.859 261.099,17.871 260.707,17.715C260.533,17.646 259.827,17.393 259.75,17.365C259.686,17.343 259.686,17.347 258.942,17.116C258.504,16.98 256.745,16.645 256.549,16.629C256.008,16.585 256.016,16.524 255.473,16.511C254.881,16.498 254.884,16.46 254.268,16.458C252.555,16.45 252.558,16.503 252.26,16.51C251.924,16.518 251.924,16.502 251.597,16.574C251.534,16.588 251.53,16.56 250.794,16.714C250.772,16.719 250.36,16.758 250.121,16.82C248.467,17.248 247.583,17.516 246.501,18.01C244.879,18.752 243.36,19.643 241.786,21.056C241.548,21.269 240.33,22.363 239.162,24.054C239.132,24.097 239.139,24.101 238.793,24.61C238.678,24.78 238.694,24.786 238.577,24.956C238.257,25.416 237.527,26.779 237.388,27.112C237.216,27.527 236.898,28.187 236.721,28.72C236.688,28.819 236.313,29.859 236.23,30.205C236.145,30.562 235.987,31.013 235.892,31.662C235.833,32.069 235.783,32.059 235.742,32.469L235.633,33.404C235.619,33.524 235.548,34.764 235.541,34.882C235.502,35.56 235.57,35.557 235.599,36.485ZM260.287,27.46C262.396,27.346 262.591,27.494 263.229,27.554C263.691,27.598 263.94,27.597 265.512,28.179C265.572,28.201 266.58,28.679 267.152,29.069C267.399,29.237 267.747,29.388 267.471,29.767C267.167,30.185 267.175,30.19 267.148,30.225C266.812,30.671 266.325,31.52 266.183,31.556C266.012,31.6 265.783,31.411 265.62,31.3C265.075,30.928 264.007,30.552 263.886,30.498C263.502,30.325 263.488,30.37 263.085,30.242C262.962,30.203 262.341,30.006 261.491,29.994C260.636,29.983 260.047,30.008 259.341,30.451C259.081,30.614 258.779,30.989 258.75,31.044C258.294,31.889 258.476,32.424 258.659,32.885C258.879,33.439 259.871,34.042 260.686,34.232C261.302,34.375 261.285,34.437 261.905,34.549C262.392,34.637 263.22,34.887 263.513,34.958C264.114,35.105 264.104,35.13 264.694,35.314C264.786,35.343 265.375,35.528 265.797,35.777C266.273,36.058 266.851,36.298 267.469,37.058C268.217,37.976 268.358,39.186 268.364,39.429C268.391,40.539 268.32,40.637 268.23,41.047C268.198,41.189 268.028,41.96 267.412,42.669C266.93,43.225 266.679,43.332 266.461,43.474C265.758,43.934 265.353,44.035 265.228,44.09C263.927,44.659 262.398,44.576 262.295,44.575C261.424,44.573 261.426,44.551 260.557,44.496C259.95,44.458 259.636,44.332 259.475,44.292C258.937,44.161 258.942,44.152 258.412,43.991C257.427,43.693 255.878,42.882 255.302,42.42C255.023,42.196 254.728,42.116 254.812,41.842C254.84,41.749 256.251,39.97 256.265,39.955C256.444,39.768 256.643,39.951 256.763,40.032C256.86,40.099 256.829,40.144 258.034,40.869C258.066,40.889 258.376,41.075 258.448,41.109C260.529,42.101 261.712,42.018 262.564,41.992C263.339,41.968 264.24,41.656 264.601,41.34C265.032,40.964 265.334,40.657 265.375,39.966C265.452,38.677 264.179,38.225 263.501,37.955C263.441,37.931 262.311,37.623 262.154,37.595C261.438,37.466 261.447,37.397 261.083,37.329C260.505,37.221 260.317,37.141 259.091,36.734C258.827,36.646 257.98,36.255 257.885,36.211C257.237,35.912 257.119,35.773 257.049,35.728C257.027,35.714 256.849,35.601 256.728,35.734C256.695,35.77 255.965,36.863 254.837,37.489C254.371,37.748 254.305,37.775 254.257,37.794C253.681,38.025 253.412,38.094 253.337,38.113C253.201,38.148 252.295,38.296 252.256,38.299C251.123,38.394 251.125,38.389 249.987,38.388C247.763,38.386 247.698,38.355 247.637,38.517C247.598,38.623 247.633,43.157 247.618,43.981C247.612,44.349 247.464,44.33 247.177,44.331C246.995,44.331 245.02,44.338 244.904,44.335C244.883,44.334 244.722,44.33 244.668,44.23C244.637,44.174 244.641,43.877 244.641,43.846C244.651,43.057 244.637,36.337 244.635,35.684C244.634,35.053 244.619,28.143 244.64,27.791C244.658,27.482 244.92,27.53 245.036,27.531C250.366,27.54 251.689,27.508 252.26,27.66C253.027,27.863 253.027,27.864 253.588,28.087C255.156,28.71 255.653,29.812 255.862,29.841C256.074,29.871 256.123,29.655 256.378,29.369C257.274,28.365 258.249,27.979 258.808,27.767C259.389,27.546 259.491,27.584 259.754,27.527C260.043,27.465 260.042,27.473 260.287,27.46ZM253.803,32.742C253.798,32.689 253.798,32.46 253.707,32.078C253.411,30.843 252.256,30.178 251.862,30.06C251.454,29.938 251.191,29.801 249.853,29.801C247.804,29.799 247.775,29.78 247.671,29.899C247.606,29.973 247.619,29.988 247.623,33.544C247.625,35.689 247.567,35.812 247.838,35.862C247.887,35.871 250.238,35.866 250.389,35.864C250.752,35.859 250.764,35.803 251.196,35.75C251.323,35.734 252.109,35.637 252.691,35.188C253.692,34.414 253.755,33.665 253.803,32.742ZM240.293,43.31C240.284,43.049 240.288,43.051 240.293,33.678C240.295,29.492 240.271,29.492 240.284,29.128C240.333,27.727 240.192,27.582 240.489,27.536C240.502,27.534 242.773,27.525 242.895,27.533C243.138,27.547 243.157,27.73 243.164,27.791C243.183,27.978 243.167,41.577 243.166,42.775C243.165,44.148 243.192,44.18 243.057,44.29C242.98,44.352 242.674,44.334 240.755,44.333C240.448,44.333 240.345,44.408 240.285,44.108C240.276,44.064 240.292,43.374 240.293,43.31ZM275.219,32.879C275.028,31.765 275.04,31.763 275.016,31.668C274.872,31.095 274.763,30.542 274.742,30.466C274.617,29.995 274.61,29.999 274.489,29.526C274.436,29.316 273.977,27.974 273.836,27.641C272.679,24.913 271.937,24.011 271.846,23.875C271.109,22.768 270.529,22.178 270.32,21.906C270.087,21.603 268.818,20.333 268.231,19.839C267.63,19.332 267.616,19.349 267.564,19.305C266.98,18.806 266.969,18.824 266.34,18.381C265.556,17.829 265.554,17.835 265.486,17.786C264.816,17.3 262.946,16.338 262.273,16.075C261.485,15.766 261.484,15.773 260.679,15.518C259.017,14.992 258.985,15.115 258.414,14.953C257.925,14.814 257.314,14.762 256.676,14.706C256.253,14.668 256.201,14.559 255.072,14.566C254.852,14.567 254.853,14.576 254.652,14.668C254.555,14.712 254.58,14.754 254.667,14.815C254.722,14.853 255.158,14.863 255.201,14.864C256.185,14.885 256.6,15.011 256.816,15.032C257.289,15.079 257.283,15.105 257.754,15.162C258.095,15.203 258.09,15.221 258.426,15.295C259.108,15.445 259.12,15.398 260.566,15.853C263.481,16.771 265.29,18.084 266.565,18.977C266.917,19.224 266.894,19.251 267.238,19.506C267.837,19.949 269.22,21.171 270.238,22.399C271.794,24.278 272.551,25.848 272.69,26.076C273.003,26.588 273.746,28.501 273.829,28.715C273.962,29.058 274.39,30.538 274.409,30.616C274.709,31.919 274.73,32.076 274.748,32.205C274.902,33.312 274.917,33.309 274.923,33.406C274.952,33.812 274.958,33.809 275.005,34.213C275.038,34.489 275.047,36.078 274.998,36.62C274.99,36.706 274.915,37.539 274.884,37.694C274.78,38.224 274.818,38.228 274.721,38.759C274.62,39.314 274.552,39.486 274.533,39.575C274.416,40.12 274.4,40.113 274.242,40.646C274.121,41.054 274.104,41.045 273.966,41.447C273.263,43.509 271.921,45.377 271.801,45.587C271.79,45.606 271.617,45.909 271.79,45.868C271.907,45.841 272.056,45.654 272.15,45.541C272.449,45.184 272.954,44.366 273.019,44.261C274.618,41.672 275.072,38.905 275.09,38.754C275.19,37.88 275.338,37.521 275.377,36.085C275.436,33.916 275.221,32.895 275.219,32.879ZM233.057,40.494C233.291,41.69 233.179,41.754 233.666,43.31C233.681,43.356 233.758,43.803 234.322,45.055C234.595,45.662 235.336,47.068 235.838,47.7C235.988,47.889 235.967,47.901 236.121,48.088C236.571,48.637 236.557,48.647 237.026,49.182C237.746,50.003 237.758,49.991 238.583,50.706C238.647,50.76 238.655,50.75 239.397,51.363C239.517,51.462 239.889,51.736 239.933,51.768C240.019,51.832 240.066,51.866 241.051,52.497C241.175,52.576 242.267,53.22 242.618,53.367C242.864,53.47 242.987,53.554 243.158,53.625C243.552,53.787 243.543,53.804 243.945,53.944C244.287,54.064 244.271,54.099 244.618,54.206C245.101,54.355 245.093,54.374 245.579,54.518C245.862,54.603 246.239,54.768 246.507,54.825C246.644,54.854 246.639,54.865 246.776,54.897C246.999,54.948 247.033,54.735 246.916,54.678C246.711,54.578 246.426,54.498 246.079,54.339C245.609,54.123 245.271,54.034 244.872,53.798C244.643,53.663 244.63,53.692 244.345,53.515C244.103,53.365 242.083,52.286 240.097,50.656C239.898,50.493 238.954,49.718 237.774,48.429C236.492,47.027 235.631,45.501 235.514,45.332C235.452,45.243 234.994,44.359 234.95,44.274C234.402,43.219 234.149,42.457 233.814,41.566C233.79,41.502 233.796,41.501 233.572,40.755C233.547,40.671 233.506,40.535 233.3,39.686C233.247,39.469 233.111,38.286 233.087,38.25C233.069,38.223 233.033,38.206 233.001,38.204C232.797,38.192 232.851,38.289 232.855,38.493C232.865,38.995 232.936,39.728 232.946,39.835C232.979,40.17 233.013,40.161 233.057,40.494ZM252.954,15.719C253.607,15.84 253.652,15.722 254.386,15.802C255.728,15.948 255.726,15.935 256.41,16.003C256.606,16.023 257.069,16.168 257.751,16.255C258.099,16.3 260.063,16.792 261.075,17.255C261.84,17.604 261.961,17.549 263.401,18.366C263.661,18.513 263.672,18.491 263.925,18.654C263.936,18.661 264.432,18.948 265.247,19.484C265.539,19.676 267.403,20.995 268.751,22.546C268.989,22.819 269.004,22.804 269.482,23.405C269.64,23.604 269.914,23.894 270.768,25.222C271.515,26.384 273.036,29.306 273.457,32.199C273.523,32.653 273.599,32.641 273.666,33.812C273.717,34.708 273.815,35.019 273.655,37.156C273.603,37.86 273.501,38.232 273.39,38.894C273.262,39.655 273.123,40.104 272.796,41.057C272.595,41.642 271.9,43.449 271.186,44.551C270.941,44.928 270.952,45.061 270.951,45.063C270.941,45.098 270.898,45.131 270.912,45.164C270.914,45.17 271.095,45.166 271.112,45.159C271.132,45.15 271.131,45.119 271.146,45.102C271.265,44.966 271.267,44.97 271.284,44.936C271.397,44.701 271.443,44.73 271.547,44.531C271.749,44.142 271.896,44.039 272.529,42.67C272.96,41.738 273.381,40.48 273.41,40.369C273.507,39.991 273.5,39.99 273.51,39.958C273.628,39.588 273.649,39.593 273.757,38.887C273.834,38.382 273.943,38.398 274.032,36.886C274.05,36.577 274.148,36.136 274.141,35.551C274.127,34.268 274.056,34.274 274.022,33.547C274.005,33.182 273.913,32.564 273.9,32.479C273.85,32.143 273.855,32.145 273.777,31.811C273.775,31.801 273.715,31.41 273.623,31.011C273.605,30.936 273.595,30.939 273.373,30.072C273.323,29.877 272.899,28.559 272.498,27.642C271.762,25.955 271.345,25.358 270.394,23.954C270.343,23.88 270.283,23.791 269.693,23.077C269.619,22.988 269.084,22.232 267.676,20.936C267.36,20.645 267.34,20.672 267.014,20.39C264.83,18.5 261.493,16.738 258.566,16.087C258.09,15.982 258.096,15.958 257.612,15.891C256.901,15.792 256.802,15.698 256.272,15.662C256.237,15.659 256.24,15.649 255.208,15.568C255.029,15.555 253.085,15.403 252.962,15.536C252.952,15.547 252.961,15.549 252.954,15.719ZM320.167,43.445C320.17,42.776 320.16,42.775 320.271,42.114C320.284,42.038 320.304,41.919 320.541,41.184C320.761,40.503 321.328,39.614 321.796,39.128C322.795,38.09 323.716,37.808 323.86,37.732C324.199,37.554 324.694,37.475 324.786,37.452C325.09,37.375 325.087,37.368 325.582,37.31C326.091,37.251 327.541,37.277 327.993,37.409C328.462,37.546 328.476,37.492 328.927,37.685C330.243,38.248 330.83,38.875 331.153,39.207C331.77,39.842 332.337,40.96 332.486,41.583C332.586,42.003 332.888,42.781 332.708,44.652C332.707,44.659 332.53,45.63 332.24,46.241C331.691,47.394 331.116,47.873 331.097,47.892C330.594,48.393 330.57,48.362 330.434,48.451C330.358,48.501 330.12,48.733 329.565,49C329.315,49.121 329.319,49.123 329.296,49.131C328.338,49.506 327.847,49.534 327.716,49.542C326.892,49.589 326.832,49.704 326.113,49.616C325.004,49.481 325.004,49.495 324.908,49.48C324.584,49.427 323.81,49.147 323.692,49.091C322.414,48.483 321.891,47.865 321.602,47.558C320.83,46.736 320.366,45.424 320.283,44.906C320.154,44.102 320.165,43.562 320.167,43.445ZM322.564,43.845C322.589,44.249 322.614,44.244 322.693,44.638C323.034,46.326 324.014,47.033 324.672,47.406C324.786,47.471 325.551,47.756 325.977,47.779C326.426,47.803 327.503,47.945 328.671,47.213C329.162,46.905 329.575,46.398 329.684,46.226C330.061,45.631 330.142,45.43 330.421,44.254C330.452,44.124 330.512,43.138 330.417,42.77C330.315,42.376 330.327,42.376 330.232,41.981C330.205,41.873 330.022,41.348 329.83,41.055C329.611,40.721 329.482,40.33 328.546,39.664C328.165,39.393 326.94,38.948 325.977,39.145C325.663,39.21 325.176,39.197 324.28,39.755C324.087,39.876 323.566,40.353 323.349,40.665C322.842,41.395 322.748,41.975 322.728,42.098C322.72,42.142 322.718,42.187 322.711,42.231C322.645,42.641 322.576,42.629 322.573,43.042C322.573,43.106 322.568,43.656 322.564,43.845ZM295.414,47.726C295.392,46.739 295.416,43.281 295.414,43.177C295.381,41.708 295.458,41.236 295.425,41.199C295.406,41.177 295.367,41.197 295.337,41.198C295.241,41.198 295.233,41.203 295.197,41.292C295.138,41.433 295.123,41.423 295.06,41.563C294.913,41.885 294.488,42.572 294.435,42.658C294.287,42.899 293.513,44.254 293.503,44.269C293.358,44.482 292.994,45.157 292.964,45.202C292.684,45.623 291.996,46.918 291.89,47.073C291.673,47.394 291.656,47.537 291.327,47.553C290.575,47.591 290.473,47.482 290.424,47.428C290.305,47.3 289.09,45.193 289.013,45.077C288.729,44.655 288.751,44.645 288.412,44.098C287.275,42.265 287.31,42.247 287.208,42.09C286.891,41.602 286.932,41.417 286.782,41.407C286.585,41.394 286.682,41.516 286.684,42.241C286.685,42.786 286.696,47.999 286.682,49.064C286.678,49.407 286.587,49.42 286.245,49.407C285.426,49.378 285.104,49.418 284.765,49.396C284.457,49.376 284.496,49.157 284.496,48.93C284.499,42.885 284.483,37.644 284.506,37.558C284.554,37.381 284.658,37.393 285.71,37.396C286.636,37.399 286.775,37.36 286.901,37.567C287.134,37.95 287.111,37.961 287.342,38.345C288.4,40.102 288.379,40.111 288.476,40.26C288.629,40.493 290.735,44.096 290.802,44.242C290.919,44.498 291.059,44.492 291.173,44.234C291.273,44.008 291.63,43.437 291.706,43.298C292.11,42.565 292.677,41.652 292.848,41.329C292.94,41.156 293.416,40.372 293.487,40.244C293.838,39.61 293.855,39.623 294.219,38.999C294.282,38.891 294.288,38.897 295.016,37.658C295.232,37.29 295.317,37.387 295.744,37.392C296.414,37.401 296.412,37.39 297.082,37.395C297.435,37.398 297.572,37.34 297.577,37.693C297.578,37.821 297.575,37.82 297.573,39.297C297.569,41.207 297.582,49.143 297.573,49.193C297.562,49.25 297.541,49.311 297.499,49.35C297.43,49.415 297.238,49.409 297.215,49.408C296.931,49.398 295.945,49.41 295.878,49.408C295.518,49.4 295.393,49.422 295.404,49.063C295.426,48.394 295.401,48.396 295.414,47.726ZM334.347,45.719C334.344,45.591 334.339,45.363 334.337,44.113C334.337,43.717 334.333,39.299 334.336,39.163C334.368,37.665 334.304,37.539 334.426,37.444C334.481,37.401 334.488,37.4 335.881,37.396C336.471,37.394 336.459,37.577 336.792,37.98C337.147,38.408 337.165,38.463 337.268,38.59C338.31,39.881 339.057,40.839 339.579,41.477C340.188,42.221 341.055,43.393 341.408,43.812C342.369,44.95 342.499,45.296 342.573,45.312C342.823,45.364 342.73,44.89 342.726,44.783C342.718,44.562 342.721,37.736 342.724,37.693C342.751,37.343 342.995,37.404 343.909,37.403C344.455,37.402 344.732,37.311 344.751,37.689C344.767,37.998 344.754,48.154 344.752,49.064C344.752,49.286 344.78,49.339 344.569,49.404C344.566,49.405 343.714,49.409 343.506,49.398C343.087,49.375 343.116,49.278 342.715,48.788C342.367,48.362 342.33,48.308 342.3,48.264C342.182,48.092 338.404,43.391 338.317,43.289C338.147,43.09 337.917,42.773 337.907,42.761C337.412,42.147 337.419,42.142 337.375,42.089C336.807,41.411 336.865,41.367 336.803,41.322C336.789,41.311 336.652,41.21 336.575,41.317C336.554,41.346 336.588,41.751 336.59,41.839C336.597,42.266 336.593,48.24 336.593,48.796C336.592,49.086 336.67,49.403 336.282,49.408C335.789,49.415 335.421,49.401 335.346,49.398C335.227,49.394 335.043,49.413 334.811,49.408C334.481,49.4 334.382,49.367 334.339,49.191L334.337,48.93C334.337,47.323 334.346,47.325 334.347,45.719ZM307.78,37.363C308.35,37.295 308.912,37.217 310.467,37.369C310.479,37.37 311.496,37.597 311.677,37.664C312.297,37.892 312.302,37.878 312.89,38.181C313.729,38.612 313.82,38.725 313.654,39.019C313.631,39.061 313.426,39.424 313.355,39.532C312.961,40.124 312.98,40.136 312.945,40.186C312.876,40.286 312.749,40.276 312.731,40.274C312.662,40.269 312.206,39.942 311.779,39.741C311.134,39.438 310.346,39.249 310.183,39.223C308.997,39.035 308.886,39.121 308.326,39.207C307.62,39.316 307.111,39.797 306.972,40.095C306.732,40.611 306.785,40.839 306.949,41.186C307.355,42.042 309.55,42.362 310.581,42.684C311.038,42.826 311.307,42.882 311.396,42.914C312.53,43.33 313.397,43.592 314.057,44.659C314.546,45.448 314.5,46.497 314.365,46.931C314.046,47.964 313.468,48.436 313.387,48.51C312.867,48.987 311.835,49.445 310.989,49.536C310.256,49.616 310.261,49.643 310.197,49.647C309.397,49.7 308.96,49.629 308.854,49.611C308.042,49.48 307.824,49.551 307.235,49.381C306.448,49.154 306.373,49.123 306.301,49.093C305.685,48.84 305.683,48.846 305.631,48.82C305.48,48.744 305.489,48.732 305.476,48.725C304.946,48.462 304.948,48.462 304.438,48.13C304.2,47.974 304.516,47.634 304.556,47.579C304.699,47.385 304.678,47.374 304.815,47.174C305.12,46.728 305.231,46.317 305.598,46.586C305.978,46.865 307.086,47.424 307.661,47.551C307.999,47.626 308.703,47.965 310.333,47.776C310.55,47.75 311.013,47.581 311.151,47.494C311.619,47.196 311.591,47.163 311.718,46.954C312.365,45.888 311.39,45.027 310.721,44.803C310.006,44.564 309.984,44.558 309.918,44.542C308.699,44.242 308.702,44.236 308.595,44.213C308.293,44.148 307.265,43.846 307.252,43.841C307.118,43.789 306.347,43.524 306.027,43.349C305.933,43.297 305.226,42.908 304.97,42.512C304.796,42.243 304.5,41.843 304.458,41.169C304.407,40.339 304.537,39.854 304.771,39.328C304.821,39.217 305.209,38.635 305.378,38.495C305.742,38.194 306.436,37.57 307.78,37.363ZM358.691,40.635C358.789,41.369 358.905,41.689 360.772,42.22C360.835,42.238 360.837,42.217 361.557,42.42C361.759,42.477 364.263,43.05 365.161,43.741C365.578,44.062 365.571,44.07 365.885,44.491C366.241,44.967 366.317,45.499 366.331,45.593C366.677,47.993 365.081,48.783 364.407,49.124C364.355,49.15 364.268,49.194 363.725,49.375C363.206,49.548 363.002,49.472 362.375,49.611C362.12,49.668 361.277,49.685 360.897,49.628C359.668,49.444 359.495,49.598 357.709,48.883C357.571,48.828 357.17,48.617 357.124,48.593C356.315,48.168 356.325,48.036 356.322,47.997C356.306,47.814 356.678,47.4 356.874,47.049C357.166,46.526 357.233,46.52 357.287,46.514C357.41,46.502 357.656,46.697 357.72,46.733C359.278,47.611 359.474,47.506 360.106,47.7C360.438,47.803 361.895,47.977 362.755,47.672C364.13,47.185 364.099,45.931 363.458,45.302C363.017,44.87 362.432,44.756 362.227,44.679C361.651,44.464 361.636,44.519 361.048,44.336C360.964,44.31 360.957,44.344 359.982,44.054C359.596,43.939 357.816,43.549 357.002,42.659C356.871,42.516 356.55,42.052 356.433,41.585C356.394,41.427 355.998,39.862 357.25,38.59C357.622,38.211 357.63,38.223 358.071,37.927C358.432,37.685 359.058,37.523 359.148,37.5C359.341,37.45 359.63,37.236 361.436,37.295C362.63,37.333 363.52,37.675 363.691,37.741C364.057,37.881 364.069,37.847 364.41,38.038C364.673,38.186 364.689,38.153 364.942,38.317C365.175,38.468 365.411,38.6 365.453,38.623C365.821,38.829 365.676,38.941 365.468,39.307C365.38,39.46 364.988,40.056 364.945,40.121C364.741,40.431 364.621,40.24 364.217,40.019C363.45,39.599 362.749,39.32 361.833,39.194C361.765,39.185 361.478,39.106 361.035,39.093C360.808,39.086 359.992,39.205 359.715,39.337C358.868,39.741 358.78,40.038 358.691,40.635ZM350.465,44.043C349.087,44.047 349.085,44.033 348.975,44.079C348.844,44.133 348.838,44.235 348.844,45.318C348.857,47.482 348.79,47.676 348.982,47.75C349.068,47.782 349.072,47.767 352.472,47.776C354.927,47.782 354.947,47.74 355.04,47.822C355.119,47.892 355.127,47.891 355.135,47.995C355.139,48.054 355.138,48.855 355.137,48.93C355.137,48.96 355.137,49.244 355.102,49.303C355.013,49.456 354.953,49.383 349.662,49.398C348.39,49.401 348.392,49.412 347.121,49.408C346.74,49.406 346.607,49.444 346.603,49.063C346.595,48.164 346.634,48.165 346.6,37.825C346.6,37.787 346.549,37.423 346.85,37.402C346.956,37.394 346.953,37.398 352.873,37.402C354.847,37.403 354.874,37.371 354.961,37.471C355.039,37.563 355.016,37.737 355.022,38.762C355.025,39.158 354.876,39.111 354.479,39.11C354.05,39.109 349.251,39.099 349.121,39.11C348.775,39.141 348.842,39.326 348.844,40.501C348.847,42.08 348.807,42.219 348.972,42.279C349.114,42.332 349.12,42.313 350.867,42.317C353.693,42.323 353.981,42.291 354.075,42.377C354.158,42.453 354.153,42.838 354.152,43.578C354.152,43.929 354.165,44.037 353.813,44.043C353.59,44.047 353.591,44.046 350.465,44.043ZM323.777,22.302C323.821,21.86 323.909,21.237 324.723,20.506C325.783,19.555 327.53,19.787 327.856,19.892C329.34,20.37 329.708,21.327 329.882,21.762C329.972,21.987 330.231,23.412 329.495,24.339C328.696,25.343 327.839,25.41 327.051,25.514C326.748,25.554 325.872,25.397 325.567,25.277C323.464,24.448 323.762,22.573 323.777,22.302ZM326.917,20.78C326.224,20.831 325.891,20.966 325.526,21.313C325.091,21.728 324.923,22.142 324.962,22.836C325.019,23.825 325.893,24.75 327.308,24.517C328.18,24.374 328.95,23.498 328.826,22.435C328.818,22.374 328.707,21.801 328.358,21.394C328.149,21.151 327.888,21.015 327.842,20.991C327.481,20.804 326.993,20.784 326.917,20.78ZM320.495,34.14C320.014,34.128 320.02,34.092 319.548,33.993C319.357,33.952 319.35,33.968 318.761,33.668C318.459,33.515 317.965,33 317.827,32.737C317.662,32.424 317.096,31.369 317.809,29.926C317.908,29.725 317.938,29.746 318.079,29.524C318.164,29.39 319.069,28.293 321.022,28.519C321.121,28.531 321.873,28.683 322.211,28.899C322.363,28.996 322.904,29.302 323.269,29.951C323.63,30.593 323.869,31.769 323.222,32.773C322.739,33.523 322.452,33.563 321.986,33.845C321.735,33.996 321.715,33.937 321.035,34.099C320.839,34.146 320.586,34.138 320.495,34.14ZM322.425,31.269C322.42,31.188 322.434,30.229 321.423,29.68C320.771,29.327 319.866,29.521 319.575,29.693C319.073,29.99 318.978,30.176 318.855,30.451C318.491,31.26 318.589,31.552 318.876,32.212C319.087,32.698 319.721,33.053 320.1,33.108C321.157,33.262 322.35,32.82 322.425,31.269ZM338.496,31.539C338.472,31.054 338.415,30.345 339.143,29.44C339.33,29.207 339.92,28.814 340.161,28.722C341.589,28.175 342.78,28.739 342.985,28.836C344.562,29.583 344.621,31.102 344.62,31.403C344.616,32.199 344.127,32.901 344.049,33.013C343.844,33.307 343.169,33.882 342.427,34.015C341.964,34.098 341.972,34.159 341.5,34.14C341.02,34.12 341.027,34.075 340.554,33.991C339.827,33.862 339.147,33.198 338.943,32.886C338.474,32.166 338.511,31.832 338.496,31.539ZM343.424,31.405C343.415,31.307 343.358,30.647 343.052,30.239C342.282,29.215 340.816,29.361 340.202,29.969C339.116,31.048 339.71,33.074 341.367,33.131C343.278,33.196 343.386,31.635 343.424,31.405ZM301.363,49.397C301.276,49.399 300.585,49.417 300.284,49.397C300.096,49.384 300.059,49.383 300.026,49.197C300.01,49.105 300.021,41.935 300.022,41.304C300.027,37.64 300.017,37.638 300.039,37.562C300.094,37.366 300.332,37.394 301.363,37.402C302.018,37.407 302.299,37.302 302.309,37.691C302.323,38.232 302.315,45.692 302.314,46.388C302.311,49.248 302.302,49.255 302.263,49.308C302.166,49.441 302.058,49.398 301.363,49.397ZM316.017,47.057C316.006,46.752 316.008,37.871 316.018,37.685C316.038,37.329 316.339,37.396 316.749,37.396C317.993,37.396 318.184,37.366 318.25,37.545C318.3,37.682 318.264,42.919 318.276,48.395C318.278,49.147 318.314,49.337 318.079,49.405C318.069,49.408 317.717,49.408 317.686,49.408C317.15,49.408 317.152,49.399 316.615,49.398C316.186,49.397 315.996,49.492 316.008,49.063C316.013,48.862 316.018,48.864 316.017,48.663L316.017,47.057ZM333.68,21.235C333.682,20.509 333.638,20.004 333.749,19.907C333.818,19.848 333.87,19.855 335.079,19.853C335.974,19.852 336.511,19.809 337.215,20.046C337.954,20.295 338.61,20.685 339,21.755C339.095,22.016 339.677,24.359 337.333,25.193C336.804,25.381 336.793,25.362 334.142,25.372C333.763,25.374 333.655,25.361 333.669,24.981C333.698,24.188 333.653,22.426 333.68,21.235ZM334.873,23.376C334.874,24.076 334.823,24.422 335.072,24.478C335.101,24.485 336.09,24.498 336.285,24.46C336.843,24.352 337.291,24.176 337.654,23.665C337.725,23.565 338.028,22.906 337.917,22.432C337.745,21.698 337.516,21.466 337.452,21.401C336.9,20.842 336.22,20.865 335.213,20.877C334.779,20.883 334.883,21.069 334.883,21.502C334.883,21.652 334.882,23.012 334.873,23.376ZM290.66,34.023L290.371,34.001C290.162,33.938 290.22,33.819 290.216,32.474C290.215,32.184 290.204,28.99 290.214,28.856C290.226,28.694 290.244,28.684 290.399,28.632C290.413,28.627 290.639,28.628 290.66,28.628C293.611,28.639 293.728,28.548 294.417,28.978C295.131,29.424 295.325,30.75 294.555,31.421C294.114,31.806 293.753,31.746 293.738,31.938C293.727,32.068 293.877,32.237 293.979,32.361C294.324,32.781 294.653,33.287 295.022,33.716C295.132,33.843 295.146,33.831 295.146,33.845C295.148,33.887 295.116,33.922 295.099,33.96C295.057,34.053 295.038,34.039 294.937,34.036C294.03,34.006 294.022,34.04 293.858,33.97C293.684,33.896 292.812,32.587 292.701,32.447C292.395,32.064 292.349,32.086 291.864,32.094C291.665,32.097 291.427,32.067 291.394,32.345C291.391,32.371 291.395,33.793 291.389,33.825C291.354,33.994 291.211,34.019 291.189,34.023L290.66,34.023ZM293.81,30.332C293.767,30.107 293.802,30.093 293.703,29.953C293.378,29.491 292.884,29.547 291.998,29.544C291.552,29.542 291.376,29.486 291.39,29.932C291.422,30.907 291.363,31.028 291.476,31.118C291.589,31.209 292.731,31.175 292.933,31.132C293.819,30.945 293.781,30.458 293.81,30.332ZM284.709,33.41C284.708,33.383 284.695,30.113 284.709,29.53C284.715,29.259 284.663,28.73 284.808,28.656C284.859,28.63 285.145,28.63 285.174,28.63C287.88,28.628 288.109,28.57 288.752,29.039C289.209,29.372 289.424,30.187 289.331,30.602C289.185,31.26 289.129,31.348 288.941,31.555C287.872,32.734 286.085,32.033 285.901,32.373C285.83,32.502 285.885,33.695 285.862,33.815C285.833,33.961 285.715,34.008 285.695,34.015C285.667,34.026 285.055,34.023 285.041,34.023C284.614,34.006 284.694,33.837 284.709,33.41ZM286.779,31.318C287.012,31.314 288.293,31.366 288.091,30.204C288.081,30.145 288.025,29.819 287.593,29.642C287.312,29.528 286.887,29.55 286.245,29.548C286.199,29.548 286.028,29.528 285.936,29.624C285.87,29.691 285.861,29.702 285.866,30.868C285.866,30.889 285.867,31.102 285.877,31.127C285.937,31.279 285.945,31.292 286.105,31.308L286.779,31.318ZM291.8,21.369C291.796,21.272 291.777,20.766 291.798,20.16C291.81,19.803 292.007,19.85 292.533,19.853C292.881,19.856 292.891,19.953 292.876,20.298C292.867,20.519 292.867,21.283 292.867,21.369C292.866,24.448 292.876,24.446 292.867,24.714C292.851,25.161 292.981,25.361 292.532,25.369C292.504,25.37 292.032,25.389 291.886,25.333C291.796,25.298 291.313,24.744 291.203,24.574C291.13,24.46 290.593,23.829 290.539,23.766C290.225,23.396 289.554,22.561 289.327,22.301C288.921,21.837 288.965,21.799 288.918,21.774C288.903,21.765 288.76,21.689 288.703,21.795C288.685,21.828 288.697,22.019 288.698,22.039C288.711,22.239 288.709,22.549 288.709,22.841C288.711,24.67 288.731,25.149 288.681,25.265C288.654,25.327 288.624,25.396 287.851,25.368C287.751,25.365 287.745,25.379 287.666,25.315C287.532,25.206 287.557,25.113 287.559,24.178C287.566,20.067 287.513,20.04 287.616,19.929C287.706,19.831 288.065,19.853 288.385,19.854C288.92,19.857 288.843,20.043 289.303,20.581C289.643,20.979 289.628,20.989 289.965,21.389C290.535,22.065 290.525,22.072 290.575,22.13C290.977,22.6 290.96,22.611 291.357,23.083C291.494,23.245 291.497,23.288 291.522,23.323C291.612,23.45 291.792,23.393 291.807,23.355C291.822,23.317 291.79,22.792 291.79,22.573C291.79,22.476 291.798,22.478 291.8,21.369ZM329.79,33.544C329.791,33.588 329.798,33.633 329.8,33.678C329.811,33.975 329.756,34.012 329.459,34.024C328.741,34.053 328.718,33.997 328.428,33.646C328.389,33.599 328.155,33.277 327.827,32.898C327.738,32.796 327.163,32.096 327.105,32.026C327,31.898 326.668,31.466 326.631,31.417C326.309,30.999 326.304,31.006 325.998,30.575C325.923,30.47 325.891,30.453 325.8,30.544C325.736,30.607 325.771,30.619 325.78,30.709C325.8,30.891 325.839,33.804 325.786,33.912C325.736,34.016 325.474,34.023 325.445,34.024C325.013,34.036 324.714,34.052 324.683,33.806C324.676,33.753 324.68,28.881 324.681,28.865C324.684,28.839 324.702,28.641 324.914,28.628C325.642,28.585 325.769,28.703 325.823,28.753C325.862,28.789 326.476,29.554 326.67,29.781C326.732,29.854 327.285,30.547 327.326,30.594C327.509,30.808 328.186,31.628 328.385,31.942C328.451,32.045 328.693,32.224 328.701,31.812C328.711,31.295 328.678,28.86 328.719,28.752C328.762,28.64 328.908,28.631 328.928,28.629C328.989,28.626 329.557,28.59 329.691,28.658C329.846,28.736 329.763,28.793 329.8,30.466C329.805,30.713 329.786,30.712 329.79,33.544ZM353.543,34.023C353.147,34.009 353.149,34.017 353.116,34.008C353.106,34.005 353.028,33.984 353.004,33.947C352.935,33.843 353.083,33.555 353.098,33.525C353.261,33.208 353.936,31.635 353.98,31.555C354.064,31.404 354.128,31.175 354.267,30.896C354.416,30.594 355.095,28.974 355.21,28.765C355.292,28.618 355.497,28.604 356.217,28.629C356.528,28.64 356.525,28.7 356.639,28.988C357.042,30.009 357.073,29.994 357.108,30.083C357.263,30.477 357.273,30.47 357.434,30.863C357.447,30.895 358.579,33.47 358.7,33.706C358.712,33.729 358.837,33.974 358.617,34.028C358.554,34.043 358.01,34.027 357.957,34.026C357.395,34.009 357.507,33.629 357.253,33.16C357.095,32.87 357.103,32.798 356.753,32.797C354.821,32.793 354.818,32.786 354.726,32.814C354.445,32.9 354.293,33.615 354.134,33.846C353.966,34.089 353.663,34.015 353.543,34.023ZM356.16,30.493C356.097,30.353 356.084,30.36 356.054,30.21C356.019,30.034 356.014,30.038 356.011,30.023C356.002,29.968 356.022,29.96 355.971,29.905C355.899,29.828 355.877,29.833 355.799,29.906C355.766,29.937 355.776,29.943 355.698,30.206C355.641,30.395 355.347,31.045 355.155,31.539C355.101,31.679 355.044,31.697 355.148,31.804C355.187,31.845 355.393,31.839 355.414,31.838C355.48,31.836 356.468,31.837 356.494,31.831C356.627,31.799 356.631,31.689 356.632,31.672C356.636,31.57 356.622,31.573 356.16,30.493ZM340.101,22.573C340.091,22.138 340.092,20.85 340.092,20.7C340.092,20.016 340.062,19.86 340.429,19.854C341.909,19.83 343.632,19.851 343.91,19.854C344.283,19.859 344.287,20.034 344.284,20.565C344.283,20.723 344.303,20.742 344.181,20.84C344.143,20.871 344.139,20.874 341.902,20.875C341.467,20.875 341.294,20.8 341.291,21.236C341.29,21.409 341.261,21.951 341.362,22.043C341.469,22.139 342.063,22.096 342.705,22.095C343.824,22.093 343.839,22.105 343.901,22.178C343.936,22.218 343.981,22.27 343.956,22.844C343.941,23.207 343.696,23.124 342.705,23.122C341.413,23.121 341.382,23.124 341.336,23.219C341.249,23.397 341.287,24.245 341.32,24.335C341.402,24.558 341.497,24.451 344.042,24.478C344.199,24.48 344.218,24.456 344.318,24.575C344.357,24.622 344.358,24.949 344.358,24.981C344.358,25.347 344.268,25.367 343.909,25.368C343.631,25.368 340.721,25.372 340.431,25.368C340.406,25.368 340.183,25.366 340.135,25.266C340.042,25.071 340.093,25.063 340.092,24.847C340.091,23.708 340.075,23.71 340.101,22.573ZM295.95,31.403C295.927,30.237 295.946,29.434 295.95,29.262C295.961,28.824 295.841,28.629 296.279,28.625C296.525,28.623 299.356,28.631 299.624,28.631C300.062,28.633 300.245,28.555 300.233,28.996C300.222,29.398 300.211,29.528 300.031,29.564C300.002,29.569 297.399,29.561 297.355,29.567C297.154,29.595 297.149,29.728 297.158,30.468C297.158,30.489 297.16,30.671 297.219,30.73C297.291,30.802 297.708,30.804 297.751,30.804C299.106,30.808 299.105,30.792 299.223,30.795C299.624,30.803 299.783,30.733 299.786,31.135C299.787,31.198 299.844,31.649 299.64,31.711C299.505,31.753 297.487,31.699 297.329,31.745C297.145,31.799 297.157,31.925 297.165,32.742C297.165,32.764 297.167,32.96 297.214,33.01C297.311,33.115 297.427,33.089 298.821,33.093C300.093,33.096 300.233,33.053 300.285,33.278C300.298,33.339 300.299,33.779 300.293,33.812C300.269,33.958 300.161,34.005 300.142,34.013C300.12,34.023 299.788,34.024 299.757,34.024C299.479,34.024 296.369,34.027 296.28,34.024C295.924,34.01 295.942,33.9 295.942,33.544C295.941,32.473 295.929,32.474 295.95,31.403ZM312.406,20.566C312.406,20.421 312.382,19.994 312.478,19.909C312.526,19.867 312.572,19.827 313.274,19.854C313.651,19.868 313.572,20.14 313.573,20.7C313.582,23.586 313.521,23.631 313.82,24.034C314.374,24.783 315.394,24.543 315.644,24.386C316.437,23.887 316.277,22.754 316.277,22.707C316.276,20.012 316.27,19.989 316.36,19.911C316.408,19.869 316.452,19.83 317.153,19.854C317.173,19.855 317.326,19.86 317.39,19.925C317.48,20.014 317.461,20.272 317.461,20.967C317.46,23.715 317.507,23.743 317.213,24.341C317.159,24.45 316.839,25.1 316.069,25.345C315.036,25.672 314.316,25.467 314.065,25.417C313.677,25.339 313.094,25.015 312.863,24.719C312.259,23.949 312.408,23.618 312.406,20.566ZM294.075,21.369C294.077,21.325 294.061,21.074 294.163,20.844C294.364,20.394 294.863,19.843 295.879,19.799C296.897,19.755 297.307,19.928 297.61,20.049C298.353,20.345 298.391,20.528 298.187,20.853C298.018,21.12 297.934,21.33 297.643,21.184C297.443,21.082 297.464,21.03 296.686,20.816C296.072,20.647 295.068,20.847 295.298,21.519C295.435,21.919 296.51,22.07 296.694,22.129C297.301,22.323 297.317,22.284 297.877,22.585C298.519,22.929 298.891,23.926 298.375,24.685C297.561,25.883 295.27,25.452 294.825,25.213C294.572,25.077 294.485,25.073 294.295,24.946C294.094,24.812 293.734,24.661 293.964,24.416C294.319,24.037 294.346,23.799 294.778,24.09C295.031,24.26 295.038,24.242 295.318,24.367C296.035,24.688 297.153,24.608 297.357,24.048C297.396,23.942 297.586,23.421 296.267,23.163C295.784,23.068 295.79,23.051 295.325,22.891C295.229,22.858 294.514,22.612 294.271,22.172C294.067,21.803 294.092,21.79 294.075,21.369ZM311.932,34.139C311.453,34.115 311.461,34.071 310.987,33.993C310.665,33.94 310.055,33.675 309.91,33.567C309.558,33.306 309.397,33.229 309.692,32.906C310.036,32.529 310.123,32.537 310.305,32.644C310.569,32.798 310.565,32.798 310.847,32.914C310.861,32.919 311.238,33.191 312.2,33.13C313.141,33.07 312.991,32.426 312.957,32.363C312.829,32.125 312.657,32.056 312.049,31.871C311.661,31.752 310.166,31.587 309.791,30.601C309.441,29.681 310.219,28.894 310.718,28.701C311.156,28.531 311.347,28.516 311.404,28.511C312.365,28.434 312.913,28.549 313.67,28.998C314.023,29.207 313.773,29.435 313.54,29.799C313.381,30.049 313.09,29.783 312.748,29.635C312.326,29.453 311.219,29.339 310.985,29.791C310.628,30.481 311.761,30.665 311.936,30.725C312.611,30.957 313.093,30.922 313.762,31.456C314.179,31.788 314.267,32.4 314.171,32.869C314.017,33.627 313.261,33.937 312.858,34.015C312.381,34.108 312.383,34.115 312.341,34.12C312.046,34.161 312.001,34.136 311.932,34.139ZM335.614,34.138C335.581,34.137 335.282,34.13 335.205,34.113C334.87,34.04 334.872,34.042 334.536,33.981C334.228,33.924 333.662,33.633 333.584,33.578C333.27,33.353 333.086,33.265 333.319,32.993C333.615,32.646 333.65,32.454 334.027,32.713C334.854,33.281 336.517,33.337 336.603,32.614C336.688,31.904 335.444,31.848 334.824,31.632C333.757,31.26 333.698,31.023 333.551,30.764C333.047,29.878 333.787,28.95 334.28,28.735C335.446,28.226 336.694,28.69 336.695,28.69C336.75,28.704 337.01,28.772 337.337,29.017C337.576,29.195 337.548,29.347 337.24,29.814C337.121,29.993 337.032,29.926 336.536,29.694C335.757,29.329 334.817,29.461 334.674,29.796C334.379,30.488 335.445,30.641 335.742,30.75C336.056,30.865 336.132,30.86 336.432,30.95C338.344,31.52 337.927,33.256 337.224,33.684C336.909,33.876 336.924,33.914 336.562,33.993C336.064,34.102 336.066,34.111 336.023,34.118C335.732,34.16 335.679,34.135 335.614,34.138ZM348.188,34.134C347.921,34.108 347.924,34.103 347.661,34.049C347.635,34.044 347.305,34.001 347.12,33.947C346.438,33.748 345.966,33.256 345.885,33.172C344.973,32.222 345.186,31.012 345.187,30.995C345.25,30.141 345.761,29.542 345.994,29.333C346.567,28.821 346.802,28.738 347.511,28.552C347.528,28.548 348.102,28.428 348.736,28.534C349.639,28.686 350.142,29.132 350.241,29.219C350.526,29.471 350.204,29.657 350.127,29.729C350.005,29.843 349.835,30.123 349.637,29.98C348.907,29.451 348.449,29.516 348.057,29.522C346.836,29.542 346.179,30.695 346.366,31.661C346.426,31.971 346.664,32.37 346.735,32.46C346.947,32.727 347.426,33.047 347.796,33.105C348.722,33.25 349.326,32.848 349.369,32.826C349.561,32.731 349.733,32.487 349.948,32.723C350.327,33.139 350.478,33.268 350.244,33.46C349.71,33.9 349.093,34.002 348.984,34.02C348.586,34.086 348.593,34.12 348.188,34.134ZM303.638,34.024C303.426,34.009 303.414,34.058 303.228,33.956C303.142,33.909 303.009,33.475 302.729,32.862C302.466,32.285 301.567,30.174 301.52,30.055C301.308,29.522 301.306,29.526 301.08,29.001C301.01,28.839 300.924,28.82 301.045,28.693C301.067,28.67 301.075,28.631 301.104,28.619C301.143,28.603 301.188,28.614 301.23,28.615C301.283,28.616 301.755,28.622 301.896,28.634C302.199,28.657 302.193,28.713 302.309,28.991C302.369,29.133 303.445,31.816 303.5,31.94C303.698,32.388 303.606,32.455 303.782,32.543C303.919,32.611 303.93,32.347 303.993,32.188C304.074,31.986 304.925,29.857 304.986,29.667C305.007,29.603 305.145,29.172 305.28,28.876C305.427,28.556 305.674,28.632 306.179,28.627C306.375,28.625 306.393,28.566 306.509,28.67C306.66,28.805 306.536,28.833 306.421,29.119C306.388,29.204 306.104,29.912 305.989,30.174C305.937,30.293 305.44,31.423 305.345,31.657C305.274,31.83 304.847,32.88 304.44,33.811C304.322,34.08 304.027,34.024 303.638,34.024ZM300.769,21.77C300.765,21.647 300.76,21.276 300.76,21.233C300.757,20.998 300.78,20.943 300.554,20.881C300.529,20.874 299.268,20.882 299.215,20.87C299.194,20.866 299.069,20.838 299.02,20.689C299.009,20.654 299.024,20.202 299.026,20.16C299.038,19.822 299.151,19.852 299.49,19.854C303.186,19.873 303.184,19.849 303.505,19.853C303.724,19.855 303.854,19.882 303.844,20.3C303.835,20.706 303.91,20.867 303.505,20.874C302.142,20.9 302.117,20.852 302.02,20.957C301.932,21.051 301.972,21.456 301.968,21.637C301.931,23.425 302.011,25.08 301.928,25.268C301.88,25.378 301.667,25.376 301.096,25.369C300.768,25.365 300.761,25.243 300.761,24.847C300.757,21.791 300.768,21.792 300.769,21.77ZM309.587,21.369C309.595,24.694 309.588,24.693 309.6,24.981C309.619,25.431 309.438,25.37 308.989,25.37C308.949,25.37 308.561,25.369 308.494,25.326C308.383,25.255 308.402,25.22 308.4,22.573C308.399,21.325 308.419,21.038 308.337,20.952C308.243,20.853 307.938,20.879 306.982,20.876C306.475,20.874 306.574,20.665 306.572,20.298C306.571,20.142 306.51,19.872 306.844,19.854C306.862,19.853 311.113,19.853 311.135,19.856C311.335,19.879 311.381,19.971 311.387,20.165C311.4,20.631 311.408,20.855 311.135,20.875C311.132,20.875 309.816,20.872 309.798,20.878C309.643,20.922 309.627,20.929 309.601,21.09C309.597,21.112 309.6,21.111 309.587,21.369ZM320.167,23.911C320.125,22.706 320.186,22.707 320.158,21.503C320.147,21.068 320.259,20.878 319.826,20.876C318.915,20.871 318.48,20.908 318.374,20.811C318.37,20.807 318.279,20.797 318.304,20.161C318.305,20.133 318.314,19.911 318.479,19.866C318.65,19.82 322.428,19.851 322.771,19.854C322.988,19.856 323.114,19.887 323.12,20.166C323.121,20.2 323.151,20.733 323.033,20.827C322.916,20.919 321.809,20.861 321.569,20.874C321.55,20.875 321.406,20.883 321.362,20.994C321.296,21.161 321.394,25.054 321.306,25.253C321.245,25.391 320.919,25.372 320.496,25.37C320.112,25.368 320.148,25.231 320.157,24.847C320.168,24.377 320.151,24.379 320.167,23.911ZM360.562,29.129C360.561,31.01 360.571,31.008 360.571,31.537C360.571,31.623 360.563,31.621 360.562,32.607C360.561,32.967 360.542,33.078 360.901,33.092C361.094,33.1 361.093,33.069 363.309,33.09C363.727,33.094 363.654,33.259 363.655,33.678C363.656,33.975 363.605,34.013 363.309,34.023C362.857,34.038 360.232,34.025 359.965,34.024C359.747,34.023 359.737,34.07 359.544,33.97C359.405,33.898 359.474,33.842 359.444,30.065C359.434,28.774 359.443,28.758 359.525,28.683C359.538,28.671 359.532,28.61 360.23,28.631C360.594,28.642 360.557,28.766 360.562,29.129ZM285.925,23.911C285.924,25.133 285.971,25.325 285.707,25.364C285.668,25.37 284.95,25.37 284.91,25.364C284.732,25.334 284.719,25.146 284.717,25.121C284.713,25.063 284.72,20.684 284.721,20.298C284.721,19.966 284.707,19.864 285.038,19.855C285.751,19.836 285.852,19.869 285.899,20.007C285.929,20.096 285.925,20.099 285.925,23.911ZM305.243,19.854C305.334,19.862 305.426,19.847 305.516,19.856C305.78,19.88 305.752,20.13 305.752,20.166C305.759,20.551 305.727,20.548 305.755,24.981C305.757,25.302 305.719,25.368 305.377,25.368C304.985,25.369 304.758,25.39 304.661,25.302C304.499,25.155 304.579,25.113 304.556,23.108C304.54,21.77 304.57,21.772 304.55,20.432C304.55,20.4 304.545,20.063 304.555,20.025C304.586,19.905 304.682,19.875 304.698,19.87C304.749,19.854 305.2,19.854 305.243,19.854ZM315.214,31.938C315.192,30.983 315.204,29.213 315.214,28.994C315.224,28.757 315.192,28.7 315.417,28.634C315.427,28.631 316.017,28.619 316.078,28.622C316.101,28.623 316.271,28.633 316.333,28.736C316.392,28.835 316.36,28.846 316.372,33.009C316.373,33.658 316.418,33.932 316.2,34.016C316.195,34.017 315.376,34.062 315.272,33.951C315.199,33.872 315.204,33.577 315.204,33.544C315.219,32.739 315.195,32.742 315.214,31.938ZM308.053,34.024C308.021,34.024 307.617,34.038 307.494,33.984C307.38,33.935 307.38,33.704 307.381,33.678C307.382,31.091 307.378,31.093 307.381,30.868C307.406,29.158 307.3,28.822 307.479,28.676C307.54,28.625 307.884,28.624 307.919,28.624C308.364,28.622 308.54,28.549 308.541,28.995C308.543,29.37 308.552,32.49 308.54,33.677C308.537,33.916 308.545,33.966 308.314,34.021L308.053,34.024ZM352.267,31.135C352.294,32.34 352.253,32.338 352.276,33.543C352.277,33.576 352.283,33.875 352.211,33.952C352.108,34.062 351.297,34.018 351.285,34.013C351.096,33.924 351.163,33.698 351.149,32.339C351.146,32.013 351.158,29.412 351.142,28.995C351.137,28.858 351.092,28.639 351.403,28.63C352.176,28.608 352.198,28.652 352.227,28.711C352.293,28.846 352.26,29.452 352.268,29.664C352.293,30.363 352.271,31.018 352.267,31.135ZM321.014,27.377C321.048,27.333 321.042,27.332 321.075,27.291C321.102,27.257 321.105,27.262 321.131,27.229C321.274,27.051 321.364,26.832 321.566,26.852C321.614,26.856 321.613,26.86 322.102,27.12C322.526,27.347 321.904,27.713 321.891,27.724C321.454,28.079 321.448,28.138 320.888,28.107C320.643,28.094 320.553,28.03 320.691,27.827C320.848,27.597 320.858,27.606 321.014,27.377Z" style="fill-opacity:0.99;"/>
            </g>
        </g>
    </g>
</svg>
