<?xml version="1.0" encoding="UTF-8" standalone="no"?>
<!DOCTYPE svg PUBLIC "-//W3C//DTD SVG 1.1//EN" "http://www.w3.org/Graphics/SVG/1.1/DTD/svg11.dtd">
<svg width="100%" height="100%" viewBox="0 0 509 81" version="1.1" xmlns="http://www.w3.org/2000/svg" xmlns:xlink="http://www.w3.org/1999/xlink" xml:space="preserve" xmlns:serif="http://www.serif.com/" style="fill-rule:evenodd;clip-rule:evenodd;stroke-linejoin:round;stroke-miterlimit:2;">
    <g transform="matrix(1,0,0,1,-2501.91,-410.702)">
        <g transform="matrix(1,0,0,1,2126.17,0)">
            <g transform="matrix(2.00134,0,0,2.00134,375.742,157.62)">
                <path d="M76.182,152.051C74.61,152.023 73.682,151.981 71.714,151.174C71.55,151.107 71.025,150.892 69.796,150.079C69.486,149.873 68.245,148.727 67.876,148.292C66.107,146.207 65.759,144.479 65.756,144.472C65.164,142.885 65.234,140.788 65.261,140.503C65.436,138.661 65.609,138.182 65.678,137.991C66.101,136.821 66.082,136.815 66.133,136.719C66.464,136.091 66.445,136.028 66.645,135.722C66.812,135.465 67.272,134.645 67.889,133.957C70.517,131.025 73.255,130.559 73.965,130.391C75.35,130.063 77.583,130.178 78.401,130.38C79.066,130.545 81.896,130.997 84.599,134.067C85.369,134.942 85.959,136.118 86.055,136.31C86.54,137.277 86.471,137.422 86.614,137.77C87.068,138.875 86.918,138.996 87.054,140.26C87.201,141.629 87.083,141.627 86.97,142.998C86.878,144.115 86.697,144.156 86.453,144.998C85.833,147.131 83.755,149.093 83.634,149.196C82.911,149.813 80.547,152.147 76.182,152.051ZM76.182,132.413C75.321,132.448 74.171,132.312 72.01,133.397C71.054,133.877 69.98,134.975 69.823,135.135C68.679,136.304 67.931,138.182 67.914,138.24C67.101,140.993 67.673,143.062 67.824,143.712C68.001,144.475 68.942,146.237 69.805,147.129C71.25,148.622 72.92,149.7 75.934,149.93C76.058,149.94 78.366,149.941 79.967,149.056C80.121,148.971 81.793,148.346 83.343,146.186C83.802,145.547 84.431,144.226 84.554,143.715C84.942,142.109 84.95,141.677 84.953,141.497C84.978,140.071 84.857,140.085 84.594,138.769C84.553,138.561 84.417,137.88 83.526,136.344C83.215,135.809 82.011,134.454 81.11,133.859C78.901,132.398 77.489,132.465 76.182,132.413ZM36.364,142.111C36.414,142.465 36.426,142.463 36.418,142.493C36.413,142.516 36.41,142.513 36.208,142.767C35.055,144.218 32.232,148.058 29.392,150.63C29.245,150.764 27.99,151.9 27.214,151.829C26.138,151.729 26.203,150.651 26.212,150.444C26.269,149.173 26.816,148.071 26.865,147.928C27.028,147.446 28.552,144.205 28.864,143.684C29.038,143.395 29.216,142.94 29.352,142.689C30.167,141.189 31.2,138.868 31.244,138.793C31.689,138.033 32.506,135.62 32.561,135.26C32.766,133.913 32.502,133.65 31.927,133.753C31.571,133.817 31.282,133.857 29.777,135.127C26.903,137.552 21.32,145.01 19.277,147.479C16.914,150.332 15.185,152.418 14.059,151.653C13.122,151.018 13.89,149.073 15.119,146.76C15.324,146.375 17.565,142.159 17.694,141.952C18.013,141.439 18.013,141.303 18.188,140.964C18.335,140.68 19.505,138.487 19.954,137.006C20.05,136.688 20.299,136.275 20.381,135.757C20.655,134.023 20.509,133.857 20.259,133.77C19.493,133.503 18.51,134.476 17.359,135.39C17.03,135.652 15.15,137.681 14.697,138.191C12.738,140.4 11.655,141.83 10.605,143.03C10.092,143.616 10.128,143.642 9.83,143.999C7.716,146.533 6.771,147.584 6.497,147.889C4.896,149.67 3.154,151.25 2.305,151.58C-0.38,152.624 -0.42,150.097 0.669,147.235C1.677,144.586 3.721,140.799 3.78,140.71C4.031,140.334 5.691,137.23 6.797,135.511C7.251,134.806 7.229,134.625 8.069,134.651C10.103,134.714 10.108,134.582 10.275,134.638C10.306,134.648 10.449,134.913 10.448,134.981C10.447,135.02 10.382,135.025 10.354,135.054C10.304,135.106 10.134,135.301 10.115,135.322C9.705,135.791 7.071,139.208 5.397,141.783C4.723,142.819 3.438,145.016 3.337,145.22C2.315,147.279 2.263,147.943 2.244,148.196C2.229,148.38 2.011,149.436 3.027,148.832C3.679,148.445 5.036,147.069 5.46,146.602C7.849,143.972 12.483,138.206 13.074,137.548C14.205,136.287 14.155,136.247 14.806,135.553C16.967,133.25 17.026,133.196 17.234,133.007C18.942,131.447 19.67,130.986 20.23,130.762C21.113,130.41 21.699,130.261 22.31,130.701C23.473,131.537 22.985,132.947 22.663,134.518C22.589,134.884 22.378,135.257 22.291,135.544C22.03,136.412 22.021,136.406 21.67,137.242C20.022,141.181 15.898,148.325 15.879,148.688C15.864,148.989 16.255,148.752 16.283,148.735C16.434,148.644 16.572,148.335 18.738,145.705C19.458,144.832 23.966,138.883 25.415,137.222C25.47,137.159 26.082,136.456 26.103,136.429C26.979,135.311 27.046,135.373 27.97,134.298C28.152,134.086 28.747,133.393 30.514,131.886C30.535,131.868 30.765,131.671 30.778,131.662C34.52,128.936 35.012,131.479 35.077,131.817C35.325,133.098 34.325,135.892 34.051,136.466C33.81,136.97 33.866,136.991 33.618,137.489C33.25,138.229 33.333,138.263 33.094,138.72C32.695,139.484 32.766,139.513 32.388,140.23C32.119,140.739 31.479,142.197 31.341,142.434C30.854,143.273 28.441,148.495 28.463,148.704C28.466,148.728 28.679,148.95 28.702,148.952C28.879,148.968 29.326,148.453 29.385,148.39C31.931,145.692 33.709,142.568 33.981,142.307C34.119,142.175 34.171,142.125 36.364,142.111ZM101.862,146.165C102.368,146.975 102.35,147.033 102.533,147.039C102.943,147.053 102.721,146.8 102.721,144.976L102.721,131.303C102.725,130.371 103.092,130.513 103.775,130.512C104.246,130.511 104.668,130.443 104.888,130.718C105.003,130.861 104.989,130.886 104.989,138.761C104.989,151.303 104.992,151.304 104.964,151.424C104.9,151.703 104.573,151.747 104.529,151.753C104.499,151.757 103.478,151.774 103.27,151.722C102.807,151.606 102.456,150.796 101.701,149.759C101.131,148.975 101.168,148.953 100.593,148.171C100.347,147.838 100.405,147.802 99.986,147.258C99.795,147.008 99.839,146.984 97.748,144.022C97.666,143.904 97.681,143.895 96.754,142.529C96.618,142.328 95.711,140.99 95.028,140.035C94.903,139.86 94.911,139.858 93.502,137.819C93.399,137.668 92.271,136.037 92.214,135.932C91.877,135.317 91.89,135.305 91.839,135.287C91.833,135.285 91.461,135.324 91.459,135.327C91.431,135.364 91.488,135.418 91.49,135.465C91.494,135.6 91.519,151.319 91.484,151.415C91.345,151.799 91.26,151.752 90.85,151.758C89.844,151.772 89.522,151.754 89.394,151.642C89.226,151.494 89.248,151.449 89.248,145.224C89.248,131.082 89.246,131.081 89.251,131.043C89.331,130.377 89.836,130.51 90.351,130.512C91.485,130.519 91.391,131.039 92.642,132.758C92.832,133.019 94.012,134.772 94.37,135.252C94.758,135.774 95.445,136.905 95.983,137.586C96.266,137.945 96.217,137.974 99.217,142.298C100.183,143.691 100.426,144.083 100.525,144.243C100.703,144.531 100.873,144.622 101.538,145.721C101.561,145.759 101.612,145.843 101.862,146.165ZM50.578,152.051C50.563,152.051 48.147,152.247 45.837,150.97C44.383,150.167 43.453,148.735 43.298,148.497C43.272,148.457 42.831,147.622 42.786,147.494C42.479,146.63 42.795,146.619 43.568,146.135C43.636,146.092 44.305,145.673 44.52,145.823C44.684,145.939 45.141,148.34 47.622,149.384C48.377,149.701 49.949,149.997 50.823,149.917C52.645,149.752 54.047,149.392 55.001,147.683C55.064,147.568 55.969,145.451 54.478,144.065C53.483,143.14 51.549,142.519 50.304,142.056C49.768,141.857 45.691,140.873 44.28,138.814C43.475,137.641 42.813,134.508 44.864,132.302C46.943,130.066 49.495,130.132 51.081,130.229C52.206,130.298 54.173,131.082 55.209,132.138C56.275,133.226 56.548,133.831 56.625,134.001C56.952,134.724 57.271,134.95 56.555,135.302C55.63,135.757 55.294,136.203 54.908,135.475C54.549,134.8 53.579,132.516 50.583,132.439C49.813,132.419 47.856,132.184 46.446,133.869C46.174,134.194 45.539,135.482 45.798,136.537C46.032,137.494 46.136,137.937 47.819,138.804C48.285,139.044 48.45,139.03 49.047,139.341C49.489,139.571 49.515,139.492 50.093,139.724C50.886,140.043 53.91,140.75 55.892,142.374C56.451,142.832 56.433,142.85 56.861,143.435C57.212,143.913 58.018,145.703 57.371,147.738C57.08,148.654 57.054,148.641 56.559,149.461C56.276,149.929 55.146,150.895 54.752,151.09C52.77,152.075 51.615,152.028 50.578,152.051ZM129.38,152.051C125.011,152.155 122.592,149.725 121.825,147.746C121.648,147.289 121.38,146.944 121.621,146.674C121.745,146.534 121.988,146.438 122.384,146.165C122.456,146.115 123.224,145.585 123.451,145.934C123.582,146.135 123.83,147.359 125.094,148.521C126.015,149.369 128.057,150.172 130.357,149.844C132.044,149.603 132.623,149.155 133.223,148.574C134.144,147.682 134.852,145.474 133.303,144.041C131.917,142.757 128.228,141.819 127.611,141.558C127.096,141.34 123.767,140.347 122.852,138.294C122.758,138.082 122.071,136.758 122.457,134.791C122.744,133.332 123.541,132.486 123.692,132.325C124.644,131.315 125.407,130.852 127.155,130.356C127.28,130.321 129.303,129.909 131.144,130.481C132.049,130.762 133.938,131.353 135.559,134.059C136.076,134.923 135.641,135.182 135.561,135.23C135.485,135.275 135.481,135.257 134.585,135.751C133.35,136.432 134.252,134.389 131.334,132.863C130.079,132.208 127.674,132.35 126.863,132.732C126.856,132.735 124.596,133.522 124.615,136.027C124.621,136.892 124.807,137.884 126.628,138.791C126.724,138.838 126.737,138.803 127.86,139.315C128.249,139.492 129.348,139.843 130.386,140.215C130.461,140.242 131.612,140.514 133.378,141.459C133.518,141.534 134.321,141.963 135.026,142.573C136.748,144.063 136.848,147.173 135.617,149.217C135.27,149.794 134.112,150.843 133.566,151.112C131.577,152.095 130.47,152.022 129.38,152.051ZM113.718,142.108C110.79,142.108 110.593,142.033 110.514,142.494C110.508,142.528 110.503,142.527 110.504,148.704C110.504,149.127 110.472,149.321 110.691,149.514C110.891,149.69 110.937,149.594 119.934,149.604C120.558,149.604 120.759,149.563 120.779,150.19C120.818,151.425 120.806,151.739 120.185,151.757C119.31,151.782 119.315,151.759 109.244,151.758C108.641,151.758 108.31,151.82 108.278,151.189C108.276,151.151 108.275,131.142 108.278,131.057C108.305,130.441 108.846,130.513 108.995,130.512L119.934,130.512C120.763,130.519 120.621,130.978 120.619,131.8C120.619,132.409 120.587,132.613 119.934,132.619C118.176,132.635 111.001,132.58 110.774,132.655C110.451,132.763 110.504,132.937 110.504,136.275C110.504,139.686 110.453,139.804 110.767,139.923C111.026,140.02 119.19,139.935 119.44,139.972C119.894,140.039 119.878,140.468 119.879,140.505C119.935,141.922 119.822,141.978 119.712,142.032C119.535,142.12 119.523,142.108 113.718,142.108ZM39.142,151.758C38.433,151.721 38.146,151.9 38.102,151.193C38.055,150.435 38.096,133.123 38.1,131.552C38.102,130.894 37.957,130.515 38.893,130.512C39.749,130.509 40.306,130.388 40.348,131.057C40.351,131.115 40.35,151.136 40.348,151.188C40.339,151.48 40.368,151.512 40.137,151.689C40.056,151.752 39.222,151.757 39.142,151.758ZM61.266,151.758C60.612,151.741 60.57,151.871 60.31,151.642C60.182,151.529 60.169,151.236 60.167,151.199C60.165,151.151 60.163,131.125 60.168,131.044C60.171,130.994 60.194,130.61 60.514,130.532C60.593,130.512 61.206,130.512 61.266,130.512C62.118,130.512 62.42,130.454 62.395,131.304C62.356,132.601 62.392,150.892 62.377,151.201C62.374,151.252 62.355,151.663 62.025,151.741L61.266,151.758ZM135.709,160.899C135.594,161.532 135.635,161.551 135.298,162.101C134.118,164.032 131.309,163.523 130.625,161.878C130.266,161.015 130.046,160.41 130.612,159.141C131.027,158.211 132.197,157.427 133.599,157.688C134.144,157.79 134.889,158.32 135.117,158.631C135.941,159.758 135.71,160.896 135.709,160.899ZM134.944,160.385C134.935,160.3 134.937,160.215 134.928,160.131C134.687,157.889 131.661,157.692 131.14,159.895C130.672,161.878 132.49,163.208 133.794,162.52C135.088,161.838 134.94,160.496 134.944,160.385ZM141.063,126.456C141.098,126.631 141.049,126.633 141.084,126.808C141.115,126.959 141.169,126.936 141.192,127.092C141.215,127.251 141.199,127.414 141.197,127.575C141.176,129.17 141.182,129.352 141.182,164.614C141.182,165.68 141.28,165.685 141.063,166.727L140.605,166.337C140.558,166.256 140.562,166.249 140.562,128.072C140.562,128.053 140.54,126.964 140.624,126.859C140.747,126.703 140.94,126.612 141.063,126.456ZM25.338,161.163C25.205,161.602 25.16,162.404 23.955,163.078C23.566,163.296 21.939,163.731 20.811,162.567C20.262,162.001 19.775,160.689 20.123,159.687C20.196,159.477 20.506,158.191 22.009,157.721C22.966,157.422 23.815,157.876 23.953,157.95C24.449,158.215 24.989,158.545 25.295,159.617C25.462,160.203 25.354,161.04 25.338,161.163ZM20.852,159.911C20.752,160.772 20.67,161.882 22.033,162.544C23.147,163.085 25.02,162.188 24.579,159.873C24.557,159.755 24.413,158.997 23.743,158.627C23.622,158.56 22.86,158.139 22.019,158.478C21.004,158.887 20.922,159.682 20.852,159.911ZM160.104,155.133C160.108,155.124 160.278,154.448 160.969,153.951C161.099,153.858 161.876,153.299 162.947,153.651C163.113,153.705 163.725,154.16 163.889,153.904C163.924,153.849 163.873,152.848 163.889,152.43C163.917,151.675 164.492,151.871 164.602,152.004C164.716,152.14 164.717,152.627 164.717,152.682C164.718,153.08 164.73,157.336 164.71,157.657C164.679,158.185 164.249,158.206 164.007,158.03C163.97,158.003 163.955,157.949 163.916,157.924C163.551,157.693 163.304,158.028 162.937,158.146C161.587,158.582 160.239,157.618 160.03,156.394C159.905,155.661 160.096,155.175 160.104,155.133ZM160.822,155.913C160.874,156.255 160.826,156.449 161.177,156.927C161.285,157.075 162.073,157.754 162.909,157.339C164.357,156.622 163.991,155.123 163.214,154.632C163.141,154.586 162.662,154.283 162.182,154.33C161.782,154.369 161.073,154.721 160.891,155.4C160.891,155.4 160.827,155.872 160.822,155.913ZM187.057,144.611C187.599,144.676 187.628,144.607 188.083,144.908C188.314,145.061 188.323,145.077 188.596,145.02C188.678,145.003 188.638,144.963 188.627,144.23C188.626,144.153 188.614,143.341 188.644,143.26C188.805,142.825 189.28,142.901 189.384,143.186C189.489,143.477 189.433,143.488 189.438,147.71C189.438,148.061 189.568,149.12 189.039,149.124C188.82,149.126 188.454,148.798 188.334,148.816C188.056,148.859 187.369,149.797 185.808,148.954C184.066,148.014 184.423,144.739 186.795,144.614C186.882,144.609 186.97,144.615 187.057,144.611ZM185.858,147.917C186.284,148.279 186.251,148.364 186.804,148.452C187.803,148.612 188.876,147.715 188.521,146.474C188.052,144.833 185.474,145.139 185.507,146.965C185.517,147.487 185.6,147.467 185.858,147.917ZM207.317,156.702C207.313,156.686 207.113,156.194 207.176,155.664C207.409,153.69 209.496,153.141 210.479,153.821C210.521,153.85 210.974,154.164 211.112,153.903C211.132,153.864 211.087,152.826 211.102,152.429C211.105,152.367 211.13,151.713 211.675,151.909C211.885,151.985 211.886,152.618 211.887,152.682C211.887,153.079 211.897,157.18 211.879,157.651C211.862,158.117 211.494,158.227 211.233,158.04C211.194,158.013 211.178,157.96 211.14,157.933C210.771,157.672 210.535,158.012 210.165,158.137C209.035,158.521 208.221,157.874 208.089,157.77C207.506,157.306 207.445,156.988 207.317,156.702ZM208.04,156.146C208.12,156.412 208.107,156.931 208.957,157.342C209.962,157.83 211.44,156.837 211.008,155.386C210.72,154.418 209.147,153.809 208.28,154.985C208.173,155.13 208.109,155.357 208.099,155.392C207.994,155.766 208.04,156.08 208.04,156.146ZM189.323,157.855C188.8,157.432 188.461,157.021 188.369,156.399C188.005,153.922 190.38,153.066 191.593,153.806C192.101,154.115 192.213,153.85 192.328,153.765C192.465,153.663 192.995,153.471 193.046,154.171C193.047,154.184 193.046,157.643 193.045,157.656C193.013,158.191 192.571,158.201 192.339,158.04C192.301,158.014 192.285,157.961 192.245,157.935C191.801,157.647 191.657,158.175 190.787,158.238C190.01,158.294 190.006,158.23 189.323,157.855ZM192.15,155.452C192.099,155.345 192.035,154.868 191.259,154.46C190.919,154.281 190.398,154.288 190.056,154.464C188.074,155.488 189.605,158.1 191.246,157.336C192.495,156.756 192.156,155.514 192.15,155.452ZM40.376,163.246C40.167,163.17 39.865,163.342 39.83,162.626C39.819,162.406 39.823,158.628 39.83,158.399C39.851,157.771 40.059,157.731 40.634,157.712C41.563,157.683 42.157,157.664 42.882,158.135C43.239,158.367 43.471,159.053 43.314,159.628C43.167,160.162 42.86,160.336 43.212,160.808C43.276,160.894 43.707,161.473 43.527,162.104C43.127,163.515 41.434,163.313 40.376,163.246ZM40.509,161.631C40.535,162.344 40.416,162.624 41.131,162.629C41.522,162.631 41.933,162.665 42.395,162.409C42.887,162.137 43.122,160.824 41.633,160.782C40.794,160.759 40.6,160.788 40.536,161.109C40.528,161.15 40.534,161.147 40.509,161.631ZM40.509,159.146C40.537,159.831 40.443,160.087 41.132,160.088C41.209,160.088 41.936,160.088 42.094,160.033C42.8,159.788 43.018,158.528 41.627,158.412C40.68,158.333 40.603,158.533 40.573,158.613C40.557,158.653 40.568,158.653 40.509,159.146ZM167.545,155.914C167.552,155.831 167.525,155.548 167.662,155.168C168.567,152.666 172.034,153.255 172.23,155.656C172.458,158.442 168.94,159.016 167.915,157.154C167.478,156.36 167.567,156.136 167.545,155.914ZM170.163,154.351C169.664,154.354 169.636,154.264 169.207,154.518C169.14,154.558 168.734,154.799 168.529,155.22C167.996,156.315 168.989,157.661 170.154,157.438C171.329,157.213 171.829,155.799 171.118,154.939C170.751,154.496 170.705,154.551 170.163,154.351ZM235.415,155.131C235.672,154.505 235.648,154.475 236.175,154.054C237.68,152.851 239.962,153.867 239.95,155.913C239.933,158.591 236.402,158.985 235.505,156.918C235.081,155.941 235.381,155.279 235.415,155.131ZM236.125,155.913C236.126,155.92 236.037,156.89 237.052,157.331C237.677,157.602 238.141,157.383 238.51,157.157C239.479,156.562 239.368,154.791 238.024,154.387C237.91,154.353 237.267,154.16 236.588,154.749C236.112,155.163 236.136,155.821 236.125,155.913ZM179.339,144.611C179.437,144.615 180.178,144.642 180.541,144.828C182.33,145.745 182.131,148.235 180.607,148.989C179.468,149.552 178.864,149.229 178.333,148.988C177.014,148.386 176.733,146.174 177.853,145.223C178.567,144.617 178.832,144.675 179.339,144.611ZM180.977,146.963C180.948,146.72 180.979,146.234 180.52,145.793C180.462,145.737 180.149,145.436 179.599,145.397C177.566,145.251 177.357,148.279 179.345,148.461C179.882,148.51 180.43,148.169 180.499,148.106C181.001,147.647 180.976,146.974 180.977,146.963ZM171.154,133.931C171.235,133.967 171.329,133.965 171.41,134C171.664,134.111 171.918,134.649 172.799,136.077C173.308,136.902 173.283,136.937 173.399,136.97C173.708,137.058 173.647,136.874 174.068,136.239C174.917,134.96 175.196,133.958 175.863,133.927C176.493,133.897 176.418,134.494 176.419,134.534C176.419,134.542 176.434,139.654 176.417,139.764C176.33,140.312 175.644,140.309 175.556,139.766C175.546,139.704 175.539,137.166 175.561,136.773C175.608,135.918 175.652,135.901 175.57,135.813C175.326,135.551 175.125,135.98 175.108,136.017C174.553,137.205 174.117,137.706 173.847,138.245C173.702,138.537 173.688,138.608 173.369,138.537C173.245,138.509 173.263,138.477 172.493,137.204C171.899,136.223 171.825,135.813 171.638,135.78C171.175,135.699 171.421,136.032 171.421,138.015C171.422,139.308 171.503,140.075 171.119,140.168C171.065,140.181 170.63,140.285 170.549,139.773C170.536,139.696 170.544,135.411 170.545,135.032C170.545,134.971 170.546,134.312 170.556,134.266C170.616,133.995 170.83,133.947 170.865,133.938C170.959,133.917 171.06,133.953 171.154,133.931ZM221.932,152.633C222.019,152.78 222.74,154.007 223.034,154.464C223.056,154.499 223.264,154.822 223.371,154.851C223.407,154.861 223.6,154.913 223.783,154.627C224.378,153.694 224.299,153.652 224.913,152.73C225.082,152.477 225.288,151.874 225.832,151.868C225.879,151.868 226.239,151.864 226.33,152.184C226.371,152.331 226.368,153.293 226.368,156.908C226.368,157.058 226.466,158.035 226.073,158.127C225.575,158.244 225.538,157.716 225.534,157.659C225.534,157.649 225.52,155.085 225.543,154.671C225.591,153.809 225.638,153.791 225.552,153.701C225.298,153.435 225.104,153.888 225.088,153.926C224.739,154.741 224.185,155.513 223.931,155.965C223.715,156.348 223.76,156.536 223.335,156.433C223.188,156.397 223.228,156.347 222.443,155.11C222.194,154.716 221.946,154.209 221.906,154.129C221.733,153.774 221.795,153.702 221.608,153.667C221.377,153.624 221.353,153.682 221.329,153.914C221.3,154.192 221.424,154.191 221.4,157.405C221.399,157.457 221.396,157.908 221.254,158.037C221.18,158.105 220.596,158.357 220.515,157.666C220.505,157.584 220.513,152.513 220.516,152.426C220.519,152.375 220.537,151.965 220.845,151.885C221.343,151.757 221.593,152.109 221.632,152.164C221.658,152.2 221.654,152.199 221.932,152.633ZM157.146,139.744C157.36,138.977 157.358,138.981 157.644,138.235C158.237,136.685 158.221,136.681 158.274,136.547C159.118,134.413 159.094,133.954 159.702,133.927C160.386,133.897 160.401,134.557 160.571,134.988C160.643,135.17 161.263,136.741 161.452,137.268C162.038,138.904 162.063,138.894 162.112,139.036C162.318,139.636 162.465,139.904 162.282,140.089C162.15,140.223 162.136,140.216 161.95,140.191C161.541,140.135 161.414,139.605 161.384,139.531C161.051,138.702 160.847,138.848 159.956,138.848C158.582,138.849 158.37,138.718 158.106,139.47C157.843,140.22 157.698,140.145 157.238,140.187L157.171,140.058L157.146,139.744ZM159.876,135.364C159.777,135.366 159.797,135.427 159.696,135.43C159.543,135.433 159.568,135.365 159.557,135.371C159.548,135.376 159.385,135.848 159.32,136.064C158.872,137.562 158.643,137.601 158.872,137.841C159.094,138.074 159.138,137.972 159.459,137.972C159.916,137.971 160.624,138.056 160.663,137.759C160.689,137.559 160.662,137.561 159.876,135.364ZM152.595,152.642C153.214,154.262 153.178,154.269 153.809,155.886C154.583,157.871 154.539,157.934 154.408,158.057C154.204,158.247 153.72,158.09 153.609,157.841C153.294,157.132 153.517,156.805 152.742,156.752C152.726,156.751 151.062,156.75 151.01,156.752C150.021,156.777 150.276,157.884 149.744,158.102C148.954,158.425 149.27,157.475 149.291,157.413C149.629,156.399 149.881,155.927 150.57,153.946C150.758,153.406 151.073,152.59 151.119,152.472C151.14,152.417 151.269,151.912 151.747,151.872C152.35,151.821 152.51,152.449 152.595,152.642ZM152.545,154.899C152.311,154.319 152.339,154.314 152.153,153.715C152.041,153.355 152.035,153.158 151.711,153.346C151.533,153.45 151.584,153.489 151.533,153.689C151.344,154.426 150.69,155.613 151.041,155.862C151.071,155.883 151.09,155.939 152.25,155.924C152.97,155.915 152.798,155.573 152.545,154.899ZM156.462,140.195C156.332,140.179 155.938,140.297 155.725,139.757C155.518,139.231 155.57,138.854 154.734,138.848C152.862,138.836 152.637,138.817 152.444,139.231C152.326,139.484 152.241,140.149 151.749,140.193C151.342,140.23 151.317,139.849 151.338,139.774C151.401,139.54 151.756,138.627 151.795,138.528C153.342,134.557 153.335,134.085 153.712,133.962C154.326,133.762 154.529,134.185 154.56,134.249C154.674,134.485 156.446,139.227 156.513,139.491C156.534,139.574 156.525,139.664 156.558,139.743C156.571,139.775 156.645,139.769 156.643,139.803C156.641,139.838 156.63,139.832 156.462,140.195ZM153.99,135.5C153.927,135.514 153.901,135.365 153.837,135.379C153.803,135.386 153.315,136.896 153.264,137.029C153.081,137.509 152.993,137.498 153.055,137.753C153.107,137.969 153.456,137.975 153.495,137.976C153.593,137.977 154.614,137.994 154.717,137.959C154.741,137.951 154.919,137.773 154.924,137.753C154.967,137.573 154.923,137.57 154.208,135.552L153.99,135.5ZM198.114,147.413C198.202,147.158 198.783,145.472 199.276,144.248C199.53,143.618 199.578,142.942 200.227,142.94C200.636,142.938 200.83,143.125 201.144,144.008C201.704,145.577 201.724,145.567 201.771,145.703C202.134,146.746 202.879,148.654 202.889,148.717C202.961,149.169 202.515,149.132 202.468,149.128C201.912,149.081 201.859,148.23 201.674,147.992C201.531,147.809 201.501,147.755 199.482,147.776C198.728,147.784 198.822,148.026 198.507,148.714C198.223,149.333 197.684,149.128 197.612,148.924C197.541,148.722 198.063,147.53 198.114,147.413ZM200.886,145.756C200.709,145.273 200.709,145.276 200.695,145.234C200.441,144.458 200.555,144.29 200.229,144.297C200.057,144.3 200.05,144.327 200.004,144.493C199.412,146.587 199.077,146.701 199.481,146.964C199.579,147.028 200.627,146.996 200.726,146.993C201.546,146.968 201.035,146.144 200.886,145.756ZM91.934,160.885C91.903,159.273 91.923,158.599 91.929,158.4C91.95,157.687 92.212,157.687 93.582,157.712C94.474,157.728 95.482,158.286 95.486,159.394C95.492,160.734 94.297,160.658 94.715,161.432C95.448,162.791 95.528,162.748 95.56,162.878C95.571,162.925 95.711,163.5 95.043,163.2C94.71,163.05 93.908,161.372 93.743,161.232C93.573,161.089 93.011,161.074 92.835,161.128C92.489,161.234 92.589,162.06 92.583,162.625C92.582,162.686 92.574,163.446 92.056,163.172C91.868,163.073 91.905,162.226 91.934,160.885ZM93.839,160.444C93.917,160.416 94.002,160.416 94.08,160.389C94.778,160.146 94.928,159.166 94.489,158.735C94.131,158.384 92.795,158.274 92.629,158.667C92.557,158.839 92.58,160.023 92.604,160.135C92.694,160.558 93.43,160.443 93.839,160.444ZM247.956,156.284C247.892,156.283 246.796,156.242 246.679,156.378C246.327,156.785 247.615,157.886 248.676,157.353C248.714,157.334 249.332,156.895 249.632,157.019C250.031,157.182 249.697,157.59 249.666,157.628C248.861,158.612 246.108,158.554 245.675,156.42C245.289,154.52 247.033,153.101 248.708,153.657C250.047,154.1 250.474,156.02 249.977,156.22C249.812,156.287 248.676,156.283 247.956,156.284ZM247.956,155.543C248.038,155.542 248.974,155.528 248.988,155.525C249.861,155.346 248.404,153.793 247.248,154.489C247.172,154.535 246.276,155.074 246.679,155.451C246.821,155.583 247.818,155.544 247.956,155.543ZM215.142,156.284C214.029,156.275 213.935,156.262 213.851,156.354C213.631,156.594 213.709,156.647 213.92,156.893C214.365,157.413 215.21,157.673 215.858,157.345C215.867,157.34 216.508,156.895 216.811,157.028C216.927,157.078 217.048,157.401 216.845,157.622C215.684,158.884 212.415,158.296 212.852,155.408C213.223,152.951 217.11,152.846 217.345,155.668C217.403,156.374 217.093,156.261 216.384,156.272C215.759,156.281 215.764,156.283 215.142,156.284ZM215.142,155.543C215.225,155.542 216.131,155.528 216.178,155.516C216.881,155.34 215.842,153.979 214.632,154.39C214.338,154.49 213.471,155.073 213.852,155.475C213.937,155.566 214.08,155.55 215.142,155.543ZM198.238,156.284C197.096,156.275 197.025,156.264 196.945,156.349C196.715,156.59 196.795,156.646 197.011,156.896C197.326,157.261 198.115,157.741 198.951,157.339C199.58,157.037 199.579,156.881 199.904,157.031C200.018,157.083 200.132,157.405 199.937,157.618C198.794,158.869 195.503,158.323 195.938,155.406C196.3,152.98 200.195,152.812 200.418,155.669C200.473,156.364 200.176,156.261 199.48,156.272C198.858,156.281 198.864,156.283 198.238,156.284ZM198.238,155.543C199.196,155.528 199.195,155.535 199.275,155.514C199.88,155.355 199.107,154.168 197.974,154.33C197.419,154.409 196.555,155.081 196.946,155.48C197.031,155.567 197.063,155.546 198.238,155.543ZM192.775,144.61C193.262,144.673 193.283,144.598 193.708,144.835C194.813,145.449 195.196,147.109 194.526,147.27C194.352,147.312 191.999,147.307 191.779,147.307C190.566,147.304 191.762,148.715 193.02,148.471C193.639,148.351 193.849,147.939 194.234,148.022C194.41,148.061 194.608,148.38 194.405,148.623C193.908,149.214 192.419,149.632 191.318,148.888C189.637,147.752 190.101,144.69 192.515,144.61C192.601,144.607 192.688,144.613 192.775,144.61ZM191.579,145.774C191.518,145.863 191.429,145.931 191.368,146.021C191.091,146.427 191.268,146.567 191.762,146.579C193.808,146.63 193.851,146.586 193.924,146.429C194.102,146.047 193.229,145.042 192.027,145.483C191.892,145.533 191.85,145.561 191.835,145.57C191.697,145.66 191.72,145.682 191.579,145.774ZM209.552,146.965C209.582,146.485 209.577,146.488 209.584,146.447C210.006,144.164 213.435,143.911 213.993,146.193C214.258,147.275 213.854,147.275 213.402,147.286C212.161,147.315 212.165,147.286 210.925,147.305C210.202,147.315 210.562,148.161 211.426,148.413C212.555,148.744 212.96,147.995 213.391,148.018C213.799,148.039 213.724,148.431 213.716,148.475C213.688,148.623 213.381,148.847 213.346,148.873C212.329,149.617 210.518,149.334 209.913,148.212C209.435,147.325 209.559,147.039 209.552,146.965ZM210.896,145.699C210.669,145.947 210.599,145.905 210.514,146.234C210.435,146.54 210.85,146.574 210.891,146.577C211.166,146.599 211.422,146.538 212.654,146.593C213.682,146.64 212.986,145.76 212.609,145.551C212.559,145.523 212.311,145.386 211.912,145.378C211.367,145.366 211.383,145.448 210.896,145.699ZM110.618,158.649C110.625,158.165 110.619,158.167 110.625,158.126C110.686,157.758 110.941,157.75 110.982,157.748C111.31,157.738 111.842,158.545 111.849,158.553C112.5,159.278 112.448,159.316 113.034,160.094C113.763,161.061 113.888,161.287 113.949,161.399C113.971,161.44 114.548,162.253 114.471,161.134C114.465,161.051 114.456,160.968 114.451,160.885C114.424,160.452 114.436,158.201 114.444,158.148C114.452,158.094 114.529,157.58 115.019,157.798C115.301,157.924 115.224,158.893 115.224,158.897C115.225,163.001 115.249,163.102 114.996,163.191C114.458,163.382 114.057,162.661 113.884,162.433C112.359,160.42 112.045,159.933 111.899,159.706C111.486,159.066 111.349,159.184 111.303,159.224C111.207,159.307 111.315,160.669 111.288,162.627C111.287,162.683 111.28,163.218 110.972,163.253C110.591,163.297 110.586,162.683 110.586,162.624C110.564,159.957 110.605,158.967 110.618,158.649ZM164.266,136.988C164.52,137.731 164.511,137.73 164.731,138.483C164.781,138.656 164.764,138.701 164.941,138.716C165.244,138.742 165.178,138.608 165.273,138.319C165.38,137.995 166.411,134.865 166.674,134.29C166.893,133.811 167.381,133.886 167.458,133.979C167.597,134.145 167.578,134.249 167.573,134.274C167.522,134.547 166.461,137.389 166.171,138.264C166.131,138.383 166.12,138.377 165.628,139.738C165.395,140.385 164.618,140.299 164.379,139.779C164.237,139.469 164.216,139.423 162.919,135.785C162.748,135.304 162.658,134.949 162.481,134.519C162.12,133.649 163.053,133.947 163.171,134.056C163.334,134.206 163.644,135.317 164.266,136.988ZM1.025,160.381C1.053,160.747 0.979,161.892 2.39,162.55C4.003,163.303 5.528,161.234 4.613,161.059C4.572,161.051 3.754,161.106 3.641,160.861C3.506,160.569 3.829,160.459 3.864,160.447C3.965,160.413 5.201,160.372 5.404,160.526C5.639,160.704 5.69,160.902 5.53,161.617C4.991,164.028 1.293,163.816 0.523,161.665C-0.624,158.461 2.868,156.549 4.918,158.313C4.957,158.347 5.341,158.678 5.123,158.932C4.908,159.182 4.461,158.836 4.415,158.8C4.285,158.699 3.476,158.071 2.379,158.48C1.157,158.936 1.099,160.01 1.025,160.381ZM74.337,160.388C74.314,159.896 74.303,158.988 74.313,158.648C74.333,157.943 74.436,157.829 74.706,157.739C74.814,157.703 77.069,157.705 77.169,157.715C77.218,157.719 77.725,157.769 77.548,158.205C77.374,158.635 75.602,158.298 75.251,158.5C74.962,158.666 75.047,159.788 75.168,159.908C75.361,160.1 76.251,160.045 76.68,160.048C76.748,160.048 77.644,160.054 77.342,160.584C77.136,160.945 75.425,160.64 75.181,160.879C75,161.057 75.058,162.25 75.125,162.413C75.275,162.776 76.671,162.582 77.175,162.634C77.791,162.697 77.606,163.189 77.388,163.252C77.251,163.291 74.924,163.304 74.659,163.225C74.291,163.116 74.297,162.989 74.337,160.388ZM172.274,147.204C172.297,145.611 172.27,145.457 172.284,145.213C172.326,144.49 172.985,144.668 173.087,144.992C173.17,145.257 173.157,145.26 173.135,148.456C173.129,149.36 172.625,149.097 172.352,149.026C171.686,148.851 171.357,149.538 170.39,149.219C169.111,148.796 169.158,147.594 169.151,147.462C169.136,147.188 169.144,145.355 169.151,145.224C169.189,144.541 169.714,144.705 169.826,144.808C170.13,145.089 169.855,147.045 170.033,147.743C170.189,148.357 170.801,148.588 171.384,148.427C172.277,148.181 172.25,147.339 172.274,147.204ZM154.863,147.959C154.835,146.578 154.85,146.579 154.842,146.46C154.834,146.323 154.761,145.132 153.482,145.418C152.065,145.735 152.634,147.856 152.51,148.706C152.438,149.203 151.954,149.188 151.76,148.948C151.684,148.855 151.679,148.497 151.679,148.457C151.675,148.198 151.642,145.987 151.685,145.217C151.688,145.17 151.709,144.772 151.999,144.718C152.368,144.648 152.46,145.076 153.024,144.799C153.606,144.514 155.608,144.237 155.672,146.469C155.744,148.969 155.636,149.018 155.439,149.093C154.689,149.379 154.861,148.047 154.863,147.959ZM155.885,155.168C155.888,156.053 155.754,156.89 156.505,157.353C156.867,157.576 158.241,157.641 158.276,155.915C158.295,154.985 158.22,154.047 158.362,153.853C158.566,153.574 159.029,153.498 159.112,154.179C159.115,154.203 159.112,157.146 159.112,157.404C159.11,158.689 158.414,157.879 157.979,157.943C157.915,157.952 157.139,158.45 156.228,158.147C155.169,157.796 155.131,156.578 155.126,156.414C155.119,156.212 155.057,154.21 155.171,153.893C155.186,153.85 155.326,153.461 155.707,153.712C155.947,153.87 155.884,154.961 155.885,155.168ZM183.451,155.416C183.451,154.959 183.437,154.044 183.494,153.885C183.531,153.78 183.866,153.438 184.171,153.851C184.318,154.05 184.242,155.029 184.26,156.163C184.284,157.664 185.478,157.668 186.089,157.198C186.857,156.607 186.552,155.753 186.611,154.177C186.635,153.532 187.338,153.411 187.399,154.163C187.407,154.261 187.394,157.664 187.394,157.666C187.39,157.723 187.352,158.296 186.823,158.093C186.723,158.055 186.642,157.974 186.541,157.941C186.219,157.838 186.036,158.209 185.316,158.241C183.11,158.341 183.445,155.757 183.451,155.416ZM241.637,156.908C241.637,156.909 241.703,157.933 241.452,158.088C240.88,158.441 240.874,157.478 240.874,157.407C240.872,157.149 240.855,154.271 240.865,154.18C240.873,154.12 240.952,153.449 241.471,153.72C241.512,153.742 241.528,153.795 241.566,153.822C242.002,154.13 242.007,153.619 242.979,153.562C244.062,153.498 244.822,154.215 244.844,155.412C244.886,157.65 244.929,158.126 244.475,158.147C244.06,158.166 244.038,157.702 244.036,157.649C243.976,156.377 244.391,154.371 242.989,154.323C242.579,154.309 241.763,154.572 241.654,155.654C241.624,155.955 241.641,155.95 241.637,156.908ZM216.392,144.611C216.563,144.637 216.871,144.595 217.406,144.941C217.976,145.311 217.656,146.092 216.962,145.608C216.03,144.958 215.127,145.771 215.821,146.304C216.186,146.584 218.028,146.728 218.002,147.957C217.986,148.702 216.856,149.908 215.144,148.95C214.28,148.468 214.812,147.779 215.322,148.062C215.333,148.068 215.583,148.322 215.899,148.421C216.997,148.768 217.632,147.718 216.425,147.339C216.144,147.251 214.603,147.046 214.722,145.734C214.73,145.64 214.774,145.156 215.422,144.789C215.861,144.541 215.889,144.639 216.392,144.611ZM229.443,154.924C229.467,154.785 229.437,154.787 229.46,154.65C229.464,154.63 229.48,154.537 229.532,154.409C230.098,153.022 232.533,153.596 232.501,154.417C232.493,154.635 232.176,154.832 231.818,154.635C231.718,154.58 231.635,154.499 231.537,154.442C231,154.137 230.268,154.439 230.317,154.918C230.384,155.58 232.236,155.528 232.594,156.386C233.227,157.901 231.109,158.814 229.826,157.88C229.12,157.366 229.462,156.949 229.809,156.962C230.082,156.972 230.057,157.036 230.275,157.198C231.179,157.87 231.774,157.194 231.793,157.154C232.298,156.107 229.811,156.451 229.481,155.192C229.458,155.105 229.466,155.011 229.443,154.924ZM158.218,144.609C158.706,144.663 158.732,144.578 159.151,144.832C159.351,144.953 159.624,145.153 159.619,145.449C159.609,146.033 158.944,145.617 158.894,145.585C157.979,145.013 157.076,145.734 157.672,146.268C158.125,146.674 159.878,146.588 159.867,147.958C159.855,149.427 157.641,149.685 156.745,148.687C156.367,148.267 156.819,147.844 157.184,148.032C157.482,148.186 157.434,148.254 157.743,148.395C158.305,148.651 159.293,148.364 158.959,147.712C158.684,147.177 156.685,147.317 156.62,145.975C156.589,145.323 157.087,144.951 157.165,144.893C157.585,144.578 158.197,144.611 158.218,144.609ZM254.012,157.179C253.792,157.694 253.837,157.747 253.361,158.036C252.632,158.48 251.005,158.187 250.761,157.391C250.72,157.258 250.947,156.694 251.475,157.097C251.574,157.173 252.446,157.839 253.031,157.241C253.31,156.956 253.156,156.567 252.688,156.388C251.85,156.067 250.899,155.999 250.798,154.918C250.683,153.696 252.514,153.147 253.457,153.882C253.497,153.913 253.878,154.21 253.817,154.412C253.611,155.085 252.823,154.4 252.7,154.362C251.839,154.103 251.057,155.006 252.185,155.407C252.88,155.655 254.033,155.827 254.034,156.908C254.034,156.999 254.012,157.089 254.012,157.179ZM179.452,154.917C179.519,154.497 179.444,154.472 179.635,154.199C179.913,153.803 180.266,153.679 180.333,153.656C181.376,153.291 182.328,153.953 182.454,154.236C182.506,154.353 182.366,155.015 181.665,154.552C181.626,154.526 181.595,154.49 181.555,154.467C181.024,154.155 180.42,154.394 180.327,154.665C180.08,155.38 181.229,155.47 182.095,155.885C182.695,156.173 182.877,157.154 182.386,157.703C181.233,158.993 178.823,157.706 179.497,157.057C179.838,156.729 180.35,157.276 180.4,157.309C180.934,157.657 181.649,157.41 181.785,157.13C182.095,156.497 180.909,156.243 180.818,156.212C179.397,155.738 179.566,155.418 179.452,154.917ZM202.673,156.284C201.991,156.058 201.287,155.928 201.118,155.192C200.774,153.692 202.586,153.271 203.437,153.721C204.45,154.256 203.969,154.719 203.712,154.722C203.476,154.726 203.497,154.663 203.179,154.472C202.632,154.145 202.03,154.409 201.94,154.658C201.68,155.382 202.849,155.469 203.72,155.891C204.282,156.163 204.508,157.117 204.007,157.696C202.895,158.98 200.416,157.73 201.121,157.051C201.459,156.725 201.952,157.267 202.023,157.313C202.903,157.885 204.151,156.895 202.967,156.398C202.87,156.357 202.769,156.325 202.673,156.284ZM175.79,154.389C176.052,153.879 176.021,153.854 176.166,153.749C176.667,153.386 176.778,153.88 176.789,153.931C176.807,154.009 176.573,154.671 176.489,154.867C175.639,156.856 175.712,156.882 175.362,157.651C175.327,157.727 175.047,158.339 174.407,158.079C174.107,157.957 174.118,157.896 172.724,154.39C172.7,154.329 172.333,153.405 173.128,153.685C173.485,153.811 173.787,154.903 174.098,155.677C174.518,156.727 174.428,156.754 174.48,156.837C174.496,156.863 174.617,157.056 174.857,156.892C174.869,156.884 175.012,156.424 175.79,154.389ZM207.892,149.071C207.816,149.031 207.252,148.951 207.138,147.963C207.099,147.624 207.119,146.153 207.112,145.976C207.111,145.937 207.099,145.647 206.902,145.536C206.8,145.478 206.299,145.511 206.393,144.955C206.443,144.659 206.813,144.74 207.006,144.535C207.134,144.399 207.128,144.024 207.143,143.969C207.227,143.662 207.592,143.543 207.679,143.571C208.254,143.75 207.657,144.598 208.436,144.683C208.969,144.741 209.226,144.68 209.1,145.202C209.027,145.502 208.3,145.487 208.21,145.529C207.955,145.65 207.97,145.983 207.981,147.461C207.989,148.399 208.232,148.34 208.684,148.429C209.331,148.556 209.158,149.147 208.678,149.199C208.358,149.235 208.363,149.18 207.892,149.071ZM166.326,146.716C166.326,146.639 166.324,145.844 166.302,145.757C166.296,145.734 166.148,145.551 166.127,145.541C165.995,145.478 165.835,145.485 165.709,145.412C165.628,145.365 165.556,145.286 165.528,145.196C165.419,144.839 165.862,144.704 165.91,144.689C166.493,144.512 166.264,144.296 166.354,143.962C166.369,143.908 166.495,143.441 166.968,143.634C167.279,143.762 167.027,144.319 167.328,144.579C167.484,144.714 167.885,144.689 167.916,144.695C167.969,144.703 168.473,144.787 168.253,145.279C168.151,145.508 167.531,145.478 167.43,145.515C167.194,145.602 167.127,145.722 167.159,147.462C167.176,148.449 167.47,148.34 167.915,148.432C168.475,148.548 168.468,149.247 167.662,149.199C166.084,149.104 166.328,147.71 166.326,146.716ZM161.869,146.716C161.869,147.719 161.752,148.304 162.449,148.412C162.781,148.463 162.789,148.433 162.898,148.51C163.059,148.624 163.277,149.34 162.197,149.178C160.531,148.927 161.17,147.096 161.046,145.958C160.971,145.274 160.419,145.621 160.282,145.198C160.093,144.619 160.852,144.759 160.978,144.496C161.051,144.343 161.013,143.711 161.464,143.576C161.836,143.465 161.868,143.943 161.871,143.989C161.9,144.41 161.796,144.647 162.444,144.686C162.495,144.689 162.978,144.718 163.031,144.943C163.042,144.991 163.135,145.39 162.689,145.466C162.445,145.507 162.444,145.443 162.2,145.497C161.765,145.593 161.871,146.323 161.869,146.716ZM174.748,147.213C174.724,146.056 174.736,146.057 174.729,145.956C174.695,145.407 174.315,145.499 174.134,145.446C173.791,145.346 173.827,144.935 173.954,144.812C174.08,144.691 174.099,144.739 174.362,144.682C174.838,144.578 174.732,144.108 174.771,143.949C174.898,143.439 175.277,143.586 175.326,143.604C175.686,143.744 175.336,144.589 175.879,144.67C176.041,144.694 176.207,144.68 176.367,144.709C176.771,144.783 176.787,145.383 176.358,145.456C176.197,145.483 176.032,145.468 175.871,145.495C175.475,145.561 175.517,145.986 175.528,147.462C175.535,148.486 175.888,148.322 176.365,148.448C176.815,148.567 176.905,149.331 175.868,149.182C174.642,149.005 174.722,148.095 174.748,147.213ZM169.237,138.761C169.237,138.923 169.266,139.873 169.157,140.006C168.965,140.243 168.473,140.27 168.4,139.756C168.393,139.705 168.379,134.467 168.411,134.287C168.485,133.87 169.223,133.607 169.237,134.533L169.237,138.761ZM149.644,138.761C149.644,134.394 149.642,134.321 149.655,134.259C149.727,133.929 149.976,133.909 150.017,133.905C150.287,133.883 150.395,134.072 150.413,134.102C150.482,134.223 150.482,134.958 150.482,135.032C150.482,139.677 150.48,139.672 150.47,139.75C150.464,139.8 150.411,140.205 150.016,140.187C149.55,140.167 149.629,139.47 149.644,138.761ZM149.644,146.716C149.644,143.561 149.637,143.327 149.679,143.197C149.768,142.924 150.252,142.797 150.454,143.252C150.523,143.409 150.485,148.039 150.482,148.455C150.481,148.528 150.474,149.407 149.832,149.08C149.589,148.956 149.644,148.644 149.644,146.716ZM194.951,153.676C194.95,157.9 194.983,157.988 194.736,158.104C194.255,158.329 194.189,157.72 194.182,157.663C194.175,157.594 194.179,152.199 194.18,152.178C194.183,152.128 194.211,151.665 194.498,151.626C194.935,151.568 194.948,152.13 194.95,152.188C194.951,152.227 194.951,153.557 194.951,153.676ZM205.834,144.849C205.832,144.882 205.796,144.908 205.795,144.942C205.79,145.049 205.833,145.042 205.82,145.153C205.816,145.196 205.781,145.229 205.757,145.265C205.572,145.543 205.321,145.473 204.962,145.737C204.043,146.412 204.857,148.826 204.263,149.069C203.931,149.204 203.758,148.972 203.732,148.937C203.664,148.846 203.656,148.496 203.655,148.457C203.648,148.198 203.599,146.267 203.654,145.219C203.657,145.15 203.694,144.446 204.413,144.814C205.03,145.129 205.249,144.507 205.703,144.714C205.76,144.74 205.777,144.823 205.834,144.849ZM58.412,159.145C58.412,158.701 58.384,158.097 58.495,157.872C58.568,157.724 59.024,157.631 59.101,158.137C59.164,158.546 59.114,162.268 59.109,162.627C59.108,162.684 59.101,163.236 58.775,163.255C58.384,163.278 58.396,162.683 58.397,162.624C58.414,161.814 58.412,161.819 58.412,159.145ZM165.807,156.659C165.807,154.481 165.797,154.036 165.851,153.89C165.948,153.621 166.606,153.466 166.661,154.174C166.663,154.198 166.664,157.606 166.66,157.653C166.654,157.708 166.609,158.181 166.171,158.145C165.714,158.108 165.793,157.371 165.807,156.659ZM178.403,155.913C178.402,157.398 178.479,158.047 178.097,158.13C177.601,158.237 177.565,157.715 177.561,157.658C177.558,157.611 177.55,154.373 177.569,154.17C177.645,153.363 178.261,153.76 178.266,153.764C178.437,153.929 178.402,154.392 178.403,155.913ZM228.421,155.913C228.421,157.425 228.463,157.918 228.255,158.068C228.07,158.201 227.624,158.168 227.594,157.652C227.589,157.565 227.59,154.243 227.593,154.175C227.621,153.569 228.126,153.63 228.266,153.739C228.46,153.888 228.421,154.37 228.421,155.913ZM234.388,154.671C234.382,157.788 234.463,158.106 234.034,158.144C233.607,158.182 233.585,157.703 233.583,157.65C233.571,157.385 233.579,154.68 233.58,154.422C233.58,154.336 233.556,153.99 233.675,153.836C233.703,153.8 233.93,153.505 234.232,153.741C234.447,153.908 234.345,153.96 234.388,154.671ZM164.746,147.213C164.746,148.085 164.77,148.819 164.669,148.947C164.483,149.181 164.005,149.213 163.936,148.704C163.922,148.605 163.929,145.291 163.932,145.224C163.968,144.515 164.598,144.659 164.697,144.968C164.756,145.151 164.746,146.06 164.746,147.213ZM165.895,152.709C165.872,152.546 165.781,152.584 165.758,152.422C165.754,152.398 165.742,152.31 165.814,152.128C165.959,151.758 166.609,151.821 166.711,152.167C166.845,152.621 166.402,152.889 166.183,152.837C166.08,152.813 165.997,152.733 165.895,152.709ZM228.347,152.712C228.244,152.736 228.16,152.815 228.057,152.839C227.681,152.926 227.316,152.342 227.64,152.002C227.846,151.786 228.322,151.851 228.429,152.126C228.501,152.309 228.489,152.398 228.485,152.422C228.462,152.586 228.37,152.548 228.347,152.712ZM233.467,152.447C233.495,152.357 233.466,152.256 233.494,152.166C233.574,151.905 234.07,151.781 234.266,151.958C234.577,152.239 234.411,152.789 234.024,152.837C233.742,152.871 233.594,152.687 233.569,152.657C233.52,152.596 233.516,152.507 233.467,152.447ZM177.491,152.457C177.523,152.357 177.491,152.245 177.522,152.145C177.628,151.807 178.305,151.779 178.419,152.156C178.6,152.752 177.922,153.005 177.599,152.688C177.538,152.628 177.552,152.517 177.491,152.457ZM164.452,143.828C164.355,143.801 164.247,143.837 164.15,143.81C163.713,143.686 163.82,142.813 164.444,142.92C164.727,142.969 164.956,143.441 164.671,143.724C164.613,143.781 164.509,143.771 164.452,143.828Z"/>
            </g>
        </g>
    </g>
</svg>
