<?xml version="1.0" encoding="UTF-8" standalone="no"?>
<!DOCTYPE svg PUBLIC "-//W3C//DTD SVG 1.1//EN" "http://www.w3.org/Graphics/SVG/1.1/DTD/svg11.dtd">
<svg width="100%" height="100%" viewBox="0 0 100 100" version="1.1" xmlns="http://www.w3.org/2000/svg" xmlns:xlink="http://www.w3.org/1999/xlink" xml:space="preserve" xmlns:serif="http://www.serif.com/" style="fill-rule:evenodd;clip-rule:evenodd;stroke-linejoin:round;stroke-miterlimit:2;">
    <g transform="matrix(1,0,0,1,-3410.14,-390.118)">
        <g transform="matrix(1,0,0,1,2126.17,0)">
            <g transform="matrix(2.00044,0,0,2.00044,485.479,178.528)">
                <path d="M448.982,130.758C448.982,132.808 449.037,132.841 448.874,133.81C448.797,134.269 448.823,134.271 448.734,134.73C448.711,134.846 448.68,135.263 448.633,135.504C448.556,135.904 448.485,136.097 448.246,137.168C448.019,138.185 446.976,141.032 446.36,142.1C446.314,142.18 446.338,142.192 445.814,143.123C443.047,148.038 439.092,150.769 439.006,150.835C437.554,151.955 435.561,153.053 434.395,153.563C432.86,154.235 430.919,155.051 427.507,155.552C427.426,155.564 426.101,155.703 425.979,155.716C425.384,155.779 424.343,155.724 423.223,155.76C422.719,155.776 420.53,155.548 419.851,155.414C418.49,155.146 414.764,154.494 410.52,151.724C403.731,147.293 401.351,140.956 401.049,140.24C400.184,138.181 399.807,136.297 399.737,135.945C399.66,135.562 399.637,135.569 399.58,135.184C399.489,134.574 399.485,134.577 399.416,133.964C399.399,133.81 399.32,133.451 399.307,133.211C399.205,131.286 399.057,131.285 399.256,129.08C399.319,128.39 399.284,128.389 399.397,127.704C399.406,127.651 399.47,126.981 399.505,126.78C399.586,126.323 399.708,125.472 400.192,123.741C400.278,123.431 400.826,121.747 401.111,121.151C401.117,121.139 401.913,119.124 403.144,117.271C403.993,115.992 403.992,115.993 404.952,114.796C406.237,113.196 407.805,111.865 408.077,111.635C413.896,106.696 420.072,106.108 420.925,105.961C422.175,105.747 424.447,105.771 424.753,105.774C425.439,105.782 428.778,105.846 432.546,107.223C434.254,107.847 438.785,109.576 443.036,114.455C444.339,115.951 445.352,117.633 445.528,117.926C446.885,120.18 447.52,122.105 447.67,122.508C447.802,122.862 448.022,123.612 448.051,123.708C448.23,124.317 448.234,124.313 448.368,124.933C448.484,125.477 448.522,125.466 448.63,126.014C448.633,126.025 448.813,127.362 448.927,128.003C448.974,128.266 448.982,128.415 448.982,130.758ZM423.914,120.82C423.851,120.352 423.828,120.358 423.754,119.891C423.443,117.915 421.534,115.635 418.618,114.762C417.074,114.299 415.329,114.519 414.659,114.699C410.88,115.713 409.665,118.688 409.657,118.702C409.433,119.094 409.141,120.064 409.101,120.508C408.957,122.121 409.256,123.05 410.233,124.023C412.529,126.308 417.631,126.231 419.263,127.061C419.771,127.32 419.216,128.13 419.164,128.206C418.848,128.667 418.77,128.714 418.374,128.987C416.717,130.13 415.199,129.411 414.623,128.974C413.293,127.966 413.835,127.383 413.267,127.141C412.953,127.008 409.469,126.957 409.17,127.404C408.939,127.752 409.405,129.898 410.822,131.385C411.774,132.385 412.387,132.669 412.937,132.975C414.69,133.952 417.035,134.147 418.932,133.484C420.875,132.804 421.988,131.796 422.818,130.643C424.447,128.383 423.992,126.163 423.633,125.43C423.397,124.95 422.601,123.69 420.293,122.88C418.987,122.423 415.841,121.973 414.368,121.539C413.695,121.34 413.457,121.204 413.558,120.81C413.918,119.399 416.073,118.163 417.844,119.041C419.614,119.918 419.28,120.905 419.663,121.191C419.977,121.425 423.061,121.334 423.378,121.296C423.971,121.224 423.865,121.031 423.914,120.82ZM419.553,138.948C420.191,138.786 422.264,138.149 422.319,138.121C422.522,138.017 422.488,137.827 422.488,136.416C422.487,135.889 422.526,135.712 421.999,135.703C421.816,135.7 419.898,135.665 419.716,135.71C419.413,135.784 419.422,135.975 419.42,136.263C419.41,138.185 419.471,138.182 419.553,138.948ZM428.807,132.428C428.808,132.423 428.824,132.222 428.906,131.992C429.019,131.676 429.278,131.757 429.798,131.757L434.386,131.757C434.962,131.761 434.826,132.003 434.99,132.595C435.182,133.286 435.182,133.746 435.431,133.86C435.787,134.023 438.51,134.018 439.126,133.987C439.769,133.955 439.987,133.969 439.874,133.514C439.816,133.281 439.823,133.283 439.781,133.043C439.591,131.947 437.143,122.062 436.822,120.822C436.42,119.267 436.431,119.266 436.394,119.131C436.25,118.593 436.26,118.592 436.118,118.054C435.752,116.669 435.756,116.669 435.722,116.549C435.308,115.088 435.309,114.766 435.006,114.673C434.725,114.586 432.21,114.582 431.48,114.588C428.719,114.607 428.682,114.637 428.532,114.827C428.336,115.076 427.2,119.755 427.061,120.213C426.856,120.887 426.934,120.905 426.716,121.576C426.583,121.985 426.541,122.418 426.424,122.804C426.274,123.295 426.153,123.949 426.131,124.031C425.677,125.714 425.724,125.724 425.68,125.869C425.538,126.327 425.105,128.261 425.091,128.32C424.413,131.087 424.463,131.097 424.325,131.684C424.112,132.59 424.115,132.589 423.95,133.504C423.902,133.772 423.898,133.825 424.154,133.921C424.277,133.968 426.178,134.044 427.961,133.934C428.627,133.893 428.555,133.631 428.807,132.428ZM431.918,120.098L432.035,120.226C432.039,120.27 432.011,120.264 432.015,120.309C432.016,120.333 432.041,120.35 432.047,120.373C432.071,120.471 432.204,120.997 432.324,121.597C432.413,122.039 432.453,122.064 432.596,122.643C433.501,126.321 433.503,126.32 433.574,126.642C433.651,126.998 433.944,127.499 433.314,127.473C432.779,127.451 432.782,127.462 432.244,127.462C430.42,127.462 430.42,127.501 430.263,127.476C430.239,127.472 430.059,127.444 430.053,127.243C430.053,127.237 431.295,122.118 431.318,122.04C431.478,121.504 431.687,120.382 431.755,120.179C431.815,119.999 431.888,120.113 431.918,120.098ZM419.236,139.001C419.226,138.955 419.253,138.905 419.243,138.859C419.23,138.803 419.186,138.758 419.17,138.702C419.063,138.323 419.31,137.505 417.389,136.302C415.915,135.38 413.186,135.099 411.107,136.671C410.726,136.959 410.406,137.177 409.869,137.909C407.092,141.7 409.787,147.132 414.659,147.061C416.538,147.033 417.507,146.196 417.701,146.029C417.934,145.827 418.864,144.932 419.077,144.205C419.134,144.011 419.14,143.909 419.179,143.778C419.196,143.724 419.257,143.669 419.234,143.617C419.187,143.51 417.574,143.138 417.106,142.994C416.508,142.811 416.557,143.09 416.135,143.376C415.666,143.694 414.609,144.329 413.267,143.634C413.04,143.516 412.482,143.125 412.195,142.542C411.529,141.194 412.064,140.267 412.364,139.778C412.763,139.126 414.557,137.761 416.459,139.514C416.757,139.789 416.862,139.651 417.711,139.446C417.82,139.42 418.896,139.16 419.067,139.097C419.128,139.074 419.176,139.023 419.236,139.001ZM422.835,141.92C422.835,143.297 422.819,143.296 422.861,144.673C422.882,145.368 422.815,146.526 422.926,146.652C423.028,146.77 423.22,146.75 425.058,146.75C425.521,146.75 425.862,146.825 425.893,146.359C425.896,146.314 425.896,141.618 425.893,141.462C425.877,140.81 425.772,140.693 425.975,140.697C426.161,140.701 426.114,140.777 426.19,140.948C426.235,141.05 426.227,141.054 427.884,144.021C428.121,144.445 428.13,144.436 428.365,144.857C429.292,146.526 429.341,146.627 429.477,146.688C429.574,146.731 429.577,146.756 431.938,146.75C432.371,146.749 432.449,146.72 432.473,146.362C432.486,146.182 432.483,146.182 432.483,136.722C432.483,136.432 432.508,135.919 432.405,135.796C432.309,135.682 431.93,135.702 430.41,135.702C430.086,135.702 429.651,135.667 429.505,135.816C429.42,135.903 429.424,135.923 429.425,139.933C429.425,140.655 429.459,140.651 429.467,140.998C429.471,141.127 429.468,141.161 429.339,141.158C429.16,141.154 429.203,141.083 429.118,140.924C428.862,140.444 427.362,138.065 427.264,137.905C426.081,135.976 426.095,135.965 425.953,135.828C425.797,135.679 425.692,135.702 423.682,135.702C423.343,135.702 422.93,135.643 422.873,135.945C422.853,136.046 422.851,141.465 422.835,141.92ZM436.679,138.34C439.439,138.34 439.449,138.351 439.6,138.273C439.767,138.186 439.738,137.889 439.738,136.569C439.738,136.464 439.779,135.868 439.606,135.776C439.448,135.691 439.437,135.702 435.914,135.702C433.05,135.702 432.995,135.679 432.904,135.844C432.832,135.973 432.871,135.987 432.866,146.049C432.866,146.555 432.81,146.732 433.316,146.75L439.277,146.75C439.832,146.74 439.738,146.424 439.738,145.59C439.738,144.43 439.804,144.199 439.424,144.12C439.286,144.092 436.239,144.158 436.057,144.08C435.902,144.014 435.916,143.731 435.922,142.991C435.926,142.435 436.164,142.538 436.984,142.538C438.969,142.538 439.132,142.574 439.206,142.35C439.256,142.202 439.256,142.201 439.234,140.392C439.228,139.86 439.048,139.899 438.514,139.898C436.215,139.892 436.05,139.946 435.958,139.758C435.909,139.657 435.889,138.574 435.973,138.446C436.067,138.303 436.567,138.341 436.679,138.34ZM421.847,146.75C421.898,146.748 421.948,146.752 421.999,146.75C422.442,146.729 422.485,146.645 422.488,146.202C422.497,144.626 422.484,144.582 422.318,144.498C422.302,144.49 419.605,143.659 419.542,143.713C419.498,143.751 419.534,143.829 419.522,143.886C419.509,143.943 419.477,143.995 419.466,144.053C419.435,144.207 419.362,146.419 419.474,146.612C419.569,146.776 419.671,146.75 421.847,146.75Z"/>
            </g>
        </g>
    </g>
</svg>
